<svg xmlns="http://www.w3.org/2000/svg" viewBox="0 0 176.46 96.65">
  <title>MezzCap Black</title>
  <g id="Layer_2" data-name="Layer 2">
    <g id="Layer_1-2" data-name="Layer 1">
      <g>
        <path d="M176.46,0H70.74L53.8,35.58l6,12.7,10.9-22.9V71.22L59.87,48.33l0-.05,0,.05h0v0l-6-12.7,0,0L36.9,0H24.15V48.33H36.9V26.46L47.45,48.33l.14.29L43.27,57.7a24.06,24.06,0,0,0-2-2.3l-8.49,8.54a12,12,0,0,1,3.52,8.42l0,.1,12.08,0,5.35-11.26L59.1,72.5l5.83,12.07,5.81,12.08H82.82V84.58h14.9v.14a18.17,18.17,0,0,0,.2-36.24v-.16h78.52V36.24H155.3l21.1-24.16h.05V12h0ZM103.78,66.55a6.05,6.05,0,0,1-5.86,6v-.1H82.82V60.41h14.9v.08A6.06,6.06,0,0,1,103.78,66.55Zm-21-30.31v-6h9.76l10.52-12.08H82.82v-6H119L97.93,36.22v0Zm54.36,0v0H116l21.1-24.16h21.14Z"/>
        <path d="M48.32,72.5a24,24,0,0,1-3.24,12.11H64.93L59.1,72.5H48.32Z"/>
        <path d="M7.07,89.56,15.6,81A12.07,12.07,0,0,1,32.67,63.94l8.54-8.53A24.16,24.16,0,0,0,7,55.41h0A24.16,24.16,0,0,0,7.07,89.56Z"/>
        <path d="M15.61,81,7.07,89.58a24.16,24.16,0,0,0,34.16,0L32.68,81A12.11,12.11,0,0,1,15.61,81Z"/>
      </g>
    </g>
  </g>
</svg>
