<svg id="Layer_1" data-name="Layer 1" xmlns="http://www.w3.org/2000/svg" viewBox="0 0 273.57 73.21"><title>3</title><path d="M130.16.92a19.79,19.79,0,0,0-6-.92h-18a31.62,31.62,0,0,0-5.66,11.3h19A20.69,20.69,0,0,1,130.16.92Z"/><path d="M132.28,38.68a19.71,19.71,0,0,0,6,.92H156a31.71,31.71,0,0,0,5.87-11.3h-19A20.61,20.61,0,0,1,132.28,38.68Z"/><path d="M138.26,0a19.77,19.77,0,0,0-6,.92c-.36.12-.71.24-1.06.38a19.87,19.87,0,0,0-10.85,10c-.12.25-.22.5-.33.75a19.86,19.86,0,0,0,0,15.5h4.19a7.74,7.74,0,0,0,6.55-3.64,8.45,8.45,0,0,1,0-8.23c.13-.24.28-.48.44-.71a8.49,8.49,0,0,1,7-3.67H162A31.75,31.75,0,0,0,156.31,0h-18Z"/><path d="M169.67,73.18a13.45,13.45,0,0,1-5.43-1.08,13.28,13.28,0,0,1-4.3-3,13.41,13.41,0,0,1-2.85-4.44,14.62,14.62,0,0,1-1-5.47v-.08a14.45,14.45,0,0,1,1-5.43,13.92,13.92,0,0,1,2.85-4.48,13.33,13.33,0,0,1,4.34-3,13.59,13.59,0,0,1,5.5-1.11,17,17,0,0,1,3.36.31,13.94,13.94,0,0,1,2.77.87,12.82,12.82,0,0,1,2.37,1.36,19.54,19.54,0,0,1,2.09,1.77l-2.09,2.25A17.19,17.19,0,0,0,174.54,49a11.15,11.15,0,0,0-9-.2,10.4,10.4,0,0,0-3.34,2.37A10.79,10.79,0,0,0,160,54.7a11.81,11.81,0,0,0-.79,4.36v.07a11.88,11.88,0,0,0,.79,4.4,10.74,10.74,0,0,0,2.21,3.55,10.45,10.45,0,0,0,3.34,2.39,9.93,9.93,0,0,0,4.17.87,10.45,10.45,0,0,0,4.81-1,16.64,16.64,0,0,0,4-2.89l2,2a18.81,18.81,0,0,1-2.19,2,13.93,13.93,0,0,1-2.46,1.5,14.11,14.11,0,0,1-2.83,1A15.18,15.18,0,0,1,169.67,73.18Z"/><path d="M181.49,45.56h11.65a12.93,12.93,0,0,1,4.47.72,8.77,8.77,0,0,1,3.24,2,6.88,6.88,0,0,1,1.54,2.36,7.73,7.73,0,0,1,.55,3v.08a7.81,7.81,0,0,1-.55,3A6.81,6.81,0,0,1,200.86,59a8.44,8.44,0,0,1-2.34,1.62,11,11,0,0,1-2.94.91l8.32,11.07h-3.75l-7.86-10.52h-7.74V72.65h-3.06Zm11.4,13.82a9.42,9.42,0,0,0,2.8-.39,6.66,6.66,0,0,0,2.21-1.1,5,5,0,0,0,2-4.09v-.07a4.7,4.7,0,0,0-1.83-3.93,8.23,8.23,0,0,0-5.13-1.41h-8.37v11Z"/><path d="M217.28,45.6h2.86L232.5,72.65h-3.3L226,65.55H211.29l-3.21,7.1h-3.14Zm7.54,17.23-6.15-13.7-6.2,13.7Z"/><path d="M233.53,45.56h3.05V72.65h-3.05Z"/><path d="M251.35,73.15a14.5,14.5,0,0,1-5.76-1.08,12.83,12.83,0,0,1-7.09-7.42,15.58,15.58,0,0,1-.94-5.44v-.08a14.55,14.55,0,0,1,1-5.32,14,14,0,0,1,2.77-4.48,13.13,13.13,0,0,1,4.28-3.08,13.28,13.28,0,0,1,5.56-1.15,19.19,19.19,0,0,1,3.12.23,14.2,14.2,0,0,1,2.64.69,13.1,13.1,0,0,1,2.27,1.15,18,18,0,0,1,2.08,1.53l-2,2.32a12.32,12.32,0,0,0-1.62-1.26,10.77,10.77,0,0,0-1.83-1,12.31,12.31,0,0,0-2.18-.64,14.3,14.3,0,0,0-2.61-.23,9.69,9.69,0,0,0-4.14.89,9.93,9.93,0,0,0-3.25,2.41,11.13,11.13,0,0,0-2.14,3.54,12,12,0,0,0-.78,4.28v.08a13.06,13.06,0,0,0,.76,4.5,10.51,10.51,0,0,0,2.16,3.56A9.72,9.72,0,0,0,247,69.55a11.18,11.18,0,0,0,4.45.85,12,12,0,0,0,4.38-.8,12.71,12.71,0,0,0,3.44-1.92V60.94H251V58.2h11.2V69a17.64,17.64,0,0,1-4.66,2.93A15.34,15.34,0,0,1,251.35,73.15Z"/><path d="M264.2,68.86h.13v3.79h2.39v.11H264.2Z"/><path d="M267.46,68.86h.12v3.79H270v.11h-2.51Z"/><path d="M270.7,68.86h1.37a1.76,1.76,0,0,1,1.11.31,1.06,1.06,0,0,1,.39.86h0a1.07,1.07,0,0,1-.4.88,1.86,1.86,0,0,1-1.12.31h-1.22v1.53h-.13ZM272,71.11a1.72,1.72,0,0,0,1-.28.93.93,0,0,0,.38-.8h0a.93.93,0,0,0-.37-.78,1.65,1.65,0,0,0-1-.28h-1.24v2.15Z"/><path d="M124.17,39.6a19.73,19.73,0,0,0,6-.92c.36-.11.71-.24,1.06-.37a19.83,19.83,0,0,0,10.84-10c.12-.24.23-.49.34-.75a19.81,19.81,0,0,0,0-15.5h-4.15a7.8,7.8,0,0,0-6.59,3.63,8.51,8.51,0,0,1,0,8.23c-.14.24-.28.48-.44.71a8.48,8.48,0,0,1-7,3.68H100.63a31.7,31.7,0,0,0,5.87,11.3h17.68Z"/><path d="M0,45.59H10.57a16,16,0,0,1,5.82,1A13.76,13.76,0,0,1,21,49.46a12.66,12.66,0,0,1,3,4.28,13.53,13.53,0,0,1,1,5.32v.08a13.66,13.66,0,0,1-1,5.34,12.64,12.64,0,0,1-3,4.3,14,14,0,0,1-4.56,2.87,15.8,15.8,0,0,1-5.82,1H0ZM10.57,67.31a9.33,9.33,0,0,0,3.33-.58,7.16,7.16,0,0,0,2.58-1.66,8,8,0,0,0,1.67-2.56,8.68,8.68,0,0,0,.59-3.29v-.08a8.92,8.92,0,0,0-.59-3.29,7.86,7.86,0,0,0-1.67-2.59,7.34,7.34,0,0,0-2.58-1.69,9,9,0,0,0-3.33-.6H6V67.31Z"/><path d="M37.75,73.21q-5.47,0-8.63-3T26,61.13V45.59h6V61a7.19,7.19,0,0,0,1.55,5,5.56,5.56,0,0,0,4.31,1.69,5.67,5.67,0,0,0,4.31-1.63,6.85,6.85,0,0,0,1.56-4.9V45.59h6V60.94a15.84,15.84,0,0,1-.84,5.4,10.28,10.28,0,0,1-2.39,3.83,9.81,9.81,0,0,1-3.77,2.29A15.13,15.13,0,0,1,37.75,73.21Z"/><path d="M50.68,45.59h5.5l12.7,16.69V45.59h5.89V72.69H69.69L56.57,55.46V72.69H50.68Z"/><path d="M89.71,73.2a14.17,14.17,0,0,1-5.55-1.09,13.69,13.69,0,0,1-4.43-3,13.52,13.52,0,0,1-2.91-4.45,14.21,14.21,0,0,1-1.05-5.47v-.08a14.12,14.12,0,0,1,4-9.91,13.36,13.36,0,0,1,4.47-3,14.43,14.43,0,0,1,5.74-1.11,18,18,0,0,1,3.47.31,14.87,14.87,0,0,1,2.86.85,12.77,12.77,0,0,1,2.36,1.32,16,16,0,0,1,2,1.71l-3.81,4.38a14.3,14.3,0,0,0-3.24-2.25,8.28,8.28,0,0,0-3.7-.82,7.54,7.54,0,0,0-5.67,2.49,8.52,8.52,0,0,0-1.62,2.7A9.08,9.08,0,0,0,82,59.07v.07a9.25,9.25,0,0,0,.59,3.3,8.42,8.42,0,0,0,1.61,2.72,7.44,7.44,0,0,0,5.68,2.52,8.3,8.3,0,0,0,3.93-.85A15.33,15.33,0,0,0,97,64.5l3.8,3.84a18.67,18.67,0,0,1-2.17,2,12.68,12.68,0,0,1-2.46,1.54,12.88,12.88,0,0,1-2.93,1A17.62,17.62,0,0,1,89.71,73.2Z"/><path d="M111.77,45.39h5.5l11.62,27.3h-6.23l-2.48-6.08H108.71l-2.48,6.08h-6.08Zm6.27,16-3.6-8.79-3.6,8.79Z"/><path d="M129.91,45.59h5.5l12.7,16.69V45.59H154V72.69h-5.07L135.79,55.46V72.69h-5.88Z"/></svg>