<svg id="Layer_1" data-name="Layer 1" xmlns="http://www.w3.org/2000/svg" viewBox="0 0 218.04 66.48"><title>7</title><polygon points="66.44 2.66 66.44 16.8 91.05 2.66 66.44 2.66"/><path d="M23.54,41.07a.36.36,0,0,0,.16,0c-.15-.18-.3-.37-.44-.56a.36.36,0,0,0-.08.22A.37.37,0,0,0,23.54,41.07Z"/><path d="M22.06,27.07a.37.37,0,0,0,0,.74h.07c.08-.17.17-.34.27-.5A.37.37,0,0,0,22.06,27.07Z"/><path d="M21.9,38.08c-.06-.14-.13-.28-.18-.42a.36.36,0,0,0,0,.1A.37.37,0,0,0,21.9,38.08Z"/><path d="M22.32,39l.1.19A.36.36,0,0,0,22.32,39Z"/><path d="M21.69,39.23a.37.37,0,1,0,.74,0,.36.36,0,0,0,0-.08l-.1-.19a.37.37,0,0,0-.62.27Z"/><circle cx="22.06" cy="40.7" r="0.37"/><path d="M22.06,41.81a.37.37,0,0,0-.37.37.36.36,0,0,0,.17.3l.57-.33A.37.37,0,0,0,22.06,41.81Z"/><path d="M20.59,26.34a.36.36,0,0,0,.31-.18l-.63-.36a.36.36,0,0,0,0,.17A.37.37,0,0,0,20.59,26.34Z"/><circle cx="20.59" cy="27.44" r="0.37"/><circle cx="20.59" cy="28.92" r="0.37"/><circle cx="20.59" cy="30.39" r="0.37"/><circle cx="20.59" cy="31.86" r="0.37"/><path d="M20.9,33.53a.33.33,0,0,0,0-.4s0,.06,0,.09S20.9,33.42,20.9,33.53Z"/><path d="M20.59,33a.37.37,0,1,0,0,.74.36.36,0,0,0,.31-.18c0-.1,0-.21,0-.31s0-.06,0-.09A.36.36,0,0,0,20.59,33Z"/><circle cx="20.59" cy="34.81" r="0.37"/><circle cx="20.59" cy="36.28" r="0.37"/><circle cx="20.59" cy="37.76" r="0.37"/><circle cx="20.59" cy="39.23" r="0.37"/><circle cx="20.59" cy="40.7" r="0.37"/><circle cx="20.59" cy="42.18" r="0.37"/><circle cx="19.12" cy="25.97" r="0.37"/><circle cx="19.12" cy="27.44" r="0.37"/><circle cx="19.12" cy="28.92" r="0.37"/><circle cx="19.12" cy="30.39" r="0.37"/><circle cx="19.12" cy="31.86" r="0.37"/><circle cx="19.12" cy="33.34" r="0.37"/><circle cx="19.12" cy="34.81" r="0.37"/><circle cx="19.12" cy="36.28" r="0.37"/><circle cx="19.12" cy="37.76" r="0.37"/><circle cx="19.12" cy="39.23" r="0.37"/><circle cx="19.12" cy="40.7" r="0.37"/><circle cx="19.12" cy="42.18" r="0.37"/><path d="M19.12,43.28a.37.37,0,0,0,0,.74l.1,0,.16-.09a.37.37,0,0,0-.27-.63Z"/><path d="M17.27,24.5a.37.37,0,0,0,.74,0h0l-.55-.32A.37.37,0,0,0,17.27,24.5Z"/><circle cx="17.64" cy="25.97" r="0.37"/><circle cx="17.64" cy="27.44" r="0.37"/><circle cx="17.64" cy="28.92" r="0.37"/><circle cx="17.64" cy="30.39" r="0.37"/><circle cx="17.64" cy="31.86" r="0.37"/><circle cx="17.64" cy="33.34" r="0.37"/><circle cx="17.64" cy="34.81" r="0.37"/><circle cx="17.64" cy="36.28" r="0.37"/><circle cx="17.64" cy="37.76" r="0.37"/><circle cx="17.64" cy="39.23" r="0.37"/><circle cx="17.64" cy="40.7" r="0.37"/><circle cx="17.64" cy="42.18" r="0.37"/><circle cx="17.64" cy="43.65" r="0.37"/><path d="M17.27,45.12l.55-.32a.36.36,0,0,0-.18-.05A.37.37,0,0,0,17.27,45.12Z"/><path d="M16.07,23.37l-.16-.09A.37.37,0,0,0,16.07,23.37Z"/><circle cx="16.17" cy="24.5" r="0.37"/><circle cx="16.17" cy="25.97" r="0.37"/><circle cx="16.17" cy="27.44" r="0.37"/><circle cx="16.17" cy="28.92" r="0.37"/><circle cx="16.17" cy="30.39" r="0.37"/><circle cx="16.17" cy="31.86" r="0.37"/><circle cx="16.17" cy="33.34" r="0.37"/><circle cx="16.17" cy="34.81" r="0.37"/><circle cx="16.17" cy="36.28" r="0.37"/><circle cx="16.17" cy="37.76" r="0.37"/><circle cx="16.17" cy="39.23" r="0.37"/><circle cx="16.17" cy="40.7" r="0.37"/><circle cx="16.17" cy="42.18" r="0.37"/><circle cx="16.17" cy="43.65" r="0.37"/><circle cx="16.17" cy="45.12" r="0.37"/><circle cx="14.7" cy="23.02" r="0.37"/><circle cx="14.7" cy="24.5" r="0.37"/><circle cx="14.7" cy="25.97" r="0.37"/><circle cx="14.7" cy="27.44" r="0.37"/><circle cx="14.7" cy="28.92" r="0.37"/><circle cx="14.7" cy="30.39" r="0.37"/><circle cx="14.7" cy="31.86" r="0.37"/><circle cx="14.7" cy="33.34" r="0.37"/><circle cx="14.7" cy="34.81" r="0.37"/><circle cx="14.7" cy="36.28" r="0.37"/><circle cx="14.7" cy="37.76" r="0.37"/><circle cx="14.7" cy="39.23" r="0.37"/><circle cx="14.7" cy="40.7" r="0.37"/><circle cx="14.7" cy="42.18" r="0.37"/><circle cx="14.7" cy="43.65" r="0.37"/><circle cx="14.7" cy="45.12" r="0.37"/><path d="M14.7,46.23a.37.37,0,0,0-.37.37.36.36,0,0,0,.06.19l.63-.36A.37.37,0,0,0,14.7,46.23Z"/><path d="M13.22,21.92a.36.36,0,0,0,.2-.07l-.57-.33v0A.37.37,0,0,0,13.22,21.92Z"/><circle cx="13.22" cy="23.02" r="0.37"/><circle cx="13.22" cy="24.5" r="0.37"/><circle cx="13.22" cy="25.97" r="0.37"/><circle cx="13.22" cy="27.44" r="0.37"/><circle cx="13.22" cy="28.92" r="0.37"/><circle cx="13.22" cy="30.39" r="0.37"/><circle cx="13.22" cy="31.86" r="0.37"/><circle cx="13.22" cy="33.34" r="0.37"/><circle cx="13.22" cy="34.81" r="0.37"/><circle cx="13.22" cy="36.28" r="0.37"/><circle cx="13.22" cy="37.76" r="0.37"/><circle cx="13.22" cy="39.23" r="0.37"/><circle cx="13.22" cy="40.7" r="0.37"/><circle cx="13.22" cy="42.18" r="0.37"/><circle cx="13.22" cy="43.65" r="0.37"/><circle cx="13.22" cy="45.12" r="0.37"/><circle cx="13.22" cy="46.6" r="0.37"/><circle cx="11.75" cy="21.55" r="0.37"/><circle cx="11.75" cy="23.02" r="0.37"/><circle cx="11.75" cy="24.5" r="0.37"/><circle cx="11.75" cy="25.97" r="0.37"/><circle cx="11.75" cy="27.44" r="0.37"/><circle cx="11.75" cy="28.92" r="0.37"/><circle cx="11.75" cy="30.39" r="0.37"/><circle cx="11.75" cy="31.86" r="0.37"/><circle cx="11.75" cy="33.34" r="0.37"/><circle cx="11.75" cy="34.81" r="0.37"/><circle cx="11.75" cy="36.28" r="0.37"/><circle cx="11.75" cy="37.76" r="0.37"/><circle cx="11.75" cy="39.23" r="0.37"/><circle cx="11.75" cy="40.7" r="0.37"/><circle cx="11.75" cy="42.18" r="0.37"/><circle cx="11.75" cy="43.65" r="0.37"/><circle cx="11.75" cy="45.12" r="0.37"/><circle cx="11.75" cy="46.6" r="0.37"/><path d="M11.75,48.44a.37.37,0,0,0,.37-.34l-.53.3A.36.36,0,0,0,11.75,48.44Z"/><path d="M11.75,47.7a.37.37,0,0,0-.16.7l.53-.3v0A.37.37,0,0,0,11.75,47.7Z"/><path d="M10.28,20.44a.37.37,0,0,0,.34-.22L10,19.86a.36.36,0,0,0-.07.21A.37.37,0,0,0,10.28,20.44Z"/><circle cx="10.28" cy="21.55" r="0.37"/><circle cx="10.28" cy="23.02" r="0.37"/><circle cx="10.28" cy="24.5" r="0.37"/><circle cx="10.28" cy="25.97" r="0.37"/><circle cx="10.28" cy="27.44" r="0.37"/><circle cx="10.28" cy="28.92" r="0.37"/><circle cx="10.28" cy="30.39" r="0.37"/><circle cx="10.28" cy="31.86" r="0.37"/><circle cx="10.28" cy="33.34" r="0.37"/><circle cx="10.28" cy="34.81" r="0.37"/><circle cx="10.28" cy="36.28" r="0.37"/><circle cx="10.28" cy="37.76" r="0.37"/><circle cx="10.28" cy="39.23" r="0.37"/><circle cx="10.28" cy="40.7" r="0.37"/><circle cx="10.28" cy="42.18" r="0.37"/><circle cx="10.28" cy="43.65" r="0.37"/><circle cx="10.28" cy="45.12" r="0.37"/><circle cx="10.28" cy="46.6" r="0.37"/><circle cx="10.28" cy="48.07" r="0.37"/><path d="M10,49.33l.24-.14A.36.36,0,0,0,10,49.33Z"/><circle cx="8.8" cy="20.07" r="0.37"/><circle cx="8.8" cy="21.55" r="0.37"/><circle cx="8.8" cy="23.02" r="0.37"/><circle cx="8.8" cy="24.5" r="0.37"/><circle cx="8.8" cy="25.97" r="0.37"/><circle cx="8.8" cy="27.44" r="0.37"/><circle cx="8.8" cy="28.92" r="0.37"/><circle cx="8.8" cy="30.39" r="0.37"/><circle cx="8.8" cy="31.86" r="0.37"/><circle cx="8.8" cy="33.34" r="0.37"/><circle cx="8.8" cy="34.81" r="0.37"/><circle cx="8.8" cy="36.28" r="0.37"/><circle cx="8.8" cy="37.76" r="0.37"/><circle cx="8.8" cy="39.23" r="0.37"/><circle cx="8.8" cy="40.7" r="0.37"/><circle cx="8.8" cy="42.18" r="0.37"/><circle cx="8.8" cy="43.65" r="0.37"/><circle cx="8.8" cy="45.12" r="0.37"/><circle cx="8.8" cy="46.6" r="0.37"/><circle cx="8.8" cy="48.07" r="0.37"/><circle cx="8.8" cy="49.55" r="0.37"/><path d="M7,18.6a.37.37,0,0,0,.74,0,.35.35,0,0,0,0-.06l-.49-.28A.37.37,0,0,0,7,18.6Z"/><circle cx="7.33" cy="20.07" r="0.37"/><circle cx="7.33" cy="21.55" r="0.37"/><circle cx="7.33" cy="23.02" r="0.37"/><circle cx="7.33" cy="24.5" r="0.37"/><circle cx="7.33" cy="25.97" r="0.37"/><circle cx="7.33" cy="27.44" r="0.37"/><circle cx="7.33" cy="28.92" r="0.37"/><circle cx="7.33" cy="30.39" r="0.37"/><circle cx="7.33" cy="31.86" r="0.37"/><circle cx="7.33" cy="33.34" r="0.37"/><circle cx="7.33" cy="34.81" r="0.37"/><circle cx="7.33" cy="36.28" r="0.37"/><circle cx="7.33" cy="37.76" r="0.37"/><circle cx="7.33" cy="39.23" r="0.37"/><circle cx="7.33" cy="40.7" r="0.37"/><circle cx="7.33" cy="42.18" r="0.37"/><circle cx="7.33" cy="43.65" r="0.37"/><circle cx="7.33" cy="45.12" r="0.37"/><circle cx="7.33" cy="46.6" r="0.37"/><circle cx="7.33" cy="48.07" r="0.37"/><circle cx="7.33" cy="49.55" r="0.37"/><path d="M7,51a.35.35,0,0,0,0,0l.58-.34a.36.36,0,0,0-.22-.08A.37.37,0,0,0,7,51Z"/><path d="M5.86,17.5h0l-.34-.2A.37.37,0,0,0,5.86,17.5Z"/><circle cx="5.86" cy="18.6" r="0.37"/><circle cx="5.86" cy="20.07" r="0.37"/><circle cx="5.86" cy="21.55" r="0.37"/><circle cx="5.86" cy="23.02" r="0.37"/><circle cx="5.86" cy="24.5" r="0.37"/><circle cx="5.86" cy="25.97" r="0.37"/><circle cx="5.86" cy="27.44" r="0.37"/><circle cx="5.86" cy="28.92" r="0.37"/><circle cx="5.86" cy="30.39" r="0.37"/><circle cx="5.86" cy="31.86" r="0.37"/><circle cx="5.86" cy="33.34" r="0.37"/><circle cx="5.86" cy="34.81" r="0.37"/><circle cx="5.86" cy="36.28" r="0.37"/><circle cx="5.86" cy="37.76" r="0.37"/><circle cx="5.86" cy="39.23" r="0.37"/><circle cx="5.86" cy="40.7" r="0.37"/><circle cx="5.86" cy="42.18" r="0.37"/><circle cx="5.86" cy="43.65" r="0.37"/><circle cx="5.86" cy="45.12" r="0.37"/><circle cx="5.86" cy="46.6" r="0.37"/><circle cx="5.86" cy="48.07" r="0.37"/><circle cx="5.86" cy="49.55" r="0.37"/><circle cx="5.86" cy="51.02" r="0.37"/><path d="M4.38,17.5a.37.37,0,1,0,0-.74h0l-.3.55A.37.37,0,0,0,4.38,17.5Z"/><circle cx="4.38" cy="18.6" r="0.37"/><circle cx="4.38" cy="20.07" r="0.37"/><circle cx="4.38" cy="21.55" r="0.37"/><circle cx="4.38" cy="23.02" r="0.37"/><circle cx="4.38" cy="24.5" r="0.37"/><circle cx="4.38" cy="25.97" r="0.37"/><circle cx="4.38" cy="27.44" r="0.37"/><circle cx="4.38" cy="28.92" r="0.37"/><circle cx="4.38" cy="30.39" r="0.37"/><circle cx="4.38" cy="31.86" r="0.37"/><circle cx="4.38" cy="33.34" r="0.37"/><circle cx="4.38" cy="34.81" r="0.37"/><circle cx="4.38" cy="36.28" r="0.37"/><circle cx="4.38" cy="37.76" r="0.37"/><circle cx="4.38" cy="39.23" r="0.37"/><circle cx="4.38" cy="40.7" r="0.37"/><circle cx="4.38" cy="42.18" r="0.37"/><circle cx="4.38" cy="43.65" r="0.37"/><circle cx="4.38" cy="45.12" r="0.37"/><circle cx="4.38" cy="46.6" r="0.37"/><circle cx="4.38" cy="48.07" r="0.37"/><path d="M4.75,49.55a.37.37,0,0,0-.37-.37.37.37,0,0,0-.24.1l.35.62A.37.37,0,0,0,4.75,49.55Z"/><path d="M2.91,20.44a.37.37,0,1,0,0-.74h0l-.25.58A.36.36,0,0,0,2.91,20.44Z"/><circle cx="2.91" cy="21.55" r="0.37"/><circle cx="2.91" cy="23.02" r="0.37"/><circle cx="2.91" cy="24.5" r="0.37"/><circle cx="2.91" cy="25.97" r="0.37"/><circle cx="2.91" cy="27.44" r="0.37"/><circle cx="2.91" cy="28.92" r="0.37"/><circle cx="2.91" cy="30.39" r="0.37"/><circle cx="2.91" cy="31.86" r="0.37"/><circle cx="2.91" cy="33.34" r="0.37"/><circle cx="2.91" cy="34.81" r="0.37"/><circle cx="2.91" cy="36.28" r="0.37"/><circle cx="2.91" cy="37.76" r="0.37"/><circle cx="2.91" cy="39.23" r="0.37"/><circle cx="2.91" cy="40.7" r="0.37"/><circle cx="2.91" cy="42.18" r="0.37"/><circle cx="2.91" cy="43.65" r="0.37"/><circle cx="2.91" cy="45.12" r="0.37"/><path d="M3.28,46.6a.37.37,0,0,0-.37-.37.36.36,0,0,0-.22.08L3,47A.37.37,0,0,0,3.28,46.6Z"/><path d="M1.81,23a.37.37,0,0,0-.11-.27l-.2.63A.37.37,0,0,0,1.81,23Z"/><path d="M1.44,24.87a.37.37,0,0,0,0-.74.36.36,0,0,0-.18.05l-.14.49A.37.37,0,0,0,1.44,24.87Z"/><circle cx="1.44" cy="25.97" r="0.37"/><circle cx="1.44" cy="27.44" r="0.37"/><circle cx="1.44" cy="28.92" r="0.37"/><circle cx="1.44" cy="30.39" r="0.37"/><circle cx="1.44" cy="31.86" r="0.37"/><circle cx="1.44" cy="33.34" r="0.37"/><circle cx="1.44" cy="34.81" r="0.37"/><circle cx="1.44" cy="36.28" r="0.37"/><circle cx="1.44" cy="37.76" r="0.37"/><circle cx="1.44" cy="39.23" r="0.37"/><circle cx="1.44" cy="40.7" r="0.37"/><path d="M1.06,42.18a.37.37,0,0,0,.26.35c-.06-.2-.12-.39-.17-.59A.36.36,0,0,0,1.06,42.18Z"/><path d="M1.81,42.18a.37.37,0,0,0-.37-.37.36.36,0,0,0-.28.13c.05.2.11.39.17.59l.11,0A.37.37,0,0,0,1.81,42.18Z"/><path d="M1.56,43.31l.18.54a.36.36,0,0,0,.06-.19A.37.37,0,0,0,1.56,43.31Z"/><path d="M.3,28.76c0,.12,0,.25,0,.37a.36.36,0,0,0,.08-.22A.37.37,0,0,0,.3,28.76Z"/><path d="M.33,30.39a.36.36,0,0,0-.18-.31q0,.33-.05.65A.37.37,0,0,0,.33,30.39Z"/><path d="M.33,31.86A.37.37,0,0,0,0,31.51c0,.24,0,.47,0,.71A.37.37,0,0,0,.33,31.86Z"/><path d="M.33,33.34A.37.37,0,0,0,0,33c0,.08,0,.16,0,.24s0,.32,0,.48A.37.37,0,0,0,.33,33.34Z"/><path d="M.33,34.81A.37.37,0,0,0,0,34.45c0,.24,0,.47,0,.71A.37.37,0,0,0,.33,34.81Z"/><path d="M.33,36.28a.37.37,0,0,0-.22-.34c0,.21,0,.42.06.63A.36.36,0,0,0,.33,36.28Z"/><path d="M.29,37.6l0,.21a.34.34,0,0,0,0-.05A.36.36,0,0,0,.29,37.6Z"/><polygon points="66.43 66.48 84.47 66.48 66.43 56.08 66.43 66.48"/><path d="M33.24,20.86a12.36,12.36,0,0,1,11.68,8.32L63.1,18.7A33.2,33.2,0,0,0,10,9.46L30.37,21.2A12.36,12.36,0,0,1,33.24,20.86Z"/><path d="M43.92,39.43a12.35,12.35,0,0,1-20,1.87L5.69,51.8a33.21,33.21,0,0,0,54.56.71q.92-1.29,1.73-2.67Z"/><polygon points="66.43 30.98 66.43 52.27 91.06 66.48 91.06 16.78 66.43 30.98"/><polygon points="164.94 16.8 140.31 16.8 130.55 36.66 164.91 16.85 164.94 16.8"/><polygon points="115.69 16.8 91.06 16.8 107.49 49.96 126.58 38.96 115.69 16.8"/><polygon points="115.68 66.48 115.69 66.48 140.31 66.48 140.32 66.48 155.14 36.58 112.92 60.91 115.68 66.48"/><circle cx="217.2" cy="1.19" r="0.36"/><circle cx="217.2" cy="2.63" r="0.36"/><circle cx="217.2" cy="4.07" r="0.36"/><circle cx="217.2" cy="5.51" r="0.36"/><circle cx="217.2" cy="6.96" r="0.36"/><circle cx="217.2" cy="8.4" r="0.36"/><circle cx="217.2" cy="9.84" r="0.36"/><circle cx="217.2" cy="11.28" r="0.36"/><circle cx="217.2" cy="12.72" r="0.36"/><circle cx="217.2" cy="14.16" r="0.36"/><circle cx="217.2" cy="15.6" r="0.36"/><circle cx="217.2" cy="17.05" r="0.36"/><circle cx="217.2" cy="18.49" r="0.36"/><circle cx="217.2" cy="19.93" r="0.36"/><circle cx="217.2" cy="21.37" r="0.36"/><circle cx="217.2" cy="22.81" r="0.36"/><circle cx="217.2" cy="24.25" r="0.36"/><circle cx="217.2" cy="25.7" r="0.36"/><circle cx="217.2" cy="27.14" r="0.36"/><circle cx="217.2" cy="28.58" r="0.36"/><circle cx="217.2" cy="30.02" r="0.36"/><circle cx="217.2" cy="31.46" r="0.36"/><circle cx="217.2" cy="32.9" r="0.36"/><circle cx="217.2" cy="34.34" r="0.36"/><circle cx="217.2" cy="35.79" r="0.36"/><circle cx="217.2" cy="37.23" r="0.36"/><circle cx="217.2" cy="38.67" r="0.36"/><circle cx="217.2" cy="40.11" r="0.36"/><circle cx="217.2" cy="41.55" r="0.36"/><circle cx="217.2" cy="42.99" r="0.36"/><circle cx="217.2" cy="44.44" r="0.36"/><path d="M215.89,1.52l0,0Z"/><circle cx="215.76" cy="2.63" r="0.36"/><circle cx="215.76" cy="4.07" r="0.36"/><circle cx="215.76" cy="5.51" r="0.36"/><circle cx="215.76" cy="6.96" r="0.36"/><circle cx="215.76" cy="8.4" r="0.36"/><circle cx="215.76" cy="9.84" r="0.36"/><circle cx="215.76" cy="11.28" r="0.36"/><circle cx="215.76" cy="12.72" r="0.36"/><circle cx="215.76" cy="14.16" r="0.36"/><circle cx="215.76" cy="15.6" r="0.36"/><circle cx="215.76" cy="17.05" r="0.36"/><circle cx="215.76" cy="18.49" r="0.36"/><circle cx="215.76" cy="19.93" r="0.36"/><circle cx="215.76" cy="21.37" r="0.36"/><circle cx="215.76" cy="22.81" r="0.36"/><circle cx="215.76" cy="24.25" r="0.36"/><circle cx="215.76" cy="25.7" r="0.36"/><circle cx="215.76" cy="27.14" r="0.36"/><circle cx="215.76" cy="28.58" r="0.36"/><circle cx="215.76" cy="30.02" r="0.36"/><circle cx="215.76" cy="31.46" r="0.36"/><circle cx="215.76" cy="32.9" r="0.36"/><circle cx="215.76" cy="34.34" r="0.36"/><circle cx="215.76" cy="35.79" r="0.36"/><circle cx="215.76" cy="37.23" r="0.36"/><circle cx="215.76" cy="38.67" r="0.36"/><circle cx="215.76" cy="40.11" r="0.36"/><circle cx="215.76" cy="41.55" r="0.36"/><circle cx="215.76" cy="42.99" r="0.36"/><path d="M215.76,44.07a.36.36,0,0,0-.32.2l.62.36a.35.35,0,0,0,.06-.19A.36.36,0,0,0,215.76,44.07Z"/><path d="M214.31,3a.36.36,0,0,0,.36-.36.36.36,0,0,0-.18-.3l-.55.31A.36.36,0,0,0,214.31,3Z"/><circle cx="214.31" cy="4.07" r="0.36"/><circle cx="214.31" cy="5.51" r="0.36"/><circle cx="214.31" cy="6.96" r="0.36"/><circle cx="214.31" cy="8.4" r="0.36"/><circle cx="214.31" cy="9.84" r="0.36"/><circle cx="214.31" cy="11.28" r="0.36"/><circle cx="214.31" cy="12.72" r="0.36"/><circle cx="214.31" cy="14.16" r="0.36"/><circle cx="214.31" cy="15.6" r="0.36"/><circle cx="214.31" cy="17.05" r="0.36"/><circle cx="214.31" cy="18.49" r="0.36"/><circle cx="214.31" cy="19.93" r="0.36"/><circle cx="214.31" cy="21.37" r="0.36"/><circle cx="214.31" cy="22.81" r="0.36"/><circle cx="214.31" cy="24.25" r="0.36"/><circle cx="214.31" cy="25.7" r="0.36"/><circle cx="214.31" cy="27.14" r="0.36"/><circle cx="214.31" cy="28.58" r="0.36"/><circle cx="214.31" cy="30.02" r="0.36"/><circle cx="214.31" cy="31.46" r="0.36"/><circle cx="214.31" cy="32.9" r="0.36"/><circle cx="214.31" cy="34.34" r="0.36"/><circle cx="214.31" cy="35.79" r="0.36"/><circle cx="214.31" cy="37.23" r="0.36"/><circle cx="214.31" cy="38.67" r="0.36"/><circle cx="214.31" cy="40.11" r="0.36"/><circle cx="214.31" cy="41.55" r="0.36"/><circle cx="214.31" cy="42.99" r="0.36"/><circle cx="212.87" cy="4.07" r="0.36"/><circle cx="212.87" cy="5.51" r="0.36"/><circle cx="212.87" cy="6.96" r="0.36"/><circle cx="212.87" cy="8.4" r="0.36"/><circle cx="212.87" cy="9.84" r="0.36"/><circle cx="212.87" cy="11.28" r="0.36"/><circle cx="212.87" cy="12.72" r="0.36"/><circle cx="212.87" cy="14.16" r="0.36"/><circle cx="212.87" cy="15.6" r="0.36"/><circle cx="212.87" cy="17.05" r="0.36"/><circle cx="212.87" cy="18.49" r="0.36"/><circle cx="212.87" cy="19.93" r="0.36"/><circle cx="212.87" cy="21.37" r="0.36"/><circle cx="212.87" cy="22.81" r="0.36"/><circle cx="212.87" cy="24.25" r="0.36"/><circle cx="212.87" cy="25.7" r="0.36"/><circle cx="212.87" cy="27.14" r="0.36"/><circle cx="212.87" cy="28.58" r="0.36"/><circle cx="212.87" cy="30.02" r="0.36"/><circle cx="212.87" cy="31.46" r="0.36"/><circle cx="212.87" cy="32.9" r="0.36"/><circle cx="212.87" cy="34.34" r="0.36"/><circle cx="212.87" cy="35.79" r="0.36"/><circle cx="212.87" cy="37.23" r="0.36"/><circle cx="212.87" cy="38.67" r="0.36"/><circle cx="212.87" cy="40.11" r="0.36"/><circle cx="212.87" cy="41.55" r="0.36"/><path d="M212.87,42.63a.35.35,0,0,0-.18.05l.54.31h0A.36.36,0,0,0,212.87,42.63Z"/><path d="M211.43,4.43a.36.36,0,0,0,.36-.36.35.35,0,0,0,0-.16l-.62.36A.36.36,0,0,0,211.43,4.43Z"/><circle cx="211.43" cy="5.51" r="0.36"/><circle cx="211.43" cy="6.96" r="0.36"/><circle cx="211.43" cy="8.4" r="0.36"/><circle cx="211.43" cy="9.84" r="0.36"/><circle cx="211.43" cy="11.28" r="0.36"/><circle cx="211.43" cy="12.72" r="0.36"/><circle cx="211.43" cy="14.16" r="0.36"/><circle cx="211.43" cy="15.6" r="0.36"/><circle cx="211.43" cy="17.05" r="0.36"/><circle cx="211.43" cy="18.49" r="0.36"/><circle cx="211.43" cy="19.93" r="0.36"/><circle cx="211.43" cy="21.37" r="0.36"/><circle cx="211.43" cy="22.81" r="0.36"/><circle cx="211.43" cy="24.25" r="0.36"/><circle cx="211.43" cy="25.7" r="0.36"/><circle cx="211.43" cy="27.14" r="0.36"/><circle cx="211.43" cy="28.58" r="0.36"/><circle cx="211.43" cy="30.02" r="0.36"/><circle cx="211.43" cy="31.46" r="0.36"/><circle cx="211.43" cy="32.9" r="0.36"/><circle cx="211.43" cy="34.34" r="0.36"/><circle cx="211.43" cy="35.79" r="0.36"/><circle cx="211.43" cy="37.23" r="0.36"/><circle cx="211.43" cy="38.67" r="0.36"/><circle cx="211.43" cy="40.11" r="0.36"/><path d="M211.32,41.89l-.12-.07A.36.36,0,0,0,211.32,41.89Z"/><path d="M211.79,41.55a.36.36,0,1,0-.72,0,.36.36,0,0,0,.12.27l.12.07.12,0A.36.36,0,0,0,211.79,41.55Z"/><circle cx="209.99" cy="5.51" r="0.36"/><circle cx="209.99" cy="6.96" r="0.36"/><circle cx="209.99" cy="8.4" r="0.36"/><circle cx="209.99" cy="9.84" r="0.36"/><circle cx="209.99" cy="11.28" r="0.36"/><circle cx="209.99" cy="12.72" r="0.36"/><circle cx="209.99" cy="14.16" r="0.36"/><circle cx="209.99" cy="15.6" r="0.36"/><circle cx="209.99" cy="17.05" r="0.36"/><circle cx="209.99" cy="18.49" r="0.36"/><circle cx="209.99" cy="19.93" r="0.36"/><circle cx="209.99" cy="21.37" r="0.36"/><circle cx="209.99" cy="22.81" r="0.36"/><circle cx="209.99" cy="24.25" r="0.36"/><circle cx="209.99" cy="25.7" r="0.36"/><circle cx="209.99" cy="27.14" r="0.36"/><circle cx="209.99" cy="28.58" r="0.36"/><circle cx="209.99" cy="30.02" r="0.36"/><circle cx="209.99" cy="31.46" r="0.36"/><circle cx="209.99" cy="32.9" r="0.36"/><circle cx="209.99" cy="34.34" r="0.36"/><circle cx="209.99" cy="35.79" r="0.36"/><circle cx="209.99" cy="37.23" r="0.36"/><circle cx="209.99" cy="38.67" r="0.36"/><circle cx="209.99" cy="40.11" r="0.36"/><path d="M208.9,5.55l-.5.29a.35.35,0,0,0,.5-.29Z"/><circle cx="208.55" cy="6.96" r="0.36"/><circle cx="208.55" cy="8.4" r="0.36"/><circle cx="208.55" cy="9.84" r="0.36"/><circle cx="208.55" cy="11.28" r="0.36"/><circle cx="208.55" cy="12.72" r="0.36"/><circle cx="208.55" cy="14.16" r="0.36"/><circle cx="208.55" cy="15.6" r="0.36"/><circle cx="208.55" cy="17.05" r="0.36"/><circle cx="208.55" cy="18.49" r="0.36"/><circle cx="208.55" cy="19.93" r="0.36"/><circle cx="208.55" cy="21.37" r="0.36"/><circle cx="208.55" cy="22.81" r="0.36"/><circle cx="208.55" cy="24.25" r="0.36"/><circle cx="208.55" cy="25.7" r="0.36"/><circle cx="208.55" cy="27.14" r="0.36"/><circle cx="208.55" cy="28.58" r="0.36"/><circle cx="208.55" cy="30.02" r="0.36"/><circle cx="208.55" cy="31.46" r="0.36"/><circle cx="208.55" cy="32.9" r="0.36"/><circle cx="208.55" cy="34.34" r="0.36"/><circle cx="208.55" cy="35.79" r="0.36"/><circle cx="208.55" cy="37.23" r="0.36"/><circle cx="208.55" cy="38.67" r="0.36"/><path d="M208.91,40.11a.36.36,0,0,0-.72,0l.55.32A.36.36,0,0,0,208.91,40.11Z"/><path d="M206.81,6.76l.29-.16A.36.36,0,0,0,206.81,6.76Z"/><path d="M207.11,7.32a.36.36,0,0,0,0-.72h0l-.29.16a.35.35,0,0,0-.07.2A.36.36,0,0,0,207.11,7.32Z"/><circle cx="207.11" cy="8.4" r="0.36"/><circle cx="207.11" cy="9.84" r="0.36"/><circle cx="207.11" cy="11.28" r="0.36"/><circle cx="207.11" cy="12.72" r="0.36"/><circle cx="207.11" cy="14.16" r="0.36"/><circle cx="207.11" cy="15.6" r="0.36"/><circle cx="207.11" cy="17.05" r="0.36"/><circle cx="207.11" cy="18.49" r="0.36"/><circle cx="207.11" cy="19.93" r="0.36"/><circle cx="207.11" cy="21.37" r="0.36"/><circle cx="207.11" cy="22.81" r="0.36"/><circle cx="207.11" cy="24.25" r="0.36"/><circle cx="207.11" cy="25.7" r="0.36"/><circle cx="207.11" cy="27.14" r="0.36"/><circle cx="207.11" cy="28.58" r="0.36"/><circle cx="207.11" cy="30.02" r="0.36"/><circle cx="207.11" cy="31.46" r="0.36"/><circle cx="207.11" cy="32.9" r="0.36"/><circle cx="207.11" cy="34.34" r="0.36"/><circle cx="207.11" cy="35.79" r="0.36"/><circle cx="207.11" cy="37.23" r="0.36"/><circle cx="207.11" cy="38.67" r="0.36"/><circle cx="205.66" cy="8.4" r="0.36"/><circle cx="205.66" cy="9.84" r="0.36"/><circle cx="205.66" cy="11.28" r="0.36"/><circle cx="205.66" cy="12.72" r="0.36"/><circle cx="205.66" cy="14.16" r="0.36"/><circle cx="205.66" cy="15.6" r="0.36"/><circle cx="205.66" cy="17.05" r="0.36"/><circle cx="205.66" cy="18.49" r="0.36"/><circle cx="205.66" cy="19.93" r="0.36"/><circle cx="205.66" cy="21.37" r="0.36"/><circle cx="205.66" cy="22.81" r="0.36"/><circle cx="205.66" cy="24.25" r="0.36"/><circle cx="205.66" cy="25.7" r="0.36"/><circle cx="205.66" cy="27.14" r="0.36"/><circle cx="205.66" cy="28.58" r="0.36"/><circle cx="205.66" cy="30.02" r="0.36"/><circle cx="205.66" cy="31.46" r="0.36"/><circle cx="205.66" cy="32.9" r="0.36"/><circle cx="205.66" cy="34.34" r="0.36"/><circle cx="205.66" cy="35.79" r="0.36"/><circle cx="205.66" cy="37.23" r="0.36"/><path d="M205.66,38.31a.36.36,0,0,0-.29.16l.62.36a.36.36,0,0,0,0-.15A.36.36,0,0,0,205.66,38.31Z"/><path d="M204.22,8.76a.36.36,0,0,0,.36-.36.36.36,0,0,0-.14-.28l-.58.33A.36.36,0,0,0,204.22,8.76Z"/><circle cx="204.22" cy="9.84" r="0.36"/><circle cx="204.22" cy="11.28" r="0.36"/><circle cx="204.22" cy="12.72" r="0.36"/><circle cx="204.22" cy="14.16" r="0.36"/><circle cx="204.22" cy="15.6" r="0.36"/><circle cx="204.22" cy="17.05" r="0.36"/><circle cx="204.22" cy="18.49" r="0.36"/><circle cx="204.22" cy="19.93" r="0.36"/><circle cx="204.22" cy="21.37" r="0.36"/><circle cx="204.22" cy="22.81" r="0.36"/><circle cx="204.22" cy="24.25" r="0.36"/><circle cx="204.22" cy="25.7" r="0.36"/><circle cx="204.22" cy="27.14" r="0.36"/><circle cx="204.22" cy="28.58" r="0.36"/><circle cx="204.22" cy="30.02" r="0.36"/><circle cx="204.22" cy="31.46" r="0.36"/><circle cx="204.22" cy="32.9" r="0.36"/><circle cx="204.22" cy="34.34" r="0.36"/><circle cx="204.22" cy="35.79" r="0.36"/><circle cx="204.22" cy="37.23" r="0.36"/><circle cx="202.78" cy="9.84" r="0.36"/><circle cx="202.78" cy="11.28" r="0.36"/><circle cx="202.78" cy="12.72" r="0.36"/><circle cx="202.78" cy="14.16" r="0.36"/><circle cx="202.78" cy="15.6" r="0.36"/><circle cx="202.78" cy="17.05" r="0.36"/><circle cx="202.78" cy="18.49" r="0.36"/><circle cx="202.78" cy="19.93" r="0.36"/><circle cx="202.78" cy="21.37" r="0.36"/><circle cx="202.78" cy="22.81" r="0.36"/><circle cx="202.78" cy="24.25" r="0.36"/><circle cx="202.78" cy="25.7" r="0.36"/><circle cx="202.78" cy="27.14" r="0.36"/><circle cx="202.78" cy="28.58" r="0.36"/><circle cx="202.78" cy="30.02" r="0.36"/><circle cx="202.78" cy="31.46" r="0.36"/><circle cx="202.78" cy="32.9" r="0.36"/><circle cx="202.78" cy="34.34" r="0.36"/><circle cx="202.78" cy="35.79" r="0.36"/><path d="M202.78,36.87l-.14,0,.49.28A.36.36,0,0,0,202.78,36.87Z"/><path d="M201.34,10.2a.36.36,0,0,0,.36-.36.36.36,0,0,0,0-.12l-.61.35A.36.36,0,0,0,201.34,10.2Z"/><circle cx="201.34" cy="11.28" r="0.36"/><circle cx="201.34" cy="12.72" r="0.36"/><circle cx="201.34" cy="14.16" r="0.36"/><circle cx="201.34" cy="15.6" r="0.36"/><circle cx="201.34" cy="17.05" r="0.36"/><circle cx="201.34" cy="18.49" r="0.36"/><circle cx="201.34" cy="19.93" r="0.36"/><circle cx="201.34" cy="21.37" r="0.36"/><circle cx="201.34" cy="22.81" r="0.36"/><circle cx="201.34" cy="24.25" r="0.36"/><circle cx="201.34" cy="25.7" r="0.36"/><circle cx="201.34" cy="27.14" r="0.36"/><circle cx="201.34" cy="28.58" r="0.36"/><circle cx="201.34" cy="30.02" r="0.36"/><circle cx="201.34" cy="31.46" r="0.36"/><circle cx="201.34" cy="32.9" r="0.36"/><circle cx="201.34" cy="34.34" r="0.36"/><path d="M201.34,36.15h0L201,36A.36.36,0,0,0,201.34,36.15Z"/><path d="M201.7,35.79a.36.36,0,1,0-.72,0A.35.35,0,0,0,201,36l.32.19A.36.36,0,0,0,201.7,35.79Z"/><circle cx="199.9" cy="11.28" r="0.36"/><circle cx="199.9" cy="12.72" r="0.36"/><circle cx="199.9" cy="14.16" r="0.36"/><circle cx="199.9" cy="15.6" r="0.36"/><circle cx="199.9" cy="17.05" r="0.36"/><circle cx="199.9" cy="18.49" r="0.36"/><circle cx="199.9" cy="19.93" r="0.36"/><circle cx="199.9" cy="21.37" r="0.36"/><circle cx="199.9" cy="22.81" r="0.36"/><circle cx="199.9" cy="24.25" r="0.36"/><circle cx="199.9" cy="25.7" r="0.36"/><circle cx="199.9" cy="27.14" r="0.36"/><circle cx="199.9" cy="28.58" r="0.36"/><circle cx="199.9" cy="30.02" r="0.36"/><circle cx="199.9" cy="31.46" r="0.36"/><circle cx="199.9" cy="32.9" r="0.36"/><circle cx="199.9" cy="34.34" r="0.36"/><path d="M198.8,11.38l-.43.25.09,0A.36.36,0,0,0,198.8,11.38Z"/><circle cx="198.46" cy="12.72" r="0.36"/><circle cx="198.46" cy="14.16" r="0.36"/><circle cx="198.46" cy="15.6" r="0.36"/><circle cx="198.46" cy="17.05" r="0.36"/><circle cx="198.46" cy="18.49" r="0.36"/><circle cx="198.46" cy="19.93" r="0.36"/><circle cx="198.46" cy="21.37" r="0.36"/><circle cx="198.46" cy="22.81" r="0.36"/><circle cx="198.46" cy="24.25" r="0.36"/><circle cx="198.46" cy="25.7" r="0.36"/><circle cx="198.46" cy="27.14" r="0.36"/><circle cx="198.46" cy="28.58" r="0.36"/><circle cx="198.46" cy="30.02" r="0.36"/><circle cx="198.46" cy="31.46" r="0.36"/><circle cx="198.46" cy="32.9" r="0.36"/><path d="M198.82,34.34a.36.36,0,0,0-.36-.36.36.36,0,0,0-.35.29l.58.34A.36.36,0,0,0,198.82,34.34Z"/><path d="M197,13.08a.36.36,0,0,0,.36-.36.36.36,0,0,0-.3-.35l-.4.23a.36.36,0,0,0,0,.12A.36.36,0,0,0,197,13.08Z"/><circle cx="197.02" cy="14.16" r="0.36"/><circle cx="197.02" cy="15.6" r="0.36"/><circle cx="197.02" cy="17.05" r="0.36"/><circle cx="197.02" cy="18.49" r="0.36"/><circle cx="197.02" cy="19.93" r="0.36"/><circle cx="197.02" cy="21.37" r="0.36"/><circle cx="197.02" cy="22.81" r="0.36"/><circle cx="197.02" cy="24.25" r="0.36"/><circle cx="197.02" cy="25.7" r="0.36"/><circle cx="197.02" cy="27.14" r="0.36"/><circle cx="197.02" cy="28.58" r="0.36"/><circle cx="197.02" cy="30.02" r="0.36"/><circle cx="197.02" cy="31.46" r="0.36"/><circle cx="197.02" cy="32.9" r="0.36"/><circle cx="195.57" cy="14.16" r="0.36"/><circle cx="195.57" cy="15.6" r="0.36"/><circle cx="195.57" cy="17.05" r="0.36"/><circle cx="195.57" cy="18.49" r="0.36"/><circle cx="195.57" cy="19.93" r="0.36"/><circle cx="195.57" cy="21.37" r="0.36"/><circle cx="195.57" cy="22.81" r="0.36"/><circle cx="195.57" cy="24.25" r="0.36"/><circle cx="195.57" cy="25.7" r="0.36"/><circle cx="195.57" cy="27.14" r="0.36"/><circle cx="195.57" cy="28.58" r="0.36"/><circle cx="195.57" cy="30.02" r="0.36"/><circle cx="195.57" cy="31.46" r="0.36"/><path d="M195.57,32.54a.36.36,0,0,0-.27.12l.61.35a.35.35,0,0,0,0-.11A.36.36,0,0,0,195.57,32.54Z"/><path d="M194.13,14.53a.36.36,0,0,0,.26-.61l-.6.35A.36.36,0,0,0,194.13,14.53Z"/><circle cx="194.13" cy="15.6" r="0.36"/><circle cx="194.13" cy="17.05" r="0.36"/><circle cx="194.13" cy="18.49" r="0.36"/><circle cx="194.13" cy="19.93" r="0.36"/><circle cx="194.13" cy="21.37" r="0.36"/><circle cx="194.13" cy="22.81" r="0.36"/><circle cx="194.13" cy="24.25" r="0.36"/><circle cx="194.13" cy="25.7" r="0.36"/><circle cx="194.13" cy="27.14" r="0.36"/><circle cx="194.13" cy="28.58" r="0.36"/><circle cx="194.13" cy="30.02" r="0.36"/><circle cx="194.13" cy="31.46" r="0.36"/><polygon points="193.39 66.48 218.02 66.48 218.02 49.43 193.39 35.23 193.39 66.48"/><polygon points="165.47 2.66 165.47 16.8 190.09 2.66 165.47 2.66"/><polygon points="164.94 30.98 164.94 66.48 189.57 66.48 189.57 33.03 175.48 24.91 164.94 30.98"/><polygon points="189.57 16.78 178.67 23.07 189.57 29.36 189.57 16.78"/><polygon points="193.42 0.3 193.42 14.43 218.04 0.3 193.42 0.3"/></svg>