<svg id="Layer_1" data-name="Layer 1" xmlns="http://www.w3.org/2000/svg" viewBox="0 0 201.25 55.89"><title>6</title><path d="M0,.41H11.2a27.52,27.52,0,0,1,7.55.7,6.83,6.83,0,0,1,5,6.73,6.79,6.79,0,0,1-.53,2.79c-1.31,3-4.1,3.53-5.66,3.86,1.76.29,4.1.66,5.7,2.46a6.45,6.45,0,0,1,1.6,4.35,7.71,7.71,0,0,1-4.8,7c-2.17.94-4.51,1.07-7.84,1.07H0ZM6.89,5.83v6h5.46c1.64,0,4.31-.12,4.31-3.12,0-2.79-2.42-2.91-3.81-2.91Zm0,11.28v7h5c2.42,0,5.58-.12,5.58-3.45,0-3.49-2.87-3.53-4.35-3.57Z"/><path d="M35.12,10.18a9.94,9.94,0,0,1,6.2-2.46v5.58l-2.09.33c-3,.54-3.94,1-3.94,3.69V29.38H29V7.92h6.15Z"/><path d="M66,18.63C66,24,62.86,30,54.49,30,48.46,30,43,26.55,43,18.63,43,12.06,47.1,6.85,55.31,7.31,64,7.79,66,14.73,66,18.63M50.39,14.4a7.77,7.77,0,0,0-1.07,4.19C49.32,22,51,25,54.49,25s5.09-2.75,5.09-6.12c0-2.38-.58-4.23-1.76-5.37a4.57,4.57,0,0,0-3.69-1.19,4.26,4.26,0,0,0-3.73,2.09"/><path d="M91.62,18.63C91.62,24,88.5,30,80.13,30c-6,0-11.53-3.44-11.53-11.37C68.6,12.06,72.75,6.85,81,7.31c8.74.49,10.67,7.43,10.67,11.32M76,14.4A7.77,7.77,0,0,0,75,18.59C75,22,76.6,25,80.13,25s5.09-2.75,5.09-6.12c0-2.38-.58-4.23-1.77-5.37a4.56,4.56,0,0,0-3.69-1.19A4.26,4.26,0,0,0,76,14.4"/><polygon points="95.68 0.41 101.88 0.41 101.88 15.3 108.81 7.96 116.4 7.96 109.02 15.59 117.35 29.38 110.04 29.38 104.54 20.15 101.84 22.69 101.84 29.38 95.68 29.38 95.68 0.41"/><path d="M120.67,5.83a6.19,6.19,0,0,1,.9-3.65c.78-1.07,2.54-2.18,5.5-2.18a28.58,28.58,0,0,1,3.77.37V5.09h-1.52c-2.38,0-2.5.49-2.46,3.36h4.23v3.86h-4.18V29.38h-6.28V12.31h-3.37V8.45h3.41Z"/><path d="M134.25.37h6.24V5.25h-6.24Zm0,7.55h6.24V29.38h-6.24Z"/><path d="M166.17,23.92a16.68,16.68,0,0,1-2.58,3.2,11.77,11.77,0,0,1-8.08,3c-6.36,0-10.83-4.06-10.83-11.08,0-5.17,2.54-11.82,11-11.82a10.41,10.41,0,0,1,7.71,3.08c2.79,3,3,7.18,3,9.6H151.11c0,2.67,1.48,5.33,4.88,5.33s4.64-2.26,5.41-3.78ZM159.89,16a5.09,5.09,0,0,0-1.19-3,4.46,4.46,0,0,0-3.08-1.19,4.35,4.35,0,0,0-3.2,1.4A5.58,5.58,0,0,0,151.15,16Z"/><rect x="170.07" y="0.41" width="6.32" height="28.97"/><path d="M201.25.41v29h-5.74v-2A7.6,7.6,0,0,1,189.72,30a8.68,8.68,0,0,1-6-2.46c-3.12-3-3.12-7.31-3.12-8.7,0-8.08,4.6-11.4,8.91-11.4a8.78,8.78,0,0,1,5.67,2.18V.41Zm-6,18.26c0-1,0-3.65-1.35-5.29a3.3,3.3,0,0,0-2.46-1.27c-4.47,0-4.47,5.62-4.47,6.57,0,3,.82,6.65,4,6.65a3.8,3.8,0,0,0,2.05-.65c2.22-1.52,2.22-4.8,2.22-6"/><path d="M66.27,35.58h6.34c2.65,0,4.42,0,6.17,1.44a6.06,6.06,0,0,1,2.2,4.9,5.45,5.45,0,0,1-3.92,5.47l4.42,8.09H77.23l-3.94-7.38H70v7.38H66.27ZM70,38.79V45h1.3c1.27,0,1.74,0,2.45-.06s3.49-.17,3.49-3.07a2.85,2.85,0,0,0-1.58-2.68c-.79-.39-1.75-.42-3.94-.42Z"/><path d="M97,52.31a8.19,8.19,0,0,1-6.87,3.58c-3.69,0-7.24-2.34-7.24-7.52,0-4.73,3-7.41,7-7.41a6.36,6.36,0,0,1,5.55,2.65,10.59,10.59,0,0,1,1.44,5.49H86.44a3.8,3.8,0,0,0,4,3.49,4.12,4.12,0,0,0,3.66-1.94Zm-3.83-5.69a3,3,0,0,0-3.16-3,3.33,3.33,0,0,0-3.44,3Z"/><path d="M100.87,51.3a4.92,4.92,0,0,0,4.06,1.8c1.94,0,2.79-1,2.79-1.66,0-.9-1-1.13-1.47-1.21s-2.79-.53-3.3-.67c-3.35-.79-4-2.73-4-4,0-2.39,2.17-4.59,6-4.59a8,8,0,0,1,4.65,1.35,6.07,6.07,0,0,1,1.44,1.27l-2.39,2.23a3.94,3.94,0,0,0-3.83-2.14c-1.61,0-2.34.71-2.34,1.44,0,1,1,1.29,2.85,1.61,2.93.54,3.74.68,4.65,1.38a3.82,3.82,0,0,1,1.44,3c0,2.2-2,4.82-6.34,4.82a9.64,9.64,0,0,1-6.76-2.51Z"/><path d="M117,39.19h-3.35V35.78H117Zm0,16.28h-3.35V41.38H117Z"/><path d="M133,35.58V55.47h-3.35V54.12a4.87,4.87,0,0,1-3.92,1.77c-3.35,0-6.25-2.51-6.25-7.16,0-4.2,2.37-7.77,6.4-7.77a4.82,4.82,0,0,1,3.77,1.58v-7Zm-4.14,9.8a2.89,2.89,0,0,0-2.48-1.29c-2.28,0-3.38,2.06-3.38,4.28,0,.25,0,4.48,3.32,4.48,1.75,0,3.32-1.29,3.3-4.34a6.19,6.19,0,0,0-.76-3.13"/><path d="M149.55,52.31a8.2,8.2,0,0,1-6.87,3.58c-3.69,0-7.24-2.34-7.24-7.52,0-4.73,3-7.41,7-7.41A6.35,6.35,0,0,1,148,43.61a10.53,10.53,0,0,1,1.44,5.49H139a3.8,3.8,0,0,0,4,3.49,4.11,4.11,0,0,0,3.66-1.94Zm-3.83-5.69a3,3,0,0,0-3.15-3,3.33,3.33,0,0,0-3.44,3Z"/><path d="M151.66,41.38h3.41V43a3.87,3.87,0,0,1,1.1-1.1,5.87,5.87,0,0,1,3.24-1,4.62,4.62,0,0,1,3.69,1.69c.87,1.18.87,2.71.87,4.54v8.28h-3.35V48.28a9.84,9.84,0,0,0-.11-2.14,2.3,2.3,0,0,0-2.31-1.89,3,3,0,0,0-2.59,1.58,8.12,8.12,0,0,0-.53,3.52v6.12h-3.41Z"/><path d="M171.13,43.81v6.37c0,1.75,0,2.51,1.61,2.51a4.74,4.74,0,0,0,1.41-.17v2.85a14,14,0,0,1-2.45.23c-.7,0-3.07,0-3.72-1.72a9.11,9.11,0,0,1-.23-2.87V43.81h-2.06V41.38h2.06v-5h3.38v5h3v2.42Z"/><path d="M180.14,39.19h-3.35V35.78h3.35Zm0,16.28h-3.35V41.38h3.35Z"/><path d="M183.24,45.53a4.55,4.55,0,0,1,.56-2.11c1.35-2.45,4.7-2.45,5.61-2.45a8.55,8.55,0,0,1,4.23.9c1.66,1,1.69,2.34,1.69,3.86v7.46a3,3,0,0,0,.62,2.28h-4c0-.34-.09-.9-.09-1.1a6.63,6.63,0,0,1-4.17,1.44c-3.18,0-5.1-2-5.1-4.4a4.28,4.28,0,0,1,.45-1.92c1-2,3.18-2.48,4.54-2.73a32.53,32.53,0,0,0,4.37-1c0-.71-.06-2.14-2.39-2.14a3,3,0,0,0-2.51.9,1.68,1.68,0,0,0-.34,1.24Zm8.7,2.93a9.83,9.83,0,0,1-3,.85c-1.21.17-2.82.45-2.82,1.94,0,1.1.93,1.66,2.28,1.66a3.5,3.5,0,0,0,3.3-1.63,2.87,2.87,0,0,0,.2-1.27Z"/><rect x="197.84" y="35.58" width="3.41" height="19.89"/></svg>