<svg id="Layer_1" data-name="Layer 1" xmlns="http://www.w3.org/2000/svg" viewBox="0 0 200.25 89.28"><title>4</title><path d="M12.51,80.5a12.42,12.42,0,0,1-6.28-1.64,10.92,10.92,0,0,1-4.36-4.54V80H0V44.78H1.87V59.94q3-6.13,10.7-6.13,6,0,9.4,3.89,3.11,3.58,3.11,9.61t-3.3,9.61Q18.48,80.5,12.51,80.5Zm.23-25q-5.44,0-8.29,3.38Q1.87,62,1.87,67.42a11.46,11.46,0,0,0,3,8.18,10.37,10.37,0,0,0,7.93,3.19,9.6,9.6,0,0,0,7.82-3.38,12.33,12.33,0,0,0,2.59-8.15A12.58,12.58,0,0,0,20.62,59,9.59,9.59,0,0,0,12.75,55.53Z"/><path d="M30,67.88q.31,11,10.78,11A12,12,0,0,0,47,77.23a9.06,9.06,0,0,0,3.91-4.73h1.92a10.52,10.52,0,0,1-4.78,6.28,14.82,14.82,0,0,1-7.43,1.77q-6.23,0-9.5-3.64-3-3.43-3-9.55a13.58,13.58,0,0,1,3.45-9.63A12.11,12.11,0,0,1,40.89,54a12.87,12.87,0,0,1,9.29,3.34,12,12,0,0,1,3.48,9.07v1.46ZM40.92,55.73a10.51,10.51,0,0,0-7.67,2.83A11.41,11.41,0,0,0,30,66.17h21.5a10.59,10.59,0,0,0-3-7.61A10.33,10.33,0,0,0,40.92,55.73Z"/><path d="M66.53,89.28a13.9,13.9,0,0,1-7.37-1.75,8,8,0,0,1-3.69-6.76l1.87-.05q.57,6.85,9.29,6.85,10.07,0,10.07-8.67V75.57Q74,80.76,67,80.76a11.14,11.14,0,0,1-7.53-2.41q-2.8-2.41-2.8-7V54.64h1.87V71.29a7.25,7.25,0,0,0,2.26,5.8A9.17,9.17,0,0,0,67,79q4.83,0,7.37-3a11.3,11.3,0,0,0,2.34-7.54V54.64h1.87v24.3Q78.58,89.28,66.53,89.28Z"/><path d="M94.6,80.55A12.51,12.51,0,0,1,85,76.81a13.17,13.17,0,0,1-3.43-9.5,13.21,13.21,0,0,1,3.56-9.66A12.73,12.73,0,0,1,94.7,54a12.64,12.64,0,0,1,9.5,3.63,13.27,13.27,0,0,1,3.53,9.66,13.09,13.09,0,0,1-3.58,9.61A12.81,12.81,0,0,1,94.6,80.55Zm.05-24.82a10.7,10.7,0,0,0-8.18,3.17,11.76,11.76,0,0,0-3,8.41,11.63,11.63,0,0,0,3,8.36,10.71,10.71,0,0,0,8.15,3.17,10.8,10.8,0,0,0,8.18-3.17,11.57,11.57,0,0,0,3-8.36,11.74,11.74,0,0,0-3-8.44A10.81,10.81,0,0,0,94.65,55.73Z"/><path d="M130.82,80V63.31a7,7,0,0,0-2.28-5.63,9.13,9.13,0,0,0-6.13-1.95,9.34,9.34,0,0,0-7.14,2.78,10.12,10.12,0,0,0-2.62,7.24V80h-1.87V54.64h1.87v4.57q2.6-5.19,9.71-5.19a11.37,11.37,0,0,1,7.27,2.18,7.81,7.81,0,0,1,3.06,6.59V80Z"/><path d="M159,80V74.27q-3.32,6.28-11,6.28a11.5,11.5,0,0,1-9.19-3.84,13.86,13.86,0,0,1-3.17-9.45,14,14,0,0,1,3.17-9.55,11.87,11.87,0,0,1,9.4-3.89q7.63,0,10.75,6.18V44.78h1.87V80Zm-11-24.46a9.51,9.51,0,0,0-7.82,3.53,12.63,12.63,0,0,0-2.64,8.2,12.33,12.33,0,0,0,2.59,8.15,9.68,9.68,0,0,0,7.87,3.43,10.24,10.24,0,0,0,8-3.43,11.59,11.59,0,0,0,3-8.15,12.36,12.36,0,0,0-2.85-8.54Q153.35,55.53,148.07,55.53Z"/><path d="M88.09,36.64a33.52,33.52,0,0,1-15.68,3.59c-11.67,0-20.17-7.66-20.17-19.64S60.74,1,72.41,1c5.91,0,11.14,1.32,14.89,4.8l-5.81,6.34c-2.22-2.32-4.91-3.54-9.08-3.54-7,0-11.62,5.07-11.62,12s4.59,12,11.62,12a16.12,16.12,0,0,0,7.76-1.85V24.71H73.46v-7.6H88.09Z"/><path d="M91.5,0h7.92V39.92H91.5Z"/><path d="M119.51,36.75h-.11c-1.74,2.75-4.91,3.85-8.13,3.85-4.81,0-9.14-2.75-9.14-7.92,0-8.87,10.77-9,17.37-9,0-2.8-2.32-4.59-5.07-4.59A8.46,8.46,0,0,0,108,22.12l-4.22-4.33a16.56,16.56,0,0,1,11.3-4.12c9.24,0,11.72,4.7,11.72,13.25V40h-7.29Zm-2-8c-2.43,0-7.82.21-7.82,3.7,0,1.9,2,2.8,3.75,2.8,3.11,0,6-1.64,6-4.81V28.73Z"/><path d="M157.4,39.92h-7.29V36.54H150a10,10,0,0,1-7.87,4c-7.6,0-12.62-5.49-12.62-13.25,0-7.13,4.44-13.68,11.72-13.68,3.27,0,6.34.9,8.13,3.38h.11V0h7.92ZM143.78,20.59c-4,0-6.34,2.64-6.34,6.49s2.38,6.49,6.34,6.49,6.34-2.64,6.34-6.49S147.74,20.59,143.78,20.59Z"/><path d="M161.93,0h7.92V39.92h-7.92Z"/><path d="M188.64,46.95c-2.11,5.44-3.33,8.5-10.88,8.5a18.74,18.74,0,0,1-5.91-1L172.9,48a9,9,0,0,0,3.7.79c3.59,0,4.17-1.53,5.28-4.33l.58-1.48L171.21,17.11h8.55l6.6,16.95h.11l5.65-16.95h8.13Z"/><path d="M165.09,73.53a3.77,3.77,0,0,1,2.63-1,4,4,0,0,1,2.63.94,3.46,3.46,0,0,1,1.13,2.82,3.31,3.31,0,0,1-1,2.56,4.15,4.15,0,0,1-2.17,1.1l-.3,0-.3,0-.3,0-.3,0a4.15,4.15,0,0,1-2.16-1.1,3.3,3.3,0,0,1-1-2.56A3.52,3.52,0,0,1,165.09,73.53Z"/></svg>