<svg id="Layer_1" data-name="Layer 1" xmlns="http://www.w3.org/2000/svg" viewBox="0 0 109 104.65"><title>2</title><path d="M51.4,22.13h-.16c-11.79-.25-21-2.8-21-5.82,0-2.81,8.5-6.24,19.88-6.63h.18l-.16-1-.68,0c-8.87.33-16.49,1.81-20.38,3.95-1.7.95-2.57,1.95-2.57,3s.87,2.05,2.57,3c4.13,2.29,12.62,3.82,22.14,4h.21c.21,0,.36-.12.36-.27s-.16-.27-.36-.27"/><path d="M51.25,24.33h-.32C34.48,24,21.59,20.16,21.59,15.63c0-4.05,10.85-8.84,27-9.51l1.26-.05-.19-1.55-1.21,0C36,5,24.8,7.21,19.26,10.31c-2.49,1.41-3.75,2.91-3.75,4.46s1.26,3.05,3.75,4.45c6,3.36,18.1,5.59,31.62,5.84h.36c.3,0,.54-.16.54-.38s-.23-.36-.53-.36"/><path d="M50.88,26.6h-.34C28,26.18,10.33,20.94,10.33,14.66S27.62,2.55,48.09,1.85l1.18,0L49.06,0H47.81C30.12.53,14.34,3.54,6.63,7.87c-3.29,1.86-5,3.84-5,5.89s1.67,4,5,5.89c8.19,4.6,25,7.64,43.86,7.93h.39c.42,0,.75-.22.75-.5s-.32-.49-.75-.49"/><path d="M54.53,22.13h.16c11.8-.25,21-2.8,21-5.82,0-2.81-8.5-6.24-19.89-6.63h-.17l.17-1,.68,0c8.86.33,16.48,1.81,20.37,3.95,1.71.95,2.57,1.95,2.57,3s-.86,2.05-2.57,3c-4.13,2.29-12.62,3.82-22.14,4h-.21c-.21,0-.38-.12-.38-.27s.16-.27.36-.27"/><path d="M54.68,24.33H55c16.45-.34,29.34-4.16,29.34-8.68,0-4.05-10.85-8.84-27-9.51l-1.26-.05.19-1.55,1.2,0C69.95,5,81.14,7.21,86.68,10.31c2.48,1.41,3.75,2.91,3.75,4.46s-1.26,3.05-3.75,4.45c-6,3.36-18.1,5.59-31.64,5.84h-.36c-.3,0-.54-.16-.54-.38s.23-.36.53-.36"/><path d="M55,26.6h.34c22.55-.41,40.22-5.65,40.22-11.93S78.31,2.55,57.84,1.85l-1.18,0L56.88,0h1.24C75.81.53,91.6,3.54,99.31,7.87c3.29,1.86,5,3.84,5,5.89s-1.67,4-5,5.89c-8.19,4.6-25,7.64-43.87,7.93H55c-.42,0-.75-.22-.75-.5s.33-.49.75-.49"/><path d="M23.45,78.62,11.07,49.54H0L18.64,91.29h9.54L45.36,49.54H35ZM47.77,91.29H58.4V49.59H47.77ZM104,52.35c-3.26-1.89-7.78-2.84-13.47-2.84l-26.6,0v41.8H74.44V74.53h16.2c5.7,0,10.21-.93,13.47-2.82S109,66.61,109,62.07s-1.71-7.83-5-9.72M95.15,65.73a10.22,10.22,0,0,1-4.55.94H74.44V57.37H90.6c3.22-.15,4.65.84,4.65.84,1.37.84,1.79,2,1.79,3.81s-.63,3.07-1.89,3.7"/><path d="M26.81,99.09c-.1-1.23-.49-1.75-1.15-1.75-1,0-1.41.87-1.41,3.3s.43,3.29,1.41,3.29c.79,0,1.24-.54,1.27-2h.84c0,1.73-.78,2.71-2.11,2.71s-2.25-1.06-2.25-4,.86-4,2.25-4c1.15,0,1.87.8,2,2.46Z"/><rect x="33.4" y="96.74" width="0.84" height="7.8"/><polygon points="41.27 96.74 43.27 102.49 43.29 102.49 43.29 96.74 44.14 96.74 44.14 104.54 43.23 104.54 40.81 97.75 40.79 97.75 40.79 104.54 39.95 104.54 39.95 96.74 41.27 96.74"/><polygon points="53.34 96.74 53.34 97.45 50.62 97.45 50.62 100.11 52.63 100.11 52.63 100.83 50.62 100.83 50.62 103.83 53.47 103.83 53.47 104.54 49.78 104.54 49.78 96.74 53.34 96.74"/><polygon points="60.13 96.74 61.49 102.64 61.51 102.64 62.84 96.74 64.18 96.74 64.18 104.54 63.4 104.54 63.4 97.39 63.38 97.39 61.76 104.54 61.21 104.54 59.59 97.39 59.57 97.39 59.57 104.54 58.79 104.54 58.79 96.74 60.13 96.74"/><path d="M72.09,96.74l1.72,7.81H73l-.46-2.31h-2L70,104.54h-.84l1.72-7.81Zm-1.46,4.78h1.75l-.86-4.19h0Z"/><path d="M81.72,98.75c-.07-.8-.39-1.41-1.2-1.41a1,1,0,0,0-1.07,1c0,1.76,3.13,1.78,3.13,4.29a1.81,1.81,0,0,1-2,2,2,2,0,0,1-2-2.2h.78c0,.91.45,1.49,1.29,1.49s1.15-.45,1.15-1.28c0-1.77-3.13-2-3.13-4.2a1.74,1.74,0,0,1,1.88-1.82c1.12,0,1.86.76,1.92,2.12Z"/><path d="M13.59,42.41l1.36,1.74a16.29,16.29,0,0,1-2.49,1.31,12.18,12.18,0,0,1-1.94.55,11.64,11.64,0,0,1-2.33.21,10.54,10.54,0,0,1-2.66-.38,6.83,6.83,0,0,1-2.35-1.09,6.1,6.1,0,0,1-1.67-1.87,5.18,5.18,0,0,1-.64-2.6,5.11,5.11,0,0,1,.64-2.59,5.87,5.87,0,0,1,1.7-1.85,7.41,7.41,0,0,1,2.42-1.12,10.46,10.46,0,0,1,2.8-.38,12.1,12.1,0,0,1,2,.19,9.39,9.39,0,0,1,1.63.42,6.67,6.67,0,0,1,2.22,1.14L13,37.79a6.64,6.64,0,0,0-2.19-1.18,7.38,7.38,0,0,0-.74-.17,8.22,8.22,0,0,0-1.61-.15,6.84,6.84,0,0,0-1.92.25A4.52,4.52,0,0,0,5,37.3a3.39,3.39,0,0,0-1,1.24,3.88,3.88,0,0,0-.35,1.69,3.66,3.66,0,0,0,.39,1.7,4.33,4.33,0,0,0,1,1.29A4.38,4.38,0,0,0,6.59,44a5.14,5.14,0,0,0,1.67.28,7.5,7.5,0,0,0,1.61-.19,10.67,10.67,0,0,0,1.5-.44,7.82,7.82,0,0,0,2.22-1.29"/><path d="M53,46.15H50.14V34.57h7.79a6.68,6.68,0,0,1,3.56.76A2.93,2.93,0,0,1,62.68,38a2.83,2.83,0,0,1-1.19,2.62,7,7,0,0,1-3.56.72H53Zm4.92-6.76a3.22,3.22,0,0,0,1.42-.27A1.12,1.12,0,0,0,59.86,38a1.22,1.22,0,0,0-.57-1.15,2.8,2.8,0,0,0-1.42-.33H53v2.87Z"/><path d="M106.21,36a.88.88,0,0,1-.64.27.9.9,0,0,1-.64-.27.91.91,0,0,1,0-1.28.89.89,0,0,1,.64-.27.87.87,0,0,1,.64.27.9.9,0,0,1,0,1.28M105,34.82a.76.76,0,0,0-.23.56.77.77,0,0,0,.22.55.78.78,0,0,0,1.11,0,.78.78,0,0,0-.55-1.33.73.73,0,0,0-.55.23m.53,0a.76.76,0,0,1,.27,0,.25.25,0,0,1,.16.26.22.22,0,0,1-.1.2.44.44,0,0,1-.14,0,.23.23,0,0,1,.17.1.3.3,0,0,1,.05.15v.15a.28.28,0,0,0,0,.05h-.16v-.13a.25.25,0,0,0-.09-.23.41.41,0,0,0-.2,0h-.14v.39h-.17v-1Zm.19.16a.49.49,0,0,0-.21,0h-.15v.36h.15l.17,0a.15.15,0,0,0,.1-.16.16.16,0,0,0-.07-.15"/><rect x="16.18" y="34.54" width="2.8" height="11.62"/><polygon points="21.02 34.54 21.02 46.16 23.48 46.16 23.48 37.58 32.26 46.17 34.7 46.17 34.7 34.55 32.24 34.55 32.24 42.6 23.89 34.55 21.02 34.54"/><polygon points="48.43 46.16 48.43 44.21 39.6 44.21 39.6 41.09 45.59 41.09 45.59 39.15 39.6 39.15 39.6 36.5 48.18 36.5 48.18 34.54 36.78 34.54 36.78 46.16 48.43 46.16"/><polygon points="89.67 46.16 89.67 44.21 80.83 44.21 80.83 41.09 86.83 41.09 86.83 39.15 80.83 39.15 80.83 36.5 89.42 36.5 89.42 34.54 78.01 34.54 78.01 46.16 89.67 46.16"/><polygon points="64.25 34.54 64.25 46.17 76.28 46.17 76.28 44.22 67.02 44.22 67.02 34.53 64.25 34.54"/><polygon points="90.66 34.55 95.83 40.34 90.56 46.16 93.86 46.16 97.43 42.16 101 46.16 104.65 46.16 99.2 40.2 104.28 34.54 101.07 34.54 97.58 38.41 94.05 34.55 90.66 34.55"/></svg>