<?xml version="1.0" encoding="utf-8"?>
<!-- Generator: Adobe Illustrator 19.0.0, SVG Export Plug-In . SVG Version: 6.00 Build 0)  -->
<svg version="1.1" id="Layer_1" xmlns="http://www.w3.org/2000/svg" xmlns:xlink="http://www.w3.org/1999/xlink" x="0px" y="0px"
	 viewBox="0 0 300 100" style="enable-background:new 0 0 300 100;" xml:space="preserve">
<style type="text/css">
	.st0{fill:#010101;}
</style>
<g>
	<polygon class="st0" points="108,19.1 108,33.2 132.6,19.1 	"/>
	<g>
		<path class="st0" d="M65.1,57.5c0.1,0,0.1,0,0.2,0c-0.2-0.2-0.3-0.4-0.4-0.6c0,0.1-0.1,0.1-0.1,0.2C64.7,57.3,64.9,57.5,65.1,57.5
			z"/>
		<path class="st0" d="M63.6,43.5c-0.2,0-0.4,0.2-0.4,0.4c0,0.2,0.2,0.4,0.4,0.4c0,0,0,0,0.1,0c0.1-0.2,0.2-0.3,0.3-0.5
			C63.9,43.6,63.8,43.5,63.6,43.5z"/>
		<path class="st0" d="M63.5,54.5c-0.1-0.1-0.1-0.3-0.2-0.4c0,0,0,0.1,0,0.1C63.3,54.3,63.3,54.4,63.5,54.5z"/>
		<path class="st0" d="M63.9,55.4c0,0.1,0.1,0.1,0.1,0.2C64,55.5,63.9,55.4,63.9,55.4z"/>
		<path class="st0" d="M63.3,55.6c0,0.2,0.2,0.4,0.4,0.4c0.2,0,0.4-0.2,0.4-0.4c0,0,0-0.1,0-0.1c0-0.1-0.1-0.1-0.1-0.2
			c-0.1-0.1-0.2-0.1-0.3-0.1C63.4,55.3,63.3,55.4,63.3,55.6z"/>
		<circle class="st0" cx="63.6" cy="57.1" r="0.4"/>
		<path class="st0" d="M63.6,58.2c-0.2,0-0.4,0.2-0.4,0.4c0,0.1,0.1,0.2,0.2,0.3l0.6-0.3C64,58.4,63.8,58.2,63.6,58.2z"/>
		<path class="st0" d="M62.2,42.7c0.1,0,0.2-0.1,0.3-0.2l-0.6-0.4c0,0.1,0,0.1,0,0.2C61.8,42.6,62,42.7,62.2,42.7z"/>
		<circle class="st0" cx="62.2" cy="43.8" r="0.4"/>
		<circle class="st0" cx="62.2" cy="45.3" r="0.4"/>
		<circle class="st0" cx="62.2" cy="46.8" r="0.4"/>
		<circle class="st0" cx="62.2" cy="48.3" r="0.4"/>
		<path class="st0" d="M62.5,49.9c0-0.1,0.1-0.1,0.1-0.2c0-0.1,0-0.1-0.1-0.2c0,0,0,0.1,0,0.1C62.5,49.7,62.5,49.8,62.5,49.9z"/>
		<path class="st0" d="M62.2,49.4c-0.2,0-0.4,0.2-0.4,0.4c0,0.2,0.2,0.4,0.4,0.4c0.1,0,0.2-0.1,0.3-0.2c0-0.1,0-0.2,0-0.3
			c0,0,0-0.1,0-0.1C62.4,49.4,62.3,49.4,62.2,49.4z"/>
		<circle class="st0" cx="62.2" cy="51.2" r="0.4"/>
		<circle class="st0" cx="62.2" cy="52.7" r="0.4"/>
		<circle class="st0" cx="62.2" cy="54.2" r="0.4"/>
		<circle class="st0" cx="62.2" cy="55.6" r="0.4"/>
		<circle class="st0" cx="62.2" cy="57.1" r="0.4"/>
		<circle class="st0" cx="62.2" cy="58.6" r="0.4"/>
		<circle class="st0" cx="60.7" cy="42.4" r="0.4"/>
		<circle class="st0" cx="60.7" cy="43.8" r="0.4"/>
		<circle class="st0" cx="60.7" cy="45.3" r="0.4"/>
		<circle class="st0" cx="60.7" cy="46.8" r="0.4"/>
		<circle class="st0" cx="60.7" cy="48.3" r="0.4"/>
		<circle class="st0" cx="60.7" cy="49.7" r="0.4"/>
		<circle class="st0" cx="60.7" cy="51.2" r="0.4"/>
		<circle class="st0" cx="60.7" cy="52.7" r="0.4"/>
		<circle class="st0" cx="60.7" cy="54.2" r="0.4"/>
		<circle class="st0" cx="60.7" cy="55.6" r="0.4"/>
		<circle class="st0" cx="60.7" cy="57.1" r="0.4"/>
		<circle class="st0" cx="60.7" cy="58.6" r="0.4"/>
		<path class="st0" d="M60.7,59.7c-0.2,0-0.4,0.2-0.4,0.4c0,0.2,0.2,0.4,0.4,0.4c0,0,0.1,0,0.1,0l0.2-0.1c0.1-0.1,0.1-0.2,0.1-0.3
			C61.1,59.8,60.9,59.7,60.7,59.7z"/>
		<path class="st0" d="M58.8,40.9c0,0.2,0.2,0.4,0.4,0.4c0.2,0,0.4-0.2,0.4-0.4l0,0L59,40.6C58.9,40.6,58.8,40.8,58.8,40.9z"/>
		<circle class="st0" cx="59.2" cy="42.4" r="0.4"/>
		<circle class="st0" cx="59.2" cy="43.8" r="0.4"/>
		<circle class="st0" cx="59.2" cy="45.3" r="0.4"/>
		<circle class="st0" cx="59.2" cy="46.8" r="0.4"/>
		<circle class="st0" cx="59.2" cy="48.3" r="0.4"/>
		<circle class="st0" cx="59.2" cy="49.7" r="0.4"/>
		<circle class="st0" cx="59.2" cy="51.2" r="0.4"/>
		<circle class="st0" cx="59.2" cy="52.7" r="0.4"/>
		<circle class="st0" cx="59.2" cy="54.2" r="0.4"/>
		<circle class="st0" cx="59.2" cy="55.6" r="0.4"/>
		<circle class="st0" cx="59.2" cy="57.1" r="0.4"/>
		<circle class="st0" cx="59.2" cy="58.6" r="0.4"/>
		<circle class="st0" cx="59.2" cy="60" r="0.4"/>
		<path class="st0" d="M58.8,61.5l0.5-0.3c-0.1,0-0.1-0.1-0.2-0.1C59,61.2,58.8,61.3,58.8,61.5z"/>
		<path class="st0" d="M57.6,39.8l-0.2-0.1C57.5,39.7,57.6,39.8,57.6,39.8z"/>
		<circle class="st0" cx="57.7" cy="40.9" r="0.4"/>
		<circle class="st0" cx="57.7" cy="42.4" r="0.4"/>
		<circle class="st0" cx="57.7" cy="43.8" r="0.4"/>
		<circle class="st0" cx="57.7" cy="45.3" r="0.4"/>
		<circle class="st0" cx="57.7" cy="46.8" r="0.4"/>
		<circle class="st0" cx="57.7" cy="48.3" r="0.4"/>
		<circle class="st0" cx="57.7" cy="49.7" r="0.4"/>
		<circle class="st0" cx="57.7" cy="51.2" r="0.4"/>
		<circle class="st0" cx="57.7" cy="52.7" r="0.4"/>
		<circle class="st0" cx="57.7" cy="54.2" r="0.4"/>
		<circle class="st0" cx="57.7" cy="55.6" r="0.4"/>
		<circle class="st0" cx="57.7" cy="57.1" r="0.4"/>
		<circle class="st0" cx="57.7" cy="58.6" r="0.4"/>
		<circle class="st0" cx="57.7" cy="60" r="0.4"/>
		<circle class="st0" cx="57.7" cy="61.5" r="0.4"/>
		<circle class="st0" cx="56.3" cy="39.4" r="0.4"/>
		<circle class="st0" cx="56.3" cy="40.9" r="0.4"/>
		<circle class="st0" cx="56.3" cy="42.4" r="0.4"/>
		<circle class="st0" cx="56.3" cy="43.8" r="0.4"/>
		<circle class="st0" cx="56.3" cy="45.3" r="0.4"/>
		<circle class="st0" cx="56.3" cy="46.8" r="0.4"/>
		<circle class="st0" cx="56.3" cy="48.3" r="0.4"/>
		<circle class="st0" cx="56.3" cy="49.7" r="0.4"/>
		<circle class="st0" cx="56.3" cy="51.2" r="0.4"/>
		<circle class="st0" cx="56.3" cy="52.7" r="0.4"/>
		<circle class="st0" cx="56.3" cy="54.2" r="0.4"/>
		<circle class="st0" cx="56.3" cy="55.6" r="0.4"/>
		<circle class="st0" cx="56.3" cy="57.1" r="0.4"/>
		<circle class="st0" cx="56.3" cy="58.6" r="0.4"/>
		<circle class="st0" cx="56.3" cy="60" r="0.4"/>
		<circle class="st0" cx="56.3" cy="61.5" r="0.4"/>
		<path class="st0" d="M56.3,62.6c-0.2,0-0.4,0.2-0.4,0.4c0,0.1,0,0.1,0.1,0.2l0.6-0.4C56.5,62.7,56.4,62.6,56.3,62.6z"/>
		<path class="st0" d="M54.8,38.3c0.1,0,0.1,0,0.2-0.1l-0.6-0.3c0,0,0,0,0,0C54.4,38.2,54.6,38.3,54.8,38.3z"/>
		<circle class="st0" cx="54.8" cy="39.4" r="0.4"/>
		<circle class="st0" cx="54.8" cy="40.9" r="0.4"/>
		<circle class="st0" cx="54.8" cy="42.4" r="0.4"/>
		<circle class="st0" cx="54.8" cy="43.8" r="0.4"/>
		<circle class="st0" cx="54.8" cy="45.3" r="0.4"/>
		<circle class="st0" cx="54.8" cy="46.8" r="0.4"/>
		<circle class="st0" cx="54.8" cy="48.3" r="0.4"/>
		<circle class="st0" cx="54.8" cy="49.7" r="0.4"/>
		<circle class="st0" cx="54.8" cy="51.2" r="0.4"/>
		<circle class="st0" cx="54.8" cy="52.7" r="0.4"/>
		<circle class="st0" cx="54.8" cy="54.2" r="0.4"/>
		<circle class="st0" cx="54.8" cy="55.6" r="0.4"/>
		<circle class="st0" cx="54.8" cy="57.1" r="0.4"/>
		<circle class="st0" cx="54.8" cy="58.6" r="0.4"/>
		<circle class="st0" cx="54.8" cy="60" r="0.4"/>
		<circle class="st0" cx="54.8" cy="61.5" r="0.4"/>
		<circle class="st0" cx="54.8" cy="63" r="0.4"/>
		<circle class="st0" cx="53.3" cy="37.9" r="0.4"/>
		<circle class="st0" cx="53.3" cy="39.4" r="0.4"/>
		<circle class="st0" cx="53.3" cy="40.9" r="0.4"/>
		<circle class="st0" cx="53.3" cy="42.4" r="0.4"/>
		<circle class="st0" cx="53.3" cy="43.8" r="0.4"/>
		<circle class="st0" cx="53.3" cy="45.3" r="0.4"/>
		<circle class="st0" cx="53.3" cy="46.8" r="0.4"/>
		<circle class="st0" cx="53.3" cy="48.3" r="0.4"/>
		<circle class="st0" cx="53.3" cy="49.7" r="0.4"/>
		<circle class="st0" cx="53.3" cy="51.2" r="0.4"/>
		<circle class="st0" cx="53.3" cy="52.7" r="0.4"/>
		<circle class="st0" cx="53.3" cy="54.2" r="0.4"/>
		<circle class="st0" cx="53.3" cy="55.6" r="0.4"/>
		<circle class="st0" cx="53.3" cy="57.1" r="0.4"/>
		<circle class="st0" cx="53.3" cy="58.6" r="0.4"/>
		<circle class="st0" cx="53.3" cy="60" r="0.4"/>
		<circle class="st0" cx="53.3" cy="61.5" r="0.4"/>
		<circle class="st0" cx="53.3" cy="63" r="0.4"/>
		<path class="st0" d="M53.3,64.8c0.2,0,0.4-0.2,0.4-0.3l-0.5,0.3C53.2,64.8,53.3,64.8,53.3,64.8z"/>
		<path class="st0" d="M53.3,64.1c-0.2,0-0.4,0.2-0.4,0.4c0,0.1,0.1,0.3,0.2,0.3l0.5-0.3c0,0,0,0,0,0C53.7,64.3,53.5,64.1,53.3,64.1
			z"/>
		<path class="st0" d="M51.8,36.8c0.1,0,0.3-0.1,0.3-0.2l-0.6-0.4c0,0.1-0.1,0.1-0.1,0.2C51.5,36.7,51.6,36.8,51.8,36.8z"/>
		<circle class="st0" cx="51.8" cy="37.9" r="0.4"/>
		<circle class="st0" cx="51.8" cy="39.4" r="0.4"/>
		<circle class="st0" cx="51.8" cy="40.9" r="0.4"/>
		<circle class="st0" cx="51.8" cy="42.4" r="0.4"/>
		<circle class="st0" cx="51.8" cy="43.8" r="0.4"/>
		<circle class="st0" cx="51.8" cy="45.3" r="0.4"/>
		<circle class="st0" cx="51.8" cy="46.8" r="0.4"/>
		<circle class="st0" cx="51.8" cy="48.3" r="0.4"/>
		<circle class="st0" cx="51.8" cy="49.7" r="0.4"/>
		<circle class="st0" cx="51.8" cy="51.2" r="0.4"/>
		<circle class="st0" cx="51.8" cy="52.7" r="0.4"/>
		<circle class="st0" cx="51.8" cy="54.2" r="0.4"/>
		<circle class="st0" cx="51.8" cy="55.6" r="0.4"/>
		<circle class="st0" cx="51.8" cy="57.1" r="0.4"/>
		<circle class="st0" cx="51.8" cy="58.6" r="0.4"/>
		<circle class="st0" cx="51.8" cy="60" r="0.4"/>
		<circle class="st0" cx="51.8" cy="61.5" r="0.4"/>
		<circle class="st0" cx="51.8" cy="63" r="0.4"/>
		<circle class="st0" cx="51.8" cy="64.5" r="0.4"/>
		<path class="st0" d="M51.6,65.7l0.2-0.1C51.7,65.6,51.6,65.6,51.6,65.7z"/>
		<circle class="st0" cx="50.4" cy="36.5" r="0.4"/>
		<circle class="st0" cx="50.4" cy="37.9" r="0.4"/>
		<circle class="st0" cx="50.4" cy="39.4" r="0.4"/>
		<circle class="st0" cx="50.4" cy="40.9" r="0.4"/>
		<circle class="st0" cx="50.4" cy="42.4" r="0.4"/>
		<circle class="st0" cx="50.4" cy="43.8" r="0.4"/>
		<circle class="st0" cx="50.4" cy="45.3" r="0.4"/>
		<circle class="st0" cx="50.4" cy="46.8" r="0.4"/>
		<circle class="st0" cx="50.4" cy="48.3" r="0.4"/>
		<circle class="st0" cx="50.4" cy="49.7" r="0.4"/>
		<circle class="st0" cx="50.4" cy="51.2" r="0.4"/>
		<circle class="st0" cx="50.4" cy="52.7" r="0.4"/>
		<circle class="st0" cx="50.4" cy="54.2" r="0.4"/>
		<circle class="st0" cx="50.4" cy="55.6" r="0.4"/>
		<circle class="st0" cx="50.4" cy="57.1" r="0.4"/>
		<circle class="st0" cx="50.4" cy="58.6" r="0.4"/>
		<circle class="st0" cx="50.4" cy="60" r="0.4"/>
		<circle class="st0" cx="50.4" cy="61.5" r="0.4"/>
		<circle class="st0" cx="50.4" cy="63" r="0.4"/>
		<circle class="st0" cx="50.4" cy="64.5" r="0.4"/>
		<circle class="st0" cx="50.4" cy="65.9" r="0.4"/>
		<path class="st0" d="M48.5,35c0,0.2,0.2,0.4,0.4,0.4c0.2,0,0.4-0.2,0.4-0.4c0,0,0,0,0-0.1l-0.5-0.3C48.6,34.7,48.5,34.8,48.5,35z"
			/>
		<circle class="st0" cx="48.9" cy="36.5" r="0.4"/>
		<circle class="st0" cx="48.9" cy="37.9" r="0.4"/>
		<circle class="st0" cx="48.9" cy="39.4" r="0.4"/>
		<circle class="st0" cx="48.9" cy="40.9" r="0.4"/>
		<circle class="st0" cx="48.9" cy="42.4" r="0.4"/>
		<circle class="st0" cx="48.9" cy="43.8" r="0.4"/>
		<circle class="st0" cx="48.9" cy="45.3" r="0.4"/>
		<circle class="st0" cx="48.9" cy="46.8" r="0.4"/>
		<circle class="st0" cx="48.9" cy="48.3" r="0.4"/>
		<circle class="st0" cx="48.9" cy="49.7" r="0.4"/>
		<circle class="st0" cx="48.9" cy="51.2" r="0.4"/>
		<circle class="st0" cx="48.9" cy="52.7" r="0.4"/>
		<circle class="st0" cx="48.9" cy="54.2" r="0.4"/>
		<circle class="st0" cx="48.9" cy="55.6" r="0.4"/>
		<circle class="st0" cx="48.9" cy="57.1" r="0.4"/>
		<circle class="st0" cx="48.9" cy="58.6" r="0.4"/>
		<circle class="st0" cx="48.9" cy="60" r="0.4"/>
		<circle class="st0" cx="48.9" cy="61.5" r="0.4"/>
		<circle class="st0" cx="48.9" cy="63" r="0.4"/>
		<circle class="st0" cx="48.9" cy="64.5" r="0.4"/>
		<circle class="st0" cx="48.9" cy="65.9" r="0.4"/>
		<path class="st0" d="M48.5,67.4C48.5,67.4,48.5,67.4,48.5,67.4l0.6-0.3c-0.1,0-0.1-0.1-0.2-0.1C48.7,67,48.5,67.2,48.5,67.4z"/>
		<path class="st0" d="M47.4,33.9C47.4,33.9,47.4,33.9,47.4,33.9l-0.3-0.2C47.2,33.8,47.3,33.9,47.4,33.9z"/>
		<circle class="st0" cx="47.4" cy="35" r="0.4"/>
		<circle class="st0" cx="47.4" cy="36.5" r="0.4"/>
		<circle class="st0" cx="47.4" cy="37.9" r="0.4"/>
		<circle class="st0" cx="47.4" cy="39.4" r="0.4"/>
		<circle class="st0" cx="47.4" cy="40.9" r="0.4"/>
		<circle class="st0" cx="47.4" cy="42.4" r="0.4"/>
		<circle class="st0" cx="47.4" cy="43.8" r="0.4"/>
		<circle class="st0" cx="47.4" cy="45.3" r="0.4"/>
		<circle class="st0" cx="47.4" cy="46.8" r="0.4"/>
		<circle class="st0" cx="47.4" cy="48.3" r="0.4"/>
		<circle class="st0" cx="47.4" cy="49.7" r="0.4"/>
		<circle class="st0" cx="47.4" cy="51.2" r="0.4"/>
		<circle class="st0" cx="47.4" cy="52.7" r="0.4"/>
		<circle class="st0" cx="47.4" cy="54.2" r="0.4"/>
		<circle class="st0" cx="47.4" cy="55.6" r="0.4"/>
		<circle class="st0" cx="47.4" cy="57.1" r="0.4"/>
		<circle class="st0" cx="47.4" cy="58.6" r="0.4"/>
		<circle class="st0" cx="47.4" cy="60" r="0.4"/>
		<circle class="st0" cx="47.4" cy="61.5" r="0.4"/>
		<circle class="st0" cx="47.4" cy="63" r="0.4"/>
		<circle class="st0" cx="47.4" cy="64.5" r="0.4"/>
		<circle class="st0" cx="47.4" cy="65.9" r="0.4"/>
		<circle class="st0" cx="47.4" cy="67.4" r="0.4"/>
		<path class="st0" d="M46,33.9c0.2,0,0.4-0.2,0.4-0.4c0-0.2-0.2-0.4-0.4-0.4c0,0,0,0,0,0c-0.1,0.2-0.2,0.4-0.3,0.5
			C45.7,33.8,45.8,33.9,46,33.9z"/>
		<circle class="st0" cx="46" cy="35" r="0.4"/>
		<circle class="st0" cx="46" cy="36.5" r="0.4"/>
		<circle class="st0" cx="46" cy="37.9" r="0.4"/>
		<circle class="st0" cx="46" cy="39.4" r="0.4"/>
		<circle class="st0" cx="46" cy="40.9" r="0.4"/>
		<circle class="st0" cx="46" cy="42.4" r="0.4"/>
		<circle class="st0" cx="46" cy="43.8" r="0.4"/>
		<circle class="st0" cx="46" cy="45.3" r="0.4"/>
		<circle class="st0" cx="46" cy="46.8" r="0.4"/>
		<circle class="st0" cx="46" cy="48.3" r="0.4"/>
		<circle class="st0" cx="46" cy="49.7" r="0.4"/>
		<circle class="st0" cx="46" cy="51.2" r="0.4"/>
		<circle class="st0" cx="46" cy="52.7" r="0.4"/>
		<circle class="st0" cx="46" cy="54.2" r="0.4"/>
		<circle class="st0" cx="46" cy="55.6" r="0.4"/>
		<circle class="st0" cx="46" cy="57.1" r="0.4"/>
		<circle class="st0" cx="46" cy="58.6" r="0.4"/>
		<circle class="st0" cx="46" cy="60" r="0.4"/>
		<circle class="st0" cx="46" cy="61.5" r="0.4"/>
		<circle class="st0" cx="46" cy="63" r="0.4"/>
		<circle class="st0" cx="46" cy="64.5" r="0.4"/>
		<path class="st0" d="M46.3,65.9c0-0.2-0.2-0.4-0.4-0.4c-0.1,0-0.2,0-0.2,0.1c0.1,0.2,0.2,0.4,0.4,0.6
			C46.2,66.2,46.3,66.1,46.3,65.9z"/>
		<path class="st0" d="M44.5,36.8c0.2,0,0.4-0.2,0.4-0.4c0-0.2-0.2-0.4-0.4-0.4c0,0,0,0,0,0c-0.1,0.2-0.2,0.4-0.3,0.6
			C44.3,36.8,44.4,36.8,44.5,36.8z"/>
		<circle class="st0" cx="44.5" cy="37.9" r="0.4"/>
		<circle class="st0" cx="44.5" cy="39.4" r="0.4"/>
		<circle class="st0" cx="44.5" cy="40.9" r="0.4"/>
		<circle class="st0" cx="44.5" cy="42.4" r="0.4"/>
		<circle class="st0" cx="44.5" cy="43.8" r="0.4"/>
		<circle class="st0" cx="44.5" cy="45.3" r="0.4"/>
		<circle class="st0" cx="44.5" cy="46.8" r="0.4"/>
		<circle class="st0" cx="44.5" cy="48.3" r="0.4"/>
		<circle class="st0" cx="44.5" cy="49.7" r="0.4"/>
		<circle class="st0" cx="44.5" cy="51.2" r="0.4"/>
		<circle class="st0" cx="44.5" cy="52.7" r="0.4"/>
		<circle class="st0" cx="44.5" cy="54.2" r="0.4"/>
		<circle class="st0" cx="44.5" cy="55.6" r="0.4"/>
		<circle class="st0" cx="44.5" cy="57.1" r="0.4"/>
		<circle class="st0" cx="44.5" cy="58.6" r="0.4"/>
		<circle class="st0" cx="44.5" cy="60" r="0.4"/>
		<circle class="st0" cx="44.5" cy="61.5" r="0.4"/>
		<path class="st0" d="M44.8,63c0-0.2-0.2-0.4-0.4-0.4c-0.1,0-0.2,0-0.2,0.1c0.1,0.2,0.2,0.4,0.3,0.6C44.7,63.3,44.8,63.2,44.8,63z"
			/>
		<path class="st0" d="M43.4,39.4c0-0.1,0-0.2-0.1-0.3c-0.1,0.2-0.1,0.4-0.2,0.6C43.2,39.8,43.4,39.6,43.4,39.4z"/>
		<path class="st0" d="M43,41.3c0.2,0,0.4-0.2,0.4-0.4s-0.2-0.4-0.4-0.4c-0.1,0-0.1,0-0.2,0.1c0,0.2-0.1,0.3-0.1,0.5
			C42.7,41.2,42.9,41.3,43,41.3z"/>
		<circle class="st0" cx="43" cy="42.4" r="0.4"/>
		<circle class="st0" cx="43" cy="43.8" r="0.4"/>
		<circle class="st0" cx="43" cy="45.3" r="0.4"/>
		<circle class="st0" cx="43" cy="46.8" r="0.4"/>
		<circle class="st0" cx="43" cy="48.3" r="0.4"/>
		<circle class="st0" cx="43" cy="49.7" r="0.4"/>
		<circle class="st0" cx="43" cy="51.2" r="0.4"/>
		<circle class="st0" cx="43" cy="52.7" r="0.4"/>
		<circle class="st0" cx="43" cy="54.2" r="0.4"/>
		<circle class="st0" cx="43" cy="55.6" r="0.4"/>
		<circle class="st0" cx="43" cy="57.1" r="0.4"/>
		<path class="st0" d="M42.6,58.6c0,0.2,0.1,0.3,0.3,0.3c-0.1-0.2-0.1-0.4-0.2-0.6C42.7,58.4,42.6,58.5,42.6,58.6z"/>
		<path class="st0" d="M43.4,58.6c0-0.2-0.2-0.4-0.4-0.4c-0.1,0-0.2,0.1-0.3,0.1c0.1,0.2,0.1,0.4,0.2,0.6c0,0,0.1,0,0.1,0
			C43.2,58.9,43.4,58.8,43.4,58.6z"/>
		<path class="st0" d="M43.1,59.7c0.1,0.2,0.1,0.4,0.2,0.5c0-0.1,0.1-0.1,0.1-0.2C43.4,59.9,43.3,59.8,43.1,59.7z"/>
		<path class="st0" d="M41.9,45.2c0,0.1,0,0.2,0,0.4c0-0.1,0.1-0.1,0.1-0.2C41.9,45.3,41.9,45.2,41.9,45.2z"/>
		<path class="st0" d="M41.9,46.8c0-0.1-0.1-0.2-0.2-0.3c0,0.2,0,0.4-0.1,0.7C41.8,47.1,41.9,46.9,41.9,46.8z"/>
		<path class="st0" d="M41.9,48.3c0-0.2-0.1-0.3-0.3-0.4c0,0.2,0,0.5,0,0.7C41.8,48.6,41.9,48.4,41.9,48.3z"/>
		<path class="st0" d="M41.9,49.7c0-0.2-0.1-0.3-0.3-0.4c0,0.1,0,0.2,0,0.2c0,0.2,0,0.3,0,0.5C41.8,50.1,41.9,49.9,41.9,49.7z"/>
		<path class="st0" d="M41.9,51.2c0-0.2-0.1-0.3-0.3-0.4c0,0.2,0,0.5,0,0.7C41.8,51.5,41.9,51.4,41.9,51.2z"/>
		<path class="st0" d="M41.9,52.7c0-0.1-0.1-0.3-0.2-0.3c0,0.2,0,0.4,0.1,0.6C41.8,52.9,41.9,52.8,41.9,52.7z"/>
		<path class="st0" d="M41.9,54c0,0.1,0,0.1,0,0.2c0,0,0,0,0-0.1C41.9,54.1,41.9,54,41.9,54z"/>
	</g>
	<polygon class="st0" points="108,82.9 126,82.9 108,72.5 	"/>
	<path class="st0" d="M74.8,37.3c5.4,0,10,3.5,11.7,8.3l18.2-10.5C99.3,24,87.9,16.4,74.8,16.4c-9,0-17.2,3.6-23.2,9.5l20.4,11.7
		C72.9,37.4,73.8,37.3,74.8,37.3z"/>
	<path class="st0" d="M85.5,55.8c-0.5,0.9-1.2,1.8-2,2.5c-2.2,2.2-5.3,3.6-8.7,3.6c-3.7,0-7.1-1.7-9.3-4.3L47.3,68.2
		c6,8.8,16.1,14.6,27.5,14.6c11.1,0,21-5.5,27-13.9c0.6-0.9,1.2-1.8,1.7-2.7L85.5,55.8z"/>
	<polygon class="st0" points="108,47.4 108,68.7 132.6,82.9 132.6,33.2 	"/>
	<polygon class="st0" points="206.5,33.2 181.9,33.2 172.1,53.1 206.5,33.3 	"/>
	<polygon class="st0" points="157.3,33.2 132.6,33.2 149.1,66.4 168.1,55.4 	"/>
	<polygon class="st0" points="157.3,82.9 157.3,82.9 181.9,82.9 181.9,82.9 196.7,53 154.5,77.3 	"/>
	<g>
		<circle class="st0" cx="258.8" cy="17.6" r="0.4"/>
		<circle class="st0" cx="258.8" cy="19" r="0.4"/>
		<circle class="st0" cx="258.8" cy="20.5" r="0.4"/>
		<circle class="st0" cx="258.8" cy="21.9" r="0.4"/>
		<circle class="st0" cx="258.8" cy="23.4" r="0.4"/>
		<circle class="st0" cx="258.8" cy="24.8" r="0.4"/>
		<circle class="st0" cx="258.8" cy="26.2" r="0.4"/>
		<circle class="st0" cx="258.8" cy="27.7" r="0.4"/>
		<circle class="st0" cx="258.8" cy="29.1" r="0.4"/>
		<circle class="st0" cx="258.8" cy="30.6" r="0.4"/>
		<circle class="st0" cx="258.8" cy="32" r="0.4"/>
		<circle class="st0" cx="258.8" cy="33.4" r="0.4"/>
		<circle class="st0" cx="258.8" cy="34.9" r="0.4"/>
		<circle class="st0" cx="258.8" cy="36.3" r="0.4"/>
		<circle class="st0" cx="258.8" cy="37.8" r="0.4"/>
		<circle class="st0" cx="258.8" cy="39.2" r="0.4"/>
		<circle class="st0" cx="258.8" cy="40.7" r="0.4"/>
		<circle class="st0" cx="258.8" cy="42.1" r="0.4"/>
		<circle class="st0" cx="258.8" cy="43.5" r="0.4"/>
		<circle class="st0" cx="258.8" cy="45" r="0.4"/>
		<circle class="st0" cx="258.8" cy="46.4" r="0.4"/>
		<circle class="st0" cx="258.8" cy="47.9" r="0.4"/>
		<circle class="st0" cx="258.8" cy="49.3" r="0.4"/>
		<circle class="st0" cx="258.8" cy="50.7" r="0.4"/>
		<circle class="st0" cx="258.8" cy="52.2" r="0.4"/>
		<circle class="st0" cx="258.8" cy="53.6" r="0.4"/>
		<circle class="st0" cx="258.8" cy="55.1" r="0.4"/>
		<circle class="st0" cx="258.8" cy="56.5" r="0.4"/>
		<circle class="st0" cx="258.8" cy="58" r="0.4"/>
		<circle class="st0" cx="258.8" cy="59.4" r="0.4"/>
		<circle class="st0" cx="258.8" cy="60.8" r="0.4"/>
		<path class="st0" d="M257.5,17.9C257.5,17.9,257.5,17.9,257.5,17.9L257.5,17.9z"/>
		<circle class="st0" cx="257.3" cy="19" r="0.4"/>
		<circle class="st0" cx="257.3" cy="20.5" r="0.4"/>
		<circle class="st0" cx="257.3" cy="21.9" r="0.4"/>
		<circle class="st0" cx="257.3" cy="23.4" r="0.4"/>
		<circle class="st0" cx="257.3" cy="24.8" r="0.4"/>
		<circle class="st0" cx="257.3" cy="26.2" r="0.4"/>
		<circle class="st0" cx="257.3" cy="27.7" r="0.4"/>
		<circle class="st0" cx="257.3" cy="29.1" r="0.4"/>
		<circle class="st0" cx="257.3" cy="30.6" r="0.4"/>
		<circle class="st0" cx="257.3" cy="32" r="0.4"/>
		<circle class="st0" cx="257.3" cy="33.4" r="0.4"/>
		<circle class="st0" cx="257.3" cy="34.9" r="0.4"/>
		<circle class="st0" cx="257.3" cy="36.3" r="0.4"/>
		<circle class="st0" cx="257.3" cy="37.8" r="0.4"/>
		<circle class="st0" cx="257.3" cy="39.2" r="0.4"/>
		<circle class="st0" cx="257.3" cy="40.7" r="0.4"/>
		<circle class="st0" cx="257.3" cy="42.1" r="0.4"/>
		<circle class="st0" cx="257.3" cy="43.5" r="0.4"/>
		<circle class="st0" cx="257.3" cy="45" r="0.4"/>
		<circle class="st0" cx="257.3" cy="46.4" r="0.4"/>
		<circle class="st0" cx="257.3" cy="47.9" r="0.4"/>
		<circle class="st0" cx="257.3" cy="49.3" r="0.4"/>
		<circle class="st0" cx="257.3" cy="50.7" r="0.4"/>
		<circle class="st0" cx="257.3" cy="52.2" r="0.4"/>
		<circle class="st0" cx="257.3" cy="53.6" r="0.4"/>
		<circle class="st0" cx="257.3" cy="55.1" r="0.4"/>
		<circle class="st0" cx="257.3" cy="56.5" r="0.4"/>
		<circle class="st0" cx="257.3" cy="58" r="0.4"/>
		<circle class="st0" cx="257.3" cy="59.4" r="0.4"/>
		<path class="st0" d="M257.3,60.5c-0.1,0-0.3,0.1-0.3,0.2l0.6,0.4c0-0.1,0.1-0.1,0.1-0.2C257.7,60.6,257.5,60.5,257.3,60.5z"/>
		<path class="st0" d="M255.9,19.4c0.2,0,0.4-0.2,0.4-0.4c0-0.1-0.1-0.2-0.2-0.3l-0.5,0.3C255.5,19.2,255.7,19.4,255.9,19.4z"/>
		<circle class="st0" cx="255.9" cy="20.5" r="0.4"/>
		<circle class="st0" cx="255.9" cy="21.9" r="0.4"/>
		<circle class="st0" cx="255.9" cy="23.4" r="0.4"/>
		<circle class="st0" cx="255.9" cy="24.8" r="0.4"/>
		<circle class="st0" cx="255.9" cy="26.2" r="0.4"/>
		<circle class="st0" cx="255.9" cy="27.7" r="0.4"/>
		<circle class="st0" cx="255.9" cy="29.1" r="0.4"/>
		<circle class="st0" cx="255.9" cy="30.6" r="0.4"/>
		<circle class="st0" cx="255.9" cy="32" r="0.4"/>
		<circle class="st0" cx="255.9" cy="33.4" r="0.4"/>
		<circle class="st0" cx="255.9" cy="34.9" r="0.4"/>
		<circle class="st0" cx="255.9" cy="36.3" r="0.4"/>
		<circle class="st0" cx="255.9" cy="37.8" r="0.4"/>
		<circle class="st0" cx="255.9" cy="39.2" r="0.4"/>
		<circle class="st0" cx="255.9" cy="40.7" r="0.4"/>
		<circle class="st0" cx="255.9" cy="42.1" r="0.4"/>
		<circle class="st0" cx="255.9" cy="43.5" r="0.4"/>
		<circle class="st0" cx="255.9" cy="45" r="0.4"/>
		<circle class="st0" cx="255.9" cy="46.4" r="0.4"/>
		<circle class="st0" cx="255.9" cy="47.9" r="0.4"/>
		<circle class="st0" cx="255.9" cy="49.3" r="0.4"/>
		<circle class="st0" cx="255.9" cy="50.7" r="0.4"/>
		<circle class="st0" cx="255.9" cy="52.2" r="0.4"/>
		<circle class="st0" cx="255.9" cy="53.6" r="0.4"/>
		<circle class="st0" cx="255.9" cy="55.1" r="0.4"/>
		<circle class="st0" cx="255.9" cy="56.5" r="0.4"/>
		<circle class="st0" cx="255.9" cy="58" r="0.4"/>
		<circle class="st0" cx="255.9" cy="59.4" r="0.4"/>
		<circle class="st0" cx="254.4" cy="20.5" r="0.4"/>
		<circle class="st0" cx="254.4" cy="21.9" r="0.4"/>
		<circle class="st0" cx="254.4" cy="23.4" r="0.4"/>
		<circle class="st0" cx="254.4" cy="24.8" r="0.4"/>
		<circle class="st0" cx="254.4" cy="26.2" r="0.4"/>
		<circle class="st0" cx="254.4" cy="27.7" r="0.4"/>
		<circle class="st0" cx="254.4" cy="29.1" r="0.4"/>
		<circle class="st0" cx="254.4" cy="30.6" r="0.4"/>
		<circle class="st0" cx="254.4" cy="32" r="0.4"/>
		<circle class="st0" cx="254.4" cy="33.4" r="0.4"/>
		<circle class="st0" cx="254.4" cy="34.9" r="0.4"/>
		<circle class="st0" cx="254.4" cy="36.3" r="0.4"/>
		<circle class="st0" cx="254.4" cy="37.8" r="0.4"/>
		<circle class="st0" cx="254.4" cy="39.2" r="0.4"/>
		<circle class="st0" cx="254.4" cy="40.7" r="0.4"/>
		<circle class="st0" cx="254.4" cy="42.1" r="0.4"/>
		<circle class="st0" cx="254.4" cy="43.5" r="0.4"/>
		<circle class="st0" cx="254.4" cy="45" r="0.4"/>
		<circle class="st0" cx="254.4" cy="46.4" r="0.4"/>
		<circle class="st0" cx="254.4" cy="47.9" r="0.4"/>
		<circle class="st0" cx="254.4" cy="49.3" r="0.4"/>
		<circle class="st0" cx="254.4" cy="50.7" r="0.4"/>
		<circle class="st0" cx="254.4" cy="52.2" r="0.4"/>
		<circle class="st0" cx="254.4" cy="53.6" r="0.4"/>
		<circle class="st0" cx="254.4" cy="55.1" r="0.4"/>
		<circle class="st0" cx="254.4" cy="56.5" r="0.4"/>
		<circle class="st0" cx="254.4" cy="58" r="0.4"/>
		<path class="st0" d="M254.4,59c-0.1,0-0.1,0-0.2,0.1l0.5,0.3c0,0,0,0,0,0C254.8,59.2,254.6,59,254.4,59z"/>
		<path class="st0" d="M253,20.8c0.2,0,0.4-0.2,0.4-0.4c0-0.1,0-0.1,0-0.2l-0.6,0.4C252.8,20.8,252.9,20.8,253,20.8z"/>
		<circle class="st0" cx="253" cy="21.9" r="0.4"/>
		<circle class="st0" cx="253" cy="23.4" r="0.4"/>
		<circle class="st0" cx="253" cy="24.8" r="0.4"/>
		<circle class="st0" cx="253" cy="26.2" r="0.4"/>
		<circle class="st0" cx="253" cy="27.7" r="0.4"/>
		<circle class="st0" cx="253" cy="29.1" r="0.4"/>
		<circle class="st0" cx="253" cy="30.6" r="0.4"/>
		<circle class="st0" cx="253" cy="32" r="0.4"/>
		<circle class="st0" cx="253" cy="33.4" r="0.4"/>
		<circle class="st0" cx="253" cy="34.9" r="0.4"/>
		<circle class="st0" cx="253" cy="36.3" r="0.4"/>
		<circle class="st0" cx="253" cy="37.8" r="0.4"/>
		<circle class="st0" cx="253" cy="39.2" r="0.4"/>
		<circle class="st0" cx="253" cy="40.7" r="0.4"/>
		<circle class="st0" cx="253" cy="42.1" r="0.4"/>
		<circle class="st0" cx="253" cy="43.5" r="0.4"/>
		<circle class="st0" cx="253" cy="45" r="0.4"/>
		<circle class="st0" cx="253" cy="46.4" r="0.4"/>
		<circle class="st0" cx="253" cy="47.9" r="0.4"/>
		<circle class="st0" cx="253" cy="49.3" r="0.4"/>
		<circle class="st0" cx="253" cy="50.7" r="0.4"/>
		<circle class="st0" cx="253" cy="52.2" r="0.4"/>
		<circle class="st0" cx="253" cy="53.6" r="0.4"/>
		<circle class="st0" cx="253" cy="55.1" r="0.4"/>
		<circle class="st0" cx="253" cy="56.5" r="0.4"/>
		<path class="st0" d="M252.9,58.3l-0.1-0.1C252.8,58.3,252.8,58.3,252.9,58.3z"/>
		<path class="st0" d="M253.4,58c0-0.2-0.2-0.4-0.4-0.4c-0.2,0-0.4,0.2-0.4,0.4c0,0.1,0,0.2,0.1,0.3l0.1,0.1c0,0,0.1,0,0.1,0
			C253.2,58.3,253.4,58.2,253.4,58z"/>
		<circle class="st0" cx="251.6" cy="21.9" r="0.4"/>
		<circle class="st0" cx="251.6" cy="23.4" r="0.4"/>
		<circle class="st0" cx="251.6" cy="24.8" r="0.4"/>
		<circle class="st0" cx="251.6" cy="26.2" r="0.4"/>
		<circle class="st0" cx="251.6" cy="27.7" r="0.4"/>
		<circle class="st0" cx="251.6" cy="29.1" r="0.4"/>
		<circle class="st0" cx="251.6" cy="30.6" r="0.4"/>
		<circle class="st0" cx="251.6" cy="32" r="0.4"/>
		<circle class="st0" cx="251.6" cy="33.4" r="0.4"/>
		<circle class="st0" cx="251.6" cy="34.9" r="0.4"/>
		<circle class="st0" cx="251.6" cy="36.3" r="0.4"/>
		<circle class="st0" cx="251.6" cy="37.8" r="0.4"/>
		<circle class="st0" cx="251.6" cy="39.2" r="0.4"/>
		<circle class="st0" cx="251.6" cy="40.7" r="0.4"/>
		<circle class="st0" cx="251.6" cy="42.1" r="0.4"/>
		<circle class="st0" cx="251.6" cy="43.5" r="0.4"/>
		<circle class="st0" cx="251.6" cy="45" r="0.4"/>
		<circle class="st0" cx="251.6" cy="46.4" r="0.4"/>
		<circle class="st0" cx="251.6" cy="47.9" r="0.4"/>
		<circle class="st0" cx="251.6" cy="49.3" r="0.4"/>
		<circle class="st0" cx="251.6" cy="50.7" r="0.4"/>
		<circle class="st0" cx="251.6" cy="52.2" r="0.4"/>
		<circle class="st0" cx="251.6" cy="53.6" r="0.4"/>
		<circle class="st0" cx="251.6" cy="55.1" r="0.4"/>
		<circle class="st0" cx="251.6" cy="56.5" r="0.4"/>
		<path class="st0" d="M250.5,22l-0.5,0.3c0,0,0.1,0,0.1,0C250.3,22.3,250.5,22.1,250.5,22z"/>
		<circle class="st0" cx="250.1" cy="23.4" r="0.4"/>
		<circle class="st0" cx="250.1" cy="24.8" r="0.4"/>
		<circle class="st0" cx="250.1" cy="26.2" r="0.4"/>
		<circle class="st0" cx="250.1" cy="27.7" r="0.4"/>
		<circle class="st0" cx="250.1" cy="29.1" r="0.4"/>
		<circle class="st0" cx="250.1" cy="30.6" r="0.4"/>
		<circle class="st0" cx="250.1" cy="32" r="0.4"/>
		<circle class="st0" cx="250.1" cy="33.4" r="0.4"/>
		<circle class="st0" cx="250.1" cy="34.9" r="0.4"/>
		<circle class="st0" cx="250.1" cy="36.3" r="0.4"/>
		<circle class="st0" cx="250.1" cy="37.8" r="0.4"/>
		<circle class="st0" cx="250.1" cy="39.2" r="0.4"/>
		<circle class="st0" cx="250.1" cy="40.7" r="0.4"/>
		<circle class="st0" cx="250.1" cy="42.1" r="0.4"/>
		<circle class="st0" cx="250.1" cy="43.5" r="0.4"/>
		<circle class="st0" cx="250.1" cy="45" r="0.4"/>
		<circle class="st0" cx="250.1" cy="46.4" r="0.4"/>
		<circle class="st0" cx="250.1" cy="47.9" r="0.4"/>
		<circle class="st0" cx="250.1" cy="49.3" r="0.4"/>
		<circle class="st0" cx="250.1" cy="50.7" r="0.4"/>
		<circle class="st0" cx="250.1" cy="52.2" r="0.4"/>
		<circle class="st0" cx="250.1" cy="53.6" r="0.4"/>
		<circle class="st0" cx="250.1" cy="55.1" r="0.4"/>
		<path class="st0" d="M250.5,56.5c0-0.2-0.2-0.4-0.4-0.4c-0.2,0-0.3,0.2-0.4,0.3l0.6,0.3C250.4,56.7,250.5,56.6,250.5,56.5z"/>
		<path class="st0" d="M248.4,23.2l0.3-0.2C248.5,23,248.4,23.1,248.4,23.2z"/>
		<path class="st0" d="M248.7,23.7c0.2,0,0.4-0.2,0.4-0.4c0-0.2-0.2-0.4-0.4-0.4c0,0,0,0,0,0l-0.3,0.2c0,0.1-0.1,0.1-0.1,0.2
			C248.3,23.6,248.5,23.7,248.7,23.7z"/>
		<circle class="st0" cx="248.7" cy="24.8" r="0.4"/>
		<circle class="st0" cx="248.7" cy="26.2" r="0.4"/>
		<circle class="st0" cx="248.7" cy="27.7" r="0.4"/>
		<circle class="st0" cx="248.7" cy="29.1" r="0.4"/>
		<circle class="st0" cx="248.7" cy="30.6" r="0.4"/>
		<circle class="st0" cx="248.7" cy="32" r="0.4"/>
		<circle class="st0" cx="248.7" cy="33.4" r="0.4"/>
		<circle class="st0" cx="248.7" cy="34.9" r="0.4"/>
		<circle class="st0" cx="248.7" cy="36.3" r="0.4"/>
		<circle class="st0" cx="248.7" cy="37.8" r="0.4"/>
		<circle class="st0" cx="248.7" cy="39.2" r="0.4"/>
		<circle class="st0" cx="248.7" cy="40.7" r="0.4"/>
		<circle class="st0" cx="248.7" cy="42.1" r="0.4"/>
		<circle class="st0" cx="248.7" cy="43.5" r="0.4"/>
		<circle class="st0" cx="248.7" cy="45" r="0.4"/>
		<circle class="st0" cx="248.7" cy="46.4" r="0.4"/>
		<circle class="st0" cx="248.7" cy="47.9" r="0.4"/>
		<circle class="st0" cx="248.7" cy="49.3" r="0.4"/>
		<circle class="st0" cx="248.7" cy="50.7" r="0.4"/>
		<circle class="st0" cx="248.7" cy="52.2" r="0.4"/>
		<circle class="st0" cx="248.7" cy="53.6" r="0.4"/>
		<circle class="st0" cx="248.7" cy="55.1" r="0.4"/>
		<circle class="st0" cx="247.2" cy="24.8" r="0.4"/>
		<circle class="st0" cx="247.2" cy="26.2" r="0.4"/>
		<circle class="st0" cx="247.2" cy="27.7" r="0.4"/>
		<circle class="st0" cx="247.2" cy="29.1" r="0.4"/>
		<circle class="st0" cx="247.2" cy="30.6" r="0.4"/>
		<circle class="st0" cx="247.2" cy="32" r="0.4"/>
		<circle class="st0" cx="247.2" cy="33.4" r="0.4"/>
		<circle class="st0" cx="247.2" cy="34.9" r="0.4"/>
		<circle class="st0" cx="247.2" cy="36.3" r="0.4"/>
		<circle class="st0" cx="247.2" cy="37.8" r="0.4"/>
		<circle class="st0" cx="247.2" cy="39.2" r="0.4"/>
		<circle class="st0" cx="247.2" cy="40.7" r="0.4"/>
		<circle class="st0" cx="247.2" cy="42.1" r="0.4"/>
		<circle class="st0" cx="247.2" cy="43.5" r="0.4"/>
		<circle class="st0" cx="247.2" cy="45" r="0.4"/>
		<circle class="st0" cx="247.2" cy="46.4" r="0.4"/>
		<circle class="st0" cx="247.2" cy="47.9" r="0.4"/>
		<circle class="st0" cx="247.2" cy="49.3" r="0.4"/>
		<circle class="st0" cx="247.2" cy="50.7" r="0.4"/>
		<circle class="st0" cx="247.2" cy="52.2" r="0.4"/>
		<circle class="st0" cx="247.2" cy="53.6" r="0.4"/>
		<path class="st0" d="M247.2,54.7c-0.1,0-0.2,0.1-0.3,0.2l0.6,0.4c0,0,0-0.1,0-0.2C247.6,54.9,247.4,54.7,247.2,54.7z"/>
		<path class="st0" d="M245.8,25.2c0.2,0,0.4-0.2,0.4-0.4c0-0.1-0.1-0.2-0.1-0.3l-0.6,0.3C245.5,25,245.6,25.2,245.8,25.2z"/>
		<circle class="st0" cx="245.8" cy="26.2" r="0.4"/>
		<circle class="st0" cx="245.8" cy="27.7" r="0.4"/>
		<circle class="st0" cx="245.8" cy="29.1" r="0.4"/>
		<circle class="st0" cx="245.8" cy="30.6" r="0.4"/>
		<circle class="st0" cx="245.8" cy="32" r="0.4"/>
		<circle class="st0" cx="245.8" cy="33.4" r="0.4"/>
		<circle class="st0" cx="245.8" cy="34.9" r="0.4"/>
		<circle class="st0" cx="245.8" cy="36.3" r="0.4"/>
		<circle class="st0" cx="245.8" cy="37.8" r="0.4"/>
		<circle class="st0" cx="245.8" cy="39.2" r="0.4"/>
		<circle class="st0" cx="245.8" cy="40.7" r="0.4"/>
		<circle class="st0" cx="245.8" cy="42.1" r="0.4"/>
		<circle class="st0" cx="245.8" cy="43.5" r="0.4"/>
		<circle class="st0" cx="245.8" cy="45" r="0.4"/>
		<circle class="st0" cx="245.8" cy="46.4" r="0.4"/>
		<circle class="st0" cx="245.8" cy="47.9" r="0.4"/>
		<circle class="st0" cx="245.8" cy="49.3" r="0.4"/>
		<circle class="st0" cx="245.8" cy="50.7" r="0.4"/>
		<circle class="st0" cx="245.8" cy="52.2" r="0.4"/>
		<circle class="st0" cx="245.8" cy="53.6" r="0.4"/>
		<circle class="st0" cx="244.4" cy="26.2" r="0.4"/>
		<circle class="st0" cx="244.4" cy="27.7" r="0.4"/>
		<circle class="st0" cx="244.4" cy="29.1" r="0.4"/>
		<circle class="st0" cx="244.4" cy="30.6" r="0.4"/>
		<circle class="st0" cx="244.4" cy="32" r="0.4"/>
		<circle class="st0" cx="244.4" cy="33.4" r="0.4"/>
		<circle class="st0" cx="244.4" cy="34.9" r="0.4"/>
		<circle class="st0" cx="244.4" cy="36.3" r="0.4"/>
		<circle class="st0" cx="244.4" cy="37.8" r="0.4"/>
		<circle class="st0" cx="244.4" cy="39.2" r="0.4"/>
		<circle class="st0" cx="244.4" cy="40.7" r="0.4"/>
		<circle class="st0" cx="244.4" cy="42.1" r="0.4"/>
		<circle class="st0" cx="244.4" cy="43.5" r="0.4"/>
		<circle class="st0" cx="244.4" cy="45" r="0.4"/>
		<circle class="st0" cx="244.4" cy="46.4" r="0.4"/>
		<circle class="st0" cx="244.4" cy="47.9" r="0.4"/>
		<circle class="st0" cx="244.4" cy="49.3" r="0.4"/>
		<circle class="st0" cx="244.4" cy="50.7" r="0.4"/>
		<circle class="st0" cx="244.4" cy="52.2" r="0.4"/>
		<path class="st0" d="M244.4,53.3c0,0-0.1,0-0.1,0l0.5,0.3C244.7,53.4,244.5,53.3,244.4,53.3z"/>
		<path class="st0" d="M242.9,26.6c0.2,0,0.4-0.2,0.4-0.4c0,0,0-0.1,0-0.1l-0.6,0.4C242.7,26.5,242.8,26.6,242.9,26.6z"/>
		<circle class="st0" cx="242.9" cy="27.7" r="0.4"/>
		<circle class="st0" cx="242.9" cy="29.1" r="0.4"/>
		<circle class="st0" cx="242.9" cy="30.6" r="0.4"/>
		<circle class="st0" cx="242.9" cy="32" r="0.4"/>
		<circle class="st0" cx="242.9" cy="33.4" r="0.4"/>
		<circle class="st0" cx="242.9" cy="34.9" r="0.4"/>
		<circle class="st0" cx="242.9" cy="36.3" r="0.4"/>
		<circle class="st0" cx="242.9" cy="37.8" r="0.4"/>
		<circle class="st0" cx="242.9" cy="39.2" r="0.4"/>
		<circle class="st0" cx="242.9" cy="40.7" r="0.4"/>
		<circle class="st0" cx="242.9" cy="42.1" r="0.4"/>
		<circle class="st0" cx="242.9" cy="43.5" r="0.4"/>
		<circle class="st0" cx="242.9" cy="45" r="0.4"/>
		<circle class="st0" cx="242.9" cy="46.4" r="0.4"/>
		<circle class="st0" cx="242.9" cy="47.9" r="0.4"/>
		<circle class="st0" cx="242.9" cy="49.3" r="0.4"/>
		<circle class="st0" cx="242.9" cy="50.7" r="0.4"/>
		<path class="st0" d="M242.9,52.5C242.9,52.5,242.9,52.5,242.9,52.5l-0.3-0.2C242.7,52.5,242.8,52.5,242.9,52.5z"/>
		<path class="st0" d="M243.3,52.2c0-0.2-0.2-0.4-0.4-0.4c-0.2,0-0.4,0.2-0.4,0.4c0,0.1,0,0.1,0.1,0.2l0.3,0.2
			C243.1,52.5,243.3,52.4,243.3,52.2z"/>
		<circle class="st0" cx="241.5" cy="27.7" r="0.4"/>
		<circle class="st0" cx="241.5" cy="29.1" r="0.4"/>
		<circle class="st0" cx="241.5" cy="30.6" r="0.4"/>
		<circle class="st0" cx="241.5" cy="32" r="0.4"/>
		<circle class="st0" cx="241.5" cy="33.4" r="0.4"/>
		<circle class="st0" cx="241.5" cy="34.9" r="0.4"/>
		<circle class="st0" cx="241.5" cy="36.3" r="0.4"/>
		<circle class="st0" cx="241.5" cy="37.8" r="0.4"/>
		<circle class="st0" cx="241.5" cy="39.2" r="0.4"/>
		<circle class="st0" cx="241.5" cy="40.7" r="0.4"/>
		<circle class="st0" cx="241.5" cy="42.1" r="0.4"/>
		<circle class="st0" cx="241.5" cy="43.5" r="0.4"/>
		<circle class="st0" cx="241.5" cy="45" r="0.4"/>
		<circle class="st0" cx="241.5" cy="46.4" r="0.4"/>
		<circle class="st0" cx="241.5" cy="47.9" r="0.4"/>
		<circle class="st0" cx="241.5" cy="49.3" r="0.4"/>
		<circle class="st0" cx="241.5" cy="50.7" r="0.4"/>
		<path class="st0" d="M240.4,27.8l-0.4,0.2c0,0,0.1,0,0.1,0C240.2,28,240.3,27.9,240.4,27.8z"/>
		<circle class="st0" cx="240" cy="29.1" r="0.4"/>
		<circle class="st0" cx="240" cy="30.6" r="0.4"/>
		<circle class="st0" cx="240" cy="32" r="0.4"/>
		<circle class="st0" cx="240" cy="33.4" r="0.4"/>
		<circle class="st0" cx="240" cy="34.9" r="0.4"/>
		<circle class="st0" cx="240" cy="36.3" r="0.4"/>
		<circle class="st0" cx="240" cy="37.8" r="0.4"/>
		<circle class="st0" cx="240" cy="39.2" r="0.4"/>
		<circle class="st0" cx="240" cy="40.7" r="0.4"/>
		<circle class="st0" cx="240" cy="42.1" r="0.4"/>
		<circle class="st0" cx="240" cy="43.5" r="0.4"/>
		<circle class="st0" cx="240" cy="45" r="0.4"/>
		<circle class="st0" cx="240" cy="46.4" r="0.4"/>
		<circle class="st0" cx="240" cy="47.9" r="0.4"/>
		<circle class="st0" cx="240" cy="49.3" r="0.4"/>
		<path class="st0" d="M240.4,50.7c0-0.2-0.2-0.4-0.4-0.4c-0.2,0-0.3,0.1-0.3,0.3l0.6,0.3C240.3,50.9,240.4,50.9,240.4,50.7z"/>
		<path class="st0" d="M238.6,29.5c0.2,0,0.4-0.2,0.4-0.4c0-0.2-0.1-0.3-0.3-0.4l-0.4,0.2c0,0,0,0.1,0,0.1
			C238.2,29.3,238.4,29.5,238.6,29.5z"/>
		<circle class="st0" cx="238.6" cy="30.6" r="0.4"/>
		<circle class="st0" cx="238.6" cy="32" r="0.4"/>
		<circle class="st0" cx="238.6" cy="33.4" r="0.4"/>
		<circle class="st0" cx="238.6" cy="34.9" r="0.4"/>
		<circle class="st0" cx="238.6" cy="36.3" r="0.4"/>
		<circle class="st0" cx="238.6" cy="37.8" r="0.4"/>
		<circle class="st0" cx="238.6" cy="39.2" r="0.4"/>
		<circle class="st0" cx="238.6" cy="40.7" r="0.4"/>
		<circle class="st0" cx="238.6" cy="42.1" r="0.4"/>
		<circle class="st0" cx="238.6" cy="43.5" r="0.4"/>
		<circle class="st0" cx="238.6" cy="45" r="0.4"/>
		<circle class="st0" cx="238.6" cy="46.4" r="0.4"/>
		<circle class="st0" cx="238.6" cy="47.9" r="0.4"/>
		<circle class="st0" cx="238.6" cy="49.3" r="0.4"/>
		<circle class="st0" cx="237.1" cy="30.6" r="0.4"/>
		<circle class="st0" cx="237.1" cy="32" r="0.4"/>
		<circle class="st0" cx="237.1" cy="33.4" r="0.4"/>
		<circle class="st0" cx="237.1" cy="34.9" r="0.4"/>
		<circle class="st0" cx="237.1" cy="36.3" r="0.4"/>
		<circle class="st0" cx="237.1" cy="37.8" r="0.4"/>
		<circle class="st0" cx="237.1" cy="39.2" r="0.4"/>
		<circle class="st0" cx="237.1" cy="40.7" r="0.4"/>
		<circle class="st0" cx="237.1" cy="42.1" r="0.4"/>
		<circle class="st0" cx="237.1" cy="43.5" r="0.4"/>
		<circle class="st0" cx="237.1" cy="45" r="0.4"/>
		<circle class="st0" cx="237.1" cy="46.4" r="0.4"/>
		<circle class="st0" cx="237.1" cy="47.9" r="0.4"/>
		<path class="st0" d="M237.1,48.9c-0.1,0-0.2,0-0.3,0.1l0.6,0.3c0,0,0-0.1,0-0.1C237.5,49.1,237.3,48.9,237.1,48.9z"/>
		<path class="st0" d="M235.7,30.9c0.2,0,0.4-0.2,0.4-0.4c0-0.1,0-0.2-0.1-0.2l-0.6,0.3C235.4,30.8,235.5,30.9,235.7,30.9z"/>
		<circle class="st0" cx="235.7" cy="32" r="0.4"/>
		<circle class="st0" cx="235.7" cy="33.4" r="0.4"/>
		<circle class="st0" cx="235.7" cy="34.9" r="0.4"/>
		<circle class="st0" cx="235.7" cy="36.3" r="0.4"/>
		<circle class="st0" cx="235.7" cy="37.8" r="0.4"/>
		<circle class="st0" cx="235.7" cy="39.2" r="0.4"/>
		<circle class="st0" cx="235.7" cy="40.7" r="0.4"/>
		<circle class="st0" cx="235.7" cy="42.1" r="0.4"/>
		<circle class="st0" cx="235.7" cy="43.5" r="0.4"/>
		<circle class="st0" cx="235.7" cy="45" r="0.4"/>
		<circle class="st0" cx="235.7" cy="46.4" r="0.4"/>
		<circle class="st0" cx="235.7" cy="47.9" r="0.4"/>
	</g>
	<polygon class="st0" points="235,82.9 259.6,82.9 259.6,65.8 235,51.6 	"/>
	<polygon class="st0" points="207,19.1 207,33.2 231.7,19.1 	"/>
	<polygon class="st0" points="206.5,47.4 206.5,82.9 231.1,82.9 231.1,49.4 217.1,41.3 	"/>
	<polygon class="st0" points="231.1,33.2 220.2,39.5 231.1,45.8 	"/>
	<polygon class="st0" points="235,16.7 235,30.8 259.6,16.7 	"/>
</g>
<g id="XMLID_1_">
</g>
<g id="XMLID_2_">
</g>
<g id="XMLID_3_">
</g>
<g id="XMLID_4_">
</g>
<g id="XMLID_5_">
</g>
<g id="XMLID_6_">
</g>
</svg>
