<svg id="Layer_1" data-name="Layer 1" xmlns="http://www.w3.org/2000/svg" viewBox="0 0 640.25 28.38"><defs><style>.cls-1{fill:#fff;}.cls-2{fill:#999;}</style></defs><title>competencies-logos</title><rect class="cls-1" x="-160" y="-634.37" width="960" height="1070.87"/><path class="cls-2" d="M561.25,6.05h4.4a10.8,10.8,0,0,1,3,.27,2.68,2.68,0,0,1,2,2.64,2.66,2.66,0,0,1-.21,1.09,2.78,2.78,0,0,1-2.22,1.51,3.55,3.55,0,0,1,2.24,1,2.53,2.53,0,0,1,.63,1.71A3,3,0,0,1,569.13,17a7.53,7.53,0,0,1-3.08.42h-4.8ZM564,8.18v2.37h2.14c.64,0,1.69,0,1.69-1.22s-.95-1.14-1.5-1.14Zm0,4.43v2.75h2c1,0,2.19,0,2.19-1.35s-1.13-1.38-1.71-1.4Z"/><path class="cls-2" d="M575,9.88a3.9,3.9,0,0,1,2.43-1v2.19l-.82.13c-1.19.21-1.55.39-1.55,1.45v4.74h-2.48V9H575Z"/><path class="cls-2" d="M587.15,13.2a4.52,4.52,0,0,1-9,0c0-2.58,1.63-4.62,4.85-4.44a4.21,4.21,0,0,1,4.19,4.44M581,11.54a3.05,3.05,0,0,0-.42,1.64c0,1.34.64,2.51,2,2.51s2-1.08,2-2.4a2.85,2.85,0,0,0-.69-2.11,1.79,1.79,0,0,0-1.45-.47,1.67,1.67,0,0,0-1.47.82"/><path class="cls-2" d="M597.22,13.2a4.52,4.52,0,0,1-9,0c0-2.58,1.63-4.62,4.85-4.44a4.21,4.21,0,0,1,4.19,4.44m-6.12-1.66a3.05,3.05,0,0,0-.42,1.64c0,1.34.64,2.51,2,2.51s2-1.08,2-2.4a2.84,2.84,0,0,0-.69-2.11,1.79,1.79,0,0,0-1.45-.47,1.67,1.67,0,0,0-1.47.82"/><polygon class="cls-2" points="598.81 6.05 601.24 6.05 601.24 11.9 603.97 9.02 606.94 9.02 604.05 12.01 607.32 17.42 604.45 17.42 602.29 13.8 601.23 14.8 601.23 17.42 598.81 17.42 598.81 6.05"/><path class="cls-2" d="M608.62,8.18A2.43,2.43,0,0,1,609,6.74a2.59,2.59,0,0,1,2.16-.85,11.22,11.22,0,0,1,1.48.14V7.89H612c-.93,0-1,.19-1,1.32h1.66v1.51h-1.64v6.7H608.6v-6.7h-1.32V9.21h1.34Z"/><path class="cls-2" d="M613.95,6h2.45V8h-2.45Zm0,3h2.45v8.42h-2.45Z"/><path class="cls-2" d="M626.48,15.28a6.55,6.55,0,0,1-1,1.26,4.62,4.62,0,0,1-3.17,1.19A4,4,0,0,1,618,13.38c0-2,1-4.64,4.32-4.64a4.09,4.09,0,0,1,3,1.21,5.64,5.64,0,0,1,1.19,3.77h-6a1.89,1.89,0,0,0,1.92,2.09,2.22,2.22,0,0,0,2.13-1.48ZM624,12.17a2,2,0,0,0-.47-1.19,1.75,1.75,0,0,0-1.21-.47,1.71,1.71,0,0,0-1.26.55,2.19,2.19,0,0,0-.5,1.11Z"/><rect class="cls-2" x="628.01" y="6.05" width="2.48" height="11.37"/><path class="cls-2" d="M640.25,6.05V17.42H638v-.79a3,3,0,0,1-2.27,1,3.41,3.41,0,0,1-2.37-1,4.66,4.66,0,0,1-1.22-3.42c0-3.17,1.8-4.48,3.5-4.48a3.45,3.45,0,0,1,2.22.85V6.05Zm-2.35,7.17a3.42,3.42,0,0,0-.53-2.08,1.3,1.3,0,0,0-1-.5c-1.75,0-1.75,2.21-1.75,2.58,0,1.18.32,2.61,1.58,2.61a1.49,1.49,0,0,0,.8-.26,2.82,2.82,0,0,0,.87-2.35"/><path class="cls-2" d="M587.27,19.86h2.49a3.5,3.5,0,0,1,2.42.56,2.38,2.38,0,0,1,.86,1.92,2.14,2.14,0,0,1-1.54,2.15l1.74,3.17h-1.67L590,24.77h-1.3v2.9h-1.45Zm1.45,1.26v2.44h.51c.5,0,.68,0,1,0a1.22,1.22,0,0,0,1.37-1.2,1.12,1.12,0,0,0-.62-1.05,3.6,3.6,0,0,0-1.55-.17Z"/><path class="cls-2" d="M599.32,26.42a3.22,3.22,0,0,1-2.7,1.4,2.73,2.73,0,0,1-2.84-3A2.67,2.67,0,0,1,596.53,22a2.5,2.5,0,0,1,2.18,1,4.16,4.16,0,0,1,.56,2.16h-4.09a1.49,1.49,0,0,0,1.57,1.37,1.62,1.62,0,0,0,1.44-.76Zm-1.5-2.23A1.18,1.18,0,0,0,596.58,23a1.31,1.31,0,0,0-1.35,1.16Z"/><path class="cls-2" d="M600.85,26a1.93,1.93,0,0,0,1.59.71c.76,0,1.09-.38,1.09-.65s-.4-.44-.58-.48-1.09-.21-1.29-.26c-1.32-.31-1.56-1.07-1.56-1.57,0-.94.85-1.8,2.37-1.8a3.13,3.13,0,0,1,1.82.53,2.38,2.38,0,0,1,.56.5l-.94.87a1.55,1.55,0,0,0-1.5-.84c-.63,0-.92.28-.92.56s.41.51,1.12.63c1.15.21,1.47.26,1.82.54a1.5,1.5,0,0,1,.56,1.17c0,.86-.77,1.89-2.49,1.89a3.78,3.78,0,0,1-2.65-1Z"/><path class="cls-2" d="M607.19,21.27h-1.32V19.93h1.32Zm0,6.39h-1.32V22.13h1.32Z"/><path class="cls-2" d="M613.46,19.86v7.81h-1.32v-.53a1.91,1.91,0,0,1-1.54.7A2.51,2.51,0,0,1,608.16,25c0-1.65.93-3.05,2.51-3.05a1.89,1.89,0,0,1,1.48.62V19.86Zm-1.63,3.85a1.13,1.13,0,0,0-1-.51c-.9,0-1.33.81-1.33,1.68,0,.1,0,1.76,1.3,1.76.69,0,1.3-.51,1.29-1.7a2.43,2.43,0,0,0-.3-1.23"/><path class="cls-2" d="M620,26.42a3.22,3.22,0,0,1-2.7,1.4,2.73,2.73,0,0,1-2.84-3A2.67,2.67,0,0,1,617.17,22a2.49,2.49,0,0,1,2.18,1,4.13,4.13,0,0,1,.56,2.16h-4.09a1.49,1.49,0,0,0,1.57,1.37,1.62,1.62,0,0,0,1.44-.76Zm-1.5-2.23A1.18,1.18,0,0,0,617.21,23a1.31,1.31,0,0,0-1.35,1.16Z"/><path class="cls-2" d="M620.79,22.13h1.34v.65a1.52,1.52,0,0,1,.43-.43,2.3,2.3,0,0,1,1.27-.39,1.81,1.81,0,0,1,1.45.66,2.91,2.91,0,0,1,.34,1.78v3.25H624.3V24.84a3.86,3.86,0,0,0,0-.84.9.9,0,0,0-.91-.74,1.16,1.16,0,0,0-1,.62,3.19,3.19,0,0,0-.21,1.38v2.4h-1.34Z"/><path class="cls-2" d="M628.43,23.08v2.5c0,.69,0,1,.63,1a1.86,1.86,0,0,0,.55-.07v1.12a5.47,5.47,0,0,1-1,.09c-.28,0-1.2,0-1.46-.67a3.58,3.58,0,0,1-.09-1.13V23.08h-.81v-1h.81v-2h1.33v2h1.18v1Z"/><path class="cls-2" d="M632,21.27h-1.31V19.93H632Zm0,6.39h-1.31V22.13H632Z"/><path class="cls-2" d="M633.18,23.76a1.79,1.79,0,0,1,.22-.83,2.46,2.46,0,0,1,2.2-1,3.36,3.36,0,0,1,1.66.35,1.47,1.47,0,0,1,.66,1.52v2.93a1.16,1.16,0,0,0,.24.9H636.6c0-.13,0-.35,0-.43a2.6,2.6,0,0,1-1.64.56,1.79,1.79,0,0,1-2-1.73,1.68,1.68,0,0,1,.18-.75,2.27,2.27,0,0,1,1.78-1.07,12.77,12.77,0,0,0,1.71-.41c0-.28,0-.84-.94-.84a1.18,1.18,0,0,0-1,.35.66.66,0,0,0-.13.49Zm3.42,1.15a3.86,3.86,0,0,1-1.16.33c-.48.07-1.11.18-1.11.76,0,.43.37.65.9.65a1.37,1.37,0,0,0,1.29-.64,1.13,1.13,0,0,0,.08-.5Z"/><rect class="cls-2" x="638.91" y="19.86" width="1.34" height="7.81"/><path class="cls-2" d="M184.12.32A6.82,6.82,0,0,0,182.06,0h-6.2a10.89,10.89,0,0,0-1.95,3.89h6.56A7.13,7.13,0,0,1,184.12.32Z"/><path class="cls-2" d="M184.85,13.33a6.79,6.79,0,0,0,2.06.32H193a10.93,10.93,0,0,0,2-3.9H188.5A7.1,7.1,0,0,1,184.85,13.33Z"/><path class="cls-2" d="M186.91,0a6.81,6.81,0,0,0-2.06.32l-.37.13a6.85,6.85,0,0,0-3.74,3.45l-.12.26a6.84,6.84,0,0,0,0,5.34h1.44a2.67,2.67,0,0,0,2.26-1.25,2.91,2.91,0,0,1,0-2.84c0-.08.1-.17.15-.24a2.93,2.93,0,0,1,2.41-1.27h8.18A10.94,10.94,0,0,0,193.13,0h-6.22Z"/><path class="cls-2" d="M197.73,25.21a4.63,4.63,0,0,1-1.87-.37,4.57,4.57,0,0,1-1.48-1,4.62,4.62,0,0,1-1-1.53A5,5,0,0,1,193,20.4v0a5,5,0,0,1,.36-1.87,4.8,4.8,0,0,1,1-1.55,4.59,4.59,0,0,1,1.5-1,4.68,4.68,0,0,1,1.9-.38,5.86,5.86,0,0,1,1.16.11,4.8,4.8,0,0,1,1,.3,4.42,4.42,0,0,1,.82.47,6.73,6.73,0,0,1,.72.61l-.72.77a5.92,5.92,0,0,0-1.29-.92,3.84,3.84,0,0,0-3.09-.07,3.58,3.58,0,0,0-1.15.82,3.72,3.72,0,0,0-.76,1.22,4.07,4.07,0,0,0-.27,1.5v0a4.09,4.09,0,0,0,.27,1.52,3.7,3.7,0,0,0,.76,1.22,3.6,3.6,0,0,0,1.15.82,3.42,3.42,0,0,0,1.44.3,3.6,3.6,0,0,0,1.66-.35,5.73,5.73,0,0,0,1.36-1l.7.68a6.48,6.48,0,0,1-.76.67,4.8,4.8,0,0,1-.85.52,4.86,4.86,0,0,1-1,.33A5.23,5.23,0,0,1,197.73,25.21Z"/><path class="cls-2" d="M201.81,15.7h4a4.46,4.46,0,0,1,1.54.25,3,3,0,0,1,1.12.69,2.37,2.37,0,0,1,.53.81,2.66,2.66,0,0,1,.19,1v0a2.69,2.69,0,0,1-.19,1,2.35,2.35,0,0,1-.52.8,2.91,2.91,0,0,1-.81.56,3.81,3.81,0,0,1-1,.31L209.53,25h-1.29l-2.71-3.63h-2.67V25h-1.05Zm3.93,4.76a3.25,3.25,0,0,0,1-.13,2.29,2.29,0,0,0,.76-.38,1.71,1.71,0,0,0,.68-1.41v0a1.62,1.62,0,0,0-.63-1.35,2.83,2.83,0,0,0-1.77-.49h-2.88v3.79Z"/><path class="cls-2" d="M214.14,15.71h1L219.38,25h-1.14l-1.09-2.45h-5.08L211,25h-1.08Zm2.6,5.94-2.12-4.72-2.13,4.72Z"/><path class="cls-2" d="M219.73,15.7h1.05V25h-1.05Z"/><path class="cls-2" d="M225.88,25.2a5,5,0,0,1-2-.37,4.42,4.42,0,0,1-2.44-2.56,5.37,5.37,0,0,1-.33-1.87v0a5,5,0,0,1,.34-1.83,4.82,4.82,0,0,1,1-1.54,4.53,4.53,0,0,1,1.47-1.06,4.58,4.58,0,0,1,1.92-.39,6.61,6.61,0,0,1,1.07.08,4.89,4.89,0,0,1,.91.24,4.51,4.51,0,0,1,.78.39,6.19,6.19,0,0,1,.72.53l-.68.8a4.24,4.24,0,0,0-.56-.43,3.71,3.71,0,0,0-.63-.33,4.24,4.24,0,0,0-.75-.22,4.93,4.93,0,0,0-.9-.08,3.34,3.34,0,0,0-1.43.31,3.42,3.42,0,0,0-1.12.83,3.84,3.84,0,0,0-.74,1.22,4.14,4.14,0,0,0-.27,1.47v0a4.5,4.5,0,0,0,.26,1.55,3.62,3.62,0,0,0,.74,1.23,3.35,3.35,0,0,0,1.16.82,3.85,3.85,0,0,0,1.53.29,4.13,4.13,0,0,0,1.51-.27,4.38,4.38,0,0,0,1.19-.66V21h-2.84v-.95h3.86v3.72a6.08,6.08,0,0,1-1.61,1A5.28,5.28,0,0,1,225.88,25.2Z"/><path class="cls-2" d="M230.3,23.72h0V25h.82v0h-.87Z"/><path class="cls-2" d="M231.43,23.72h0V25h.83v0h-.87Z"/><path class="cls-2" d="M232.54,23.72H233a.61.61,0,0,1,.38.11.37.37,0,0,1,.13.3h0a.37.37,0,0,1-.14.3.64.64,0,0,1-.39.11h-.42v.53h0Zm.46.78a.59.59,0,0,0,.35-.1.32.32,0,0,0,.13-.27h0a.32.32,0,0,0-.13-.27.57.57,0,0,0-.35-.1h-.43v.74Z"/><path class="cls-2" d="M182.06,13.64a6.8,6.8,0,0,0,2.06-.32l.37-.13a6.83,6.83,0,0,0,3.74-3.45c0-.08.08-.17.12-.26a6.82,6.82,0,0,0,0-5.34H186.9a2.69,2.69,0,0,0-2.27,1.25,2.93,2.93,0,0,1,0,2.84l-.15.24a2.92,2.92,0,0,1-2.41,1.27h-8.13a10.92,10.92,0,0,0,2,3.9h6.09Z"/><path class="cls-2" d="M139.27,15.71h3.64a5.52,5.52,0,0,1,2,.35,4.74,4.74,0,0,1,1.57,1,4.36,4.36,0,0,1,1,1.47,4.66,4.66,0,0,1,.36,1.83v0a4.71,4.71,0,0,1-.36,1.84,4.36,4.36,0,0,1-1,1.48,4.82,4.82,0,0,1-1.57,1,5.44,5.44,0,0,1-2,.36h-3.64Zm3.64,7.49a3.22,3.22,0,0,0,1.15-.2,2.47,2.47,0,0,0,.89-.57,2.75,2.75,0,0,0,.57-.88,3,3,0,0,0,.2-1.13v0a3.07,3.07,0,0,0-.2-1.13,2.71,2.71,0,0,0-.57-.89,2.53,2.53,0,0,0-.89-.58,3.08,3.08,0,0,0-1.15-.21h-1.59v5.63Z"/><path class="cls-2" d="M152.28,25.22a4.11,4.11,0,0,1-3-1,4.15,4.15,0,0,1-1.08-3.12V15.71h2.06V21a2.48,2.48,0,0,0,.53,1.73,1.92,1.92,0,0,0,1.49.58,2,2,0,0,0,1.48-.56,2.36,2.36,0,0,0,.54-1.69V15.71h2.06V21a5.46,5.46,0,0,1-.29,1.86,3.54,3.54,0,0,1-.82,1.32A3.38,3.38,0,0,1,154,25,5.21,5.21,0,0,1,152.28,25.22Z"/><path class="cls-2" d="M156.73,15.71h1.89L163,21.46V15.71h2V25h-1.75l-4.52-5.94V25h-2Z"/><path class="cls-2" d="M170.18,25.22a4.88,4.88,0,0,1-1.91-.37,4.72,4.72,0,0,1-1.53-1,4.66,4.66,0,0,1-1-1.53,4.9,4.9,0,0,1-.36-1.88v0A4.86,4.86,0,0,1,166.74,17a4.6,4.6,0,0,1,1.54-1,5,5,0,0,1,2-.38,6.2,6.2,0,0,1,1.19.11,5.12,5.12,0,0,1,1,.29,4.4,4.4,0,0,1,.81.46,5.52,5.52,0,0,1,.7.59l-1.31,1.51a4.93,4.93,0,0,0-1.12-.77,2.85,2.85,0,0,0-1.28-.28,2.6,2.6,0,0,0-2,.86,2.94,2.94,0,0,0-.56.93,3.13,3.13,0,0,0-.2,1.13v0a3.19,3.19,0,0,0,.2,1.14,2.9,2.9,0,0,0,.56.94,2.56,2.56,0,0,0,2,.87A2.86,2.86,0,0,0,171.6,23a5.28,5.28,0,0,0,1.11-.8L174,23.55a6.43,6.43,0,0,1-.75.7,4.37,4.37,0,0,1-.85.53,4.44,4.44,0,0,1-1,.33A6.07,6.07,0,0,1,170.18,25.22Z"/><path class="cls-2" d="M177.78,15.64h1.89l4,9.41h-2.15L180.68,23h-3.95L175.87,25h-2.1Zm2.16,5.5-1.24-3-1.24,3Z"/><path class="cls-2" d="M184,15.71h1.89l4.38,5.75V15.71h2V25h-1.75l-4.52-5.94V25h-2Z"/><path class="cls-2" d="M318.59,11.43h-.07c-4.75-.1-8.47-1.13-8.47-2.34s3.42-2.51,8-2.67h.07L318.07,6h-.27c-3.57.13-6.64.73-8.2,1.59-.69.38-1,.78-1,1.2s.35.83,1,1.2c1.67.92,5.08,1.54,8.92,1.62h.08c.09,0,.15,0,.15-.11S318.67,11.43,318.59,11.43Z"/><path class="cls-2" d="M318.53,12.31h-.13c-6.62-.14-11.81-1.67-11.81-3.5,0-1.63,4.37-3.56,10.87-3.83L318,5l-.08-.62h-.48c-5,.18-9.53,1.07-11.76,2.32-1,.57-1.51,1.17-1.51,1.79s.51,1.23,1.51,1.79c2.41,1.35,7.29,2.25,12.73,2.35h.14c.12,0,.22-.07.22-.15S318.65,12.31,318.53,12.31Z"/><path class="cls-2" d="M318.38,13.23h-.14c-9.08-.16-16.19-2.28-16.19-4.8s7-4.87,15.2-5.15h.48l-.09-.73h-.5c-7.12.21-13.48,1.43-16.58,3.17-1.33.75-2,1.55-2,2.37s.67,1.62,2,2.37c3.3,1.85,10.07,3.07,17.66,3.19h.16c.17,0,.3-.08.3-.2S318.56,13.23,318.38,13.23Z"/><path class="cls-2" d="M319.85,11.43h.07c4.75-.1,8.47-1.13,8.47-2.34s-3.42-2.51-8-2.67h-.07l.07-.39h.27c3.57.13,6.64.73,8.2,1.59.69.38,1,.78,1,1.2s-.35.83-1,1.2c-1.67.92-5.08,1.54-8.92,1.62h-.09c-.09,0-.15,0-.15-.11S319.77,11.43,319.85,11.43Z"/><path class="cls-2" d="M319.91,12.31H320c6.62-.14,11.81-1.67,11.81-3.5,0-1.63-4.37-3.56-10.87-3.83l-.51,0,.08-.62H321c5,.18,9.53,1.07,11.76,2.32,1,.57,1.51,1.17,1.51,1.79s-.51,1.23-1.51,1.79c-2.41,1.35-7.29,2.25-12.74,2.35h-.14c-.12,0-.22-.07-.22-.15S319.79,12.31,319.91,12.31Z"/><path class="cls-2" d="M320.06,13.23h.14c9.08-.16,16.19-2.28,16.19-4.8s-7-4.87-15.2-5.15h-.48l.09-.73h.5c7.12.21,13.48,1.43,16.58,3.17,1.33.75,2,1.55,2,2.37s-.67,1.62-2,2.37c-3.3,1.85-10.07,3.07-17.66,3.19h-.16c-.17,0-.3-.08-.3-.2S319.89,13.23,320.06,13.23Z"/><path class="cls-2" d="M290.1,22.39l1,1.31a12.4,12.4,0,0,1-1.88,1,9.53,9.53,0,0,1-1.47.42,8.9,8.9,0,0,1-1.76.15,7.92,7.92,0,0,1-2-.28,5.14,5.14,0,0,1-1.77-.82A4.52,4.52,0,0,1,281,22.74a3.86,3.86,0,0,1-.49-2,3.8,3.8,0,0,1,.49-1.95,4.45,4.45,0,0,1,1.28-1.4,5.66,5.66,0,0,1,1.82-.84,8,8,0,0,1,2.11-.28,9.25,9.25,0,0,1,1.54.14,7.46,7.46,0,0,1,1.23.32,5,5,0,0,1,1.67.86l-1,1.28A5.09,5.09,0,0,0,288,18l-.56-.13a6.28,6.28,0,0,0-1.21-.11,5.19,5.19,0,0,0-1.45.19,3.36,3.36,0,0,0-1.14.57,2.57,2.57,0,0,0-.75.93,2.93,2.93,0,0,0-.27,1.27,2.71,2.71,0,0,0,.3,1.28,3.21,3.21,0,0,0,.78,1,3.39,3.39,0,0,0,1.1.62,3.92,3.92,0,0,0,1.26.21,5.52,5.52,0,0,0,1.21-.14,7.64,7.64,0,0,0,1.13-.33A5.88,5.88,0,0,0,290.1,22.39Z"/><path class="cls-2" d="M319.54,25.21h-2.13V16.48h5.88a5,5,0,0,1,2.68.58,2.2,2.2,0,0,1,.89,2,2.13,2.13,0,0,1-.89,2,5.23,5.23,0,0,1-2.68.55h-3.76Zm3.71-5.09a2.45,2.45,0,0,0,1.07-.21.84.84,0,0,0,.43-.85.91.91,0,0,0-.43-.86,2.12,2.12,0,0,0-1.07-.25h-3.71v2.17Z"/><path class="cls-2" d="M359.54,17.57a.68.68,0,1,1,.2-.48A.66.66,0,0,1,359.54,17.57Zm-.9-.9a.57.57,0,0,0-.17.42.57.57,0,0,0,.17.42.59.59,0,0,0,.83,0,.59.59,0,0,0,0-.83.59.59,0,0,0-.83,0Zm.4,0a.57.57,0,0,1,.2,0,.19.19,0,0,1,.12.19.16.16,0,0,1-.07.15l-.11,0a.18.18,0,0,1,.13.07.21.21,0,0,1,0,.12v.05s0,0,0,.06a.12.12,0,0,0,0,0h-.12v-.08a.18.18,0,0,0-.07-.17.32.32,0,0,0-.15,0h-.1v.29h-.13V16.7Zm.14.12a.34.34,0,0,0-.16,0h-.11v.27H359l.13,0a.13.13,0,0,0,0-.23Z"/><rect class="cls-2" x="292.05" y="16.45" width="2.12" height="8.76"/><polygon class="cls-2" points="295.62 16.45 295.62 25.22 297.47 25.22 297.47 18.75 304.1 25.23 305.93 25.23 305.93 16.46 304.09 16.46 304.09 22.53 297.79 16.46 295.62 16.45"/><polygon class="cls-2" points="316.17 25.22 316.17 23.75 309.5 23.75 309.5 21.4 314.02 21.4 314.02 19.93 309.5 19.93 309.5 17.93 315.98 17.93 315.98 16.45 307.38 16.45 307.38 25.22 316.17 25.22"/><polygon class="cls-2" points="347.06 25.22 347.06 23.75 340.4 23.75 340.4 21.4 344.92 21.4 344.92 19.93 340.4 19.93 340.4 17.93 346.87 17.93 346.87 16.45 338.27 16.45 338.27 25.22 347.06 25.22"/><polygon class="cls-2" points="327.95 16.45 327.95 25.23 337.03 25.23 337.03 23.76 330.04 23.76 330.04 16.45 327.95 16.45"/><polygon class="cls-2" points="347.81 16.46 351.71 20.83 347.74 25.22 350.22 25.22 352.92 22.2 355.61 25.21 358.36 25.21 354.25 20.73 358.08 16.46 355.66 16.46 353.03 19.38 350.37 16.46 347.81 16.46"/><path class="cls-2" d="M430.6,27.13c-.1.81-.73,1.25-1.85,1.25a2,2,0,0,1-2.13-2.1,2,2,0,0,1,2.19-2.1c1.08,0,1.69.44,1.75,1.15h-.63c-.05-.41-.47-.69-1.15-.69a1.47,1.47,0,0,0-1.55,1.64,1.48,1.48,0,0,0,1.61,1.66c.67,0,1.07-.31,1.12-.81h.64"/><path class="cls-2" d="M433.42,27.84c.68,0,1-.18,1-.71s-.36-.74-1.11-.74H432v1.45h1.42M432,25.93h1.23c.71,0,1.05-.15,1.05-.63s-.33-.61-1-.61H432Zm-.54-1.68h1.94a2.12,2.12,0,0,1,1,.17.88.88,0,0,1,.44.82.89.89,0,0,1-.81.91,1,1,0,0,1,.95,1,1.08,1.08,0,0,1-.34.81,1.73,1.73,0,0,1-1.27.34h-2Z"/><path class="cls-2" d="M439.68,26.06c.85,0,1.24-.06,1.24-.69s-.41-.65-1.24-.65h-1.06v1.34h1.06m-1.6-1.81h1.81a2.27,2.27,0,0,1,1.19.2,1,1,0,0,1,.42.89,1,1,0,0,1-.89,1c.51,0,.61.26.72.84l.1.54a2,2,0,0,0,.19.61H441a2,2,0,0,1-.14-.56l-.11-.68c-.07-.46-.38-.55-1-.55h-1.1v1.79h-.54Z"/><rect class="cls-2" x="442.58" y="24.25" width="0.58" height="4.07"/><path class="cls-2" d="M448.1,27.13c-.1.81-.73,1.25-1.85,1.25a2,2,0,0,1-2.13-2.1,2,2,0,0,1,2.19-2.1c1.07,0,1.69.44,1.75,1.15h-.63c-.05-.41-.48-.69-1.15-.69a1.47,1.47,0,0,0-1.56,1.64,1.48,1.48,0,0,0,1.62,1.66c.67,0,1.07-.31,1.13-.81h.64"/><polyline class="cls-2" points="448.95 28.32 448.95 24.25 449.51 24.25 449.51 25.9 452.13 25.9 452.13 24.25 452.69 24.25 452.69 28.32 452.13 28.32 452.13 26.39 449.51 26.39 449.51 28.32 448.95 28.32"/><path class="cls-2" d="M456.75,26.76l-1-2-1.05,2h2m-1.34-2.51h.7l2.05,4.07h-.66L457,27.23h-2.51l-.56,1.08h-.6Z"/><path class="cls-2" d="M460.37,26.06c.85,0,1.24-.06,1.24-.69s-.41-.65-1.24-.65H459.3v1.34h1.06m-1.6-1.81h1.81a2.26,2.26,0,0,1,1.19.2,1,1,0,0,1,.42.89,1,1,0,0,1-.89,1c.52,0,.61.26.72.84l.1.54a2,2,0,0,0,.18.61h-.61a2.06,2.06,0,0,1-.14-.56l-.11-.68c-.07-.46-.38-.55-1-.55h-1.1v1.79h-.54Z"/><path class="cls-2" d="M464.83,27.84a1.8,1.8,0,0,0,1.36-.37,1.59,1.59,0,0,0,.44-1.18,1.55,1.55,0,0,0-.47-1.22,2,2,0,0,0-1.39-.35h-.93v3.12h1m-1.59-3.59h1.64a2.49,2.49,0,0,1,1.74.46,1.94,1.94,0,0,1,.64,1.54,2.07,2.07,0,0,1-.53,1.46,2.13,2.13,0,0,1-1.73.6h-1.76Z"/><polyline class="cls-2" points="470.15 24.25 473.17 24.25 473.17 24.73 470.7 24.73 470.7 25.92 472.99 25.92 472.99 26.41 470.7 26.41 470.7 27.81 473.24 27.81 473.24 28.32 470.15 28.32 470.15 24.25"/><polyline class="cls-2" points="474.12 24.25 474.69 24.25 474.69 27.81 477.01 27.81 477.01 28.32 474.12 28.32 474.12 24.25"/><polyline class="cls-2" points="477.74 24.25 478.31 24.25 478.31 27.81 480.64 27.81 480.64 28.32 477.74 28.32 477.74 24.25"/><rect class="cls-2" x="481.38" y="24.25" width="0.58" height="4.07"/><path class="cls-2" d="M483.54,27.08c0,.54.49.86,1.27.86s1.25-.32,1.25-.78a.48.48,0,0,0-.36-.46,7,7,0,0,0-1-.18,4,4,0,0,1-1.09-.25.92.92,0,0,1-.58-.91c0-.69.66-1.17,1.81-1.17s1.66.43,1.67,1.16h-.58c0-.44-.44-.71-1.11-.71s-1.18.27-1.18.74a.42.42,0,0,0,.28.42,8.92,8.92,0,0,0,1.38.26c.93.15,1.37.39,1.37,1.07s-.69,1.27-1.94,1.27-1.78-.48-1.78-1.28v0h.6"/><path class="cls-2" d="M451.22,17.88h-5v-2.5h5.1a1.24,1.24,0,0,1,1.11,1.23,1.29,1.29,0,0,1-1.25,1.27m-5-8.2h5.24a1.22,1.22,0,0,1,1,1.19,1.28,1.28,0,0,1-1.07,1.25h-5.19Zm7.39,4a3.32,3.32,0,0,0,2.24-3.53c0-2-1.41-3.71-5.56-3.71h-7.75V21.36h7.73c4.18,0,5.71-2.14,5.71-4.29A3.65,3.65,0,0,0,453.64,13.67Z"/><path class="cls-2" d="M473.37,6.43h13.1V9.69H477v2.41h8.52v3.28H477V18h9.45v3.42h-13.1v-15"/><path class="cls-2" d="M467.74,11.08a1.24,1.24,0,0,1-1.17,1h-5.11V9.72h5.11a1.17,1.17,0,0,1,1.17,1v.33m-2-4.63h-7.92V21.39h3.64v-6h4a2.08,2.08,0,0,1,2,2.12v3.92h3.56V16.55a3.13,3.13,0,0,0-2.16-2.89,3.34,3.34,0,0,0,2.2-3.3C471.12,7.13,468.34,6.45,465.76,6.45Z"/><path class="cls-2" d="M440.22,17.78c-.05,0-5,.1-6.67-.07a3.84,3.84,0,0,1-3.7-3.95,3.83,3.83,0,0,1,3.58-3.87c1-.14,6.7-.07,6.76-.07h.12V6.43h-6.53a9.56,9.56,0,0,0-3.11.61,7.62,7.62,0,0,0-2.93,2.37,7.43,7.43,0,0,0-1.47,4.45,9,9,0,0,0,.12,1.5,7.28,7.28,0,0,0,4.08,5.15,11.09,11.09,0,0,0,4.06.82l1.21,0h4.59V17.78h-.12"/><polygon class="cls-2" points="19.78 9.12 21.8 9.12 21.8 7.09 23.83 7.09 23.83 5.06 21.8 5.06 21.8 3.03 19.78 3.03 19.78 5.06 17.75 5.06 17.75 5.06 18.76 7.09 19.78 7.09 19.78 9.12"/><polygon class="cls-2" points="16.73 15.2 13.69 9.12 10.65 15.2 16.73 15.2"/><polygon class="cls-2" points="18.25 18.24 9.13 18.24 6.08 24.33 21.3 24.33 18.25 18.24"/><path class="cls-2" d="M35.52,10.63l-2.84,6.05H33.8L34.6,15h2.54l.79,1.72H39l-2.74-6.05ZM35,14l.85-1.79L36.72,14Z"/><path class="cls-2" d="M42.17,10.63H39.68v6.05h2.19a3.57,3.57,0,0,0,2.36-.74,2.83,2.83,0,0,0,1-2.28,3.11,3.11,0,0,0-.75-2.21A3,3,0,0,0,42.17,10.63Zm-1.5,1h1.49a2,2,0,0,1,1.55.54,2.17,2.17,0,0,1,.48,1.53,1.91,1.91,0,0,1-.58,1.53,2.54,2.54,0,0,1-1.72.52H40.67Z"/><polygon class="cls-2" points="50.19 10.63 48.23 15.11 46.19 10.63 45.12 10.63 47.86 16.68 48.59 16.68 51.26 10.63 50.19 10.63"/><path class="cls-2" d="M52.93,10.63l-2.84,6.05H51.2L52,15h2.54l.79,1.72h1.08l-2.74-6.05ZM52.45,14l.85-1.79L54.12,14Z"/><path class="cls-2" d="M61.22,14.93l-1.47-1.76q-1.29-1.54-2-2.42l-.09-.11h-.86v6.05h1V12.34l3.55,4.34h.85V10.63h-1Z"/><polygon class="cls-2" points="67.95 10.63 62.77 10.63 62.77 11.59 64.86 11.59 64.86 16.68 65.86 16.68 65.86 11.59 67.95 11.59 67.95 10.63"/><path class="cls-2" d="M69.78,10.63l-2.84,6.05h1.12L68.86,15H71.4l.79,1.72h1.08l-2.74-6.05ZM69.31,14l.85-1.79L71,14Z"/><path class="cls-2" d="M79.46,13.43h-3.3v1h2.35a1.3,1.3,0,0,1-.57,1,2.28,2.28,0,0,1-1.4.42,2.46,2.46,0,0,1-1.71-.55,2,2,0,0,1-.6-1.56,2,2,0,0,1,.59-1.56,2.3,2.3,0,0,1,1.66-.57c1.12,0,1.74.42,2,1.32l1-.13A2.5,2.5,0,0,0,78.3,11a3.5,3.5,0,0,0-1.83-.45,3.29,3.29,0,0,0-2.35.83,3,3,0,0,0-.89,2.27A2.9,2.9,0,0,0,74.17,16a3.44,3.44,0,0,0,2.36.78,3.39,3.39,0,0,0,1.95-.56,2.33,2.33,0,0,0,1-2c0-.11,0-.27,0-.45Z"/><polygon class="cls-2" points="81.2 15.72 81.2 14.03 84.53 14.03 84.53 13.06 81.2 13.06 81.2 11.59 84.95 11.59 84.95 10.63 80.2 10.63 80.2 16.68 84.99 16.68 84.99 15.72 81.2 15.72"/><rect class="cls-2" x="27.33" y="3.03" width="0.13" height="21.3"/><polygon class="cls-2" points="0 24.33 0 3.03 10.65 3.03 0 24.33"/><path class="cls-2" d="M34.61,3.47V5.74h3.1v.42h-3.1V9.09h-.43v-6h4.06v.42Z"/><path class="cls-2" d="M43.6,8.33a3.42,3.42,0,0,1-4.45,0,3.09,3.09,0,0,1-.81-2.26,2.93,2.93,0,0,1,.81-2.21,3.55,3.55,0,0,1,4.45,0,2.92,2.92,0,0,1,.82,2.21A3.07,3.07,0,0,1,43.6,8.33Zm-.3-4.16a3.07,3.07,0,0,0-3.84,0,2.54,2.54,0,0,0-.69,1.9A2.68,2.68,0,0,0,39.47,8a2.53,2.53,0,0,0,1.91.72A2.56,2.56,0,0,0,43.3,8a2.69,2.69,0,0,0,.69-2A2.54,2.54,0,0,0,43.3,4.17Z"/><path class="cls-2" d="M49.55,8.62a2.65,2.65,0,0,1-1.81.54,2.61,2.61,0,0,1-1.82-.54,2.31,2.31,0,0,1-.63-1.8V3.05h.43V6.81q0,1.92,2,1.92t2-1.9V3.05h.43V6.83A2.29,2.29,0,0,1,49.55,8.62Z"/><path class="cls-2" d="M55.79,9.09,51.63,3.72V9.09H51.2v-6h.45q.73,1,2.08,2.68T55.8,8.39V3.05h.43v6Z"/><path class="cls-2" d="M59.41,9.09h-2v-6h2.31a2.75,2.75,0,0,1,2.15.81,3.21,3.21,0,0,1,.7,2.22,2.87,2.87,0,0,1-.9,2.27A3.31,3.31,0,0,1,59.41,9.09Zm2.15-4.93a2.34,2.34,0,0,0-1.84-.69H57.86v5.2h1.58a2.83,2.83,0,0,0,2-.66,2.5,2.5,0,0,0,.71-1.93A2.79,2.79,0,0,0,61.57,4.17Z"/><path class="cls-2" d="M63.54,9.09v-6H67.9v.42H64V5.74h3.48v.42H64V8.67h4v.42Z"/><path class="cls-2" d="M72.74,6.14a1.39,1.39,0,0,1,.89,1.42V9.09h-.43V7.58q0-1.18-1.57-1.18H69.37v2.7h-.43v-6H71.7q2,0,2,1.59A1.49,1.49,0,0,1,72.74,6.14Zm-1-2.67H69.37V6h2.21a2.11,2.11,0,0,0,1.17-.28,1.12,1.12,0,0,0,.53-1Q73.28,3.47,71.72,3.47Z"/><path class="cls-2" d="M77.05,9.16a3.31,3.31,0,0,1-1.77-.42,1.73,1.73,0,0,1-.84-1.59V6.93h.43v.18q0,1.63,2.19,1.63a2.94,2.94,0,0,0,1.26-.24,1,1,0,0,0,.65-1,1,1,0,0,0-.24-.7,1.67,1.67,0,0,0-.67-.35l-1.2-.29a6.54,6.54,0,0,1-1.47-.45,1.31,1.31,0,0,1-.77-1.22Q74.63,3,76.89,3t2.39,1.94h-.42a1.42,1.42,0,0,0-.61-1.26,2.75,2.75,0,0,0-1.36-.27q-1.83,0-1.83,1.13a.89.89,0,0,0,.5.83,4.46,4.46,0,0,0,1.17.35,6.54,6.54,0,0,1,2.05.61,1.35,1.35,0,0,1,.62,1.23,1.36,1.36,0,0,1-.82,1.26A3.27,3.27,0,0,1,77.05,9.16Z"/><path class="cls-2" d="M38,19.6a2.28,2.28,0,0,0-2.06-1,2.49,2.49,0,0,0-2.66,2.67A2.68,2.68,0,0,0,34,23.23a2.48,2.48,0,0,0,1.88.72A2.41,2.41,0,0,0,38,23l.37.25a2.85,2.85,0,0,1-2.44,1.17,3,3,0,0,1-2.2-.82,3,3,0,0,1-.81-2.22,3.1,3.1,0,0,1,.84-2.28A3,3,0,0,1,36,18.2a2.72,2.72,0,0,1,2.43,1.16Z"/><path class="cls-2" d="M44,24.3l-.83-1.9H40.11l-.85,1.9h-.49l2.69-6h.4l2.6,6Zm-2.32-5.38L40.28,22H43Z"/><path class="cls-2" d="M47.56,21.67H45.42V24.3H45v-6h2.66q2.09,0,2.09,1.73A1.44,1.44,0,0,1,49,21.3,2.72,2.72,0,0,1,47.56,21.67Zm.15-3H45.42v2.56h2.3a1.88,1.88,0,0,0,1.09-.3,1.08,1.08,0,0,0,.5-1Q49.31,18.68,47.7,18.69Z"/><path class="cls-2" d="M54.53,18.69V24.3H54.1V18.69H51.91v-.42h4.81v.42Z"/><path class="cls-2" d="M61.56,24.32l-.82-1.9H57.68l-.84,1.9h-.5l2.69-6h.4l2.6,6Zm-2.32-5.38L57.86,22h2.71Z"/><path class="cls-2" d="M62.49,24.32v-6h.43v5.62h3.62v.42Z"/><path class="cls-2" d="M50.7,24.3v-6h.43v5.62h0v.42Z"/></svg>