<svg id="Layer_1" xmlns="http://www.w3.org/2000/svg" viewBox="0 0 300 100"><style>.st0{fill:#989898;}</style><g id="XMLID_348_"><g id="XMLID_670_"><path id="XMLID_715_" class="st0" d="M230 27.3h3.5c1 0 1.8 0 2.4.2 1.1.4 1.6 1.3 1.6 2.1 0 .5-.1.8-.2.9-.4.9-1.3 1.1-1.8 1.2.6.1 1.3.2 1.8.8.3.3.5.9.5 1.4 0 .7-.4 1.7-1.5 2.2-.7.3-1.4.3-2.5.3H230v-9.1zm2.2 1.7v1.9h1.7c.5 0 1.4 0 1.4-1 0-.9-.8-.9-1.2-.9h-1.9zm0 3.5v2.2h1.6c.8 0 1.8 0 1.8-1.1s-.9-1.1-1.4-1.1h-2z"/><path id="XMLID_714_" class="st0" d="M241.1 30.4c.4-.4.9-.7 2-.8v1.8l-.7.1c-1 .2-1.2.3-1.2 1.2v3.8h-2v-6.8h1.9v.7z"/><path id="XMLID_711_" class="st0" d="M250.8 33c0 1.7-1 3.6-3.6 3.6-1.9 0-3.6-1.1-3.6-3.6 0-2.1 1.3-3.7 3.9-3.6 2.7.2 3.3 2.4 3.3 3.6m-4.9-1.3c-.2.4-.3.9-.3 1.3 0 1.1.5 2 1.6 2s1.6-.9 1.6-1.9c0-.8-.2-1.3-.6-1.7-.4-.4-.9-.4-1.2-.4-.5.1-.9.3-1.1.7"/><path id="XMLID_708_" class="st0" d="M258.9 33c0 1.7-1 3.6-3.6 3.6-1.9 0-3.6-1.1-3.6-3.6 0-2.1 1.3-3.7 3.9-3.6 2.6.2 3.3 2.4 3.3 3.6m-5-1.3c-.2.4-.3.9-.3 1.3 0 1.1.5 2 1.6 2s1.6-.9 1.6-1.9c0-.8-.2-1.3-.6-1.7-.4-.4-.9-.4-1.2-.4-.4.1-.8.3-1.1.7"/><path id="XMLID_707_" class="st0" d="M260.1 27.3h2V32l2.2-2.3h2.4l-2.4 2.4 2.7 4.3h-2.3l-1.8-2.9-.8.8v2.1h-2z"/><path id="XMLID_706_" class="st0" d="M268 29c0-.3 0-.8.3-1.2.2-.3.8-.7 1.7-.7.4 0 .8.1 1.2.1v1.5h-.5c-.8 0-.8.2-.8 1.1h1.3V31H270v5.4h-2V31h-1.1v-1.2h1.1V29z"/><path id="XMLID_703_" class="st0" d="M272.3 27.3h2v1.5h-2v-1.5zm0 2.3h2v6.8h-2v-6.8z"/><path id="XMLID_700_" class="st0" d="M282.3 34.7c-.2.3-.5.7-.8 1-.6.5-1.5 1-2.5 1-2 0-3.4-1.3-3.4-3.5 0-1.6.8-3.7 3.5-3.7.4 0 1.6 0 2.4 1 .9.9.9 2.3 1 3h-4.8c0 .8.5 1.7 1.5 1.7 1.1 0 1.5-.7 1.7-1.2l1.4.7zm-1.9-2.5c0-.3-.1-.7-.4-1-.2-.2-.6-.4-1-.4-.5 0-.8.2-1 .4-.3.3-.3.6-.4.9h2.8z"/><path id="XMLID_699_" class="st0" d="M283.6 27.3h2v9.1h-2z"/><path id="XMLID_696_" class="st0" d="M293.4 27.3v9.1h-1.8v-.6c-.3.3-.8.8-1.8.8-.7 0-1.4-.3-1.9-.8-1-.9-1-2.3-1-2.7 0-2.5 1.4-3.6 2.8-3.6.9 0 1.4.4 1.8.7v-2.9h1.9zm-1.9 5.7c0-.3 0-1.1-.4-1.7-.1-.1-.4-.4-.8-.4-1.4 0-1.4 1.8-1.4 2.1 0 .9.3 2.1 1.3 2.1.2 0 .5-.1.6-.2.7-.5.7-1.5.7-1.9"/><path id="XMLID_693_" class="st0" d="M250.9 38.4h2c.8 0 1.4 0 1.9.5.4.3.7.8.7 1.5 0 1.2-.9 1.6-1.2 1.7l1.4 2.5h-1.3l-1.2-2.3h-1v2.3H251v-6.2zm1.1 1v2H253.2c.3 0 1.1-.1 1.1-1 0-.1 0-.6-.5-.8-.2-.1-.6-.1-1.2-.1h-.6z"/><path id="XMLID_690_" class="st0" d="M260.5 43.6c-.5.7-1.3 1.1-2.2 1.1-1.2 0-2.3-.7-2.3-2.4 0-1.5 1-2.3 2.2-2.3 1.2 0 1.7.7 1.7.8.4.5.4 1.3.5 1.7h-3.3c.1.7.6 1.1 1.3 1.1.7 0 1-.4 1.2-.6l.9.6zm-1.2-1.8c-.1-.7-.5-.9-1-.9-.6 0-1 .3-1.1.9h2.1z"/><path id="XMLID_689_" class="st0" d="M261.8 43.3c.3.3.7.6 1.3.6.6 0 .9-.3.9-.5 0-.3-.3-.4-.5-.4s-.9-.2-1-.2c-1.1-.2-1.3-.9-1.3-1.3 0-.8.7-1.4 1.9-1.4.7 0 1.2.2 1.5.4.2.1.4.3.5.4l-.8.7c-.1-.2-.4-.7-1.2-.7-.5 0-.7.2-.7.5s.3.4.9.5c.9.2 1.2.2 1.5.4.3.2.5.6.5.9 0 .7-.6 1.5-2 1.5-.8 0-1.6-.2-2.1-.8l.6-.6z"/><path id="XMLID_686_" class="st0" d="M266.9 39.5h-1.1v-1.1h1.1v1.1zm0 5.1h-1.1v-4.4h1.1v4.4z"/><path id="XMLID_683_" class="st0" d="M271.9 38.4v6.3h-1.1v-.4c-.3.4-.8.6-1.2.6-1.1 0-2-.8-2-2.3 0-1.3.7-2.4 2-2.4.4 0 .9.1 1.2.5v-2.2h1.1zm-1.3 3c-.2-.2-.4-.4-.8-.4-.7 0-1.1.6-1.1 1.3 0 .1 0 1.4 1 1.4.6 0 1-.4 1-1.4.1-.2.1-.6-.1-.9"/><path id="XMLID_680_" class="st0" d="M277.1 43.6c-.6.7-1.3 1.1-2.2 1.1-1.2 0-2.3-.7-2.3-2.4 0-1.5 1-2.3 2.2-2.3 1.2 0 1.7.7 1.7.8.4.5.4 1.3.5 1.7h-3.3c.1.7.6 1.1 1.3 1.1.7 0 1-.4 1.2-.6l.9.6zm-1.2-1.8c-.1-.7-.5-.9-1-.9-.6 0-1 .3-1.1.9h2.1z"/><path id="XMLID_679_" class="st0" d="M277.8 40.2h1.1v.5l.3-.3c.3-.2.7-.3 1-.3.5 0 .9.2 1.2.5.3.4.3.9.3 1.4v2.6h-1.1v-2.3-.7c-.1-.4-.4-.6-.7-.6-.3 0-.7.2-.8.5-.2.3-.2.8-.2 1.1v1.9h-1.1v-4.3z"/><path id="XMLID_678_" class="st0" d="M283.9 40.9v2c0 .6 0 .8.5.8.2 0 .3 0 .4-.1v.9c-.3.1-.5.1-.8.1-.2 0-1 0-1.2-.5-.1-.2-.1-.5-.1-.9v-2.3h-.6v-.8h.6v-1.6h1.1v1.6h.9v.8h-.8z"/><path id="XMLID_675_" class="st0" d="M286.7 39.5h-1.1v-1.1h1.1v1.1zm0 5.1h-1.1v-4.4h1.1v4.4z"/><path id="XMLID_672_" class="st0" d="M287.7 41.5c0-.2 0-.4.2-.7.4-.8 1.5-.8 1.8-.8.4 0 .9.1 1.3.3.5.3.5.7.5 1.2v2.4c0 .3 0 .5.2.7h-1.3v-.3c-.2.2-.7.5-1.3.5-1 0-1.6-.6-1.6-1.4 0-.2.1-.4.1-.6.3-.6 1-.8 1.4-.9.9-.2 1-.2 1.4-.3 0-.2 0-.7-.8-.7-.4 0-.7.1-.8.3-.1.1-.1.3-.1.4l-1-.1zm2.8.9c-.2.1-.5.2-.9.3-.4.1-.9.1-.9.6 0 .3.3.5.7.5.5 0 .9-.2 1-.5.1-.1.1-.3.1-.4v-.5z"/><path id="XMLID_671_" class="st0" d="M292.3 38.4h1.1v6.3h-1.1z"/></g></g><g id="XMLID_223_"><g id="XMLID_567_"><path id="XMLID_606_" class="st0" d="M210.9 59.8c-.5-.2-1-.2-1.5-.2h-4.6c-.7.8-1.2 1.8-1.5 2.9h4.9c.5-1.2 1.5-2.2 2.7-2.7z"/><path id="XMLID_605_" class="st0" d="M211.4 69.5c.5.2 1 .2 1.5.2h4.6c.7-.8 1.2-1.8 1.5-2.9h-4.9c-.5 1.2-1.5 2.1-2.7 2.7z"/><path id="XMLID_604_" class="st0" d="M212.9 59.6c-.5 0-1.1.1-1.5.2-.1 0-.2.1-.3.1-1.2.5-2.2 1.4-2.8 2.6 0 .1-.1.1-.1.2-.3.6-.4 1.3-.4 2s.1 1.4.4 2h1c.7 0 1.3-.4 1.7-.9-.2-.3-.3-.7-.3-1.1 0-.4.1-.7.3-1.1 0-.1.1-.1.1-.2.4-.6 1-.9 1.8-.9h6.1c-.3-1.1-.8-2.1-1.5-2.9h-4.5c.1 0 .1 0 0 0z"/><path id="XMLID_602_" class="st0" d="M221 78.3c-.5 0-1-.1-1.4-.3-.4-.2-.8-.4-1.1-.8-.3-.3-.6-.7-.7-1.1-.2-.4-.3-.9-.3-1.4 0-.5.1-1 .3-1.4.2-.4.4-.8.7-1.1.3-.3.7-.6 1.1-.8.4-.2.9-.3 1.4-.3.3 0 .6 0 .9.1.3.1.5.1.7.2l.6.3c.2.1.4.3.5.5l-.5.6c-.3-.3-.6-.5-1-.7-.3-.2-.8-.3-1.2-.3-.4 0-.7.1-1.1.2-.3.1-.6.3-.9.6l-.6.9c-.1.3-.2.7-.2 1.1 0 .4.1.8.2 1.1.1.3.3.7.6.9.2.3.5.5.9.6.3.1.7.2 1.1.2.5 0 .9-.1 1.2-.3.3-.2.7-.4 1-.7l.5.5c-.2.2-.4.4-.6.5-.2.1-.4.3-.6.4-.2.1-.5.2-.7.2-.2.3-.5.3-.8.3z"/><path id="XMLID_599_" class="st0" d="M224 71.2h3c.4 0 .8.1 1.1.2.3.1.6.3.8.5.2.2.3.4.4.6.1.2.1.5.1.8 0 .3 0 .6-.1.8-.1.2-.2.4-.4.6-.2.2-.4.3-.6.4-.2.1-.5.2-.8.2l2.1 2.8h-1l-2-2.7h-2v2.7h-.6v-6.9zm2.9 3.6c.3 0 .5 0 .7-.1l.6-.3c.2-.1.3-.3.4-.4.1-.2.1-.4.1-.6 0-.4-.2-.8-.5-1-.3-.2-.7-.4-1.3-.4h-2.1v2.8h2.1z"/><path id="XMLID_596_" class="st0" d="M233.2 71.2h.7l3.2 6.9h-.8l-.8-1.8h-3.8l-.8 1.8h-.9l3.2-6.9zm1.9 4.5l-1.6-3.5-1.6 3.5h3.2z"/><path id="XMLID_594_" class="st0" d="M237.4 71.2h.8v6.9h-.8v-6.9z"/><path id="XMLID_592_" class="st0" d="M241.9 78.3c-.6 0-1-.1-1.5-.3-.4-.2-.8-.4-1.1-.8-.3-.3-.5-.7-.7-1.1-.2-.4-.2-.9-.2-1.4 0-.5.1-.9.3-1.4.2-.4.4-.8.7-1.1.3-.3.7-.6 1.1-.8.4-.2.9-.3 1.4-.3.3 0 .6 0 .8.1.2 0 .5.1.7.2l.6.3c.2.1.4.2.5.4l-.5.6c-.1-.1-.3-.2-.4-.3-.1-.1-.3-.2-.5-.2-.2-.1-.4-.1-.6-.2-.2 0-.4-.1-.7-.1-.4 0-.7.1-1.1.2-.3.2-.6.4-.8.6-.2.3-.4.6-.5.9-.1.3-.2.7-.2 1.1 0 .4.1.8.2 1.2.1.4.3.7.6.9.2.3.5.5.9.6.3.1.7.2 1.1.2.4 0 .8-.1 1.1-.2.3-.1.6-.3.9-.5v-1.7h-2.1v-.7h2.9v2.8c-.3.3-.7.5-1.2.8-.6.1-1.1.2-1.7.2z"/><g id="XMLID_583_"><g id="XMLID_584_"><path id="XMLID_590_" class="st0" d="M245.2 77.2v1h.6-.6v-1z"/><path id="XMLID_588_" class="st0" d="M246.1 77.2v1h.6-.6v-1z"/><path id="XMLID_585_" class="st0" d="M246.9 77.2h.4c.1 0 .2 0 .3.1.1.1.1.1.1.2s0 .2-.1.2c-.1.1-.2.1-.3.1h-.3v.4-1zm.3.6c.1 0 .2 0 .3-.1.1 0 .1-.1.1-.2s0-.2-.1-.2-.1-.1-.3-.1h-.3v.5h.3z"/></g></g><path id="XMLID_582_" class="st0" d="M209.3 69.7c.5 0 1.1-.1 1.5-.2.1 0 .2-.1.3-.1 1.2-.5 2.2-1.4 2.8-2.6 0-.1.1-.1.1-.2.3-.6.4-1.3.4-2s-.1-1.4-.4-2h-1.1c-.7 0-1.3.4-1.7.9.2.3.3.7.3 1.1 0 .4-.1.7-.3 1.1 0 .1-.1.1-.1.2-.4.6-1 .9-1.8.9h-6c.3 1.1.8 2.1 1.5 2.9h4.5z"/><path id="XMLID_579_" class="st0" d="M177.5 71.2h2.7c.5 0 1 .1 1.5.3.5.2.8.4 1.2.7.3.3.6.7.8 1.1.2.4.3.9.3 1.4 0 .5-.1.9-.3 1.4-.2.4-.4.8-.8 1.1-.3.3-.7.6-1.2.7-.5.2-1 .3-1.5.3h-2.7v-7zm2.7 5.6c.3 0 .6-.1.9-.1.3-.1.5-.2.7-.4.2-.2.3-.4.4-.7.1-.3.2-.5.2-.8 0-.3-.1-.6-.2-.8-.1-.3-.2-.5-.4-.7-.2-.2-.4-.3-.7-.4-.3-.1-.5-.2-.9-.2H179v4.2h1.2z"/><path id="XMLID_577_" class="st0" d="M187.2 78.3c-.9 0-1.7-.3-2.2-.8-.5-.5-.8-1.3-.8-2.3v-4h1.5v3.9c0 .6.1 1 .4 1.3.3.3.6.4 1.1.4.5 0 .8-.1 1.1-.4.3-.3.4-.7.4-1.3v-4h1.5V75c0 .5-.1 1-.2 1.4-.1.4-.3.7-.6 1-.3.3-.6.5-1 .6-.3.3-.8.3-1.2.3z"/><path id="XMLID_575_" class="st0" d="M190.5 71.2h1.4l3.3 4.3v-4.3h1.5v6.9h-1.3l-3.4-4.4v4.4h-1.5v-6.9z"/><path id="XMLID_573_" class="st0" d="M200.5 78.3c-.5 0-1-.1-1.4-.3-.4-.2-.8-.4-1.1-.8-.3-.3-.6-.7-.7-1.1-.2-.4-.3-.9-.3-1.4 0-.5.1-1 .3-1.4.2-.4.4-.8.7-1.1.3-.3.7-.6 1.1-.8.4-.2.9-.3 1.5-.3.3 0 .6 0 .9.1.3.1.5.1.7.2l.6.3c.2.1.4.3.5.4l-1 1.1c-.3-.2-.5-.4-.8-.6-.3-.1-.6-.2-.9-.2-.3 0-.6.1-.8.2-.2.1-.5.3-.6.5-.2.2-.3.4-.4.7-.1.3-.2.5-.2.8 0 .3.1.6.2.8.1.3.2.5.4.7.2.2.4.4.6.5.2.1.5.2.8.2.4 0 .7-.1 1-.2.3-.1.5-.3.8-.6l1 1c-.2.2-.4.4-.6.5-.2.2-.4.3-.6.4-.2.1-.5.2-.8.2-.3.2-.6.2-.9.2z"/><path id="XMLID_570_" class="st0" d="M206.2 71.2h1.4l3 7H209l-.6-1.6h-2.9l-.6 1.6h-1.6l2.9-7zm1.6 4.1l-.9-2.3-.9 2.3h1.8z"/><path id="XMLID_568_" class="st0" d="M210.8 71.2h1.4l3.3 4.3v-4.3h1.5v6.9h-1.3l-3.4-4.4v4.4h-1.5v-6.9z"/></g></g><g id="XMLID_145_"><g id="XMLID_351_"><g id="XMLID_369_"><path id="XMLID_375_" class="st0" d="M146.7 31.5c-3.9-.1-6.9-.9-6.9-1.9 0-.9 2.7-2 6.4-2.1h.1l-.1-.3h-.2c-2.9.1-5.3.6-6.6 1.3-.6.3-.8.6-.8 1 0 .3.3.7.8 1 1.3.7 4.1 1.2 7.2 1.3h.1c.1 0 .1 0 .1-.1s-.1-.2-.1-.2z"/><path id="XMLID_374_" class="st0" d="M146.6 32.2h-.1c-5.3-.1-9.5-1.3-9.5-2.8 0-1.3 3.5-2.9 8.7-3.1h.4l-.1-.5h-.4c-4 .1-7.6.9-9.4 1.9-.8.5-1.2.9-1.2 1.4 0 .5.4 1 1.2 1.4 1.9 1.1 5.8 1.8 10.2 1.9h.1c.1 0 .2-.1.2-.1.1 0 0-.1-.1-.1z"/><path id="XMLID_373_" class="st0" d="M146.5 33h-.1c-7.3-.1-13-1.8-13-3.9 0-2 5.6-3.9 12.2-4.1h.4l-.1-.6h-.4c-5.7.2-10.8 1.1-13.3 2.5-1.1.6-1.6 1.2-1.6 1.9s.5 1.3 1.6 1.9c2.6 1.5 8.1 2.5 14.2 2.6h.1c.1 0 .2-.1.2-.2 0 0-.1-.1-.2-.1z"/><path id="XMLID_372_" class="st0" d="M147.7 31.5c3.9-.1 6.9-.9 6.9-1.9 0-.9-2.7-2-6.4-2.1h-.1l.1-.3h.2c2.9.1 5.3.6 6.6 1.3.6.3.8.6.8 1 0 .3-.3.7-.8 1-1.3.7-4.1 1.2-7.2 1.3h-.1c-.1 0-.1 0-.1-.1s0-.2.1-.2z"/><path id="XMLID_371_" class="st0" d="M147.7 32.2h.1c5.3-.1 9.5-1.3 9.5-2.8 0-1.3-3.5-2.9-8.7-3.1h-.4l.1-.5h.4c4 .1 7.6.9 9.4 1.9.8.5 1.2.9 1.2 1.4 0 .5-.4 1-1.2 1.4-1.9 1.1-5.8 1.8-10.2 1.9h-.1c-.1 0-.2-.1-.2-.1s0-.1.1-.1z"/><path id="XMLID_370_" class="st0" d="M147.8 33h.1c7.3-.1 13-1.8 13-3.9 0-2-5.6-3.9-12.2-4.1h-.4l.1-.6h.4c5.7.2 10.8 1.1 13.3 2.5 1.1.6 1.6 1.2 1.6 1.9s-.5 1.3-1.6 1.9c-2.6 1.5-8.1 2.5-14.2 2.6h-.1c-.1 0-.2-.1-.2-.2 0 0 .1-.1.2-.1z"/></g><path id="XMLID_367_" class="st0" d="M123.8 40.3l.8 1.1c-.7.4-1.5.8-1.5.8-.3.1-.7.2-1.2.3-.4.1-.9.1-1.4.1-.5 0-1.1-.1-1.6-.2s-1-.4-1.4-.7c-.4-.3-.8-.7-1-1.1-.3-.5-.4-1-.4-1.6 0-.6.1-1.1.4-1.6.3-.4.6-.8 1-1.1.4-.3.9-.5 1.5-.7.5-.1 1.1-.2 1.7-.2.4 0 .9 0 1.2.1.4.1.7.2 1 .3 1 .3 1.3.7 1.3.7l-.8 1c-.7-.5-1.3-.7-1.3-.7-.1 0-.3-.1-.4-.1-.3-.1-.6-.1-1-.1s-.8.1-1.2.2c-.3.1-.7.3-.9.5-.3.2-.5.5-.6.7-.1.3-.2.6-.2 1s.1.7.2 1c.2.3.4.6.6.8.3.2.6.4.9.5.3.1.7.2 1 .2.3 0 .6 0 1-.1l.9-.3c.9-.3 1.4-.8 1.4-.8z"/><path id="XMLID_364_" class="st0" d="M147.4 42.6h-1.7v-7h4.7c1 0 1.7.2 2.2.5.5.3.7.8.7 1.6s-.2 1.3-.7 1.6c-.5.3-1.2.4-2.2.4h-3v2.9zm3-4.1c.3 0 .6-.1.9-.2.2-.1.3-.3.3-.7 0-.3-.1-.6-.3-.7-.2-.1-.5-.2-.9-.2h-3v1.7h3z"/><g id="XMLID_358_"><path id="XMLID_359_" class="st0" d="M179.5 36.5c-.1.1-.2.2-.4.2s-.3-.1-.4-.2c-.1-.1-.2-.2-.2-.4s.1-.3.2-.4c.1-.1.2-.2.4-.2s.3.1.4.2c.1.1.2.2.2.4 0 .1-.1.3-.2.4zm-.7-.8c-.1.1-.1.2-.1.3 0 .1 0 .2.1.3.1.1.2.1.3.1.1 0 .2 0 .3-.1.1-.1.1-.2.1-.3 0-.1 0-.2-.1-.3-.1-.1-.2-.1-.3-.1-.1 0-.2 0-.3.1zm.3.1h.2c.1 0 .1.1.1.2s0 .1-.1.1h-.1s.1 0 .1.1v.1h-.1c0-.1 0-.1-.1-.1h-.1v.2h-.1v-.6h.2zm.1.1h-.2v.2h.2c.1-.1.1-.1 0-.2.1 0 .1 0 0 0z"/></g><path id="XMLID_357_" class="st0" d="M125.4 35.6h1.7v7h-1.7z"/><path id="XMLID_356_" class="st0" d="M128.2 35.6v7h1.5v-5.2l5.3 5.2h1.5v-7H135v4.8l-5-4.8z"/><path id="XMLID_355_" class="st0" d="M144.7 42.6v-1.2h-5.3v-1.9h3.6v-1.1h-3.6v-1.6h5.2v-1.2h-6.9v7z"/><path id="XMLID_354_" class="st0" d="M169.5 42.6v-1.2h-5.3v-1.9h3.6v-1.1h-3.6v-1.6h5.2v-1.2h-6.9v7z"/><path id="XMLID_353_" class="st0" d="M154.2 35.6v7h7.3v-1.2h-5.6v-5.8z"/><path id="XMLID_352_" class="st0" d="M170.1 35.6l3.1 3.5-3.1 3.5h2l2.1-2.4 2.2 2.4h2.2l-3.3-3.6 3.1-3.4h-2l-2.1 2.3-2.1-2.3z"/></g></g><g id="XMLID_66_"><g id="XMLID_465_"><path id="XMLID_499_" class="st0" d="M64.6 78c-.1.6-.6 1-1.5 1-1.1 0-1.7-.6-1.7-1.7 0-1 .7-1.7 1.8-1.7.9 0 1.4.3 1.4.9H64c0-.3-.4-.6-.9-.6-.8 0-1.2.5-1.2 1.3 0 .9.5 1.3 1.3 1.3.5 0 .9-.2.9-.6h.5"/><path id="XMLID_495_" class="st0" d="M66.8 78.6c.5 0 .8-.1.8-.6s-.3-.6-.9-.6h-1v1.2h1.1m-1.1-1.5h1c.6 0 .8-.1.8-.5s-.3-.5-.8-.5h-1v1zm-.4-1.4h1.6c.4 0 .6 0 .8.1.2.1.4.4.4.7 0 .4-.2.6-.7.7.5.1.8.4.8.8 0 .3-.1.5-.3.6-.3.2-.6.3-1 .3h-1.6v-3.2z"/><path id="XMLID_492_" class="st0" d="M71.9 77.2c.7 0 1-.1 1-.6s-.3-.5-1-.5H71v1.1h.9m-1.3-1.5H72c.4 0 .7 0 1 .2.2.1.3.4.3.7 0 .4-.2.7-.7.8.4 0 .5.2.6.7l.1.4c0 .2.1.4.1.5h-.5c0-.1-.1-.2-.1-.4l-.1-.6c-.1-.4-.3-.4-.8-.4H71V79h-.4v-3.3z"/><path id="XMLID_491_" class="st0" d="M74.2 75.7h.5V79h-.5z"/><path id="XMLID_490_" class="st0" d="M78.6 78c-.1.6-.6 1-1.5 1-1.1 0-1.7-.6-1.7-1.7 0-1 .7-1.7 1.8-1.7.9 0 1.4.3 1.4.9h-.5c0-.3-.4-.6-.9-.6-.8 0-1.2.5-1.2 1.3 0 .9.5 1.3 1.3 1.3.5 0 .9-.2.9-.6h.4"/><path id="XMLID_489_" class="st0" d="M79.3 79v-3.3h.5v1.4h2.1v-1.4h.4V79h-.4v-1.5h-2.1V79h-.5"/><path id="XMLID_486_" class="st0" d="M85.6 77.7l-.8-1.6-.8 1.6h1.6m-1.1-2h.6l1.6 3.3h-.5l-.4-.9h-2l-.5.9h-.5l1.7-3.3z"/><path id="XMLID_483_" class="st0" d="M88.5 77.2c.7 0 1-.1 1-.6s-.3-.5-1-.5h-.8v1.1h.8m-1.3-1.5h1.5c.4 0 .7 0 1 .2.2.1.3.4.3.7 0 .4-.2.7-.7.8.4 0 .5.2.6.7l.1.4c0 .2.1.4.1.5h-.5c0-.1-.1-.2-.1-.4l-.2-.6c-.1-.4-.3-.4-.8-.4h-.9V79h-.4v-3.3z"/><path id="XMLID_480_" class="st0" d="M92.1 78.6c.5 0 .8 0 1.1-.3.2-.2.4-.5.4-.9s-.1-.8-.4-1c-.3-.2-.6-.3-1.1-.3h-.7v2.5h.7m-1.3-2.9h1.3c.6 0 1.1.1 1.4.4.3.3.5.7.5 1.2s-.1.9-.4 1.2c-.3.4-.8.5-1.4.5h-1.4v-3.3z"/><path id="XMLID_479_" class="st0" d="M96.3 75.7h2.4v.4h-1.9v1h1.8v.4h-1.8v1.1h2v.4h-2.5v-3.3"/><path id="XMLID_478_" class="st0" d="M99.5 75.7h.5v2.9h1.8v.4h-2.3v-3.3"/><path id="XMLID_477_" class="st0" d="M102.4 75.7h.5v2.9h1.8v.4h-2.3v-3.3"/><path id="XMLID_476_" class="st0" d="M105.3 75.7h.5V79h-.5z"/><path id="XMLID_475_" class="st0" d="M107.1 78c0 .4.4.7 1 .7s1-.3 1-.6c0-.2-.1-.3-.3-.4-.1-.1-.4-.1-.8-.1-.4-.1-.6-.1-.9-.2-.3-.2-.5-.4-.5-.7 0-.6.5-.9 1.5-.9.9 0 1.3.3 1.3.9h-.4c0-.4-.4-.6-.9-.6-.6 0-.9.2-.9.6 0 .2.1.3.2.3.1.1.5.1 1.1.2.7.1 1.1.3 1.1.9 0 .6-.6 1-1.6 1-.9 0-1.4-.4-1.4-1h.5"/><path id="XMLID_471_" class="st0" d="M81.1 70.6h-4v-2h4.1c.5.1.9.5.9 1s-.4 1-1 1m-4-6.6h4.2c.5.1.8.5.8 1s-.4.9-.9 1H77l.1-2zm6 3.2c1.5-.5 1.8-1.8 1.8-2.8 0-1.6-1.1-3-4.5-3h-6.2v12h6.2c3.4 0 4.6-1.7 4.6-3.4 0-2.1-1.9-2.8-1.9-2.8z"/><path id="XMLID_470_" class="st0" d="M98.9 61.4h10.5V64h-7.6v1.9h6.8v2.6h-6.8v2.1h7.6v2.7H98.9V61.4"/><path id="XMLID_467_" class="st0" d="M94.4 65.2c-.1.4-.4.8-.9.8h-4.1v-1.9h4.1c.5 0 .9.4.9.8v.3m-1.6-3.8h-6.4v12h2.9v-4.9h3.2c.9 0 1.6.8 1.6 1.7v3.1H97v-3.9c0-1.8-1.7-2.3-1.7-2.3s1.8-.5 1.8-2.6c0-2.5-2.2-3.1-4.3-3.1z"/><path id="XMLID_466_" class="st0" d="M72.3 70.5s-4 .1-5.4-.1c-2.2-.2-3-1.8-3-3.2 0-1.7 1.1-2.9 2.9-3.1.8-.1 5.4-.1 5.4-.1h.1v-2.7H67.1c-.6 0-1.5.1-2.5.5-.9.4-1.7 1.1-2.4 1.9-.8 1-1.2 2.3-1.2 3.6 0 .4 0 .8.1 1.2.4 1.8 1.6 3.3 3.3 4.1.6.3 1.5.6 3.3.7H72.4l-.1-2.8"/></g></g><g id="XMLID_5_"><path id="XMLID_64_" class="st0" d="M21.8 31.1h1.6v-1.7H25v-1.6h-1.6v-1.6h-1.6v1.6h-1.6l.8 1.6h.8z"/><g id="XMLID_61_"><path id="XMLID_63_" class="st0" d="M19.3 36l-2.4-4.9-2.4 4.9z"/><path id="XMLID_62_" class="st0" d="M20.6 38.4h-7.4l-2.4 4.9H23z"/></g><path id="XMLID_58_" class="st0" d="M34.4 32.3l-2.3 4.9h.9l.6-1.4h2l.6 1.4h.9L35 32.3h-.6zM34 35l.7-1.4.7 1.4H34z"/><path id="XMLID_55_" class="st0" d="M39.8 32.3h-2v4.9h1.8c.8 0 1.4-.2 1.9-.6.5-.4.8-1 .8-1.8s-.2-1.3-.6-1.8c-.6-.5-1.2-.7-1.9-.7zm-1.2.8h1.2c.6 0 1 .1 1.2.4.3.3.4.7.4 1.2 0 .6-.2 1-.5 1.2-.3.3-.8.4-1.4.4h-1v-3.2z"/><path id="XMLID_54_" class="st0" d="M46.2 32.3l-1.6 3.6-1.6-3.6h-.9l2.2 4.8h.6l2.1-4.8z"/><path id="XMLID_51_" class="st0" d="M48.4 32.3l-2.3 4.9h.9l.6-1.4h2l.6 1.4h.9L49 32.3h-.6zM48 35l.7-1.4.7 1.4H48z"/><path id="XMLID_50_" class="st0" d="M55 35.7c-.3-.4-.7-.8-1.2-1.4-.7-.8-1.2-1.5-1.6-1.9l-.1-.1h-.7v4.9h.8v-3.5l2.8 3.5h.7v-4.9H55v3.4z"/><path id="XMLID_49_" class="st0" d="M60.4 32.3h-4.1v.8H58v4h.8v-4h1.6z"/><path id="XMLID_46_" class="st0" d="M61.9 32.3l-2.3 4.9h.9l.6-1.4h2l.6 1.4h.9l-2.2-4.9h-.5zm-.4 2.7l.7-1.4.7 1.4h-1.4z"/><path id="XMLID_45_" class="st0" d="M69.7 34.5H67v.8h1.9c0 .3-.2.6-.5.8-.3.2-.7.3-1.1.3-.6 0-1-.1-1.4-.4-.3-.3-.5-.7-.5-1.3 0-.5.2-1 .5-1.3.3-.3.8-.5 1.3-.5.9 0 1.4.3 1.6 1.1l.8-.1c-.1-.6-.4-1.1-.9-1.4-.4-.2-.9-.4-1.5-.4-.8 0-1.4.2-1.9.7-.5.4-.7 1.1-.7 1.8 0 .8.3 1.4.7 1.8.5.4 1.1.6 1.9.6.6 0 1.1-.2 1.6-.4.5-.4.8-.9.8-1.6v-.4l.1-.1z"/><path id="XMLID_44_" class="st0" d="M71.1 36.4V35h2.6v-.8h-2.6v-1.1h3v-.8h-3.8v4.8h3.8v-.7z"/><path id="XMLID_43_" class="st0" d="M27.8 26.2h.1v17.1h-.1z"/><path id="XMLID_42_" class="st0" d="M5.9 43.3V26.2h8.6z"/><path id="XMLID_40_" class="st0" d="M33.7 26.5v1.8h2.5v.3h-2.5V31h-.3v-4.8h3.3v.3h-3z"/><path id="XMLID_37_" class="st0" d="M40.9 30.4c-.4.4-1 .7-1.8.7s-1.4-.2-1.8-.7c-.4-.4-.6-1-.6-1.8s.2-1.4.7-1.8c.4-.4 1-.6 1.8-.6s1.4.2 1.8.6c.4.4.7 1 .7 1.8-.1.8-.4 1.4-.8 1.8zm-.2-3.3c-.4-.4-.9-.5-1.5-.5-.7 0-1.2.2-1.5.5-.5.4-.7.9-.7 1.5 0 .7.2 1.2.6 1.6.4.4.9.6 1.5.6.7 0 1.2-.2 1.5-.6s.6-.9.6-1.6c0-.6-.2-1.1-.5-1.5z"/><path id="XMLID_35_" class="st0" d="M45.7 30.7c-.3.3-.8.4-1.5.4s-1.1-.1-1.5-.4c-.3-.3-.5-.8-.5-1.4v-3h.3v3c0 1 .5 1.5 1.6 1.5s1.6-.5 1.6-1.5v-3h.3v3c.2.6 0 1.1-.3 1.4z"/><path id="XMLID_33_" class="st0" d="M50.7 31l-3.3-4.3V31H47v-4.8h.4c.4.5.9 1.2 1.7 2.2.8 1 1.3 1.7 1.7 2.1v-4.3h.2V31h-.3z"/><path id="XMLID_30_" class="st0" d="M53.6 31H52v-4.8h1.9c.8 0 1.3.2 1.7.7.4.4.6 1 .6 1.8s-.2 1.4-.7 1.8c-.5.4-1.1.5-1.9.5zm1.7-3.9c-.3-.4-.8-.6-1.5-.6h-1.5v4.2h1.3c.7 0 1.2-.2 1.6-.5.4-.4.6-.9.6-1.6 0-.6-.2-1.2-.5-1.5z"/><path id="XMLID_28_" class="st0" d="M56.9 31v-4.8h3.5v.3h-3.2v1.8H60v.3h-2.8v2h3.2v.4h-3.5z"/><path id="XMLID_25_" class="st0" d="M64.3 28.7c.5.2.7.6.7 1.1V31h-.3v-1.2c0-.6-.4-1-1.3-1h-1.8V31h-.3v-4.8h2.2c1.1 0 1.6.4 1.6 1.3 0 .6-.3 1-.8 1.2zm-.8-2.2h-1.9v2h1.8c.4 0 .7-.1.9-.2.3-.2.4-.5.4-.8 0-.6-.4-1-1.2-1z"/><path id="XMLID_23_" class="st0" d="M67.8 31.1c-.6 0-1.1-.1-1.4-.3-.4-.3-.7-.7-.7-1.3v-.2h.3v.1c0 .9.6 1.3 1.8 1.3.4 0 .7-.1 1-.2.3-.2.5-.4.5-.8 0-.2-.1-.4-.2-.6-.1 0-.3-.1-.5-.1-.1 0-.5-.1-1-.2-.6-.1-1-.2-1.2-.4-.4-.2-.6-.5-.6-1 0-.8.6-1.2 1.8-1.2 1.3 0 1.9.5 1.9 1.6h-.3c0-.5-.2-.8-.5-1-.2-.1-.6-.2-1.1-.2-1 0-1.5.3-1.5.9 0 .3.1.5.4.7.2.1.5.2.9.3.8.2 1.4.3 1.6.5.3.2.5.5.5 1 0 .4-.2.8-.7 1-.2 0-.6.1-1 .1z"/><path id="XMLID_21_" class="st0" d="M36.4 39.5c-.3-.5-.9-.8-1.7-.8-.7 0-1.2.2-1.6.6-.4.4-.6.9-.6 1.6 0 .6.2 1.2.6 1.6.4.4.9.6 1.5.6.7 0 1.3-.3 1.7-.8l.3.2c-.5.6-1.1.9-2 .9-.7 0-1.3-.2-1.8-.7-.4-.4-.7-1-.7-1.8s.2-1.4.7-1.8 1.1-.7 1.8-.7c.9 0 1.5.3 1.9.9l-.1.2z"/><path id="XMLID_18_" class="st0" d="M41.2 43.3l-.7-1.5H38l-.7 1.5H37l2.2-4.8h.3l2.1 4.8h-.4zm-1.9-4.4l-1.1 2.5h2.2l-1.1-2.5z"/><path id="XMLID_15_" class="st0" d="M44.1 41.1h-1.7v2.1H42v-4.8h2.1c1.1 0 1.7.5 1.7 1.4 0 .5-.2.8-.6 1.1-.3.1-.6.2-1.1.2zm.1-2.4h-1.8v2.1h1.8c.3 0 .6-.1.9-.2.3-.2.4-.4.4-.8 0-.7-.4-1.1-1.3-1.1z"/><path id="XMLID_13_" class="st0" d="M49.7 38.7v4.5h-.3v-4.5h-1.8v-.3h3.9v.3h-1.8z"/><path id="XMLID_10_" class="st0" d="M55.3 43.3l-.7-1.5h-2.5l-.7 1.5H51l2.2-4.8h.3l2.1 4.8h-.3zM53.5 39l-1.1 2.5h2.2L53.5 39z"/><path id="XMLID_8_" class="st0" d="M56.1 43.3v-4.8h.3V43h2.9v.3h-3.2z"/><path id="XMLID_6_" class="st0" d="M46.6 43.3v-4.8h.3v4.8h-.3z"/></g></svg>