<svg xmlns="http://www.w3.org/2000/svg" viewBox="0 0 405.6 433.42">
  <title>Love Calgary-01-Campaign Slogan</title>
  <g id="Layer_2" data-name="Layer 2">
    <g id="Layer_1-2" data-name="Layer 1">
      <g>
        <path d="M1.15.13H17.46L24,22.5,31.57,0H45l7.52,22.5L59.12.13h16L59.92,47.05H46.34L38.15,23.89,30,47.05H16.39Z" fill="#fff"/>
        <path d="M77.82.13H93.39V16.57h14.24V.13h15.57V46.72H107.64V30H93.39V46.72H77.82Z" fill="#fff"/>
        <path d="M128.54.13h39.73V12.91H143.84v4.73H166.6V28.89H143.84v5.06H168.6V46.72H128.54Z" fill="#fff"/>
        <path d="M172.79.13h22.76a31.2,31.2,0,0,1,10.28,1.43,17.15,17.15,0,0,1,6.49,3.89,14.21,14.21,0,0,1,3.19,4.79,16.81,16.81,0,0,1,1.06,6.26v.13a14.75,14.75,0,0,1-2.46,8.65,17.08,17.08,0,0,1-6.72,5.59l10.85,15.84H200.48L191.7,33.41h-3.33V46.72H172.79Zm22.3,22.16a7.17,7.17,0,0,0,4.39-1.2,3.92,3.92,0,0,0,1.6-3.33v-.13a3.8,3.8,0,0,0-1.6-3.36,7.52,7.52,0,0,0-4.33-1.1h-6.79V22.3Z" fill="#fff"/>
        <path d="M220.38.13h39.73V12.91H235.69v4.73h22.76V28.89H235.69v5.06h24.76V46.72H220.38Z" fill="#fff"/>
        <path d="M261.25.13h17.44l9.05,26.16L296.79.13H314l-18.9,46.92H280.15Z" fill="#fff"/>
        <path d="M315.89.13h39.73V12.91H331.19v4.73H354V28.89H331.19v5.06H356V46.72H315.89Z" fill="#fff"/>
        <path d="M360.14.13h22.76a31.2,31.2,0,0,1,10.28,1.43,17.15,17.15,0,0,1,6.49,3.89,14.21,14.21,0,0,1,3.19,4.79,16.81,16.81,0,0,1,1.06,6.26v.13a14.75,14.75,0,0,1-2.46,8.65,17.08,17.08,0,0,1-6.72,5.59L405.6,46.72H387.83L379,33.41h-3.33V46.72H360.14Zm22.3,22.16a7.17,7.17,0,0,0,4.39-1.2,3.92,3.92,0,0,0,1.6-3.33v-.13a3.8,3.8,0,0,0-1.6-3.36,7.52,7.52,0,0,0-4.33-1.1h-6.79V22.3Z" fill="#fff"/>
      </g>
      <path d="M.06,60.75H43.69V154H105v37.29H.06Z" fill="#fff"/>
      <path d="M114.91,60.75h43.63V191.27H114.91Z" fill="#fff"/>
      <path d="M173.83,60.75H283.1V98H217.47v16.6h61v33.94h-61v42.7H173.83Z" fill="#fff"/>
      <path d="M293.35,60.75H404.67v35.8H336.24v13.24H400V141.3H336.24v14.17H405.6v35.8H293.35Z" fill="#fff"/>
      <g>
        <path d="M23.75,231.12H0V208.29H74.48v22.83H50.73V289h-27Z" fill="#fff"/>
        <path d="M108.72,207.72h26.75l34,81.29H140.2l-4.27-10.84H107.69L103.54,289H74.71ZM129.25,259l-7.38-19.6L114.49,259Z" fill="#fff"/>
        <path d="M172.83,208.29h27V238.5l22.94-30.21h31.36L226,243.34,254.69,289H222.52l-15.8-25.6-6.92,8.42V289h-27Z" fill="#fff"/>
        <path d="M257,208.29h68.83v22.14H283.52v8.19h39.43V258.1H283.52v8.76h42.89V289H257Z" fill="#fff"/>
        <path d="M368.37,290.5a75.33,75.33,0,0,1-23-3.4A50.73,50.73,0,0,1,327,276.9l14.41-17.18A42.77,42.77,0,0,0,355.23,267a49.68,49.68,0,0,0,14.41,2.19,11.27,11.27,0,0,0,5.3-.92,2.82,2.82,0,0,0,1.61-2.54v-.23q0-1.73-2.36-2.88a41.28,41.28,0,0,0-8.82-2.42q-6.81-1.38-13-3.23a45.15,45.15,0,0,1-10.84-4.73,23,23,0,0,1-7.44-7.21,19.62,19.62,0,0,1-2.77-10.78V234a25.66,25.66,0,0,1,2.25-10.72,24.69,24.69,0,0,1,6.57-8.65,31.08,31.08,0,0,1,10.72-5.76,47.65,47.65,0,0,1,14.7-2.08,68.92,68.92,0,0,1,20.58,2.77,49.22,49.22,0,0,1,15.85,8.3L388.9,236.08A40.51,40.51,0,0,0,376.73,230a42.36,42.36,0,0,0-12-1.9,8.4,8.4,0,0,0-4.44.92,2.78,2.78,0,0,0-1.44,2.42v.23a2.65,2.65,0,0,0,.46,1.5,4.43,4.43,0,0,0,1.67,1.33,17.1,17.1,0,0,0,3.29,1.21q2.08.58,5.3,1.15a118.79,118.79,0,0,1,14.07,3.34,41.52,41.52,0,0,1,10.9,5,22.39,22.39,0,0,1,7,7.32A20.34,20.34,0,0,1,404,262.95v.23a25.19,25.19,0,0,1-2.54,11.41,24.43,24.43,0,0,1-7.15,8.59,33.63,33.63,0,0,1-11.24,5.42A53.22,53.22,0,0,1,368.37,290.5Z" fill="#fff"/>
      </g>
      <g>
        <path d="M47.5,386.87l-46.73-80H47.14l21.24,40.71L89.8,306.86h45.84L88.91,386.33v44.43H47.5Z" fill="#fff"/>
        <path d="M204.49,433.42a70.65,70.65,0,0,1-26.64-5,67,67,0,0,1-21.42-13.63,62.52,62.52,0,0,1-19.38-45.66v-.35a61.5,61.5,0,0,1,5.22-25.22,64.35,64.35,0,0,1,14.34-20.53,67.26,67.26,0,0,1,21.5-13.81,73.69,73.69,0,0,1,53.36-.09,67.16,67.16,0,0,1,21.42,13.63,62.53,62.53,0,0,1,19.38,45.66v.35A61.52,61.52,0,0,1,267.06,394a64.4,64.4,0,0,1-14.34,20.53,67.32,67.32,0,0,1-21.5,13.81A70.19,70.19,0,0,1,204.49,433.42Zm.35-36.64a24.15,24.15,0,0,0,10.62-2.3,25.44,25.44,0,0,0,8.14-6.11,26.62,26.62,0,0,0,5.13-8.76,30.86,30.86,0,0,0,1.77-10.44v-.35a30.22,30.22,0,0,0-1.86-10.53,28.77,28.77,0,0,0-5.22-8.94,25,25,0,0,0-8.14-6.19,24.61,24.61,0,0,0-10.8-2.3,24.19,24.19,0,0,0-10.62,2.3,25.49,25.49,0,0,0-8.14,6.11A26.61,26.61,0,0,0,180.6,358a30.81,30.81,0,0,0-1.77,10.44v.35a30.21,30.21,0,0,0,1.86,10.53,28.7,28.7,0,0,0,5.22,8.94,24.82,24.82,0,0,0,8.14,6.19A24.56,24.56,0,0,0,204.84,396.78Z" fill="#fff"/>
        <path d="M343.43,433.24a89.43,89.43,0,0,1-25-3.27,49.08,49.08,0,0,1-19.2-10.35,46.55,46.55,0,0,1-12.3-18.05q-4.34-11-4.34-26.37V306.86h42.13v67.79q0,11.51,5.4,16.73a18.91,18.91,0,0,0,13.72,5.22q8.5,0,13.81-4.87t5.31-16.2V306.86H405V374.3q0,15.93-4.43,27.08a46.72,46.72,0,0,1-12.48,18.23A49.8,49.8,0,0,1,368.65,430,91.33,91.33,0,0,1,343.43,433.24Z" fill="#fff"/>
      </g>
    </g>
  </g>
</svg>
