<svg id="Layer_1" data-name="Layer 1" xmlns="http://www.w3.org/2000/svg" viewBox="0 0 267 66.63"><title>1</title><path d="M49.8,6.22c1.19-2.59,3-4.09,5.69-4.09V.63h-12v1.5h4.29a1.5,1.5,0,0,1,1.37,2.1h0L30.63,41.08,12.12,4.23a1.51,1.51,0,0,1,1.38-2.1H15V.63H0v1.5c2.65,0,4.49,1.5,5.69,4.09L27,48.63v0h0v0h1.5Z"/><path d="M70.85,6.22c1.19-2.59,3-4.09,5.69-4.09V.63h-12v1.5h4.29a1.5,1.5,0,0,1,1.37,2.1h0L51.68,41.06,33.16,4.23a1.51,1.51,0,0,1,1.38-2.1H36V.63H21v1.5c2.65,0,4.49,1.5,5.69,4.09L48,48.63v0h0v0h1.5Z"/><path d="M96,.63c-14.08,0-25.5,10.71-25.5,24s11.42,24,25.5,24,25.5-10.76,25.5-24S110.08.63,96,.63Zm0,46.5c-10.58,0-19.46-10-19.46-22.5S85.41,2.13,96,2.13s19.5,10,19.5,22.5S106.56,47.13,96,47.13Z"/><path d="M199.49.64h-24v1.5h0a6,6,0,0,1,6,6v33a6,6,0,0,1-6,6v1.5h24c13.5,0,25.5-10.51,25.5-24S213,.63,199.49.64ZM213.7,40.22a18.11,18.11,0,0,1-14.22,6.91h-6c-3.31,0-6,.31-6-3v-39c0-3.31,2.69-3,6-3h6c10.85,0,19.55,10,19.55,22.53A24.51,24.51,0,0,1,213.7,40.22Z"/><path d="M150,.63c-14.08,0-25.5,10.71-25.5,24s11.42,24,25.5,24,25.5-10.76,25.5-24S164.07.63,150,.63Zm0,46.5c-10.58,0-19.46-10-19.46-22.5s8.9-22.5,19.48-22.5,19.5,10,19.5,22.5S160.55,47.13,150,47.13Z"/><path d="M256.29,23.29c-14.35-5.73-21.5-7.13-21.5-14C234.8-.72,261-3.78,261,15h1.5V0H261V1.5a1.5,1.5,0,0,1-1.5,1.5c-3,0-5.41-3-13.5-3-6.94,0-16.5,2.83-16.5,12,0,10.5,12.1,12.19,22.13,16,9.13,3.51,9.37,6.73,9.37,9.73,0,14-30,13.5-30-3.29h-1.5v15H231v-3a1.5,1.5,0,0,1,1.5-1.5c3,0,7.48,4.84,16.48,4.84,13.5,0,18-7.84,18-13.83C267,31.49,265.33,26.9,256.29,23.29Z"/><path d="M65.39,57.59a4.3,4.3,0,0,1,3,1.17.16.16,0,0,1,0,.23l-.2.21c-.08.08-.14.06-.21,0a3.94,3.94,0,1,0-2.65,6.88A4,4,0,0,0,68,65a.16.16,0,0,1,.2,0l.21.21a.14.14,0,0,1,0,.21,4.34,4.34,0,0,1-3.06,1.22,4.52,4.52,0,1,1,0-9Z"/><path d="M84.15,57.76a.16.16,0,0,1,.17-.17H87.5A2.76,2.76,0,0,1,88.25,63l1.88,3.33c.06.1,0,.23-.09.23h-.4a.18.18,0,0,1-.18-.12l-1.86-3.37H84.75v3.3c0,.09-.08.17-.21.17h-.23a.17.17,0,0,1-.17-.17Zm3.33,4.82a2.25,2.25,0,0,0,2.28-2.24,2.22,2.22,0,0,0-2.29-2.16h-2.7v4.4Z"/><path d="M106.49,57.76a.17.17,0,0,1,.17-.17h5.67a.17.17,0,0,1,.17.17V58a.17.17,0,0,1-.17.17h-5.22v3.55h4.59a.17.17,0,0,1,.17.17v.22a.17.17,0,0,1-.17.17h-4.59v3.8h5.22a.17.17,0,0,1,.17.17v.21a.17.17,0,0,1-.17.17h-5.67a.17.17,0,0,1-.17-.17Z"/><path d="M219,57.76a.17.17,0,0,1,.17-.17h5.67a.17.17,0,0,1,.17.17V58a.17.17,0,0,1-.17.17H219.6v3.55h4.59a.17.17,0,0,1,.17.17v.22a.17.17,0,0,1-.17.17H219.6v3.8h5.22a.17.17,0,0,1,.17.17v.21a.17.17,0,0,1-.17.17h-5.67a.17.17,0,0,1-.17-.17Z"/><path d="M127.85,66.45l3.88-8.76a.17.17,0,0,1,.15-.09h0a.16.16,0,0,1,.16.09l3.84,8.76c0,.08,0,.15-.11.15h-.33a.2.2,0,0,1-.18-.11l-1-2.32h-4.81l-1,2.32a.2.2,0,0,1-.18.11h-.35C127.85,66.6,127.81,66.55,127.85,66.45Zm6.22-2.77-2.15-5.07h0l-2.19,5.07Z"/><path d="M154.18,58.15h-2.45c-.13,0-.17-.08-.17-.19v-.19a.16.16,0,0,1,.17-.17h5.53a.16.16,0,0,1,.17.17V58a.16.16,0,0,1-.17.17h-2.47v8.28c0,.09-.08.17-.21.17h-.23a.17.17,0,0,1-.17-.17Z"/><path d="M176.68,57.76a.17.17,0,0,1,.16-.16h.28a.17.17,0,0,1,.16.16v8.67a.17.17,0,0,1-.18.16h-.27a.17.17,0,0,1-.16-.16Z"/><path d="M195.45,57.76c-.05-.1,0-.16.1-.16h.34a.15.15,0,0,1,.14.09l3.42,7.87h0l3.46-7.87a.15.15,0,0,1,.14-.09h.33c.11,0,.16.08.11.18l-3.89,8.71a.16.16,0,0,1-.15.11h-.06a.17.17,0,0,1-.14-.11Z"/></svg>