<svg id="Layer_1" data-name="Layer 1" xmlns="http://www.w3.org/2000/svg" viewBox="0 0 30.89 25.11"><defs><style>.cls-1{font-size:24px;font-family:ProximaNova-Light, Proxima Nova;}.cls-2{letter-spacing:0em;}.cls-3{font-size:16px;}.cls-3,.cls-8{fill:#999;}.cls-4{letter-spacing:-0.04em;}.cls-5{letter-spacing:0em;}.cls-6{letter-spacing:-0.01em;}.cls-7{letter-spacing:-0.03em;}</style></defs><title>social-twitter-icon</title><text class="cls-1" transform="translate(-40.49 -123.96)"><tspan class="cls-2">C</tspan><tspan x="16.06" y="0">AREERS</tspan><tspan class="cls-3"><tspan class="cls-4" x="0" y="44">W</tspan><tspan class="cls-5" x="13.23" y="44">e</tspan><tspan x="22.27" y="44">’re a highly collaborative agency wh</tspan><tspan class="cls-6" x="269.32" y="44">o</tspan><tspan class="cls-7" x="278.3" y="44">’</tspan><tspan x="281.32" y="44">s always on the hunt for great talent and new perspectives. If you’re interested in collaborating, joining </tspan><tspan x="0" y="66">our team or have a unique talent to compliment ours, please get in touch.</tspan></tspan><tspan x="0" y="116.8">SociAL</tspan></text><g id="_Group_" data-name="&lt;Group&gt;"><path class="cls-8" d="M9.72,25.11c11.66,0,18-9.66,18-18,0-.27,0-.55,0-.82A12.9,12.9,0,0,0,30.89,3a12.65,12.65,0,0,1-3.64,1A6.36,6.36,0,0,0,30,.46,12.7,12.7,0,0,1,26,2a6.34,6.34,0,0,0-10.8,5.78A18,18,0,0,1,2.15,1.16a6.34,6.34,0,0,0,2,8.46,6.29,6.29,0,0,1-2.87-.79s0,.05,0,.08a6.34,6.34,0,0,0,5.09,6.21,6.33,6.33,0,0,1-2.86.11,6.35,6.35,0,0,0,5.92,4.4,12.72,12.72,0,0,1-7.87,2.71A12.9,12.9,0,0,1,0,22.26a17.94,17.94,0,0,0,9.72,2.85"/></g></svg>