<svg id="Layer_1" data-name="Layer 1" xmlns="http://www.w3.org/2000/svg" viewBox="0 0 25.58 23.5"><defs><style>.cls-1{font-size:24px;font-family:ProximaNova-Light, Proxima Nova;}.cls-2{letter-spacing:0em;}.cls-3{font-size:16px;}.cls-3,.cls-8{fill:#999;}.cls-4{letter-spacing:-0.04em;}.cls-5{letter-spacing:0em;}.cls-6{letter-spacing:-0.01em;}.cls-7{letter-spacing:-0.03em;}</style></defs><title>social-linkedin-icon-01</title><text class="cls-1" transform="translate(-106.55 -125.35)"><tspan class="cls-2">C</tspan><tspan x="16.06" y="0">AREERS</tspan><tspan class="cls-3"><tspan class="cls-4" x="0" y="44">W</tspan><tspan class="cls-5" x="13.23" y="44">e</tspan><tspan x="22.27" y="44">’re a highly collaborative agency wh</tspan><tspan class="cls-6" x="269.32" y="44">o</tspan><tspan class="cls-7" x="278.3" y="44">’</tspan><tspan x="281.32" y="44">s always on the hunt for great talent and new perspectives. If you’re interested in collaborating, joining </tspan><tspan x="0" y="66">our team or have a unique talent to compliment ours, please get in touch.</tspan></tspan><tspan x="0" y="116.8">SociAL</tspan></text><path class="cls-8" d="M5.63,23.5h-5v-16h5ZM3,5.54H3A2.78,2.78,0,1,1,3,0,2.78,2.78,0,1,1,3,5.54Zm22.57,18H19.93V15.24c0-2.16-.89-3.64-2.83-3.64a2.86,2.86,0,0,0-2.7,2,3.64,3.64,0,0,0-.12,1.3V23.5H8.68s.07-14.63,0-16h5.6V10c.33-1.1,2.12-2.66,5-2.66,3.54,0,6.33,2.3,6.33,7.24Z"/></svg>