<svg xmlns="http://www.w3.org/2000/svg" width="107" height="92.52" viewBox="0 0 107 92.52">
  <title>5th Avenue</title>
  <g id="Layer_2" data-name="Layer 2">
    <g id="Layer_1-2" data-name="Layer 1">
      <g>
        <g>
          <path d="M16.55,21.44V33.91c0,5-3.2,8.46-7.77,8.46-5,0-7.71-3.51-7.71-8.46V29.84H7.34V34.6c0,.88.44,1.5,1.32,1.5S10,35.48,10,34.6V22.06c0-1-.44-1.57-1.25-1.57s-1.32.63-1.32,1.57v1.82H1.07V0H16V6.27H7.27V15a4.76,4.76,0,0,1,2.82-.75C14,14.29,16.55,17.18,16.55,21.44Z" fill="#fff"/>
          <path d="M29.4,6.33V41.75H22.94V6.33h-4.7V0H34.1V6.33Z" fill="#fff"/>
          <path d="M46.82,41.75V24.57H43.25V41.75H36.73V0h6.52V18.05h3.57V0h6.52V41.75Z" fill="#fff"/>
        </g>
        <g>
          <path d="M6.64,84.75l-.81,7.15H0L5.58,50.15h6.08l5.58,41.75H10.84l-.63-7.15Zm3-6-1-11.6L7.33,78.79Z" fill="#fff"/>
          <path d="M22.94,50.15l2.32,24.7,2.95-24.7H34l-5.7,41.75H22.25l-5.7-41.75Z" fill="#fff"/>
          <path d="M36.67,91.89V50.15h13.6v6H43.19V67.57h4.7v5.7h-4.7v12.6h7.08v6Z" fill="#fff"/>
          <path d="M59.3,50.15l2.95,11.1c.69,2.63,2.32,9.59,2.76,12.1h.13c-.25-2.32-.56-12-.56-14.23v-9h6.14V91.89H64.19L61.43,81.49c-.69-2.51-2.19-9.28-2.63-11.72h-.12c.25,2.19.5,11.72.5,13.79l.06,8.34H53V50.15Z" fill="#fff"/>
          <path d="M82.05,92.52a7.93,7.93,0,0,1-8-8.21V50.15h6.52V84.56a1.5,1.5,0,0,0,1.5,1.69c.94,0,1.5-.63,1.5-1.69V50.15h6.52V84.31A7.93,7.93,0,0,1,82.05,92.52Z" fill="#fff"/>
          <path d="M93.4,91.89V50.15H107v6H99.92V67.57h4.7v5.7h-4.7v12.6H107v6Z" fill="#fff"/>
        </g>
      </g>
    </g>
  </g>
</svg>
