<svg xmlns="http://www.w3.org/2000/svg" width="218.04" height="66.27" viewBox="0 0 218.04 66.27">
  <title>Civil Beer Co</title>
  <g id="Layer_2" data-name="Layer 2">
    <g id="Layer_1-2" data-name="Layer 1">
      <g>
        <polygon points="164.5 16.75 189.04 2.65 164.5 2.65 164.5 16.75" fill="#fff"/>
        <polygon points="66.3 2.65 66.3 16.75 90.84 2.65 66.3 2.65" fill="#fff"/>
        <polygon points="115.33 66.27 115.33 66.27 139.88 66.27 139.89 66.27 154.62 36.55 112.61 60.77 115.33 66.27" fill="#fff"/>
        <polygon points="66.3 66.27 90.85 66.27 90.85 66.27 66.3 52.11 66.3 66.27" fill="#fff"/>
        <polygon points="193.48 66.27 218.04 66.27 218.04 66.27 193.48 52.11 193.48 66.27" fill="#fff"/>
        <polygon points="90.85 16.75 107.21 49.76 126.23 38.79 115.41 16.75 90.85 16.75" fill="#fff"/>
        <polygon points="130.26 36.47 164.47 16.75 139.95 16.75 130.26 36.47" fill="#fff"/>
        <polygon points="66.3 37.96 90.85 52.11 90.85 16.73 66.3 30.89 66.3 37.96" fill="#fff"/>
        <polygon points="164.5 66.27 189.04 66.27 189.04 49.57 164.5 35.42 164.5 66.27" fill="#fff"/>
        <polygon points="189.04 35.42 189.04 16.73 172.84 26.08 189.04 35.42" fill="#fff"/>
        <g>
          <circle cx="201.94" cy="28.3" r="0.47" fill="#fff"/>
          <circle cx="201.94" cy="26.42" r="0.47" fill="#fff"/>
          <circle cx="201.94" cy="30.18" r="0.47" fill="#fff"/>
          <circle cx="201.94" cy="24.54" r="0.47" fill="#fff"/>
          <circle cx="201.94" cy="35.81" r="0.47" fill="#fff"/>
          <circle cx="201.94" cy="32.05" r="0.47" fill="#fff"/>
          <circle cx="201.94" cy="33.93" r="0.47" fill="#fff"/>
          <circle cx="201.94" cy="18.91" r="0.47" fill="#fff"/>
          <circle cx="201.94" cy="13.28" r="0.47" fill="#fff"/>
          <circle cx="201.94" cy="11.4" r="0.47" fill="#fff"/>
          <circle cx="201.94" cy="15.16" r="0.47" fill="#fff"/>
          <circle cx="201.94" cy="37.69" r="0.47" fill="#fff"/>
          <circle cx="201.94" cy="20.79" r="0.47" fill="#fff"/>
          <circle cx="201.94" cy="22.67" r="0.47" fill="#fff"/>
          <circle cx="201.94" cy="17.03" r="0.47" fill="#fff"/>
          <circle cx="200.06" cy="15.16" r="0.47" fill="#fff"/>
          <circle cx="200.06" cy="22.67" r="0.47" fill="#fff"/>
          <circle cx="200.06" cy="20.79" r="0.47" fill="#fff"/>
          <circle cx="200.06" cy="18.91" r="0.47" fill="#fff"/>
          <circle cx="200.06" cy="24.54" r="0.47" fill="#fff"/>
          <circle cx="200.06" cy="17.03" r="0.47" fill="#fff"/>
          <circle cx="200.06" cy="28.3" r="0.47" fill="#fff"/>
          <circle cx="201.94" cy="39.56" r="0.47" fill="#fff"/>
          <circle cx="200.06" cy="26.42" r="0.47" fill="#fff"/>
          <circle cx="200.06" cy="9.52" r="0.47" fill="#fff"/>
          <circle cx="201.94" cy="9.52" r="0.47" fill="#fff"/>
          <circle cx="201.94" cy="41.44" r="0.47" fill="#fff"/>
          <circle cx="200.06" cy="7.65" r="0.47" fill="#fff"/>
          <circle cx="194.43" cy="37.69" r="0.47" fill="#fff"/>
          <circle cx="200.06" cy="13.28" r="0.47" fill="#fff"/>
          <circle cx="203.82" cy="35.81" r="0.47" fill="#fff"/>
          <circle cx="205.7" cy="43.32" r="0.47" fill="#fff"/>
          <circle cx="205.7" cy="41.44" r="0.47" fill="#fff"/>
          <circle cx="205.7" cy="39.56" r="0.47" fill="#fff"/>
          <circle cx="203.82" cy="11.4" r="0.47" fill="#fff"/>
          <circle cx="203.82" cy="17.03" r="0.47" fill="#fff"/>
          <circle cx="203.82" cy="13.28" r="0.47" fill="#fff"/>
          <circle cx="203.82" cy="15.16" r="0.47" fill="#fff"/>
          <circle cx="205.7" cy="32.05" r="0.47" fill="#fff"/>
          <circle cx="205.7" cy="30.18" r="0.47" fill="#fff"/>
          <circle cx="205.7" cy="28.3" r="0.47" fill="#fff"/>
          <circle cx="205.7" cy="35.81" r="0.47" fill="#fff"/>
          <circle cx="205.7" cy="37.69" r="0.47" fill="#fff"/>
          <circle cx="205.7" cy="33.93" r="0.47" fill="#fff"/>
          <circle cx="203.82" cy="43.32" r="0.47" fill="#fff"/>
          <circle cx="200.06" cy="30.18" r="0.47" fill="#fff"/>
          <circle cx="203.82" cy="18.91" r="0.47" fill="#fff"/>
          <circle cx="203.82" cy="33.93" r="0.47" fill="#fff"/>
          <circle cx="203.82" cy="32.05" r="0.47" fill="#fff"/>
          <circle cx="203.82" cy="37.69" r="0.47" fill="#fff"/>
          <circle cx="203.82" cy="41.44" r="0.47" fill="#fff"/>
          <circle cx="203.82" cy="39.56" r="0.47" fill="#fff"/>
          <circle cx="205.7" cy="26.42" r="0.47" fill="#fff"/>
          <circle cx="203.82" cy="22.67" r="0.47" fill="#fff"/>
          <circle cx="203.82" cy="24.54" r="0.47" fill="#fff"/>
          <circle cx="203.82" cy="30.18" r="0.47" fill="#fff"/>
          <circle cx="203.82" cy="20.79" r="0.47" fill="#fff"/>
          <circle cx="203.82" cy="26.42" r="0.47" fill="#fff"/>
          <circle cx="203.82" cy="28.3" r="0.47" fill="#fff"/>
          <circle cx="200.06" cy="11.4" r="0.47" fill="#fff"/>
          <circle cx="196.31" cy="35.81" r="0.47" fill="#fff"/>
          <circle cx="196.31" cy="32.05" r="0.47" fill="#fff"/>
          <circle cx="196.31" cy="33.93" r="0.47" fill="#fff"/>
          <circle cx="196.31" cy="37.69" r="0.47" fill="#fff"/>
          <circle cx="194.43" cy="7.65" r="0.47" fill="#fff"/>
          <circle cx="194.43" cy="5.77" r="0.47" fill="#fff"/>
          <circle cx="194.43" cy="9.52" r="0.47" fill="#fff"/>
          <circle cx="196.31" cy="24.54" r="0.47" fill="#fff"/>
          <circle cx="200.06" cy="32.05" r="0.47" fill="#fff"/>
          <circle cx="196.31" cy="20.79" r="0.47" fill="#fff"/>
          <circle cx="196.31" cy="26.42" r="0.47" fill="#fff"/>
          <circle cx="196.31" cy="30.18" r="0.47" fill="#fff"/>
          <circle cx="196.31" cy="28.3" r="0.47" fill="#fff"/>
          <circle cx="194.43" cy="18.91" r="0.47" fill="#fff"/>
          <circle cx="194.43" cy="28.3" r="0.47" fill="#fff"/>
          <circle cx="194.43" cy="24.54" r="0.47" fill="#fff"/>
          <circle cx="194.43" cy="11.4" r="0.47" fill="#fff"/>
          <circle cx="194.43" cy="30.18" r="0.47" fill="#fff"/>
          <circle cx="194.43" cy="32.05" r="0.47" fill="#fff"/>
          <circle cx="194.43" cy="35.81" r="0.47" fill="#fff"/>
          <circle cx="194.43" cy="33.93" r="0.47" fill="#fff"/>
          <circle cx="194.43" cy="26.42" r="0.47" fill="#fff"/>
          <circle cx="194.43" cy="17.03" r="0.47" fill="#fff"/>
          <circle cx="194.43" cy="15.16" r="0.47" fill="#fff"/>
          <circle cx="194.43" cy="13.28" r="0.47" fill="#fff"/>
          <circle cx="194.43" cy="20.79" r="0.47" fill="#fff"/>
          <circle cx="194.43" cy="22.67" r="0.47" fill="#fff"/>
          <circle cx="196.31" cy="18.91" r="0.47" fill="#fff"/>
          <circle cx="196.31" cy="22.67" r="0.47" fill="#fff"/>
          <circle cx="198.19" cy="15.16" r="0.47" fill="#fff"/>
          <circle cx="198.19" cy="13.28" r="0.47" fill="#fff"/>
          <circle cx="198.19" cy="17.03" r="0.47" fill="#fff"/>
          <circle cx="198.19" cy="22.67" r="0.47" fill="#fff"/>
          <circle cx="198.19" cy="24.54" r="0.47" fill="#fff"/>
          <circle cx="198.19" cy="11.4" r="0.47" fill="#fff"/>
          <circle cx="198.19" cy="20.79" r="0.47" fill="#fff"/>
          <circle cx="198.19" cy="18.91" r="0.47" fill="#fff"/>
          <circle cx="196.31" cy="17.03" r="0.47" fill="#fff"/>
          <circle cx="198.19" cy="9.52" r="0.47" fill="#fff"/>
          <circle cx="200.06" cy="33.93" r="0.47" fill="#fff"/>
          <circle cx="200.06" cy="37.69" r="0.47" fill="#fff"/>
          <circle cx="200.06" cy="39.56" r="0.47" fill="#fff"/>
          <circle cx="198.19" cy="7.65" r="0.47" fill="#fff"/>
          <circle cx="200.06" cy="35.81" r="0.47" fill="#fff"/>
          <circle cx="196.31" cy="7.65" r="0.47" fill="#fff"/>
          <circle cx="196.31" cy="9.52" r="0.47" fill="#fff"/>
          <circle cx="196.31" cy="5.77" r="0.47" fill="#fff"/>
          <circle cx="198.19" cy="39.56" r="0.47" fill="#fff"/>
          <circle cx="196.31" cy="15.16" r="0.47" fill="#fff"/>
          <circle cx="196.31" cy="11.4" r="0.47" fill="#fff"/>
          <circle cx="196.31" cy="13.28" r="0.47" fill="#fff"/>
          <circle cx="198.19" cy="32.05" r="0.47" fill="#fff"/>
          <circle cx="198.19" cy="37.69" r="0.47" fill="#fff"/>
          <circle cx="198.19" cy="28.3" r="0.47" fill="#fff"/>
          <circle cx="198.19" cy="26.42" r="0.47" fill="#fff"/>
          <circle cx="198.19" cy="30.18" r="0.47" fill="#fff"/>
          <circle cx="198.19" cy="33.93" r="0.47" fill="#fff"/>
          <circle cx="198.19" cy="35.81" r="0.47" fill="#fff"/>
          <circle cx="207.57" cy="17.03" r="0.47" fill="#fff"/>
          <circle cx="213.21" cy="17.03" r="0.47" fill="#fff"/>
          <circle cx="215.08" cy="47.07" r="0.47" fill="#fff"/>
          <circle cx="215.08" cy="48.95" r="0.47" fill="#fff"/>
          <circle cx="213.21" cy="15.16" r="0.47" fill="#fff"/>
          <circle cx="213.21" cy="22.67" r="0.47" fill="#fff"/>
          <circle cx="213.21" cy="18.91" r="0.47" fill="#fff"/>
          <circle cx="213.21" cy="20.79" r="0.47" fill="#fff"/>
          <circle cx="215.08" cy="39.56" r="0.47" fill="#fff"/>
          <circle cx="213.21" cy="24.54" r="0.47" fill="#fff"/>
          <circle cx="215.08" cy="37.69" r="0.47" fill="#fff"/>
          <circle cx="215.08" cy="35.81" r="0.47" fill="#fff"/>
          <circle cx="215.08" cy="45.19" r="0.47" fill="#fff"/>
          <circle cx="215.08" cy="43.32" r="0.47" fill="#fff"/>
          <circle cx="215.08" cy="41.44" r="0.47" fill="#fff"/>
          <circle cx="213.21" cy="41.44" r="0.47" fill="#fff"/>
          <circle cx="213.21" cy="45.19" r="0.47" fill="#fff"/>
          <circle cx="213.21" cy="43.32" r="0.47" fill="#fff"/>
          <circle cx="211.33" cy="18.91" r="0.47" fill="#fff"/>
          <circle cx="213.21" cy="39.56" r="0.47" fill="#fff"/>
          <circle cx="213.21" cy="26.42" r="0.47" fill="#fff"/>
          <circle cx="211.33" cy="15.16" r="0.47" fill="#fff"/>
          <circle cx="213.21" cy="47.07" r="0.47" fill="#fff"/>
          <circle cx="211.33" cy="17.03" r="0.47" fill="#fff"/>
          <circle cx="213.21" cy="30.18" r="0.47" fill="#fff"/>
          <circle cx="213.21" cy="32.05" r="0.47" fill="#fff"/>
          <circle cx="213.21" cy="28.3" r="0.47" fill="#fff"/>
          <circle cx="213.21" cy="33.93" r="0.47" fill="#fff"/>
          <circle cx="213.21" cy="37.69" r="0.47" fill="#fff"/>
          <circle cx="213.21" cy="35.81" r="0.47" fill="#fff"/>
          <circle cx="215.08" cy="33.93" r="0.47" fill="#fff"/>
          <circle cx="216.96" cy="37.69" r="0.47" fill="#fff"/>
          <circle cx="216.96" cy="39.56" r="0.47" fill="#fff"/>
          <circle cx="216.96" cy="41.44" r="0.47" fill="#fff"/>
          <circle cx="215.08" cy="32.05" r="0.47" fill="#fff"/>
          <circle cx="216.96" cy="35.81" r="0.47" fill="#fff"/>
          <circle cx="216.96" cy="32.05" r="0.47" fill="#fff"/>
          <circle cx="216.96" cy="33.93" r="0.47" fill="#fff"/>
          <circle cx="216.96" cy="50.83" r="0.47" fill="#fff"/>
          <circle cx="216.96" cy="30.18" r="0.47" fill="#fff"/>
          <circle cx="216.96" cy="48.95" r="0.47" fill="#fff"/>
          <circle cx="216.96" cy="45.19" r="0.47" fill="#fff"/>
          <circle cx="216.96" cy="47.07" r="0.47" fill="#fff"/>
          <circle cx="216.96" cy="43.32" r="0.47" fill="#fff"/>
          <circle cx="215.08" cy="22.67" r="0.47" fill="#fff"/>
          <circle cx="215.08" cy="24.54" r="0.47" fill="#fff"/>
          <circle cx="215.08" cy="20.79" r="0.47" fill="#fff"/>
          <circle cx="215.08" cy="18.91" r="0.47" fill="#fff"/>
          <circle cx="215.08" cy="26.42" r="0.47" fill="#fff"/>
          <circle cx="215.08" cy="30.18" r="0.47" fill="#fff"/>
          <circle cx="215.08" cy="28.3" r="0.47" fill="#fff"/>
          <circle cx="216.96" cy="28.3" r="0.47" fill="#fff"/>
          <circle cx="216.96" cy="24.54" r="0.47" fill="#fff"/>
          <circle cx="216.96" cy="22.67" r="0.47" fill="#fff"/>
          <circle cx="216.96" cy="26.42" r="0.47" fill="#fff"/>
          <circle cx="216.96" cy="18.91" r="0.47" fill="#fff"/>
          <circle cx="216.96" cy="20.79" r="0.47" fill="#fff"/>
          <circle cx="211.33" cy="22.67" r="0.47" fill="#fff"/>
          <circle cx="207.57" cy="22.67" r="0.47" fill="#fff"/>
          <circle cx="207.57" cy="24.54" r="0.47" fill="#fff"/>
          <circle cx="207.57" cy="18.91" r="0.47" fill="#fff"/>
          <circle cx="207.57" cy="20.79" r="0.47" fill="#fff"/>
          <circle cx="207.57" cy="30.18" r="0.47" fill="#fff"/>
          <circle cx="207.57" cy="26.42" r="0.47" fill="#fff"/>
          <circle cx="207.57" cy="32.05" r="0.47" fill="#fff"/>
          <circle cx="207.57" cy="28.3" r="0.47" fill="#fff"/>
          <circle cx="209.45" cy="43.32" r="0.47" fill="#fff"/>
          <circle cx="209.45" cy="45.19" r="0.47" fill="#fff"/>
          <circle cx="209.45" cy="39.56" r="0.47" fill="#fff"/>
          <circle cx="207.57" cy="15.16" r="0.47" fill="#fff"/>
          <circle cx="207.57" cy="13.28" r="0.47" fill="#fff"/>
          <circle cx="207.57" cy="11.4" r="0.47" fill="#fff"/>
          <circle cx="209.45" cy="41.44" r="0.47" fill="#fff"/>
          <circle cx="205.7" cy="15.16" r="0.47" fill="#fff"/>
          <circle cx="205.7" cy="17.03" r="0.47" fill="#fff"/>
          <circle cx="205.7" cy="11.4" r="0.47" fill="#fff"/>
          <circle cx="205.7" cy="13.28" r="0.47" fill="#fff"/>
          <circle cx="207.57" cy="33.93" r="0.47" fill="#fff"/>
          <circle cx="205.7" cy="22.67" r="0.47" fill="#fff"/>
          <circle cx="205.7" cy="20.79" r="0.47" fill="#fff"/>
          <circle cx="205.7" cy="18.91" r="0.47" fill="#fff"/>
          <circle cx="207.57" cy="45.19" r="0.47" fill="#fff"/>
          <circle cx="207.57" cy="35.81" r="0.47" fill="#fff"/>
          <circle cx="207.57" cy="39.56" r="0.47" fill="#fff"/>
          <circle cx="207.57" cy="37.69" r="0.47" fill="#fff"/>
          <circle cx="207.57" cy="41.44" r="0.47" fill="#fff"/>
          <circle cx="207.57" cy="43.32" r="0.47" fill="#fff"/>
          <circle cx="209.45" cy="28.3" r="0.47" fill="#fff"/>
          <circle cx="211.33" cy="37.69" r="0.47" fill="#fff"/>
          <circle cx="211.33" cy="35.81" r="0.47" fill="#fff"/>
          <circle cx="209.45" cy="37.69" r="0.47" fill="#fff"/>
          <circle cx="211.33" cy="47.07" r="0.47" fill="#fff"/>
          <circle cx="211.33" cy="45.19" r="0.47" fill="#fff"/>
          <circle cx="211.33" cy="41.44" r="0.47" fill="#fff"/>
          <circle cx="211.33" cy="43.32" r="0.47" fill="#fff"/>
          <circle cx="211.33" cy="33.93" r="0.47" fill="#fff"/>
          <circle cx="211.33" cy="24.54" r="0.47" fill="#fff"/>
          <circle cx="211.33" cy="26.42" r="0.47" fill="#fff"/>
          <circle cx="205.7" cy="24.54" r="0.47" fill="#fff"/>
          <circle cx="211.33" cy="28.3" r="0.47" fill="#fff"/>
          <circle cx="211.33" cy="30.18" r="0.47" fill="#fff"/>
          <circle cx="211.33" cy="32.05" r="0.47" fill="#fff"/>
          <circle cx="211.33" cy="39.56" r="0.47" fill="#fff"/>
          <circle cx="209.45" cy="30.18" r="0.47" fill="#fff"/>
          <circle cx="211.33" cy="20.79" r="0.47" fill="#fff"/>
          <circle cx="209.45" cy="26.42" r="0.47" fill="#fff"/>
          <circle cx="209.45" cy="32.05" r="0.47" fill="#fff"/>
          <circle cx="209.45" cy="35.81" r="0.47" fill="#fff"/>
          <circle cx="209.45" cy="33.93" r="0.47" fill="#fff"/>
          <circle cx="209.45" cy="24.54" r="0.47" fill="#fff"/>
          <circle cx="209.45" cy="17.03" r="0.47" fill="#fff"/>
          <circle cx="209.45" cy="18.91" r="0.47" fill="#fff"/>
          <circle cx="209.45" cy="15.16" r="0.47" fill="#fff"/>
          <circle cx="209.45" cy="22.67" r="0.47" fill="#fff"/>
          <circle cx="209.45" cy="20.79" r="0.47" fill="#fff"/>
          <circle cx="194.43" cy="37.69" r="0.47" fill="#fff"/>
          <circle cx="194.43" cy="35.81" r="0.47" fill="#fff"/>
          <circle cx="194.43" cy="33.93" r="0.47" fill="#fff"/>
          <circle cx="194.43" cy="32.05" r="0.47" fill="#fff"/>
          <circle cx="194.43" cy="30.18" r="0.47" fill="#fff"/>
          <circle cx="194.43" cy="28.3" r="0.47" fill="#fff"/>
          <circle cx="194.43" cy="26.42" r="0.47" fill="#fff"/>
          <circle cx="194.43" cy="24.54" r="0.47" fill="#fff"/>
          <circle cx="194.43" cy="22.67" r="0.47" fill="#fff"/>
          <circle cx="194.43" cy="20.79" r="0.47" fill="#fff"/>
          <circle cx="194.43" cy="18.91" r="0.47" fill="#fff"/>
          <circle cx="194.43" cy="17.03" r="0.47" fill="#fff"/>
          <circle cx="194.43" cy="15.16" r="0.47" fill="#fff"/>
          <circle cx="194.43" cy="13.28" r="0.47" fill="#fff"/>
          <circle cx="194.43" cy="11.4" r="0.47" fill="#fff"/>
          <circle cx="194.43" cy="9.52" r="0.47" fill="#fff"/>
          <circle cx="194.43" cy="7.65" r="0.47" fill="#fff"/>
          <circle cx="194.43" cy="5.77" r="0.47" fill="#fff"/>
          <circle cx="194.43" cy="3.89" r="0.47" fill="#fff"/>
          <circle cx="196.31" cy="37.69" r="0.47" fill="#fff"/>
          <circle cx="196.31" cy="35.81" r="0.47" fill="#fff"/>
          <circle cx="196.31" cy="33.93" r="0.47" fill="#fff"/>
          <circle cx="196.31" cy="32.05" r="0.47" fill="#fff"/>
          <circle cx="196.31" cy="30.18" r="0.47" fill="#fff"/>
          <circle cx="196.31" cy="28.3" r="0.47" fill="#fff"/>
          <circle cx="196.31" cy="26.42" r="0.47" fill="#fff"/>
          <circle cx="196.31" cy="24.54" r="0.47" fill="#fff"/>
          <circle cx="196.31" cy="22.67" r="0.47" fill="#fff"/>
          <circle cx="196.31" cy="20.79" r="0.47" fill="#fff"/>
          <circle cx="196.31" cy="18.91" r="0.47" fill="#fff"/>
          <circle cx="196.31" cy="17.03" r="0.47" fill="#fff"/>
          <circle cx="196.31" cy="15.16" r="0.47" fill="#fff"/>
          <circle cx="196.31" cy="13.28" r="0.47" fill="#fff"/>
          <circle cx="196.31" cy="11.4" r="0.47" fill="#fff"/>
          <circle cx="196.31" cy="9.52" r="0.47" fill="#fff"/>
          <circle cx="196.31" cy="7.65" r="0.47" fill="#fff"/>
          <circle cx="196.31" cy="5.77" r="0.47" fill="#fff"/>
          <circle cx="198.19" cy="39.56" r="0.47" fill="#fff"/>
          <circle cx="198.19" cy="37.69" r="0.47" fill="#fff"/>
          <circle cx="198.19" cy="35.81" r="0.47" fill="#fff"/>
          <circle cx="198.19" cy="33.93" r="0.47" fill="#fff"/>
          <circle cx="198.19" cy="32.05" r="0.47" fill="#fff"/>
          <circle cx="198.19" cy="30.18" r="0.47" fill="#fff"/>
          <circle cx="198.19" cy="28.3" r="0.47" fill="#fff"/>
          <circle cx="198.19" cy="26.42" r="0.47" fill="#fff"/>
          <circle cx="198.19" cy="24.54" r="0.47" fill="#fff"/>
          <circle cx="198.19" cy="22.67" r="0.47" fill="#fff"/>
          <circle cx="198.19" cy="20.79" r="0.47" fill="#fff"/>
          <circle cx="198.19" cy="18.91" r="0.47" fill="#fff"/>
          <circle cx="198.19" cy="17.03" r="0.47" fill="#fff"/>
          <circle cx="198.19" cy="15.16" r="0.47" fill="#fff"/>
          <circle cx="198.19" cy="13.28" r="0.47" fill="#fff"/>
          <circle cx="198.19" cy="11.4" r="0.47" fill="#fff"/>
          <circle cx="198.19" cy="9.52" r="0.47" fill="#fff"/>
          <circle cx="198.19" cy="7.65" r="0.47" fill="#fff"/>
          <circle cx="200.06" cy="39.56" r="0.47" fill="#fff"/>
          <circle cx="200.06" cy="37.69" r="0.47" fill="#fff"/>
          <circle cx="200.06" cy="35.81" r="0.47" fill="#fff"/>
          <circle cx="200.06" cy="33.93" r="0.47" fill="#fff"/>
          <circle cx="200.06" cy="32.05" r="0.47" fill="#fff"/>
          <circle cx="200.06" cy="30.18" r="0.47" fill="#fff"/>
          <circle cx="200.06" cy="28.3" r="0.47" fill="#fff"/>
          <circle cx="200.06" cy="26.42" r="0.47" fill="#fff"/>
          <circle cx="200.06" cy="24.54" r="0.47" fill="#fff"/>
          <circle cx="200.06" cy="22.67" r="0.47" fill="#fff"/>
          <circle cx="200.06" cy="20.79" r="0.47" fill="#fff"/>
          <circle cx="200.06" cy="18.91" r="0.47" fill="#fff"/>
          <circle cx="200.06" cy="17.03" r="0.47" fill="#fff"/>
          <circle cx="200.06" cy="15.16" r="0.47" fill="#fff"/>
          <circle cx="200.06" cy="13.28" r="0.47" fill="#fff"/>
          <circle cx="200.06" cy="11.4" r="0.47" fill="#fff"/>
          <circle cx="200.06" cy="9.52" r="0.47" fill="#fff"/>
          <circle cx="200.06" cy="7.65" r="0.47" fill="#fff"/>
          <circle cx="201.94" cy="41.44" r="0.47" fill="#fff"/>
          <circle cx="201.94" cy="39.56" r="0.47" fill="#fff"/>
          <circle cx="201.94" cy="37.69" r="0.47" fill="#fff"/>
          <circle cx="201.94" cy="35.81" r="0.47" fill="#fff"/>
          <circle cx="201.94" cy="33.93" r="0.47" fill="#fff"/>
          <circle cx="201.94" cy="32.05" r="0.47" fill="#fff"/>
          <circle cx="201.94" cy="30.18" r="0.47" fill="#fff"/>
          <circle cx="201.94" cy="28.3" r="0.47" fill="#fff"/>
          <circle cx="201.94" cy="26.42" r="0.47" fill="#fff"/>
          <circle cx="201.94" cy="24.54" r="0.47" fill="#fff"/>
          <circle cx="201.94" cy="22.67" r="0.47" fill="#fff"/>
          <circle cx="201.94" cy="20.79" r="0.47" fill="#fff"/>
          <circle cx="201.94" cy="18.91" r="0.47" fill="#fff"/>
          <circle cx="201.94" cy="17.03" r="0.47" fill="#fff"/>
          <circle cx="201.94" cy="15.16" r="0.47" fill="#fff"/>
          <circle cx="201.94" cy="13.28" r="0.47" fill="#fff"/>
          <circle cx="201.94" cy="11.4" r="0.47" fill="#fff"/>
          <circle cx="201.94" cy="9.52" r="0.47" fill="#fff"/>
          <circle cx="203.82" cy="41.44" r="0.47" fill="#fff"/>
          <circle cx="203.82" cy="39.56" r="0.47" fill="#fff"/>
          <circle cx="203.82" cy="37.69" r="0.47" fill="#fff"/>
          <circle cx="203.82" cy="35.81" r="0.47" fill="#fff"/>
          <circle cx="203.82" cy="33.93" r="0.47" fill="#fff"/>
          <circle cx="203.82" cy="32.05" r="0.47" fill="#fff"/>
          <circle cx="203.82" cy="30.18" r="0.47" fill="#fff"/>
          <circle cx="203.82" cy="28.3" r="0.47" fill="#fff"/>
          <circle cx="203.82" cy="26.42" r="0.47" fill="#fff"/>
          <circle cx="203.82" cy="24.54" r="0.47" fill="#fff"/>
          <circle cx="203.82" cy="22.67" r="0.47" fill="#fff"/>
          <circle cx="203.82" cy="20.79" r="0.47" fill="#fff"/>
          <circle cx="203.82" cy="18.91" r="0.47" fill="#fff"/>
          <circle cx="203.82" cy="17.03" r="0.47" fill="#fff"/>
          <circle cx="203.82" cy="15.16" r="0.47" fill="#fff"/>
          <circle cx="203.82" cy="13.28" r="0.47" fill="#fff"/>
          <circle cx="203.82" cy="11.4" r="0.47" fill="#fff"/>
          <circle cx="203.82" cy="9.52" r="0.47" fill="#fff"/>
          <circle cx="205.7" cy="43.32" r="0.47" fill="#fff"/>
          <circle cx="205.7" cy="41.44" r="0.47" fill="#fff"/>
          <circle cx="205.7" cy="39.56" r="0.47" fill="#fff"/>
          <circle cx="205.7" cy="37.69" r="0.47" fill="#fff"/>
          <circle cx="205.7" cy="35.81" r="0.47" fill="#fff"/>
          <circle cx="205.7" cy="33.93" r="0.47" fill="#fff"/>
          <circle cx="205.7" cy="32.05" r="0.47" fill="#fff"/>
          <circle cx="205.7" cy="30.18" r="0.47" fill="#fff"/>
          <circle cx="205.7" cy="28.3" r="0.47" fill="#fff"/>
          <circle cx="205.7" cy="26.42" r="0.47" fill="#fff"/>
          <circle cx="205.7" cy="24.54" r="0.47" fill="#fff"/>
          <circle cx="205.7" cy="22.67" r="0.47" fill="#fff"/>
          <circle cx="205.7" cy="20.79" r="0.47" fill="#fff"/>
          <circle cx="205.7" cy="18.91" r="0.47" fill="#fff"/>
          <circle cx="205.7" cy="17.03" r="0.47" fill="#fff"/>
          <circle cx="205.7" cy="15.16" r="0.47" fill="#fff"/>
          <circle cx="205.7" cy="13.28" r="0.47" fill="#fff"/>
          <circle cx="205.7" cy="11.4" r="0.47" fill="#fff"/>
          <circle cx="207.57" cy="45.19" r="0.47" fill="#fff"/>
          <circle cx="207.57" cy="43.32" r="0.47" fill="#fff"/>
          <circle cx="207.57" cy="41.44" r="0.47" fill="#fff"/>
          <circle cx="207.57" cy="39.56" r="0.47" fill="#fff"/>
          <circle cx="207.57" cy="37.69" r="0.47" fill="#fff"/>
          <circle cx="207.57" cy="35.81" r="0.47" fill="#fff"/>
          <circle cx="207.57" cy="33.93" r="0.47" fill="#fff"/>
          <circle cx="207.57" cy="32.05" r="0.47" fill="#fff"/>
          <circle cx="207.57" cy="30.18" r="0.47" fill="#fff"/>
          <circle cx="207.57" cy="28.3" r="0.47" fill="#fff"/>
          <circle cx="207.57" cy="26.42" r="0.47" fill="#fff"/>
          <circle cx="207.57" cy="24.54" r="0.47" fill="#fff"/>
          <circle cx="207.57" cy="22.67" r="0.47" fill="#fff"/>
          <circle cx="207.57" cy="20.79" r="0.47" fill="#fff"/>
          <circle cx="207.57" cy="18.91" r="0.47" fill="#fff"/>
          <circle cx="207.57" cy="17.03" r="0.47" fill="#fff"/>
          <circle cx="207.57" cy="15.16" r="0.47" fill="#fff"/>
          <circle cx="207.57" cy="13.28" r="0.47" fill="#fff"/>
          <circle cx="207.57" cy="11.4" r="0.47" fill="#fff"/>
          <circle cx="209.45" cy="45.19" r="0.47" fill="#fff"/>
          <circle cx="209.45" cy="43.32" r="0.47" fill="#fff"/>
          <circle cx="209.45" cy="41.44" r="0.47" fill="#fff"/>
          <circle cx="209.45" cy="39.56" r="0.47" fill="#fff"/>
          <circle cx="209.45" cy="37.69" r="0.47" fill="#fff"/>
          <circle cx="209.45" cy="35.81" r="0.47" fill="#fff"/>
          <circle cx="209.45" cy="33.93" r="0.47" fill="#fff"/>
          <circle cx="209.45" cy="32.05" r="0.47" fill="#fff"/>
          <circle cx="209.45" cy="30.18" r="0.47" fill="#fff"/>
          <circle cx="209.45" cy="28.3" r="0.47" fill="#fff"/>
          <circle cx="209.45" cy="26.42" r="0.47" fill="#fff"/>
          <circle cx="209.45" cy="24.54" r="0.47" fill="#fff"/>
          <circle cx="209.45" cy="22.67" r="0.47" fill="#fff"/>
          <circle cx="209.45" cy="20.79" r="0.47" fill="#fff"/>
          <circle cx="209.45" cy="18.91" r="0.47" fill="#fff"/>
          <circle cx="209.45" cy="17.03" r="0.47" fill="#fff"/>
          <circle cx="209.45" cy="15.16" r="0.47" fill="#fff"/>
          <circle cx="209.45" cy="13.28" r="0.47" fill="#fff"/>
          <circle cx="211.33" cy="47.07" r="0.47" fill="#fff"/>
          <circle cx="211.33" cy="45.19" r="0.47" fill="#fff"/>
          <circle cx="211.33" cy="43.32" r="0.47" fill="#fff"/>
          <circle cx="211.33" cy="41.44" r="0.47" fill="#fff"/>
          <circle cx="211.33" cy="39.56" r="0.47" fill="#fff"/>
          <circle cx="211.33" cy="37.69" r="0.47" fill="#fff"/>
          <circle cx="211.33" cy="35.81" r="0.47" fill="#fff"/>
          <circle cx="211.33" cy="33.93" r="0.47" fill="#fff"/>
          <circle cx="211.33" cy="32.05" r="0.47" fill="#fff"/>
          <circle cx="211.33" cy="30.18" r="0.47" fill="#fff"/>
          <circle cx="211.33" cy="28.3" r="0.47" fill="#fff"/>
          <circle cx="211.33" cy="26.42" r="0.47" fill="#fff"/>
          <circle cx="211.33" cy="24.54" r="0.47" fill="#fff"/>
          <circle cx="211.33" cy="22.67" r="0.47" fill="#fff"/>
          <circle cx="211.33" cy="20.79" r="0.47" fill="#fff"/>
          <circle cx="211.33" cy="18.91" r="0.47" fill="#fff"/>
          <circle cx="211.33" cy="17.03" r="0.47" fill="#fff"/>
          <circle cx="211.33" cy="15.16" r="0.47" fill="#fff"/>
          <circle cx="213.21" cy="47.07" r="0.47" fill="#fff"/>
          <circle cx="213.21" cy="45.19" r="0.47" fill="#fff"/>
          <circle cx="213.21" cy="43.32" r="0.47" fill="#fff"/>
          <circle cx="213.21" cy="41.44" r="0.47" fill="#fff"/>
          <circle cx="213.21" cy="39.56" r="0.47" fill="#fff"/>
          <circle cx="213.21" cy="37.69" r="0.47" fill="#fff"/>
          <circle cx="213.21" cy="35.81" r="0.47" fill="#fff"/>
          <circle cx="213.21" cy="33.93" r="0.47" fill="#fff"/>
          <circle cx="213.21" cy="32.05" r="0.47" fill="#fff"/>
          <circle cx="213.21" cy="30.18" r="0.47" fill="#fff"/>
          <circle cx="213.21" cy="28.3" r="0.47" fill="#fff"/>
          <circle cx="213.21" cy="26.42" r="0.47" fill="#fff"/>
          <circle cx="213.21" cy="24.54" r="0.47" fill="#fff"/>
          <circle cx="213.21" cy="22.67" r="0.47" fill="#fff"/>
          <circle cx="213.21" cy="20.79" r="0.47" fill="#fff"/>
          <circle cx="213.21" cy="18.91" r="0.47" fill="#fff"/>
          <circle cx="213.21" cy="17.03" r="0.47" fill="#fff"/>
          <circle cx="213.21" cy="15.16" r="0.47" fill="#fff"/>
          <circle cx="215.08" cy="48.95" r="0.47" fill="#fff"/>
          <circle cx="215.08" cy="47.07" r="0.47" fill="#fff"/>
          <circle cx="215.08" cy="45.19" r="0.47" fill="#fff"/>
          <circle cx="215.08" cy="43.32" r="0.47" fill="#fff"/>
          <circle cx="215.08" cy="41.44" r="0.47" fill="#fff"/>
          <circle cx="215.08" cy="39.56" r="0.47" fill="#fff"/>
          <circle cx="215.08" cy="37.69" r="0.47" fill="#fff"/>
          <circle cx="215.08" cy="35.81" r="0.47" fill="#fff"/>
          <circle cx="215.08" cy="33.93" r="0.47" fill="#fff"/>
          <circle cx="215.08" cy="32.05" r="0.47" fill="#fff"/>
          <circle cx="215.08" cy="30.18" r="0.47" fill="#fff"/>
          <circle cx="215.08" cy="28.3" r="0.47" fill="#fff"/>
          <circle cx="215.08" cy="26.42" r="0.47" fill="#fff"/>
          <circle cx="215.08" cy="24.54" r="0.47" fill="#fff"/>
          <circle cx="215.08" cy="22.67" r="0.47" fill="#fff"/>
          <circle cx="215.08" cy="20.79" r="0.47" fill="#fff"/>
          <circle cx="215.08" cy="18.91" r="0.47" fill="#fff"/>
          <circle cx="216.96" cy="17.03" r="0.47" fill="#fff"/>
          <circle cx="216.96" cy="18.91" r="0.47" fill="#fff"/>
          <circle cx="216.96" cy="20.79" r="0.47" fill="#fff"/>
          <circle cx="216.96" cy="22.67" r="0.47" fill="#fff"/>
          <circle cx="216.96" cy="24.54" r="0.47" fill="#fff"/>
          <circle cx="216.96" cy="26.42" r="0.47" fill="#fff"/>
          <circle cx="216.96" cy="28.3" r="0.47" fill="#fff"/>
          <circle cx="216.96" cy="30.18" r="0.47" fill="#fff"/>
          <circle cx="216.96" cy="32.05" r="0.47" fill="#fff"/>
          <circle cx="216.96" cy="33.93" r="0.47" fill="#fff"/>
          <circle cx="216.96" cy="35.81" r="0.47" fill="#fff"/>
          <circle cx="216.96" cy="37.69" r="0.47" fill="#fff"/>
          <circle cx="216.96" cy="39.56" r="0.47" fill="#fff"/>
          <circle cx="216.96" cy="41.44" r="0.47" fill="#fff"/>
          <circle cx="216.96" cy="43.32" r="0.47" fill="#fff"/>
          <circle cx="216.96" cy="45.19" r="0.47" fill="#fff"/>
          <circle cx="216.96" cy="47.07" r="0.47" fill="#fff"/>
          <circle cx="216.96" cy="48.95" r="0.47" fill="#fff"/>
          <circle cx="215.08" cy="17.03" r="0.47" fill="#fff"/>
          <path d="M213.68,48.95a.47.47,0,1,0-.93.1l1.33.77-.73-.42A.47.47,0,0,0,213.68,48.95Z" fill="#fff"/>
          <path d="M209.45,46.6a.47.47,0,0,0-.43.29l.81.47a.47.47,0,0,0-.38-.76Z" fill="#fff"/>
          <path d="M201.94,8.12a.47.47,0,0,0,.46-.36l2.29,1.32-3.08-1.78a.47.47,0,0,0,.33.81Z" fill="#fff"/>
          <path d="M210.86,13.28a.47.47,0,1,0,.93-.1l-.6-.35A.47.47,0,0,0,210.86,13.28Z" fill="#fff"/>
          <path d="M214.61,15.16a.47.47,0,0,0,.91.17l-1.08-.62.28.16A.47.47,0,0,0,214.61,15.16Z" fill="#fff"/>
          <circle cx="195.84" cy="3.99" transform="translate(95.22 172.05) rotate(-60.26)" fill="#fff"/>
          <path d="M195.85,4a.47.47,0,0,0,.46.38l.15,0h0Z" fill="#fff"/>
          <path d="M198.13,5.3a.47.47,0,1,0,.49.28Z" fill="#fff"/>
          <path d="M200.54,41.44a.47.47,0,0,0-.94,0l.72.42A.47.47,0,0,0,200.54,41.44Z" fill="#fff"/>
          <path d="M206.17,45.19a.47.47,0,0,0-.74-.39l1.12.65-.38-.22S206.17,45.21,206.17,45.19Z" fill="#fff"/>
          <path d="M196.78,39.56a.47.47,0,0,0-.86-.27l2.38,1.38-1.57-.91A.47.47,0,0,0,196.78,39.56Z" fill="#fff"/>
        </g>
        <circle cx="6.6" cy="32.05" r="0.47" fill="#fff"/>
        <circle cx="6.6" cy="26.42" r="0.47" fill="#fff"/>
        <circle cx="6.6" cy="30.17" r="0.47" fill="#fff"/>
        <circle cx="6.6" cy="28.3" r="0.47" fill="#fff"/>
        <circle cx="6.6" cy="20.79" r="0.47" fill="#fff"/>
        <circle cx="6.6" cy="18.91" r="0.47" fill="#fff"/>
        <circle cx="6.6" cy="24.54" r="0.47" fill="#fff"/>
        <circle cx="6.6" cy="22.66" r="0.47" fill="#fff"/>
        <circle cx="6.6" cy="45.19" r="0.47" fill="#fff"/>
        <circle cx="6.6" cy="43.32" r="0.47" fill="#fff"/>
        <circle cx="8.48" cy="48.95" r="0.47" fill="#fff"/>
        <circle cx="6.6" cy="41.44" r="0.47" fill="#fff"/>
        <circle cx="6.6" cy="33.93" r="0.47" fill="#fff"/>
        <circle cx="6.6" cy="47.07" r="0.47" fill="#fff"/>
        <circle cx="6.6" cy="35.81" r="0.47" fill="#fff"/>
        <circle cx="6.6" cy="39.56" r="0.47" fill="#fff"/>
        <circle cx="6.6" cy="37.68" r="0.47" fill="#fff"/>
        <circle cx="8.48" cy="30.17" r="0.47" fill="#fff"/>
        <circle cx="8.48" cy="24.54" r="0.47" fill="#fff"/>
        <circle cx="8.48" cy="22.66" r="0.47" fill="#fff"/>
        <circle cx="8.48" cy="26.42" r="0.47" fill="#fff"/>
        <circle cx="8.48" cy="47.07" r="0.47" fill="#fff"/>
        <circle cx="8.48" cy="28.3" r="0.47" fill="#fff"/>
        <circle cx="10.35" cy="45.19" r="0.47" fill="#fff"/>
        <circle cx="10.35" cy="47.07" r="0.47" fill="#fff"/>
        <circle cx="8.48" cy="20.79" r="0.47" fill="#fff"/>
        <circle cx="6.6" cy="48.95" r="0.47" fill="#fff"/>
        <circle cx="8.48" cy="41.44" r="0.47" fill="#fff"/>
        <circle cx="10.35" cy="43.32" r="0.47" fill="#fff"/>
        <circle cx="8.48" cy="45.19" r="0.47" fill="#fff"/>
        <circle cx="8.48" cy="39.56" r="0.47" fill="#fff"/>
        <circle cx="8.48" cy="32.05" r="0.47" fill="#fff"/>
        <circle cx="8.48" cy="33.93" r="0.47" fill="#fff"/>
        <circle cx="8.48" cy="35.81" r="0.47" fill="#fff"/>
        <circle cx="8.48" cy="37.68" r="0.47" fill="#fff"/>
        <circle cx="8.48" cy="43.32" r="0.47" fill="#fff"/>
        <circle cx="2.84" cy="37.68" r="0.47" fill="#fff"/>
        <circle cx="2.84" cy="35.81" r="0.47" fill="#fff"/>
        <circle cx="2.84" cy="39.56" r="0.47" fill="#fff"/>
        <circle cx="2.84" cy="33.93" r="0.47" fill="#fff"/>
        <circle cx="2.84" cy="26.42" r="0.47" fill="#fff"/>
        <circle cx="2.84" cy="28.3" r="0.47" fill="#fff"/>
        <circle cx="2.84" cy="24.54" r="0.47" fill="#fff"/>
        <circle cx="2.84" cy="30.17" r="0.47" fill="#fff"/>
        <circle cx="2.84" cy="32.05" r="0.47" fill="#fff"/>
        <circle cx="2.84" cy="41.44" r="0.47" fill="#fff"/>
        <circle cx="0.97" cy="32.05" r="0.47" fill="#fff"/>
        <circle cx="0.97" cy="33.93" r="0.47" fill="#fff"/>
        <circle cx="2.84" cy="43.32" r="0.47" fill="#fff"/>
        <circle cx="0.97" cy="37.68" r="0.47" fill="#fff"/>
        <circle cx="0.97" cy="35.81" r="0.47" fill="#fff"/>
        <circle cx="0.97" cy="30.17" r="0.47" fill="#fff"/>
        <circle cx="2.84" cy="45.19" r="0.47" fill="#fff"/>
        <circle cx="0.97" cy="28.3" r="0.47" fill="#fff"/>
        <circle cx="4.72" cy="39.56" r="0.47" fill="#fff"/>
        <circle cx="4.72" cy="26.42" r="0.47" fill="#fff"/>
        <circle cx="4.72" cy="30.17" r="0.47" fill="#fff"/>
        <circle cx="4.72" cy="28.3" r="0.47" fill="#fff"/>
        <circle cx="4.72" cy="32.05" r="0.47" fill="#fff"/>
        <circle cx="4.72" cy="22.66" r="0.47" fill="#fff"/>
        <circle cx="4.72" cy="24.54" r="0.47" fill="#fff"/>
        <circle cx="4.72" cy="20.79" r="0.47" fill="#fff"/>
        <circle cx="4.72" cy="33.93" r="0.47" fill="#fff"/>
        <circle cx="4.72" cy="18.91" r="0.47" fill="#fff"/>
        <circle cx="4.72" cy="47.07" r="0.47" fill="#fff"/>
        <circle cx="4.72" cy="45.19" r="0.47" fill="#fff"/>
        <circle cx="4.72" cy="48.95" r="0.47" fill="#fff"/>
        <circle cx="4.72" cy="43.32" r="0.47" fill="#fff"/>
        <circle cx="4.72" cy="37.68" r="0.47" fill="#fff"/>
        <circle cx="4.72" cy="35.81" r="0.47" fill="#fff"/>
        <circle cx="4.72" cy="41.44" r="0.47" fill="#fff"/>
        <circle cx="2.84" cy="22.66" r="0.47" fill="#fff"/>
        <circle cx="10.35" cy="22.66" r="0.47" fill="#fff"/>
        <circle cx="17.86" cy="43.32" r="0.47" fill="#fff"/>
        <circle cx="15.98" cy="24.54" r="0.47" fill="#fff"/>
        <circle cx="15.98" cy="30.17" r="0.47" fill="#fff"/>
        <circle cx="15.98" cy="28.3" r="0.47" fill="#fff"/>
        <circle cx="15.98" cy="26.42" r="0.47" fill="#fff"/>
        <circle cx="17.86" cy="37.68" r="0.47" fill="#fff"/>
        <circle cx="17.86" cy="39.56" r="0.47" fill="#fff"/>
        <circle cx="17.86" cy="41.44" r="0.47" fill="#fff"/>
        <circle cx="15.98" cy="35.81" r="0.47" fill="#fff"/>
        <circle cx="15.98" cy="41.44" r="0.47" fill="#fff"/>
        <circle cx="15.98" cy="39.56" r="0.47" fill="#fff"/>
        <circle cx="15.98" cy="43.32" r="0.47" fill="#fff"/>
        <circle cx="14.11" cy="22.66" r="0.47" fill="#fff"/>
        <circle cx="15.98" cy="37.68" r="0.47" fill="#fff"/>
        <circle cx="15.98" cy="33.93" r="0.47" fill="#fff"/>
        <circle cx="15.98" cy="32.05" r="0.47" fill="#fff"/>
        <circle cx="10.35" cy="41.44" r="0.47" fill="#fff"/>
        <circle cx="17.86" cy="35.81" r="0.47" fill="#fff"/>
        <circle cx="19.74" cy="33.93" r="0.47" fill="#fff"/>
        <circle cx="19.74" cy="28.3" r="0.47" fill="#fff"/>
        <circle cx="19.74" cy="32.05" r="0.47" fill="#fff"/>
        <circle cx="19.74" cy="26.42" r="0.47" fill="#fff"/>
        <circle cx="19.74" cy="30.17" r="0.47" fill="#fff"/>
        <path d="M0,31.49q0-.37,0-.73C.07,31,.05,31.24,0,31.49Z" fill="#fff"/>
        <path d="M0,34.62c0-.49,0-1,0-1.49C0,33.63,0,34.13,0,34.62Z" fill="#fff"/>
        <path d="M0,32.3c0-.17,0-.34,0-.51C0,32,0,32.13,0,32.3Z" fill="#fff"/>
        <path d="M1.44,41.44A.47.47,0,0,0,1,41h0q-.12-.5-.23-1a.47.47,0,1,0-.13-.66q.25,1.3.59,2.57A.47.47,0,0,0,1.44,41.44Z" fill="#fff"/>
        <path d="M.32,37.73q-.1-.7-.17-1.42Q.22,37,.32,37.73Z" fill="#fff"/>
        <path d="M.57,39.27q-.13-.71-.23-1.42Q.44,38.56.57,39.27Z" fill="#fff"/>
        <path d="M.14,36.17q-.06-.71-.1-1.43C.06,35.22.1,35.7.14,36.17Z" fill="#fff"/>
        <circle cx="17.86" cy="33.93" r="0.47" fill="#fff"/>
        <circle cx="17.86" cy="28.3" r="0.47" fill="#fff"/>
        <circle cx="17.86" cy="30.17" r="0.47" fill="#fff"/>
        <circle cx="17.86" cy="26.42" r="0.47" fill="#fff"/>
        <circle cx="17.86" cy="32.05" r="0.47" fill="#fff"/>
        <circle cx="19.74" cy="37.68" r="0.47" fill="#fff"/>
        <circle cx="19.74" cy="41.44" r="0.47" fill="#fff"/>
        <circle cx="19.74" cy="35.81" r="0.47" fill="#fff"/>
        <circle cx="19.74" cy="39.56" r="0.47" fill="#fff"/>
        <circle cx="14.11" cy="24.54" r="0.47" fill="#fff"/>
        <circle cx="12.23" cy="47.07" r="0.47" fill="#fff"/>
        <circle cx="12.23" cy="45.19" r="0.47" fill="#fff"/>
        <circle cx="12.23" cy="43.32" r="0.47" fill="#fff"/>
        <circle cx="10.35" cy="24.54" r="0.47" fill="#fff"/>
        <circle cx="10.35" cy="20.79" r="0.47" fill="#fff"/>
        <circle cx="12.23" cy="37.68" r="0.47" fill="#fff"/>
        <circle cx="12.23" cy="39.56" r="0.47" fill="#fff"/>
        <circle cx="12.23" cy="41.44" r="0.47" fill="#fff"/>
        <circle cx="10.35" cy="26.42" r="0.47" fill="#fff"/>
        <circle cx="14.11" cy="26.42" r="0.47" fill="#fff"/>
        <circle cx="10.35" cy="33.93" r="0.47" fill="#fff"/>
        <circle cx="10.35" cy="37.68" r="0.47" fill="#fff"/>
        <circle cx="10.35" cy="39.56" r="0.47" fill="#fff"/>
        <circle cx="10.35" cy="35.81" r="0.47" fill="#fff"/>
        <circle cx="10.35" cy="28.3" r="0.47" fill="#fff"/>
        <circle cx="10.35" cy="32.05" r="0.47" fill="#fff"/>
        <circle cx="10.35" cy="30.17" r="0.47" fill="#fff"/>
        <circle cx="12.23" cy="35.81" r="0.47" fill="#fff"/>
        <circle cx="14.11" cy="33.93" r="0.47" fill="#fff"/>
        <circle cx="14.11" cy="37.68" r="0.47" fill="#fff"/>
        <circle cx="14.11" cy="35.81" r="0.47" fill="#fff"/>
        <circle cx="14.11" cy="41.44" r="0.47" fill="#fff"/>
        <circle cx="14.11" cy="39.56" r="0.47" fill="#fff"/>
        <circle cx="14.11" cy="28.3" r="0.47" fill="#fff"/>
        <circle cx="12.23" cy="33.93" r="0.47" fill="#fff"/>
        <circle cx="14.11" cy="30.17" r="0.47" fill="#fff"/>
        <circle cx="14.11" cy="32.05" r="0.47" fill="#fff"/>
        <circle cx="12.23" cy="32.05" r="0.47" fill="#fff"/>
        <circle cx="12.23" cy="30.17" r="0.47" fill="#fff"/>
        <circle cx="12.23" cy="28.3" r="0.47" fill="#fff"/>
        <circle cx="14.11" cy="43.32" r="0.47" fill="#fff"/>
        <circle cx="12.23" cy="26.42" r="0.47" fill="#fff"/>
        <circle cx="14.11" cy="45.19" r="0.47" fill="#fff"/>
        <circle cx="12.23" cy="22.66" r="0.47" fill="#fff"/>
        <circle cx="12.23" cy="24.54" r="0.47" fill="#fff"/>
        <path d="M0,34.74s0-.08,0-.12S0,34.7,0,34.74Z" fill="#fff"/>
        <path d="M1.16,41.87v0Z" fill="#fff"/>
        <path d="M.33,37.84l0-.11Z" fill="#fff"/>
        <path d="M.15,36.31v0Z" fill="#fff"/>
        <path d="M.57,39.3h0v0Z" fill="#fff"/>
        <path d="M0,33.13q0-.42,0-.83Q0,32.72,0,33.13Z" fill="#fff"/>
        <path d="M.09,30.76v0Z" fill="#fff"/>
        <path d="M0,31.79c0-.1,0-.2,0-.3C0,31.59,0,31.69,0,31.79Z" fill="#fff"/>
        <path d="M43.78,39.15a12.23,12.23,0,0,1-19.92,2L5.61,51.58a33.14,33.14,0,0,0,56.29-2Z" fill="#fff"/>
        <path d="M33.13,20.9a12.23,12.23,0,0,1,11.56,8.24L62.94,18.66A33.14,33.14,0,0,0,4.48,16.49L22.59,26.93A12.22,12.22,0,0,1,33.13,20.9Z" fill="#fff"/>
        <path d="M2.88,46.61l.36.7a.45.45,0,0,0,.07-.23A.47.47,0,0,0,2.88,46.61Z" fill="#fff"/>
        <path d="M21.11,30.17a.47.47,0,0,0,.16.35q.09-.41.21-.8A.47.47,0,0,0,21.11,30.17Z" fill="#fff"/>
        <path d="M21.62,28.77h.09q.14-.36.3-.72a.47.47,0,1,0-.39.73Z" fill="#fff"/>
        <path d="M21.62,38.16a.47.47,0,0,0,.31-.12q-.18-.4-.33-.82a.47.47,0,0,0,0,.94Z" fill="#fff"/>
        <circle cx="21.62" cy="41.44" r="0.47" fill="#fff"/>
        <circle cx="21.62" cy="39.56" r="0.47" fill="#fff"/>
        <path d="M21.06,35.81a.47.47,0,0,0,.29.43c-.06-.25-.12-.5-.16-.75A.47.47,0,0,0,21.06,35.81Z" fill="#fff"/>
        <path d="M23,41.44a.47.47,0,0,0,0,.13l.79-.46a.47.47,0,0,0-.81.32Z" fill="#fff"/>
        <path d="M19.74,42.84a.47.47,0,0,0-.33.81l-3,1.72a.47.47,0,1,0-.5.28l-1.68,1-.14,0a.47.47,0,0,0-.46.37l-2.93,1.68a.47.47,0,0,0-.8.46L7.06,50.75a.47.47,0,1,0-.76.44l-.6.34h0L22.22,42l-2,1.16A.47.47,0,0,0,19.74,42.84Z" fill="#fff"/>
        <polygon points="23.04 41.57 23.04 41.57 22.22 42.05 23.04 41.57" fill="#fff"/>
        <path d="M5.17,16.89h0l3,1.7h0Z" fill="#fff"/>
        <polygon points="8.92 19.05 8.92 19.06 11.77 20.7 11.77 20.69 8.92 19.05" fill="#fff"/>
        <path d="M4.48,16.49h0l.13.08h0Z" fill="#fff"/>
        <polygon points="16 23.14 15.99 23.14 17.68 24.11 17.69 24.11 16 23.14" fill="#fff"/>
        <polygon points="12.54 21.14 12.54 21.14 15.58 22.89 15.57 22.89 12.54 21.14" fill="#fff"/>
        <polygon points="22.04 26.62 22.59 26.93 22.04 26.62 22.04 26.62" fill="#fff"/>
        <polygon points="18.33 24.48 18.33 24.48 21.23 26.15 21.23 26.15 18.33 24.48" fill="#fff"/>
        <path d="M2.37,20.81a.47.47,0,1,0,.15-.37q-.41,1-.75,2Q2.05,21.61,2.37,20.81Z" fill="#fff"/>
        <path d="M.6,26.88q-.07.34-.12.69Q.53,27.22.6,26.88Z" fill="#fff"/>
        <path d="M1.76,22.48q-.28.82-.51,1.65Q1.48,23.3,1.76,22.48Z" fill="#fff"/>
        <path d="M3.31,18.91a.47.47,0,0,0,0-.16q.54-1.12,1.16-2.19Q3.66,17.91,3,19.35A.47.47,0,0,0,3.31,18.91Z" fill="#fff"/>
        <path d="M1.77,22.44l0,0Z" fill="#fff"/>
        <path d="M2.95,19.46c-.13.29-.25.58-.38.87Q2.75,19.89,2.95,19.46Z" fill="#fff"/>
        <path d="M17.39,24.54a.47.47,0,0,0,.94,0,.43.43,0,0,0,0-.06l-.64-.37A.47.47,0,0,0,17.39,24.54Z" fill="#fff"/>
        <path d="M16,23.14h0l-.42-.24A.47.47,0,0,0,16,23.14Z" fill="#fff"/>
        <path d="M21.15,26.42a.47.47,0,0,0,.9.2l-.81-.47A.47.47,0,0,0,21.15,26.42Z" fill="#fff"/>
        <path d="M11.76,20.79a.47.47,0,0,0,.47.47.47.47,0,0,0,.31-.12l-.77-.44A.47.47,0,0,0,11.76,20.79Z" fill="#fff"/>
        <path d="M8,18.91a.47.47,0,0,0,.92.15l-.8-.46A.47.47,0,0,0,8,18.91Z" fill="#fff"/>
        <path d="M4.25,17a.47.47,0,0,0,.94,0,.45.45,0,0,0,0-.13l-.56-.32A.47.47,0,0,0,4.25,17Z" fill="#fff"/>
        <path d="M1,26.89A.47.47,0,1,0,.78,26q.11-.49.23-1a.47.47,0,0,0,.23-.85Q.88,25.43.62,26.74A.47.47,0,0,0,1,26.89Z" fill="#fff"/>
        <path d="M2.95,19.46,3,19.35H3Z" fill="#fff"/>
        <path d="M4.44,16.55l0-.05h0Z" fill="#fff"/>
        <path d="M.47,27.57l-.06.37Z" fill="#fff"/>
        <path d="M1.24,24.16v0Z" fill="#fff"/>
        <polygon points="4.48 16.49 4.47 16.5 4.47 16.5 4.48 16.49 4.48 16.49" fill="#fff"/>
        <path d="M2.52,20.44l0-.12-.05.12Z" fill="#fff"/>
        <path d="M.41,27.94c0,.22-.07.43-.1.65C.34,28.37.38,28.16.41,27.94Z" fill="#fff"/>
        <path d="M.6,26.88l0-.14h0Z" fill="#fff"/>
        <path d="M.31,28.59c0,.16,0,.32-.06.49C.27,28.91.29,28.75.31,28.59Z" fill="#fff"/>
        <path d="M.19,29.63q-.06.53-.1,1.06C.12,30.33.15,30,.19,29.63Z" fill="#fff"/>
        <path d="M.25,29.08c0,.18,0,.37-.07.55C.21,29.44.23,29.26.25,29.08Z" fill="#fff"/>
      </g>
    </g>
  </g>
</svg>
