<svg xmlns="http://www.w3.org/2000/svg" viewBox="0 0 288.56 45.72">
  <title>Love Calgary</title>
  <g id="Layer_2" data-name="Layer 2">
    <g id="Layer_1-2" data-name="Layer 1">
      <rect x="0.54" y="41.91" width="66.53" height="0.24" fill="#fff"/>
      <rect x="218.2" y="41.91" width="69.12" height="0.24" fill="#fff"/>
      <polygon points="2.34 26.85 2.34 0.47 0 0.47 0 29.07 18.98 29.07 18.98 26.85 2.34 26.85" fill="#fff"/>
      <path d="M47.95,9.16a14.41,14.41,0,0,0-2.88-4.7A14.55,14.55,0,0,0,28.78,1.21a13.79,13.79,0,0,0-4.5,3.25A14.86,14.86,0,0,0,21.4,9.15a15.62,15.62,0,0,0-1,5.66,15.75,15.75,0,0,0,1,5.58,14.4,14.4,0,0,0,2.88,4.7,14.52,14.52,0,0,0,16.27,3.25,13.72,13.72,0,0,0,4.52-3.25,14.86,14.86,0,0,0,2.88-4.69,15.49,15.49,0,0,0,1-5.39l.13-.14-.13-.31A15.75,15.75,0,0,0,47.95,9.16Zm-1.34,5.62v.08a13.28,13.28,0,0,1-.88,4.79,12.5,12.5,0,0,1-2.43,4,11.87,11.87,0,0,1-13.42,2.68,12,12,0,0,1-3.8-2.75,12.39,12.39,0,0,1-2.47-4,13.74,13.74,0,0,1,0-9.66,12.55,12.55,0,0,1,2.43-4,11.51,11.51,0,0,1,3.75-2.7,11.63,11.63,0,0,1,4.86-1,11.44,11.44,0,0,1,4.85,1A11.82,11.82,0,0,1,43.28,6a12.53,12.53,0,0,1,2.45,4A13.27,13.27,0,0,1,46.61,14.77Z" fill="#fff"/>
      <polygon points="63.9 25.84 52.85 0.77 52.72 0.47 50.16 0.47 62.85 28.98 62.99 29.27 64.74 29.27 77.57 0.47 75.09 0.47 63.9 25.84" fill="#fff"/>
      <polygon points="82.34 15.79 98.71 15.79 98.71 13.56 82.34 13.56 82.34 2.69 100.44 2.69 100.44 0.47 80 0.47 80 29.07 100.64 29.07 100.64 26.85 82.34 26.85 82.34 15.79" fill="#fff"/>
      <path d="M126.94,22.71l-.35.35a16.75,16.75,0,0,1-4.1,3.06,11.3,11.3,0,0,1-5.36,1.2,11.09,11.09,0,0,1-4.64-1,11.79,11.79,0,0,1-3.75-2.69,12.44,12.44,0,0,1-2.48-4,13.36,13.36,0,0,1-.89-4.94,13.26,13.26,0,0,1,.89-4.87,12.71,12.71,0,0,1,2.46-4,11.63,11.63,0,0,1,3.71-2.68,11.08,11.08,0,0,1,4.66-1,13.17,13.17,0,0,1,3,.32,12.37,12.37,0,0,1,2.48.87,11.73,11.73,0,0,1,2.06,1.27c.62.48,1.23,1,1.8,1.54l.36.34,1.64-1.71-.37-.35c-.69-.63-1.4-1.23-2.11-1.77a13.4,13.4,0,0,0-2.4-1.43,13.82,13.82,0,0,0-2.88-1A16.65,16.65,0,0,0,117.13,0a13.55,13.55,0,0,0-5.67,1.19A14,14,0,0,0,107,4.4a14.68,14.68,0,0,0-2.92,4.69,15.73,15.73,0,0,0-1,5.76,15.7,15.7,0,0,0,1,5.72,13.94,13.94,0,0,0,7.38,7.8,13.5,13.5,0,0,0,5.61,1.17,15,15,0,0,0,3.49-.39,15.61,15.61,0,0,0,3-1,13.79,13.79,0,0,0,2.56-1.55,22.43,22.43,0,0,0,2.16-1.9l.36-.36Z" fill="#fff"/>
      <path d="M141.85.28l-13.56,28.8h2.49l3.79-8H151l3.75,8h2.57L143.75.28Zm-6.23,18.53,7.14-15.28,7.18,15.28Z" fill="#fff"/>
      <polygon points="162.07 0.47 159.73 0.47 159.73 29.07 178.71 29.07 178.71 26.85 162.07 26.85 162.07 0.47" fill="#fff"/>
      <path d="M193.44,16.34h9.82v7.72a14.46,14.46,0,0,1-1.61,1.14A15.09,15.09,0,0,1,197,27a12.57,12.57,0,0,1-2.69.28,12,12,0,0,1-5-1,11.25,11.25,0,0,1-3.72-2.69,11.85,11.85,0,0,1-2.34-4,14.46,14.46,0,0,1-.82-4.95,13.6,13.6,0,0,1,.84-4.71,12.34,12.34,0,0,1,2.37-4,11.74,11.74,0,0,1,3.69-2.76,10.94,10.94,0,0,1,4.79-1,12.75,12.75,0,0,1,4.92.91,10.69,10.69,0,0,1,1.94,1,22.48,22.48,0,0,1,1.81,1.35l.38.31L204.7,4l-.38-.32a20.54,20.54,0,0,0-2.12-1.58A12.83,12.83,0,0,0,199.88,1a14.35,14.35,0,0,0-2.61-.71,17.59,17.59,0,0,0-3-.24,13.49,13.49,0,0,0-10.29,4.52,15,15,0,0,0-2.83,4.73,15.78,15.78,0,0,0-1,5.6,16.58,16.58,0,0,0,1,5.65,14.14,14.14,0,0,0,2.78,4.68,13,13,0,0,0,4.47,3.2,14.8,14.8,0,0,0,6,1.17,15.38,15.38,0,0,0,6.3-1.27,17.74,17.74,0,0,0,4.81-3.09l.16-.15V14H193.44Z" fill="#fff"/>
      <path d="M220.91.28l-13.56,28.8h2.49l3.78-8h16.44l3.75,8h2.57L222.81.28Zm-6.23,18.53,7.14-15.28L229,18.81Z" fill="#fff"/>
      <path d="M255.57,16.35a9.68,9.68,0,0,0,2.91-1.66,7.28,7.28,0,0,0,1.93-2.54,8.06,8.06,0,0,0,.68-3.4,7.94,7.94,0,0,0-.57-3,7.72,7.72,0,0,0-1.59-2.45,9,9,0,0,0-3.44-2.07,14.73,14.73,0,0,0-4.8-.72h-11.9v28.6h2.34V17.28h9l9,11.79h3l-9.27-12A13.35,13.35,0,0,0,255.57,16.35ZM241.13,2.7h9.48a9.76,9.76,0,0,1,6.06,1.65,5.34,5.34,0,0,1,2.07,4.55,5.6,5.6,0,0,1-.54,2.46,5.45,5.45,0,0,1-1.59,1.93,8,8,0,0,1-2.63,1.3,12.85,12.85,0,0,1-3.64.47h-9.2Z" fill="#fff"/>
      <polygon points="285.71 0.47 275.24 15.21 264.7 0.47 261.81 0.47 274.04 17.42 274.04 29.07 276.38 29.07 276.38 17.42 288.56 0.47 285.71 0.47" fill="#fff"/>
      <path d="M70.92,37.91h3.17a4,4,0,0,1,1.29.19,2.35,2.35,0,0,1,.9.54,2,2,0,0,1,.41.64,2.07,2.07,0,0,1,.15.79v0a2.07,2.07,0,0,1-.18.87,1.88,1.88,0,0,1-.5.66,2.54,2.54,0,0,1-.77.44,3.67,3.67,0,0,1-1,.21L77,45.59h-.47L74,42.31H71.29v3.28h-.37ZM74,42A3.68,3.68,0,0,0,75,41.83a2.35,2.35,0,0,0,.78-.38,1.64,1.64,0,0,0,.48-.58,1.69,1.69,0,0,0,.16-.75v0a1.62,1.62,0,0,0-.63-1.35,2.83,2.83,0,0,0-1.77-.49H71.29V42Z" fill="#fff"/>
      <path d="M78.3,37.91h5.4v.34h-5v3.3h4.55v.34H78.68v3.35h5.09v.34H78.3Z" fill="#fff"/>
      <path d="M88,37.86h.35L92,45.59h-.41l-1-2.24H85.78l-1.05,2.24h-.38ZM90.36,43,88.15,38.3,85.94,43Z" fill="#fff"/>
      <path d="M93,37.91h.37v7.33H98v.34H93Z" fill="#fff"/>
      <path d="M101.62,37.91H107v.34h-5v3.3h4.55v.34H102v3.35h5.09v.34h-5.46Z" fill="#fff"/>
      <path d="M110.92,45.7a4.24,4.24,0,0,1-1.65-.31,4.82,4.82,0,0,1-1.41-.91l.25-.27a4.42,4.42,0,0,0,1.3.87,3.89,3.89,0,0,0,1.53.29,3,3,0,0,0,.9-.12,2.09,2.09,0,0,0,.7-.36,1.58,1.58,0,0,0,.44-.54,1.46,1.46,0,0,0,.15-.67v0A1.57,1.57,0,0,0,113,43a1.17,1.17,0,0,0-.38-.47,2.74,2.74,0,0,0-.73-.38,8.06,8.06,0,0,0-1.15-.31,8,8,0,0,1-1.2-.33,3,3,0,0,1-.81-.43,1.48,1.48,0,0,1-.46-.57,1.8,1.8,0,0,1-.14-.74v0a1.66,1.66,0,0,1,.19-.77,2,2,0,0,1,.52-.64,2.39,2.39,0,0,1,.78-.43,3.11,3.11,0,0,1,1-.15,4.11,4.11,0,0,1,1.43.24,4.42,4.42,0,0,1,1.18.66L113,39a3.77,3.77,0,0,0-2.4-.85,2.64,2.64,0,0,0-.86.13,2.09,2.09,0,0,0-.66.36,1.64,1.64,0,0,0-.42.51,1.33,1.33,0,0,0-.15.61v0a1.52,1.52,0,0,0,.11.59,1.22,1.22,0,0,0,.38.48,2.61,2.61,0,0,0,.73.38,7.82,7.82,0,0,0,1.16.31,7.64,7.64,0,0,1,1.21.33,2.92,2.92,0,0,1,.81.44,1.5,1.5,0,0,1,.44.57,1.81,1.81,0,0,1,.14.72v0a1.81,1.81,0,0,1-.19.82,2,2,0,0,1-.52.65,2.37,2.37,0,0,1-.81.43A3.48,3.48,0,0,1,110.92,45.7Z" fill="#fff"/>
      <path d="M116.84,38.25h-2.73v-.34H120v.34h-2.74v7.33h-.37Z" fill="#fff"/>
      <path d="M123.89,37.86h.35l3.64,7.73h-.41l-1-2.24h-4.75l-1.05,2.24h-.38ZM126.27,43l-2.21-4.71L121.85,43Z" fill="#fff"/>
      <path d="M130.92,38.25h-2.73v-.34H134v.34h-2.74v7.33h-.37Z" fill="#fff"/>
      <path d="M135,37.91h5.4v.34h-5v3.3h4.55v.34H135.4v3.35h5.09v.34H135Z" fill="#fff"/>
      <path d="M146.28,41.89H144v-.34h2.27V39.24h.35v2.31h2.26v.34h-2.26v2.32h-.35Z" fill="#fff"/>
      <path d="M152.87,37.91h.35l3.24,4.67,3.23-4.67h.35v7.67h-.37v-7l-3.21,4.6h0l-3.21-4.6v7h-.37Z" fill="#fff"/>
      <path d="M164.72,37.86h.35l3.64,7.73h-.41l-1-2.24h-4.75l-1.05,2.24h-.38ZM167.1,43l-2.21-4.71L162.68,43Z" fill="#fff"/>
      <path d="M169.74,37.91h3.17a4,4,0,0,1,1.29.19,2.34,2.34,0,0,1,.9.54,2,2,0,0,1,.41.64,2.09,2.09,0,0,1,.15.79v0a2.11,2.11,0,0,1-.17.87,1.92,1.92,0,0,1-.5.66,2.59,2.59,0,0,1-.77.44,3.67,3.67,0,0,1-1,.21l2.55,3.32h-.47l-2.5-3.28h-2.72v3.28h-.37ZM172.81,42a3.69,3.69,0,0,0,1.05-.14,2.32,2.32,0,0,0,.78-.38,1.64,1.64,0,0,0,.48-.58,1.7,1.7,0,0,0,.16-.75v0a1.62,1.62,0,0,0-.63-1.35,2.84,2.84,0,0,0-1.77-.49h-2.77V42Z" fill="#fff"/>
      <path d="M177.13,37.91h.37V43l5.14-5.13h.52l-3.34,3.3,3.48,4.37h-.48l-3.25-4.12-2,2v2.09h-.37Z" fill="#fff"/>
      <path d="M184.35,37.91h5.4v.34h-5v3.3h4.55v.34h-4.55v3.35h5.09v.34h-5.46Z" fill="#fff"/>
      <path d="M193.1,38.25h-2.73v-.34h5.84v.34h-2.74v7.33h-.37Z" fill="#fff"/>
      <path d="M197.29,37.91h.37v7.67h-.37Z" fill="#fff"/>
      <path d="M199.47,37.91h.34l5.6,7v-7h.37v7.67h-.29l-5.65-7.09v7.09h-.37Z" fill="#fff"/>
      <path d="M211,45.72a4,4,0,0,1-1.62-.31,3.48,3.48,0,0,1-1.19-.85,3.77,3.77,0,0,1-.75-1.26,4.41,4.41,0,0,1-.26-1.52v0a4.19,4.19,0,0,1,.27-1.49A4,4,0,0,1,208.2,39,3.61,3.61,0,0,1,211,37.78a4.62,4.62,0,0,1,.82.07,3.8,3.8,0,0,1,.7.19,3.55,3.55,0,0,1,.62.31,5.53,5.53,0,0,1,.57.43l-.24.28q-.25-.21-.51-.38a3.24,3.24,0,0,0-.56-.3,4,4,0,0,0-.65-.19,3.89,3.89,0,0,0-.77-.07,3.16,3.16,0,0,0-1.39.3,3.36,3.36,0,0,0-1.07.8,3.59,3.59,0,0,0-.69,1.15,3.93,3.93,0,0,0-.24,1.36v0a4.11,4.11,0,0,0,.24,1.4,3.45,3.45,0,0,0,.68,1.15,3.25,3.25,0,0,0,1.08.78,3.44,3.44,0,0,0,1.45.29,3.67,3.67,0,0,0,.78-.08,4.48,4.48,0,0,0,.71-.22,4.25,4.25,0,0,0,.62-.31,4.31,4.31,0,0,0,.52-.37V42h-2.73v-.36H214v2.86a4.8,4.8,0,0,1-1.3.83A4.12,4.12,0,0,1,211,45.72Z" fill="#fff"/>
    </g>
  </g>
</svg>
