<svg id="Layer_1" data-name="Layer 1" xmlns="http://www.w3.org/2000/svg" viewBox="0 0 126 96.84"><defs><style>.cls-1{fill:#fff;}.cls-2{fill:#f2f2f2;}</style></defs><title>1</title><path class="cls-1" d="M85.3,0A18.41,18.41,0,1,0,103.7,18.41,18.41,18.41,0,0,0,85.3,0Zm0,31.15A12.74,12.74,0,1,1,98,18.41,12.74,12.74,0,0,1,85.3,31.15Z"/><polygon class="cls-1" points="56.8 36.81 62.47 36.81 62.47 0 56.8 0 56.8 15.57 39.81 15.57 39.81 0 34.15 0 34.15 36.81 39.81 36.81 39.81 21.24 56.8 21.24 56.8 36.81"/><polygon class="cls-1" points="34.01 79.29 59.47 79.29 59.47 73.63 39.67 73.63 39.67 63.71 56.64 63.71 56.64 58.05 39.67 58.05 39.67 48.14 59.47 48.14 59.47 42.48 34.01 42.48 34.01 79.29"/><path class="cls-1" d="M5.83,11.33s0-5.66,8.5-5.66,8.5,5.66,8.5,5.66h5.66S28.49,0,14.33,0,.17,11.33.17,11.33C.17,25.5,22.82,17,22.82,25.49c0,0,0,5.66-8.5,5.66s-8.5-5.66-8.5-5.66H.17s0,11.33,14.16,11.33S28.49,25.49,28.49,25.49C28.49,11.37,5.83,19.31,5.83,11.33Z"/><polygon class="cls-1" points="120.34 79.29 126 79.29 126 42.48 120.34 42.48 120.34 58.05 103.35 58.05 103.35 42.48 97.69 42.48 97.69 79.29 103.35 79.29 103.35 63.71 120.34 63.71 120.34 79.29"/><path class="cls-1" d="M69.37,53.8s0-5.66,8.5-5.66,8.5,5.66,8.5,5.66H92s0-11.33-14.16-11.33S63.7,53.8,63.7,53.8C63.7,68,86.36,59.45,86.36,68c0,0,0,5.66-8.5,5.66S69.37,68,69.37,68H63.7s0,11.33,14.16,11.33S92,68,92,68C92,53.84,69.37,61.79,69.37,53.8Z"/><path class="cls-1" d="M27.44,53.81A11.33,11.33,0,0,0,16.11,42.48H.52V79.29H6.16V65.13h9.63l7.35,14.16H30.2L21.9,63.55A11.43,11.43,0,0,0,27.44,53.81Zm-5.68,0a5.66,5.66,0,0,1-5.66,5.65H6.16V48.14H16.1a5.66,5.66,0,0,1,5.66,5.66Z"/><rect class="cls-1" y="84.94" width="125.93" height="11.9"/><path class="cls-2" d="M11.57,92.09l.08,1.25a3.33,3.33,0,0,1-2.07.51c-1.87,0-3.23-.94-3.23-3s1.36-3,3.23-3a3.12,3.12,0,0,1,2.07.5l-.08,1.25h-.08A1.67,1.67,0,0,0,9.59,88c-.91,0-2.52.18-2.52,2.89s1.64,2.89,2.52,2.89a1.69,1.69,0,0,0,1.9-1.68Z"/><path class="cls-2" d="M30.56,93.76v.08H28.94v-.08c.29,0,.59-.06.14-1l-.37-.86H26c-.52,1.34-.76,1.86.38,1.86v.08H24.51v-.08c.48,0,.72-.14,1.43-2l1.54-3.81h0L29.8,93C30.1,93.68,30.28,93.75,30.56,93.76Zm-1.88-1.93-1.35-3.12-1.27,3.12Z"/><path class="cls-2" d="M44.93,92.68c0,1.07,0,1.07.76,1.07v.08H43.81v-.08c.52,0,.63,0,.63-1V88.6c0-.64,0-.61-.54-.61v-.07h1c1.9,0,3.08.11,3.08,1.7s-1.18,1.67-3.08,1.67Zm0-1.47c1.4,0,2.56,0,2.56-1.59S46.23,88,44.93,88Z"/><path class="cls-2" d="M62.48,87.94V88c-.41,0-.52.06-.52.58v4.48c0,.57.12.7.52.7v.08H60.86v-.08c.41,0,.52-.13.52-.7V88.59c0-.52-.1-.58-.52-.58v-.07Z"/><path class="cls-2" d="M80.73,87.92v1.27h-.09c0-1.21-1.15-1.2-1.42-1.2h-.94v5.23c0,.54.17.54.57.54v.08H77.2v-.08c.4,0,.57,0,.57-.54V88h-.94c-.59,0-1.42,0-1.42,1.2h-.08V87.92Z"/><path class="cls-2" d="M100,93.76v.08H98.39v-.08c.29,0,.59-.06.14-1l-.37-.86H95.48c-.52,1.34-.76,1.86.38,1.86v.08H94v-.08c.48,0,.71-.14,1.43-2l1.54-3.81h0L99.25,93C99.55,93.68,99.72,93.75,100,93.76Zm-1.88-1.93-1.35-3.12-1.27,3.12Z"/><path class="cls-2" d="M117.4,92v1.82h-4.09v-.08c.41,0,.37-.27.37-.84V88.66c0-.51,0-.67-.45-.67v-.07h1.51V88c-.41,0-.51.14-.51.75v5h.34c2,0,2.75,0,2.75-1.75Z"/></svg>