<svg id="Layer_1" data-name="Layer 1" xmlns="http://www.w3.org/2000/svg" viewBox="0 0 234.22 58.91"><defs><style>.cls-1{fill:#fff;}</style></defs><title>4</title><polygon class="cls-1" points="54.5 16.88 60.09 16.88 60.09 11.29 65.68 11.29 65.68 5.7 60.09 5.7 60.09 0.11 54.5 0.11 54.5 5.7 48.91 5.7 48.91 5.71 51.7 11.29 54.5 11.29 54.5 16.88"/><polygon class="cls-1" points="46.11 33.65 37.73 16.88 29.34 33.65 46.11 33.65"/><polygon class="cls-1" points="50.31 42.03 25.15 42.03 16.77 58.8 58.69 58.8 50.31 42.03"/><path class="cls-1" d="M97.89,21,90.06,37.73h3.08L95.36,33h7l2.17,4.74h3L100,21Zm-1.3,9.29,2.34-4.93,2.25,4.93Z"/><path class="cls-1" d="M116.21,21h-6.87V37.73h6a9.83,9.83,0,0,0,6.5-2,7.79,7.79,0,0,0,2.64-6.29,8.57,8.57,0,0,0-2.07-6.09A8.25,8.25,0,0,0,116.21,21Zm-4.13,2.66h4.11a5.6,5.6,0,0,1,4.26,1.48,6,6,0,0,1,1.31,4.23,5.27,5.27,0,0,1-1.6,4.22,7,7,0,0,1-4.73,1.45h-3.35Z"/><polygon class="cls-1" points="138.3 21.05 132.9 33.41 127.28 21.05 124.34 21.05 131.9 37.73 133.89 37.73 141.25 21.05 138.3 21.05"/><path class="cls-1" d="M145.85,21,138,37.73h3.08L143.33,33h7l2.17,4.74h3L147.93,21Zm-1.3,9.29,2.34-4.93,2.25,4.93Z"/><path class="cls-1" d="M168.71,32.9q-1.56-1.9-4-4.86-3.55-4.26-5.45-6.68L159,21h-2.37V37.73h2.74v-12l9.77,12h2.34V21h-2.74Z"/><polygon class="cls-1" points="187.24 21.05 172.98 21.05 172.98 23.7 178.74 23.7 178.74 37.73 181.49 37.73 181.49 23.7 187.24 23.7 187.24 21.05"/><path class="cls-1" d="M192.29,21l-7.82,16.68h3.08L189.76,33h7l2.17,4.74h3L194.36,21ZM191,30.34l2.34-4.93,2.25,4.93Z"/><path class="cls-1" d="M219,28.76h-9.1v2.66h6.47a3.58,3.58,0,0,1-1.57,2.66,6.28,6.28,0,0,1-3.86,1.15,6.78,6.78,0,0,1-4.7-1.52,5.46,5.46,0,0,1-1.64-4.31,5.59,5.59,0,0,1,1.63-4.3,6.33,6.33,0,0,1,4.57-1.56c3.1,0,4.8,1.16,5.38,3.64l2.73-.35a6.89,6.89,0,0,0-3.08-4.72,9.64,9.64,0,0,0-5-1.23,9.06,9.06,0,0,0-6.48,2.3,8.23,8.23,0,0,0-2.44,6.24,8,8,0,0,0,2.56,6.29,9.47,9.47,0,0,0,6.51,2.16,9.33,9.33,0,0,0,5.37-1.54,6.42,6.42,0,0,0,2.84-5.6c0-.32,0-.73-.07-1.25Z"/><polygon class="cls-1" points="223.77 35.08 223.77 30.42 232.93 30.42 232.93 27.77 223.77 27.77 223.77 23.7 234.11 23.7 234.11 21.05 221.03 21.05 221.03 37.73 234.22 37.73 234.22 35.08 223.77 35.08"/><rect class="cls-1" x="75.31" y="0.11" width="0.35" height="58.69"/><polygon class="cls-1" points="0 58.8 0 0.11 29.34 0.11 0 58.8"/><path class="cls-1" d="M95.38,1.33V7.59h8.54V8.74H95.38v8.08H94.19V.17h11.18V1.33Z"/><path class="cls-1" d="M120.16,14.71a9.42,9.42,0,0,1-12.27,0,8.5,8.5,0,0,1-2.22-6.24,8.08,8.08,0,0,1,2.24-6.09,9.77,9.77,0,0,1,12.26,0,8,8,0,0,1,2.25,6.09A8.47,8.47,0,0,1,120.16,14.71Zm-.84-11.45a8.46,8.46,0,0,0-10.57,0,7,7,0,0,0-1.9,5.24,7.39,7.39,0,0,0,1.91,5.36,7,7,0,0,0,5.26,2,7,7,0,0,0,5.3-2,7.4,7.4,0,0,0,1.9-5.39A7,7,0,0,0,119.33,3.25Z"/><path class="cls-1" d="M136.54,15.52a7.3,7.3,0,0,1-5,1.47,7.2,7.2,0,0,1-5-1.5q-1.75-1.57-1.75-5V.17H126V10.53q0,5.3,5.56,5.3t5.54-5.23V.17h1.19V10.58Q138.28,13.95,136.54,15.52Z"/><path class="cls-1" d="M153.75,16.82,142.28,2V16.82h-1.19V.17h1.23q2,2.68,5.73,7.39,4,5.06,5.73,7.31V.17H155V16.82Z"/><path class="cls-1" d="M163.73,16.82h-5.47V.17h6.36a7.58,7.58,0,0,1,5.91,2.23,8.86,8.86,0,0,1,1.93,6.11A7.92,7.92,0,0,1,170,14.78,9.12,9.12,0,0,1,163.73,16.82Zm5.94-13.58a6.43,6.43,0,0,0-5.08-1.91h-5.15V15.66h4.35a7.81,7.81,0,0,0,5.51-1.82,6.89,6.89,0,0,0,2-5.33A7.68,7.68,0,0,0,169.67,3.24Z"/><path class="cls-1" d="M175.1,16.82V.17h12V1.33H176.29V7.59h9.59V8.74h-9.59v6.92h10.94v1.15Z"/><path class="cls-1" d="M200.45,8.69a3.83,3.83,0,0,1,2.44,3.9v4.22h-1.19V12.64q0-3.26-4.33-3.26h-6.22v7.44H190V.17h7.61q5.54,0,5.54,4.37A4.1,4.1,0,0,1,200.45,8.69Zm-2.82-7.36h-6.47V8.17h6.1a5.83,5.83,0,0,0,3.21-.78,3.08,3.08,0,0,0,1.47-2.77Q201.94,1.33,197.63,1.33Z"/><path class="cls-1" d="M212.34,17a9.11,9.11,0,0,1-4.89-1.15,4.77,4.77,0,0,1-2.31-4.39v-.59h1.19v.49q0,4.49,6,4.49a8.09,8.09,0,0,0,3.47-.66,2.8,2.8,0,0,0,1.79-2.65,2.62,2.62,0,0,0-.65-1.92,4.6,4.6,0,0,0-1.84-1q-.7-.2-3.31-.79a18,18,0,0,1-4.05-1.23,3.61,3.61,0,0,1-2.12-3.36Q205.66,0,211.9,0q6.52,0,6.59,5.35h-1.16q-.14-2.58-1.68-3.46a7.59,7.59,0,0,0-3.75-.74q-5.05,0-5.05,3.12a2.46,2.46,0,0,0,1.37,2.28,12.28,12.28,0,0,0,3.24,1,18,18,0,0,1,5.66,1.69,3.73,3.73,0,0,1,1.7,3.39,3.75,3.75,0,0,1-2.26,3.49A9,9,0,0,1,212.34,17Z"/><path class="cls-1" d="M104.8,45.78q-1.77-2.7-5.69-2.7a6.86,6.86,0,0,0-7.34,7.36,7.38,7.38,0,0,0,1.9,5.32,6.83,6.83,0,0,0,5.18,2A6.63,6.63,0,0,0,104.59,55l1,.69a7.84,7.84,0,0,1-6.73,3.22,8.14,8.14,0,0,1-6.06-2.26,8.29,8.29,0,0,1-2.24-6.11,8.54,8.54,0,0,1,2.31-6.28,8.36,8.36,0,0,1,6.22-2.33q4.55,0,6.69,3.19Z"/><path class="cls-1" d="M121.22,58.74l-2.27-5.23h-8.41l-2.33,5.23h-1.36l7.41-16.64h1.1l7.15,16.64Zm-6.4-14.81L111,52.36h7.46Z"/><path class="cls-1" d="M131.05,51.47h-5.9v7.26H124V42.1h7.34q5.75,0,5.76,4.76a4,4,0,0,1-2,3.61A7.51,7.51,0,0,1,131.05,51.47Zm.41-8.22h-6.31v7.07h6.33a5.19,5.19,0,0,0,3-.83,3,3,0,0,0,1.38-2.62Q135.87,43.25,131.46,43.25Z"/><path class="cls-1" d="M150.27,43.25V58.74h-1.19V43.25h-6V42.1h13.26v1.15Z"/><path class="cls-1" d="M169.64,58.79l-2.27-5.23H159l-2.33,5.23h-1.36l7.41-16.64h1.09l7.15,16.64ZM163.25,44l-3.81,8.43h7.46Z"/><path class="cls-1" d="M172.21,58.79V42.15h1.19V57.64h10v1.15Z"/><path class="cls-1" d="M139.71,58.74V42.1h1.19V57.59h0v1.15Z"/></svg>