<svg id="Layer_1" xmlns="http://www.w3.org/2000/svg" viewBox="0 0 300 100"><style>.st0{fill:#FFFFFF;}</style><path class="st0" d="M108 19.1v14.1l24.6-14.1zM65.1 57.5h.2c-.2-.2-.3-.4-.4-.6 0 .1-.1.1-.1.2-.1.2.1.4.3.4zM63.6 43.5c-.2 0-.4.2-.4.4s.2.4.4.4h.1c.1-.2.2-.3.3-.5-.1-.2-.2-.3-.4-.3zM63.5 54.5c-.1-.1-.1-.3-.2-.4v.1c0 .1 0 .2.2.3zM63.9 55.4c0 .1.1.1.1.2 0-.1-.1-.2-.1-.2z"/><path class="st0" d="M63.3 55.6c0 .2.2.4.4.4s.4-.2.4-.4v-.1c0-.1-.1-.1-.1-.2-.1-.1-.2-.1-.3-.1-.3.1-.4.2-.4.4z"/><circle class="st0" cx="63.6" cy="57.1" r=".4"/><path class="st0" d="M63.6 58.2c-.2 0-.4.2-.4.4 0 .1.1.2.2.3l.6-.3c0-.2-.2-.4-.4-.4zM62.2 42.7c.1 0 .2-.1.3-.2l-.6-.4v.2c-.1.3.1.4.3.4z"/><circle class="st0" cx="62.2" cy="43.8" r=".4"/><circle class="st0" cx="62.2" cy="45.3" r=".4"/><circle class="st0" cx="62.2" cy="46.8" r=".4"/><circle class="st0" cx="62.2" cy="48.3" r=".4"/><path class="st0" d="M62.5 49.9c0-.1.1-.1.1-.2s0-.1-.1-.2v.4zM62.2 49.4c-.2 0-.4.2-.4.4s.2.4.4.4c.1 0 .2-.1.3-.2v-.3-.1c-.1-.2-.2-.2-.3-.2z"/><circle class="st0" cx="62.2" cy="51.2" r=".4"/><circle class="st0" cx="62.2" cy="52.7" r=".4"/><circle class="st0" cx="62.2" cy="54.2" r=".4"/><circle class="st0" cx="62.2" cy="55.6" r=".4"/><circle class="st0" cx="62.2" cy="57.1" r=".4"/><circle class="st0" cx="62.2" cy="58.6" r=".4"/><circle class="st0" cx="60.7" cy="42.4" r=".4"/><circle class="st0" cx="60.7" cy="43.8" r=".4"/><circle class="st0" cx="60.7" cy="45.3" r=".4"/><circle class="st0" cx="60.7" cy="46.8" r=".4"/><circle class="st0" cx="60.7" cy="48.3" r=".4"/><circle class="st0" cx="60.7" cy="49.7" r=".4"/><circle class="st0" cx="60.7" cy="51.2" r=".4"/><circle class="st0" cx="60.7" cy="52.7" r=".4"/><circle class="st0" cx="60.7" cy="54.2" r=".4"/><circle class="st0" cx="60.7" cy="55.6" r=".4"/><circle class="st0" cx="60.7" cy="57.1" r=".4"/><circle class="st0" cx="60.7" cy="58.6" r=".4"/><path class="st0" d="M60.7 59.7c-.2 0-.4.2-.4.4s.2.4.4.4h.1l.2-.1c.1-.1.1-.2.1-.3 0-.3-.2-.4-.4-.4zM58.8 40.9c0 .2.2.4.4.4s.4-.2.4-.4l-.6-.3c-.1 0-.2.2-.2.3z"/><circle class="st0" cx="59.2" cy="42.4" r=".4"/><circle class="st0" cx="59.2" cy="43.8" r=".4"/><circle class="st0" cx="59.2" cy="45.3" r=".4"/><circle class="st0" cx="59.2" cy="46.8" r=".4"/><circle class="st0" cx="59.2" cy="48.3" r=".4"/><circle class="st0" cx="59.2" cy="49.7" r=".4"/><circle class="st0" cx="59.2" cy="51.2" r=".4"/><circle class="st0" cx="59.2" cy="52.7" r=".4"/><circle class="st0" cx="59.2" cy="54.2" r=".4"/><circle class="st0" cx="59.2" cy="55.6" r=".4"/><circle class="st0" cx="59.2" cy="57.1" r=".4"/><circle class="st0" cx="59.2" cy="58.6" r=".4"/><circle class="st0" cx="59.2" cy="60" r=".4"/><path class="st0" d="M58.8 61.5l.5-.3c-.1 0-.1-.1-.2-.1-.1.1-.3.2-.3.4zM57.6 39.8l-.2-.1c.1 0 .2.1.2.1z"/><circle class="st0" cx="57.7" cy="40.9" r=".4"/><circle class="st0" cx="57.7" cy="42.4" r=".4"/><circle class="st0" cx="57.7" cy="43.8" r=".4"/><circle class="st0" cx="57.7" cy="45.3" r=".4"/><circle class="st0" cx="57.7" cy="46.8" r=".4"/><circle class="st0" cx="57.7" cy="48.3" r=".4"/><circle class="st0" cx="57.7" cy="49.7" r=".4"/><circle class="st0" cx="57.7" cy="51.2" r=".4"/><circle class="st0" cx="57.7" cy="52.7" r=".4"/><circle class="st0" cx="57.7" cy="54.2" r=".4"/><circle class="st0" cx="57.7" cy="55.6" r=".4"/><circle class="st0" cx="57.7" cy="57.1" r=".4"/><circle class="st0" cx="57.7" cy="58.6" r=".4"/><circle class="st0" cx="57.7" cy="60" r=".4"/><circle class="st0" cx="57.7" cy="61.5" r=".4"/><circle class="st0" cx="56.3" cy="39.4" r=".4"/><circle class="st0" cx="56.3" cy="40.9" r=".4"/><circle class="st0" cx="56.3" cy="42.4" r=".4"/><circle class="st0" cx="56.3" cy="43.8" r=".4"/><circle class="st0" cx="56.3" cy="45.3" r=".4"/><circle class="st0" cx="56.3" cy="46.8" r=".4"/><circle class="st0" cx="56.3" cy="48.3" r=".4"/><circle class="st0" cx="56.3" cy="49.7" r=".4"/><circle class="st0" cx="56.3" cy="51.2" r=".4"/><circle class="st0" cx="56.3" cy="52.7" r=".4"/><circle class="st0" cx="56.3" cy="54.2" r=".4"/><circle class="st0" cx="56.3" cy="55.6" r=".4"/><circle class="st0" cx="56.3" cy="57.1" r=".4"/><circle class="st0" cx="56.3" cy="58.6" r=".4"/><circle class="st0" cx="56.3" cy="60" r=".4"/><circle class="st0" cx="56.3" cy="61.5" r=".4"/><path class="st0" d="M56.3 62.6c-.2 0-.4.2-.4.4 0 .1 0 .1.1.2l.6-.4c-.1-.1-.2-.2-.3-.2zM54.8 38.3c.1 0 .1 0 .2-.1l-.6-.3c0 .3.2.4.4.4z"/><circle class="st0" cx="54.8" cy="39.4" r=".4"/><circle class="st0" cx="54.8" cy="40.9" r=".4"/><circle class="st0" cx="54.8" cy="42.4" r=".4"/><circle class="st0" cx="54.8" cy="43.8" r=".4"/><circle class="st0" cx="54.8" cy="45.3" r=".4"/><circle class="st0" cx="54.8" cy="46.8" r=".4"/><circle class="st0" cx="54.8" cy="48.3" r=".4"/><circle class="st0" cx="54.8" cy="49.7" r=".4"/><circle class="st0" cx="54.8" cy="51.2" r=".4"/><circle class="st0" cx="54.8" cy="52.7" r=".4"/><circle class="st0" cx="54.8" cy="54.2" r=".4"/><circle class="st0" cx="54.8" cy="55.6" r=".4"/><circle class="st0" cx="54.8" cy="57.1" r=".4"/><circle class="st0" cx="54.8" cy="58.6" r=".4"/><circle class="st0" cx="54.8" cy="60" r=".4"/><circle class="st0" cx="54.8" cy="61.5" r=".4"/><circle class="st0" cx="54.8" cy="63" r=".4"/><circle class="st0" cx="53.3" cy="37.9" r=".4"/><circle class="st0" cx="53.3" cy="39.4" r=".4"/><circle class="st0" cx="53.3" cy="40.9" r=".4"/><circle class="st0" cx="53.3" cy="42.4" r=".4"/><circle class="st0" cx="53.3" cy="43.8" r=".4"/><circle class="st0" cx="53.3" cy="45.3" r=".4"/><circle class="st0" cx="53.3" cy="46.8" r=".4"/><circle class="st0" cx="53.3" cy="48.3" r=".4"/><circle class="st0" cx="53.3" cy="49.7" r=".4"/><circle class="st0" cx="53.3" cy="51.2" r=".4"/><circle class="st0" cx="53.3" cy="52.7" r=".4"/><circle class="st0" cx="53.3" cy="54.2" r=".4"/><circle class="st0" cx="53.3" cy="55.6" r=".4"/><circle class="st0" cx="53.3" cy="57.1" r=".4"/><circle class="st0" cx="53.3" cy="58.6" r=".4"/><circle class="st0" cx="53.3" cy="60" r=".4"/><circle class="st0" cx="53.3" cy="61.5" r=".4"/><circle class="st0" cx="53.3" cy="63" r=".4"/><path class="st0" d="M53.3 64.8c.2 0 .4-.2.4-.3l-.5.3h.1zM53.3 64.1c-.2 0-.4.2-.4.4 0 .1.1.3.2.3l.5-.3c.1-.2-.1-.4-.3-.4zM51.8 36.8c.1 0 .3-.1.3-.2l-.6-.4c0 .1-.1.1-.1.2.1.3.2.4.4.4z"/><circle class="st0" cx="51.8" cy="37.9" r=".4"/><circle class="st0" cx="51.8" cy="39.4" r=".4"/><circle class="st0" cx="51.8" cy="40.9" r=".4"/><circle class="st0" cx="51.8" cy="42.4" r=".4"/><circle class="st0" cx="51.8" cy="43.8" r=".4"/><circle class="st0" cx="51.8" cy="45.3" r=".4"/><circle class="st0" cx="51.8" cy="46.8" r=".4"/><circle class="st0" cx="51.8" cy="48.3" r=".4"/><circle class="st0" cx="51.8" cy="49.7" r=".4"/><circle class="st0" cx="51.8" cy="51.2" r=".4"/><circle class="st0" cx="51.8" cy="52.7" r=".4"/><circle class="st0" cx="51.8" cy="54.2" r=".4"/><circle class="st0" cx="51.8" cy="55.6" r=".4"/><circle class="st0" cx="51.8" cy="57.1" r=".4"/><circle class="st0" cx="51.8" cy="58.6" r=".4"/><circle class="st0" cx="51.8" cy="60" r=".4"/><circle class="st0" cx="51.8" cy="61.5" r=".4"/><circle class="st0" cx="51.8" cy="63" r=".4"/><circle class="st0" cx="51.8" cy="64.5" r=".4"/><path class="st0" d="M51.6 65.7l.2-.1c-.1 0-.2 0-.2.1z"/><circle class="st0" cx="50.4" cy="36.5" r=".4"/><circle class="st0" cx="50.4" cy="37.9" r=".4"/><circle class="st0" cx="50.4" cy="39.4" r=".4"/><circle class="st0" cx="50.4" cy="40.9" r=".4"/><circle class="st0" cx="50.4" cy="42.4" r=".4"/><circle class="st0" cx="50.4" cy="43.8" r=".4"/><circle class="st0" cx="50.4" cy="45.3" r=".4"/><circle class="st0" cx="50.4" cy="46.8" r=".4"/><circle class="st0" cx="50.4" cy="48.3" r=".4"/><circle class="st0" cx="50.4" cy="49.7" r=".4"/><circle class="st0" cx="50.4" cy="51.2" r=".4"/><circle class="st0" cx="50.4" cy="52.7" r=".4"/><circle class="st0" cx="50.4" cy="54.2" r=".4"/><circle class="st0" cx="50.4" cy="55.6" r=".4"/><circle class="st0" cx="50.4" cy="57.1" r=".4"/><circle class="st0" cx="50.4" cy="58.6" r=".4"/><circle class="st0" cx="50.4" cy="60" r=".4"/><circle class="st0" cx="50.4" cy="61.5" r=".4"/><circle class="st0" cx="50.4" cy="63" r=".4"/><circle class="st0" cx="50.4" cy="64.5" r=".4"/><circle class="st0" cx="50.4" cy="65.9" r=".4"/><path class="st0" d="M48.5 35c0 .2.2.4.4.4s.4-.2.4-.4v-.1l-.5-.3c-.2.1-.3.2-.3.4z"/><circle class="st0" cx="48.9" cy="36.5" r=".4"/><circle class="st0" cx="48.9" cy="37.9" r=".4"/><circle class="st0" cx="48.9" cy="39.4" r=".4"/><circle class="st0" cx="48.9" cy="40.9" r=".4"/><circle class="st0" cx="48.9" cy="42.4" r=".4"/><circle class="st0" cx="48.9" cy="43.8" r=".4"/><circle class="st0" cx="48.9" cy="45.3" r=".4"/><circle class="st0" cx="48.9" cy="46.8" r=".4"/><circle class="st0" cx="48.9" cy="48.3" r=".4"/><circle class="st0" cx="48.9" cy="49.7" r=".4"/><circle class="st0" cx="48.9" cy="51.2" r=".4"/><circle class="st0" cx="48.9" cy="52.7" r=".4"/><circle class="st0" cx="48.9" cy="54.2" r=".4"/><circle class="st0" cx="48.9" cy="55.6" r=".4"/><circle class="st0" cx="48.9" cy="57.1" r=".4"/><circle class="st0" cx="48.9" cy="58.6" r=".4"/><circle class="st0" cx="48.9" cy="60" r=".4"/><circle class="st0" cx="48.9" cy="61.5" r=".4"/><circle class="st0" cx="48.9" cy="63" r=".4"/><circle class="st0" cx="48.9" cy="64.5" r=".4"/><circle class="st0" cx="48.9" cy="65.9" r=".4"/><path class="st0" d="M48.5 67.4l.6-.3c-.1 0-.1-.1-.2-.1-.2 0-.4.2-.4.4zM47.4 33.9l-.3-.2c.1.1.2.2.3.2z"/><circle class="st0" cx="47.4" cy="35" r=".4"/><circle class="st0" cx="47.4" cy="36.5" r=".4"/><circle class="st0" cx="47.4" cy="37.9" r=".4"/><circle class="st0" cx="47.4" cy="39.4" r=".4"/><circle class="st0" cx="47.4" cy="40.9" r=".4"/><circle class="st0" cx="47.4" cy="42.4" r=".4"/><circle class="st0" cx="47.4" cy="43.8" r=".4"/><circle class="st0" cx="47.4" cy="45.3" r=".4"/><circle class="st0" cx="47.4" cy="46.8" r=".4"/><circle class="st0" cx="47.4" cy="48.3" r=".4"/><circle class="st0" cx="47.4" cy="49.7" r=".4"/><circle class="st0" cx="47.4" cy="51.2" r=".4"/><circle class="st0" cx="47.4" cy="52.7" r=".4"/><circle class="st0" cx="47.4" cy="54.2" r=".4"/><circle class="st0" cx="47.4" cy="55.6" r=".4"/><circle class="st0" cx="47.4" cy="57.1" r=".4"/><circle class="st0" cx="47.4" cy="58.6" r=".4"/><circle class="st0" cx="47.4" cy="60" r=".4"/><circle class="st0" cx="47.4" cy="61.5" r=".4"/><circle class="st0" cx="47.4" cy="63" r=".4"/><circle class="st0" cx="47.4" cy="64.5" r=".4"/><circle class="st0" cx="47.4" cy="65.9" r=".4"/><circle class="st0" cx="47.4" cy="67.4" r=".4"/><path class="st0" d="M46 33.9c.2 0 .4-.2.4-.4s-.2-.4-.4-.4c-.1.2-.2.4-.3.5 0 .2.1.3.3.3z"/><circle class="st0" cx="46" cy="35" r=".4"/><circle class="st0" cx="46" cy="36.5" r=".4"/><circle class="st0" cx="46" cy="37.9" r=".4"/><circle class="st0" cx="46" cy="39.4" r=".4"/><circle class="st0" cx="46" cy="40.9" r=".4"/><circle class="st0" cx="46" cy="42.4" r=".4"/><circle class="st0" cx="46" cy="43.8" r=".4"/><circle class="st0" cx="46" cy="45.3" r=".4"/><circle class="st0" cx="46" cy="46.8" r=".4"/><circle class="st0" cx="46" cy="48.3" r=".4"/><circle class="st0" cx="46" cy="49.7" r=".4"/><circle class="st0" cx="46" cy="51.2" r=".4"/><circle class="st0" cx="46" cy="52.7" r=".4"/><circle class="st0" cx="46" cy="54.2" r=".4"/><circle class="st0" cx="46" cy="55.6" r=".4"/><circle class="st0" cx="46" cy="57.1" r=".4"/><circle class="st0" cx="46" cy="58.6" r=".4"/><circle class="st0" cx="46" cy="60" r=".4"/><circle class="st0" cx="46" cy="61.5" r=".4"/><circle class="st0" cx="46" cy="63" r=".4"/><circle class="st0" cx="46" cy="64.5" r=".4"/><path class="st0" d="M46.3 65.9c0-.2-.2-.4-.4-.4-.1 0-.2 0-.2.1.1.2.2.4.4.6.1 0 .2-.1.2-.3zM44.5 36.8c.2 0 .4-.2.4-.4s-.2-.4-.4-.4l-.3.6c.1.2.2.2.3.2z"/><circle class="st0" cx="44.5" cy="37.9" r=".4"/><circle class="st0" cx="44.5" cy="39.4" r=".4"/><circle class="st0" cx="44.5" cy="40.9" r=".4"/><circle class="st0" cx="44.5" cy="42.4" r=".4"/><circle class="st0" cx="44.5" cy="43.8" r=".4"/><circle class="st0" cx="44.5" cy="45.3" r=".4"/><circle class="st0" cx="44.5" cy="46.8" r=".4"/><circle class="st0" cx="44.5" cy="48.3" r=".4"/><circle class="st0" cx="44.5" cy="49.7" r=".4"/><circle class="st0" cx="44.5" cy="51.2" r=".4"/><circle class="st0" cx="44.5" cy="52.7" r=".4"/><circle class="st0" cx="44.5" cy="54.2" r=".4"/><circle class="st0" cx="44.5" cy="55.6" r=".4"/><circle class="st0" cx="44.5" cy="57.1" r=".4"/><circle class="st0" cx="44.5" cy="58.6" r=".4"/><circle class="st0" cx="44.5" cy="60" r=".4"/><circle class="st0" cx="44.5" cy="61.5" r=".4"/><path class="st0" d="M44.8 63c0-.2-.2-.4-.4-.4-.1 0-.2 0-.2.1l.3.6c.2 0 .3-.1.3-.3zM43.4 39.4c0-.1 0-.2-.1-.3-.1.2-.1.4-.2.6.1.1.3-.1.3-.3zM43 41.3c.2 0 .4-.2.4-.4s-.2-.4-.4-.4c-.1 0-.1 0-.2.1 0 .2-.1.3-.1.5 0 .1.2.2.3.2z"/><circle class="st0" cx="43" cy="42.4" r=".4"/><circle class="st0" cx="43" cy="43.8" r=".4"/><circle class="st0" cx="43" cy="45.3" r=".4"/><circle class="st0" cx="43" cy="46.8" r=".4"/><circle class="st0" cx="43" cy="48.3" r=".4"/><circle class="st0" cx="43" cy="49.7" r=".4"/><circle class="st0" cx="43" cy="51.2" r=".4"/><circle class="st0" cx="43" cy="52.7" r=".4"/><circle class="st0" cx="43" cy="54.2" r=".4"/><circle class="st0" cx="43" cy="55.6" r=".4"/><circle class="st0" cx="43" cy="57.1" r=".4"/><path class="st0" d="M42.6 58.6c0 .2.1.3.3.3-.1-.2-.1-.4-.2-.6 0 .1-.1.2-.1.3z"/><path class="st0" d="M43.4 58.6c0-.2-.2-.4-.4-.4-.1 0-.2.1-.3.1.1.2.1.4.2.6h.1c.2 0 .4-.1.4-.3zM43.1 59.7c.1.2.1.4.2.5 0-.1.1-.1.1-.2s-.1-.2-.3-.3zM41.9 45.2v.4c0-.1.1-.1.1-.2-.1-.1-.1-.2-.1-.2zM41.9 46.8c0-.1-.1-.2-.2-.3 0 .2 0 .4-.1.7.2-.1.3-.3.3-.4zM41.9 48.3c0-.2-.1-.3-.3-.4v.7c.2 0 .3-.2.3-.3zM41.9 49.7c0-.2-.1-.3-.3-.4v.7c.2.1.3-.1.3-.3zM41.9 51.2c0-.2-.1-.3-.3-.4v.7c.2 0 .3-.1.3-.3zM41.9 52.7c0-.1-.1-.3-.2-.3 0 .2 0 .4.1.6 0-.1.1-.2.1-.3zM41.9 54v0zM108 82.9h18l-18-10.4zM74.8 37.3c5.4 0 10 3.5 11.7 8.3l18.2-10.5C99.3 24 87.9 16.4 74.8 16.4c-9 0-17.2 3.6-23.2 9.5L72 37.6c.9-.2 1.8-.3 2.8-.3zM85.5 55.8c-.5.9-1.2 1.8-2 2.5-2.2 2.2-5.3 3.6-8.7 3.6-3.7 0-7.1-1.7-9.3-4.3L47.3 68.2c6 8.8 16.1 14.6 27.5 14.6 11.1 0 21-5.5 27-13.9.6-.9 1.2-1.8 1.7-2.7l-18-10.4zM108 47.4v21.3l24.6 14.2V33.2zM206.5 33.2h-24.6l-9.8 19.9 34.4-19.8zM157.3 33.2h-24.7l16.5 33.2 19-11zM157.3 82.9h24.6L196.7 53l-42.2 24.3z"/><g><circle class="st0" cx="258.8" cy="17.6" r=".4"/><circle class="st0" cx="258.8" cy="19" r=".4"/><circle class="st0" cx="258.8" cy="20.5" r=".4"/><circle class="st0" cx="258.8" cy="21.9" r=".4"/><circle class="st0" cx="258.8" cy="23.4" r=".4"/><circle class="st0" cx="258.8" cy="24.8" r=".4"/><circle class="st0" cx="258.8" cy="26.2" r=".4"/><circle class="st0" cx="258.8" cy="27.7" r=".4"/><circle class="st0" cx="258.8" cy="29.1" r=".4"/><circle class="st0" cx="258.8" cy="30.6" r=".4"/><circle class="st0" cx="258.8" cy="32" r=".4"/><circle class="st0" cx="258.8" cy="33.4" r=".4"/><circle class="st0" cx="258.8" cy="34.9" r=".4"/><circle class="st0" cx="258.8" cy="36.3" r=".4"/><circle class="st0" cx="258.8" cy="37.8" r=".4"/><circle class="st0" cx="258.8" cy="39.2" r=".4"/><circle class="st0" cx="258.8" cy="40.7" r=".4"/><circle class="st0" cx="258.8" cy="42.1" r=".4"/><circle class="st0" cx="258.8" cy="43.5" r=".4"/><circle class="st0" cx="258.8" cy="45" r=".4"/><circle class="st0" cx="258.8" cy="46.4" r=".4"/><circle class="st0" cx="258.8" cy="47.9" r=".4"/><circle class="st0" cx="258.8" cy="49.3" r=".4"/><circle class="st0" cx="258.8" cy="50.7" r=".4"/><circle class="st0" cx="258.8" cy="52.2" r=".4"/><circle class="st0" cx="258.8" cy="53.6" r=".4"/><circle class="st0" cx="258.8" cy="55.1" r=".4"/><circle class="st0" cx="258.8" cy="56.5" r=".4"/><circle class="st0" cx="258.8" cy="58" r=".4"/><circle class="st0" cx="258.8" cy="59.4" r=".4"/><circle class="st0" cx="258.8" cy="60.8" r=".4"/><path class="st0" d="M257.5 17.9z"/><circle class="st0" cx="257.3" cy="19" r=".4"/><circle class="st0" cx="257.3" cy="20.5" r=".4"/><circle class="st0" cx="257.3" cy="21.9" r=".4"/><circle class="st0" cx="257.3" cy="23.4" r=".4"/><circle class="st0" cx="257.3" cy="24.8" r=".4"/><circle class="st0" cx="257.3" cy="26.2" r=".4"/><circle class="st0" cx="257.3" cy="27.7" r=".4"/><circle class="st0" cx="257.3" cy="29.1" r=".4"/><circle class="st0" cx="257.3" cy="30.6" r=".4"/><circle class="st0" cx="257.3" cy="32" r=".4"/><circle class="st0" cx="257.3" cy="33.4" r=".4"/><circle class="st0" cx="257.3" cy="34.9" r=".4"/><circle class="st0" cx="257.3" cy="36.3" r=".4"/><circle class="st0" cx="257.3" cy="37.8" r=".4"/><circle class="st0" cx="257.3" cy="39.2" r=".4"/><circle class="st0" cx="257.3" cy="40.7" r=".4"/><circle class="st0" cx="257.3" cy="42.1" r=".4"/><circle class="st0" cx="257.3" cy="43.5" r=".4"/><circle class="st0" cx="257.3" cy="45" r=".4"/><circle class="st0" cx="257.3" cy="46.4" r=".4"/><circle class="st0" cx="257.3" cy="47.9" r=".4"/><circle class="st0" cx="257.3" cy="49.3" r=".4"/><circle class="st0" cx="257.3" cy="50.7" r=".4"/><circle class="st0" cx="257.3" cy="52.2" r=".4"/><circle class="st0" cx="257.3" cy="53.6" r=".4"/><circle class="st0" cx="257.3" cy="55.1" r=".4"/><circle class="st0" cx="257.3" cy="56.5" r=".4"/><circle class="st0" cx="257.3" cy="58" r=".4"/><circle class="st0" cx="257.3" cy="59.4" r=".4"/><path class="st0" d="M257.3 60.5c-.1 0-.3.1-.3.2l.6.4c0-.1.1-.1.1-.2 0-.3-.2-.4-.4-.4zM255.9 19.4c.2 0 .4-.2.4-.4 0-.1-.1-.2-.2-.3l-.5.3c-.1.2.1.4.3.4z"/><circle class="st0" cx="255.9" cy="20.5" r=".4"/><circle class="st0" cx="255.9" cy="21.9" r=".4"/><circle class="st0" cx="255.9" cy="23.4" r=".4"/><circle class="st0" cx="255.9" cy="24.8" r=".4"/><circle class="st0" cx="255.9" cy="26.2" r=".4"/><circle class="st0" cx="255.9" cy="27.7" r=".4"/><circle class="st0" cx="255.9" cy="29.1" r=".4"/><circle class="st0" cx="255.9" cy="30.6" r=".4"/><circle class="st0" cx="255.9" cy="32" r=".4"/><circle class="st0" cx="255.9" cy="33.4" r=".4"/><circle class="st0" cx="255.9" cy="34.9" r=".4"/><circle class="st0" cx="255.9" cy="36.3" r=".4"/><circle class="st0" cx="255.9" cy="37.8" r=".4"/><circle class="st0" cx="255.9" cy="39.2" r=".4"/><circle class="st0" cx="255.9" cy="40.7" r=".4"/><circle class="st0" cx="255.9" cy="42.1" r=".4"/><circle class="st0" cx="255.9" cy="43.5" r=".4"/><circle class="st0" cx="255.9" cy="45" r=".4"/><circle class="st0" cx="255.9" cy="46.4" r=".4"/><circle class="st0" cx="255.9" cy="47.9" r=".4"/><circle class="st0" cx="255.9" cy="49.3" r=".4"/><circle class="st0" cx="255.9" cy="50.7" r=".4"/><circle class="st0" cx="255.9" cy="52.2" r=".4"/><circle class="st0" cx="255.9" cy="53.6" r=".4"/><circle class="st0" cx="255.9" cy="55.1" r=".4"/><circle class="st0" cx="255.9" cy="56.5" r=".4"/><circle class="st0" cx="255.9" cy="58" r=".4"/><circle class="st0" cx="255.9" cy="59.4" r=".4"/><circle class="st0" cx="254.4" cy="20.5" r=".4"/><circle class="st0" cx="254.4" cy="21.9" r=".4"/><circle class="st0" cx="254.4" cy="23.4" r=".4"/><circle class="st0" cx="254.4" cy="24.8" r=".4"/><circle class="st0" cx="254.4" cy="26.2" r=".4"/><circle class="st0" cx="254.4" cy="27.7" r=".4"/><circle class="st0" cx="254.4" cy="29.1" r=".4"/><circle class="st0" cx="254.4" cy="30.6" r=".4"/><circle class="st0" cx="254.4" cy="32" r=".4"/><circle class="st0" cx="254.4" cy="33.4" r=".4"/><circle class="st0" cx="254.4" cy="34.9" r=".4"/><circle class="st0" cx="254.4" cy="36.3" r=".4"/><circle class="st0" cx="254.4" cy="37.8" r=".4"/><circle class="st0" cx="254.4" cy="39.2" r=".4"/><circle class="st0" cx="254.4" cy="40.7" r=".4"/><circle class="st0" cx="254.4" cy="42.1" r=".4"/><circle class="st0" cx="254.4" cy="43.5" r=".4"/><circle class="st0" cx="254.4" cy="45" r=".4"/><circle class="st0" cx="254.4" cy="46.4" r=".4"/><circle class="st0" cx="254.4" cy="47.9" r=".4"/><circle class="st0" cx="254.4" cy="49.3" r=".4"/><circle class="st0" cx="254.4" cy="50.7" r=".4"/><circle class="st0" cx="254.4" cy="52.2" r=".4"/><circle class="st0" cx="254.4" cy="53.6" r=".4"/><circle class="st0" cx="254.4" cy="55.1" r=".4"/><circle class="st0" cx="254.4" cy="56.5" r=".4"/><circle class="st0" cx="254.4" cy="58" r=".4"/><path class="st0" d="M254.4 59c-.1 0-.1 0-.2.1l.5.3c.1-.2-.1-.4-.3-.4zM253 20.8c.2 0 .4-.2.4-.4v-.2l-.6.4c0 .2.1.2.2.2z"/><circle class="st0" cx="253" cy="21.9" r=".4"/><circle class="st0" cx="253" cy="23.4" r=".4"/><circle class="st0" cx="253" cy="24.8" r=".4"/><circle class="st0" cx="253" cy="26.2" r=".4"/><circle class="st0" cx="253" cy="27.7" r=".4"/><circle class="st0" cx="253" cy="29.1" r=".4"/><circle class="st0" cx="253" cy="30.6" r=".4"/><circle class="st0" cx="253" cy="32" r=".4"/><circle class="st0" cx="253" cy="33.4" r=".4"/><circle class="st0" cx="253" cy="34.9" r=".4"/><circle class="st0" cx="253" cy="36.3" r=".4"/><circle class="st0" cx="253" cy="37.8" r=".4"/><circle class="st0" cx="253" cy="39.2" r=".4"/><circle class="st0" cx="253" cy="40.7" r=".4"/><circle class="st0" cx="253" cy="42.1" r=".4"/><circle class="st0" cx="253" cy="43.5" r=".4"/><circle class="st0" cx="253" cy="45" r=".4"/><circle class="st0" cx="253" cy="46.4" r=".4"/><circle class="st0" cx="253" cy="47.9" r=".4"/><circle class="st0" cx="253" cy="49.3" r=".4"/><circle class="st0" cx="253" cy="50.7" r=".4"/><circle class="st0" cx="253" cy="52.2" r=".4"/><circle class="st0" cx="253" cy="53.6" r=".4"/><circle class="st0" cx="253" cy="55.1" r=".4"/><circle class="st0" cx="253" cy="56.5" r=".4"/><path class="st0" d="M252.9 58.3l-.1-.1c0 .1 0 .1.1.1z"/><path class="st0" d="M253.4 58c0-.2-.2-.4-.4-.4s-.4.2-.4.4c0 .1 0 .2.1.3l.1.1h.1c.3-.1.5-.2.5-.4z"/><circle class="st0" cx="251.6" cy="21.9" r=".4"/><circle class="st0" cx="251.6" cy="23.4" r=".4"/><circle class="st0" cx="251.6" cy="24.8" r=".4"/><circle class="st0" cx="251.6" cy="26.2" r=".4"/><circle class="st0" cx="251.6" cy="27.7" r=".4"/><circle class="st0" cx="251.6" cy="29.1" r=".4"/><circle class="st0" cx="251.6" cy="30.6" r=".4"/><circle class="st0" cx="251.6" cy="32" r=".4"/><circle class="st0" cx="251.6" cy="33.4" r=".4"/><circle class="st0" cx="251.6" cy="34.9" r=".4"/><circle class="st0" cx="251.6" cy="36.3" r=".4"/><circle class="st0" cx="251.6" cy="37.8" r=".4"/><circle class="st0" cx="251.6" cy="39.2" r=".4"/><circle class="st0" cx="251.6" cy="40.7" r=".4"/><circle class="st0" cx="251.6" cy="42.1" r=".4"/><circle class="st0" cx="251.6" cy="43.5" r=".4"/><circle class="st0" cx="251.6" cy="45" r=".4"/><circle class="st0" cx="251.6" cy="46.4" r=".4"/><circle class="st0" cx="251.6" cy="47.9" r=".4"/><circle class="st0" cx="251.6" cy="49.3" r=".4"/><circle class="st0" cx="251.6" cy="50.7" r=".4"/><circle class="st0" cx="251.6" cy="52.2" r=".4"/><circle class="st0" cx="251.6" cy="53.6" r=".4"/><circle class="st0" cx="251.6" cy="55.1" r=".4"/><circle class="st0" cx="251.6" cy="56.5" r=".4"/><path class="st0" d="M250.5 22l-.5.3h.1c.2 0 .4-.2.4-.3z"/><circle class="st0" cx="250.1" cy="23.4" r=".4"/><circle class="st0" cx="250.1" cy="24.8" r=".4"/><circle class="st0" cx="250.1" cy="26.2" r=".4"/><circle class="st0" cx="250.1" cy="27.7" r=".4"/><circle class="st0" cx="250.1" cy="29.1" r=".4"/><circle class="st0" cx="250.1" cy="30.6" r=".4"/><circle class="st0" cx="250.1" cy="32" r=".4"/><circle class="st0" cx="250.1" cy="33.4" r=".4"/><circle class="st0" cx="250.1" cy="34.9" r=".4"/><circle class="st0" cx="250.1" cy="36.3" r=".4"/><circle class="st0" cx="250.1" cy="37.8" r=".4"/><circle class="st0" cx="250.1" cy="39.2" r=".4"/><circle class="st0" cx="250.1" cy="40.7" r=".4"/><circle class="st0" cx="250.1" cy="42.1" r=".4"/><circle class="st0" cx="250.1" cy="43.5" r=".4"/><circle class="st0" cx="250.1" cy="45" r=".4"/><circle class="st0" cx="250.1" cy="46.4" r=".4"/><circle class="st0" cx="250.1" cy="47.9" r=".4"/><circle class="st0" cx="250.1" cy="49.3" r=".4"/><circle class="st0" cx="250.1" cy="50.7" r=".4"/><circle class="st0" cx="250.1" cy="52.2" r=".4"/><circle class="st0" cx="250.1" cy="53.6" r=".4"/><circle class="st0" cx="250.1" cy="55.1" r=".4"/><path class="st0" d="M250.5 56.5c0-.2-.2-.4-.4-.4s-.3.2-.4.3l.6.3c.1 0 .2-.1.2-.2zM248.4 23.2l.3-.2c-.2 0-.3.1-.3.2z"/><path class="st0" d="M248.7 23.7c.2 0 .4-.2.4-.4s-.2-.4-.4-.4l-.3.2c0 .1-.1.1-.1.2 0 .3.2.4.4.4z"/><circle class="st0" cx="248.7" cy="24.8" r=".4"/><circle class="st0" cx="248.7" cy="26.2" r=".4"/><circle class="st0" cx="248.7" cy="27.7" r=".4"/><circle class="st0" cx="248.7" cy="29.1" r=".4"/><circle class="st0" cx="248.7" cy="30.6" r=".4"/><circle class="st0" cx="248.7" cy="32" r=".4"/><circle class="st0" cx="248.7" cy="33.4" r=".4"/><circle class="st0" cx="248.7" cy="34.9" r=".4"/><circle class="st0" cx="248.7" cy="36.3" r=".4"/><circle class="st0" cx="248.7" cy="37.8" r=".4"/><circle class="st0" cx="248.7" cy="39.2" r=".4"/><circle class="st0" cx="248.7" cy="40.7" r=".4"/><circle class="st0" cx="248.7" cy="42.1" r=".4"/><circle class="st0" cx="248.7" cy="43.5" r=".4"/><circle class="st0" cx="248.7" cy="45" r=".4"/><circle class="st0" cx="248.7" cy="46.4" r=".4"/><circle class="st0" cx="248.7" cy="47.9" r=".4"/><circle class="st0" cx="248.7" cy="49.3" r=".4"/><circle class="st0" cx="248.7" cy="50.7" r=".4"/><circle class="st0" cx="248.7" cy="52.2" r=".4"/><circle class="st0" cx="248.7" cy="53.6" r=".4"/><circle class="st0" cx="248.7" cy="55.1" r=".4"/><circle class="st0" cx="247.2" cy="24.8" r=".4"/><circle class="st0" cx="247.2" cy="26.2" r=".4"/><circle class="st0" cx="247.2" cy="27.7" r=".4"/><circle class="st0" cx="247.2" cy="29.1" r=".4"/><circle class="st0" cx="247.2" cy="30.6" r=".4"/><circle class="st0" cx="247.2" cy="32" r=".4"/><circle class="st0" cx="247.2" cy="33.4" r=".4"/><circle class="st0" cx="247.2" cy="34.9" r=".4"/><circle class="st0" cx="247.2" cy="36.3" r=".4"/><circle class="st0" cx="247.2" cy="37.8" r=".4"/><circle class="st0" cx="247.2" cy="39.2" r=".4"/><circle class="st0" cx="247.2" cy="40.7" r=".4"/><circle class="st0" cx="247.2" cy="42.1" r=".4"/><circle class="st0" cx="247.2" cy="43.5" r=".4"/><circle class="st0" cx="247.2" cy="45" r=".4"/><circle class="st0" cx="247.2" cy="46.4" r=".4"/><circle class="st0" cx="247.2" cy="47.9" r=".4"/><circle class="st0" cx="247.2" cy="49.3" r=".4"/><circle class="st0" cx="247.2" cy="50.7" r=".4"/><circle class="st0" cx="247.2" cy="52.2" r=".4"/><circle class="st0" cx="247.2" cy="53.6" r=".4"/><path class="st0" d="M247.2 54.7c-.1 0-.2.1-.3.2l.6.4v-.2c.1-.2-.1-.4-.3-.4zM245.8 25.2c.2 0 .4-.2.4-.4 0-.1-.1-.2-.1-.3l-.6.3c0 .2.1.4.3.4z"/><circle class="st0" cx="245.8" cy="26.2" r=".4"/><circle class="st0" cx="245.8" cy="27.7" r=".4"/><circle class="st0" cx="245.8" cy="29.1" r=".4"/><circle class="st0" cx="245.8" cy="30.6" r=".4"/><circle class="st0" cx="245.8" cy="32" r=".4"/><circle class="st0" cx="245.8" cy="33.4" r=".4"/><circle class="st0" cx="245.8" cy="34.9" r=".4"/><circle class="st0" cx="245.8" cy="36.3" r=".4"/><circle class="st0" cx="245.8" cy="37.8" r=".4"/><circle class="st0" cx="245.8" cy="39.2" r=".4"/><circle class="st0" cx="245.8" cy="40.7" r=".4"/><circle class="st0" cx="245.8" cy="42.1" r=".4"/><circle class="st0" cx="245.8" cy="43.5" r=".4"/><circle class="st0" cx="245.8" cy="45" r=".4"/><circle class="st0" cx="245.8" cy="46.4" r=".4"/><circle class="st0" cx="245.8" cy="47.9" r=".4"/><circle class="st0" cx="245.8" cy="49.3" r=".4"/><circle class="st0" cx="245.8" cy="50.7" r=".4"/><circle class="st0" cx="245.8" cy="52.2" r=".4"/><circle class="st0" cx="245.8" cy="53.6" r=".4"/><circle class="st0" cx="244.4" cy="26.2" r=".4"/><circle class="st0" cx="244.4" cy="27.7" r=".4"/><circle class="st0" cx="244.4" cy="29.1" r=".4"/><circle class="st0" cx="244.4" cy="30.6" r=".4"/><circle class="st0" cx="244.4" cy="32" r=".4"/><circle class="st0" cx="244.4" cy="33.4" r=".4"/><circle class="st0" cx="244.4" cy="34.9" r=".4"/><circle class="st0" cx="244.4" cy="36.3" r=".4"/><circle class="st0" cx="244.4" cy="37.8" r=".4"/><circle class="st0" cx="244.4" cy="39.2" r=".4"/><circle class="st0" cx="244.4" cy="40.7" r=".4"/><circle class="st0" cx="244.4" cy="42.1" r=".4"/><circle class="st0" cx="244.4" cy="43.5" r=".4"/><circle class="st0" cx="244.4" cy="45" r=".4"/><circle class="st0" cx="244.4" cy="46.4" r=".4"/><circle class="st0" cx="244.4" cy="47.9" r=".4"/><circle class="st0" cx="244.4" cy="49.3" r=".4"/><circle class="st0" cx="244.4" cy="50.7" r=".4"/><circle class="st0" cx="244.4" cy="52.2" r=".4"/><path class="st0" d="M244.4 53.3h-.1l.5.3c-.1-.2-.3-.3-.4-.3zM242.9 26.6c.2 0 .4-.2.4-.4v-.1l-.6.4s.1.1.2.1z"/><circle class="st0" cx="242.9" cy="27.7" r=".4"/><circle class="st0" cx="242.9" cy="29.1" r=".4"/><circle class="st0" cx="242.9" cy="30.6" r=".4"/><circle class="st0" cx="242.9" cy="32" r=".4"/><circle class="st0" cx="242.9" cy="33.4" r=".4"/><circle class="st0" cx="242.9" cy="34.9" r=".4"/><circle class="st0" cx="242.9" cy="36.3" r=".4"/><circle class="st0" cx="242.9" cy="37.8" r=".4"/><circle class="st0" cx="242.9" cy="39.2" r=".4"/><circle class="st0" cx="242.9" cy="40.7" r=".4"/><circle class="st0" cx="242.9" cy="42.1" r=".4"/><circle class="st0" cx="242.9" cy="43.5" r=".4"/><circle class="st0" cx="242.9" cy="45" r=".4"/><circle class="st0" cx="242.9" cy="46.4" r=".4"/><circle class="st0" cx="242.9" cy="47.9" r=".4"/><circle class="st0" cx="242.9" cy="49.3" r=".4"/><circle class="st0" cx="242.9" cy="50.7" r=".4"/><path class="st0" d="M242.9 52.5l-.3-.2c.1.2.2.2.3.2z"/><path class="st0" d="M243.3 52.2c0-.2-.2-.4-.4-.4s-.4.2-.4.4c0 .1 0 .1.1.2l.3.2c.2-.1.4-.2.4-.4z"/><circle class="st0" cx="241.5" cy="27.7" r=".4"/><circle class="st0" cx="241.5" cy="29.1" r=".4"/><circle class="st0" cx="241.5" cy="30.6" r=".4"/><circle class="st0" cx="241.5" cy="32" r=".4"/><circle class="st0" cx="241.5" cy="33.4" r=".4"/><circle class="st0" cx="241.5" cy="34.9" r=".4"/><circle class="st0" cx="241.5" cy="36.3" r=".4"/><circle class="st0" cx="241.5" cy="37.8" r=".4"/><circle class="st0" cx="241.5" cy="39.2" r=".4"/><circle class="st0" cx="241.5" cy="40.7" r=".4"/><circle class="st0" cx="241.5" cy="42.1" r=".4"/><circle class="st0" cx="241.5" cy="43.5" r=".4"/><circle class="st0" cx="241.5" cy="45" r=".4"/><circle class="st0" cx="241.5" cy="46.4" r=".4"/><circle class="st0" cx="241.5" cy="47.9" r=".4"/><circle class="st0" cx="241.5" cy="49.3" r=".4"/><circle class="st0" cx="241.5" cy="50.7" r=".4"/><path class="st0" d="M240.4 27.8l-.4.2h.1c.1 0 .2-.1.3-.2z"/><circle class="st0" cx="240" cy="29.1" r=".4"/><circle class="st0" cx="240" cy="30.6" r=".4"/><circle class="st0" cx="240" cy="32" r=".4"/><circle class="st0" cx="240" cy="33.4" r=".4"/><circle class="st0" cx="240" cy="34.9" r=".4"/><circle class="st0" cx="240" cy="36.3" r=".4"/><circle class="st0" cx="240" cy="37.8" r=".4"/><circle class="st0" cx="240" cy="39.2" r=".4"/><circle class="st0" cx="240" cy="40.7" r=".4"/><circle class="st0" cx="240" cy="42.1" r=".4"/><circle class="st0" cx="240" cy="43.5" r=".4"/><circle class="st0" cx="240" cy="45" r=".4"/><circle class="st0" cx="240" cy="46.4" r=".4"/><circle class="st0" cx="240" cy="47.9" r=".4"/><circle class="st0" cx="240" cy="49.3" r=".4"/><path class="st0" d="M240.4 50.7c0-.2-.2-.4-.4-.4s-.3.1-.3.3l.6.3s.1 0 .1-.2zM238.6 29.5c.2 0 .4-.2.4-.4s-.1-.3-.3-.4l-.4.2v.1c-.1.3.1.5.3.5z"/><circle class="st0" cx="238.6" cy="30.6" r=".4"/><circle class="st0" cx="238.6" cy="32" r=".4"/><circle class="st0" cx="238.6" cy="33.4" r=".4"/><circle class="st0" cx="238.6" cy="34.9" r=".4"/><circle class="st0" cx="238.6" cy="36.3" r=".4"/><circle class="st0" cx="238.6" cy="37.8" r=".4"/><circle class="st0" cx="238.6" cy="39.2" r=".4"/><circle class="st0" cx="238.6" cy="40.7" r=".4"/><circle class="st0" cx="238.6" cy="42.1" r=".4"/><circle class="st0" cx="238.6" cy="43.5" r=".4"/><circle class="st0" cx="238.6" cy="45" r=".4"/><circle class="st0" cx="238.6" cy="46.4" r=".4"/><circle class="st0" cx="238.6" cy="47.9" r=".4"/><circle class="st0" cx="238.6" cy="49.3" r=".4"/><circle class="st0" cx="237.1" cy="30.6" r=".4"/><circle class="st0" cx="237.1" cy="32" r=".4"/><circle class="st0" cx="237.1" cy="33.4" r=".4"/><circle class="st0" cx="237.1" cy="34.9" r=".4"/><circle class="st0" cx="237.1" cy="36.3" r=".4"/><circle class="st0" cx="237.1" cy="37.8" r=".4"/><circle class="st0" cx="237.1" cy="39.2" r=".4"/><circle class="st0" cx="237.1" cy="40.7" r=".4"/><circle class="st0" cx="237.1" cy="42.1" r=".4"/><circle class="st0" cx="237.1" cy="43.5" r=".4"/><circle class="st0" cx="237.1" cy="45" r=".4"/><circle class="st0" cx="237.1" cy="46.4" r=".4"/><circle class="st0" cx="237.1" cy="47.9" r=".4"/><path class="st0" d="M237.1 48.9c-.1 0-.2 0-.3.1l.6.3v-.1c.1-.1-.1-.3-.3-.3zM235.7 30.9c.2 0 .4-.2.4-.4 0-.1 0-.2-.1-.2l-.6.3c0 .2.1.3.3.3z"/><circle class="st0" cx="235.7" cy="32" r=".4"/><circle class="st0" cx="235.7" cy="33.4" r=".4"/><circle class="st0" cx="235.7" cy="34.9" r=".4"/><circle class="st0" cx="235.7" cy="36.3" r=".4"/><circle class="st0" cx="235.7" cy="37.8" r=".4"/><circle class="st0" cx="235.7" cy="39.2" r=".4"/><circle class="st0" cx="235.7" cy="40.7" r=".4"/><circle class="st0" cx="235.7" cy="42.1" r=".4"/><circle class="st0" cx="235.7" cy="43.5" r=".4"/><circle class="st0" cx="235.7" cy="45" r=".4"/><circle class="st0" cx="235.7" cy="46.4" r=".4"/><circle class="st0" cx="235.7" cy="47.9" r=".4"/></g><path class="st0" d="M235 82.9h24.6V65.8L235 51.6zM207 19.1v14.1l24.7-14.1zM206.5 47.4v35.5h24.6V49.4l-14-8.1zM231.1 33.2l-10.9 6.3 10.9 6.3zM235 16.7v14.1l24.6-14.1z"/></svg>