<svg id="Layer_1" data-name="Layer 1" xmlns="http://www.w3.org/2000/svg" viewBox="0 0 229.95 65.99"><defs><style>.cls-1{fill:#fff;}</style></defs><title>1</title><path class="cls-1" d="M110.53,25.87h-.19c-13.78-.29-24.59-3.27-24.59-6.8,0-3.28,9.94-7.29,23.24-7.75h.21L109,10.18l-.8,0c-10.36.39-19.26,2.11-23.81,4.62-2,1.1-3,2.28-3,3.5s1,2.4,3,3.48c4.83,2.67,14.75,4.46,25.88,4.69h.25c.25,0,.43-.14.43-.32S110.77,25.87,110.53,25.87Z"/><path class="cls-1" d="M110.35,28.43H110C90.75,28,75.69,23.57,75.69,18.27c0-4.74,12.68-10.33,31.55-11.12l1.48-.06-.22-1.81-1.41,0C92.51,5.84,79.43,8.42,73,12c-2.91,1.65-4.38,3.4-4.38,5.21s1.48,3.57,4.38,5.21c7,3.92,21.15,6.53,37,6.82h.42c.35,0,.63-.19.63-.43S110.7,28.43,110.35,28.43Z"/><path class="cls-1" d="M109.92,31.09h-.4c-26.35-.48-47-6.61-47-13.95S82.74,3,106.65,2.17l1.38,0L107.79,0h-1.46C85.65.62,67.21,4.15,58.21,9.2c-3.85,2.18-5.81,4.49-5.81,6.88s2,4.72,5.81,6.89c9.57,5.37,29.21,8.92,51.26,9.26h.46c.5,0,.88-.25.88-.57S110.42,31.09,109.92,31.09Z"/><path class="cls-1" d="M114.19,25.87h.19c13.79-.29,24.59-3.27,24.59-6.8,0-3.28-9.94-7.29-23.24-7.75h-.2l.19-1.13.8,0c10.36.39,19.26,2.11,23.81,4.62,2,1.1,3,2.28,3,3.5s-1,2.4-3,3.48c-4.83,2.67-14.75,4.46-25.88,4.69h-.25c-.25,0-.43-.14-.43-.32S113.95,25.87,114.19,25.87Z"/><path class="cls-1" d="M114.37,28.43h.38C134,28,149,23.57,149,18.27c0-4.74-12.68-10.33-31.55-11.12L116,7.09l.22-1.81,1.41,0c14.58.53,27.66,3.11,34.13,6.74,2.91,1.65,4.38,3.4,4.38,5.21s-1.48,3.57-4.38,5.21c-7,3.92-21.15,6.53-37,6.82h-.42c-.36,0-.63-.19-.63-.43S114,28.43,114.37,28.43Z"/><path class="cls-1" d="M114.79,31.09h.4c26.35-.48,47-6.61,47-13.95S142,3,118.06,2.17l-1.38,0L116.93,0h1.46c20.68.62,39.12,4.14,48.13,9.2,3.85,2.18,5.8,4.49,5.8,6.88s-2,4.72-5.8,6.89c-9.57,5.37-29.21,8.92-51.26,9.26h-.46c-.5,0-.88-.25-.88-.57S114.29,31.09,114.79,31.09Z"/><path class="cls-1" d="M27.82,57.67l3,3.81a36,36,0,0,1-5.45,2.86,27.67,27.67,0,0,1-4.25,1.21A25.83,25.83,0,0,1,16,66a23,23,0,0,1-5.81-.81,14.91,14.91,0,0,1-5.13-2.39,13.11,13.11,0,0,1-3.65-4.1A11.19,11.19,0,0,1,0,53a11,11,0,0,1,1.41-5.65,12.93,12.93,0,0,1,3.72-4.07,16.44,16.44,0,0,1,5.29-2.45A23.3,23.3,0,0,1,16.54,40a26.83,26.83,0,0,1,4.46.4,21.66,21.66,0,0,1,3.56.92,14.46,14.46,0,0,1,4.85,2.49l-2.85,3.73A14.77,14.77,0,0,0,21.75,45q-.75-.22-1.62-.39a18.23,18.23,0,0,0-3.53-.32,15.08,15.08,0,0,0-4.2.55,9.75,9.75,0,0,0-3.3,1.64,7.45,7.45,0,0,0-2.18,2.71,8.49,8.49,0,0,0-.77,3.69A7.87,7.87,0,0,0,7,56.61,9.3,9.3,0,0,0,9.3,59.44a9.84,9.84,0,0,0,3.21,1.79,11.37,11.37,0,0,0,3.65.61,16,16,0,0,0,3.53-.4,22.17,22.17,0,0,0,3.27-1A17.08,17.08,0,0,0,27.82,57.67Z"/><path class="cls-1" d="M113.28,65.85h-6.17V40.51h17.06q5.19,0,7.79,1.67t2.6,5.83q0,4.15-2.6,5.74t-7.79,1.59h-10.9ZM124,51.07a7.11,7.11,0,0,0,3.11-.61A2.45,2.45,0,0,0,128.4,48a2.65,2.65,0,0,0-1.25-2.51,6.14,6.14,0,0,0-3.11-.72H113.27v6.29Z"/><path class="cls-1" d="M229.37,43.67a2,2,0,1,1,.58-1.41A1.91,1.91,0,0,1,229.37,43.67Zm-2.61-2.61a1.65,1.65,0,0,0-.5,1.21,1.67,1.67,0,0,0,.49,1.22,1.7,1.7,0,0,0,2.41,0,1.72,1.72,0,0,0,0-2.42,1.7,1.7,0,0,0-2.41,0Zm1.17.11a1.66,1.66,0,0,1,.59.08.54.54,0,0,1,.34.55.48.48,0,0,1-.21.43.83.83,0,0,1-.31.11.53.53,0,0,1,.37.21.6.6,0,0,1,.12.34V43q0,.08,0,.16a.36.36,0,0,0,0,.11v0h-.36v-.29a.53.53,0,0,0-.21-.5.92.92,0,0,0-.43-.07h-.3v.86h-.38V41.17Zm.41.34a1,1,0,0,0-.46-.08h-.33v.79h.35a1,1,0,0,0,.37,0,.39.39,0,0,0,.08-.66Z"/><rect class="cls-1" x="33.49" y="40.45" width="6.14" height="25.43"/><polygon class="cls-1" points="43.85 40.45 43.85 65.88 49.23 65.88 49.23 47.1 68.47 65.91 73.79 65.91 73.79 40.48 68.43 40.48 68.43 58.08 50.14 40.48 43.85 40.45"/><polygon class="cls-1" points="103.5 65.88 103.5 61.62 84.14 61.62 84.14 54.79 97.27 54.79 97.27 50.53 84.14 50.53 84.14 44.74 102.94 44.74 102.94 40.45 77.97 40.45 77.97 65.88 103.5 65.88"/><polygon class="cls-1" points="193.16 65.88 193.16 61.62 173.81 61.62 173.81 54.79 186.93 54.79 186.93 50.53 173.81 50.53 173.81 44.74 192.6 44.74 192.6 40.45 167.64 40.45 167.64 65.88 193.16 65.88"/><polygon class="cls-1" points="137.69 40.45 137.69 65.91 164.03 65.91 164.03 61.65 143.76 61.65 143.76 40.43 137.69 40.45"/><polygon class="cls-1" points="195.32 40.47 206.64 53.15 195.11 65.88 202.32 65.88 210.14 57.13 217.97 65.87 225.95 65.87 214.02 52.85 225.14 40.46 218.12 40.46 210.47 48.93 202.75 40.46 195.32 40.47"/></svg>