<svg xmlns="http://www.w3.org/2000/svg" viewBox="0 0 545.9 298.99">
  <title>MezzCap-Logo Design</title>
  <g id="Layer_2" data-name="Layer 2">
    <g id="Layer_3" data-name="Layer 3">
      <g>
        <polygon points="112.12 224.16 149.49 224.24 166.07 189.43 147.25 150.4 112.12 224.16" fill="#c7c8ca"/>
        <rect x="218.88" width="37.37" height="37.37" fill="#231f20"/>
        <polygon points="218.88 78.5 218.88 149.5 256.25 149.5 256.25 0 218.88 78.5" fill="#939598"/>
        <polygon points="166.48 110.03 185.15 149.34 218.88 78.5 218.88 0 166.48 110.03" fill="#636466"/>
        <polygon points="218.88 0 218.88 78.5 256.25 0 218.88 0" fill="#231f20"/>
        <polygon points="146.81 149.5 147.25 150.4 147.68 149.5 146.81 149.5" fill="#c7c8ca"/>
        <rect x="302.97" y="112.12" width="121.47" height="37.37" fill="#b4b4b5"/>
        <rect x="424.44" y="112.12" width="121.47" height="37.37" fill="#636466"/>
        <rect x="302.97" width="121.47" height="37.37" fill="#b4b4b5"/>
        <rect x="424.44" width="121.47" height="37.37" fill="#636466"/>
        <polygon points="185.23 149.5 185.15 149.34 185.08 149.5 185.23 149.5" fill="#c7c8ca"/>
        <polygon points="147.68 149.5 147.25 150.4 166.07 189.43 185.08 149.5 147.68 149.5"/>
        <polygon points="331 112.05 330.94 112.12 331 112.12 331 112.05" fill="#515252"/>
        <polygon points="452.27 37.37 452.47 37.37 452.47 37.15 452.27 37.37" fill="none"/>
        <polygon points="302.97 149.5 326.33 149.5 358.97 112.12 302.97 112.12 302.97 149.5" fill="#939598"/>
        <polygon points="424.44 0 400.82 0 368.18 37.37 424.24 37.37 424.44 37.15 424.44 0" fill="#939598"/>
        <polygon points="424.44 149.5 447.8 149.5 480.43 112.12 424.44 112.12 424.44 149.5" fill="#231f20"/>
        <polygon points="545.9 0 522.28 0 489.65 37.37 545.71 37.37 545.9 37.15 545.9 0" fill="#231f20"/>
        <path d="M302.36,149.64,302.22,187a18.69,18.69,0,1,1-.14,37.37l-.14,37.37a56.06,56.06,0,0,0,.42-112.12Z" fill="#b4b4b5"/>
        <rect x="218.88" y="149.5" width="84.09" height="37.37" fill="#515252"/>
        <polygon points="149.5 224.25 149.5 224.24 149.5 224.24 149.5 224.25"/>
        <polygon points="149.5 224.25 149.5 224.24 149.5 224.25 149.5 224.25"/>
        <polygon points="256.25 56.06 256.25 93.44 286.46 93.44 318.99 56.06 256.25 56.06"/>
        <polygon points="302.97 112.05 302.97 112.12 358.97 112.12 424.24 37.37 368.18 37.37 302.97 112.05" fill="#636466"/>
        <rect x="256.25" y="224.24" width="46.72" height="37.37"/>
        <path d="M182.35,224.24H149.5a74.37,74.37,0,0,1-10,37.37h61.39l-18-37.37Z"/>
        <polygon points="201.04 261.62 200.86 261.62 218.88 298.99 218.88 261.62 201.04 261.62" fill="#c7c8ca"/>
        <polygon points="218.88 220.33 185.23 149.5 185.08 149.5 166.07 189.43 182.85 224.24 218.88 224.24 218.88 220.33" fill="#c7c8ca"/>
        <polygon points="218.88 261.62 218.88 224.24 182.85 224.24 200.86 261.62 201.04 261.62 218.88 261.62" fill="#939598"/>
        <polygon points="218.88 261.62 218.88 298.99 256.25 298.99 238.5 261.62 218.88 261.62" fill="#636466"/>
        <polygon points="220.74 224.24 218.88 220.33 218.88 224.24 220.74 224.24" fill="#636466"/>
        <polygon points="218.88 261.62 238.5 261.62 220.74 224.24 218.88 224.24 218.88 261.62" fill="#636466"/>
        <g>
          <rect x="256.25" y="112.12" width="46.72" height="37.37" fill="#0098ff"/>
          <rect x="256.25" width="46.72" height="37.37" fill="#0098ff"/>
          <polygon points="185.01 149.6 185.08 149.44 166.19 109.68 147.18 149.6 185.01 149.6" fill="#0098ff"/>
          <polygon points="424.44 112.05 424.44 112.12 480.43 112.12 545.71 37.37 489.65 37.37 424.44 112.05" fill="#0098ff"/>
          <polygon points="256.25 224.24 256.25 149.5 218.88 149.5 218.88 220.33 220.74 224.24 256.25 224.24" fill="#0098ff"/>
          <polygon points="256.25 298.99 256.25 261.62 238.5 261.62 256.25 298.99" fill="#0098ff"/>
          <polygon points="220.74 224.24 238.5 261.62 256.25 261.62 256.25 224.24 220.74 224.24" fill="#0098ff"/>
          <path d="M48.27,250.61a37.37,37.37,0,0,1,.08-52.82L21.91,171.38A74.74,74.74,0,0,0,21.82,277Z" fill="#0098ff"/>
        </g>
        <path d="M48.35,197.79a37.37,37.37,0,0,1,52.8,0l26.43-26.4a74.72,74.72,0,0,0-105.67,0Z" fill="#b4b4b5"/>
        <path d="M101.14,250.7a37.37,37.37,0,0,1-52.8,0L21.91,277.1a74.72,74.72,0,0,0,105.67,0Z" fill="#515252"/>
        <path d="M149.5,224.16a74.51,74.51,0,0,0-21.82-52.78l-26.44,26.41a37.25,37.25,0,0,1,10.89,26.37s0,.06,0,.08h37.37S149.5,224.19,149.5,224.16Z"/>
        <rect x="218.88" y="112.12" width="37.37" height="37.37"/>
        <polygon points="114.2 0 114.2 81.84 146.81 149.5 147.68 149.5 166.48 110.03 114.2 0" fill="#939598"/>
        <polygon points="74.75 149.5 114.2 149.5 114.2 81.84 74.75 0 74.75 149.5"/>
        <polygon points="74.75 0 114.2 81.84 114.2 0 74.75 0" fill="#636466"/>
        <rect x="302.97" y="37.37" width="121.47" height="74.75" fill="none"/>
      </g>
    </g>
  </g>
</svg>
