<svg xmlns="http://www.w3.org/2000/svg" viewBox="0 0 1802.1 903.05">
  <title>Duncan Craign-03-Icon Design</title>
  <g id="Layer_2" data-name="Layer 2">
    <g id="Layer_1-2" data-name="Layer 1">
      <g>
        <rect width="1802.1" height="903.05" fill="#002341"/>
        <path d="M826.58,475.12h61.06a22.63,22.63,0,0,0,22.56-22.56A22.27,22.27,0,0,0,907,441.07a22.94,22.94,0,0,0-1.22-2.2l-.12.19c-.11-.15-.2-.31-.31-.46A22.54,22.54,0,0,1,923,430h13.73a55,55,0,0,1-50.87,75.8H843.8a81.48,81.48,0,0,0,121.62,0H921.28a54.91,54.91,0,0,1-14.17-1.88,55.12,55.12,0,0,0,30.67-28.79h44.87a81.64,81.64,0,0,0,.09-46.88H921.28a22.52,22.52,0,0,0-17.7,36.52,22.53,22.53,0,0,1-17.69,8.6H872.14A55,55,0,0,1,923,397.57H965.7a81.46,81.46,0,0,0-122.17,0h44.11a54.72,54.72,0,0,1,14.17,1.88,55.12,55.12,0,0,0-30.68,28.79H826.49a81.63,81.63,0,0,0,.09,46.88Z" fill="#f2f2f2"/>
      </g>
    </g>
  </g>
</svg>
