<svg id="Layer_1" xmlns="http://www.w3.org/2000/svg" viewBox="0 0 300 150"><style>.st0{fill:#010101;} .st1{fill:#FFFFFF;} .st2{fill:#989898;}</style><path id="XMLID_20_" class="st0" d="M.2.1h235.6v49.1H.2z"/><path id="XMLID_19_" class="st0" d="M.2.1h235.6v49.1H.2z"/><g id="XMLID_18_"><path id="XMLID_24_" class="st0" d="M110 87.7V56.2h6.7v31.5H110z"/><path id="XMLID_147_" class="st0" d="M144.6 87.7l-15-20.5v20.5h-6.7V56.2h6.9L144.4 76V56.2h6.7v31.5h-6.5z"/><path id="XMLID_149_" class="st0" d="M164.6 87.7V62.1h-9.2v-5.9h25.1v5.9h-9.2v25.6h-6.7z"/><path id="XMLID_151_" class="st0" d="M184.8 87.7V56.2h22.3v5.9h-15.6v6.6h15.2v5.9h-15.2v7.2h15.6v5.9h-22.3z"/><path id="XMLID_153_" class="st0" d="M234 87.7l-15-20.5v20.5h-6.7V56.2h6.9L233.8 76V56.2h6.7v31.5H234z"/><path id="XMLID_155_" class="st0" d="M254 87.7V62.1h-9.2v-5.9h25.1v5.9h-9.2v25.6H254z"/><path id="XMLID_157_" class="st0" d="M268.7 84.4c0-2.1 1.7-3.8 3.8-3.8s3.8 1.7 3.8 3.8-1.7 3.8-3.8 3.8-3.8-1.7-3.8-3.8z"/></g><g id="XMLID_13_"><g id="XMLID_265_"><path id="XMLID_276_" class="st1" d="M16.8 42.1V10.6h12.4c9.9 0 16.7 6.3 16.7 15.7 0 9.5-6.8 15.8-16.7 15.8H16.8zm22.3-15.7c0-5.5-3.4-9.8-9.8-9.8h-5.8v19.7h5.7c6.3-.1 9.9-4.6 9.9-9.9z"/><path id="XMLID_274_" class="st1" d="M50.7 42.1V10.6H73v5.9H57.4v6.6h15.2V29H57.4v7.2H73v5.9H50.7z"/><path id="XMLID_272_" class="st1" d="M76.1 37.7l3.7-5.2c2.2 2.3 5.7 4.3 10 4.3 3.7 0 5.5-1.7 5.5-3.5 0-5.5-18.1-1.7-18.1-13.5 0-5.2 4.5-9.6 11.9-9.6 5 0 9.2 1.5 12.3 4.4l-3.7 5c-2.5-2.4-5.9-3.4-9.2-3.4-2.8 0-4.4 1.2-4.4 3.1 0 5 18.1 1.6 18.1 13.4 0 5.8-4.2 10.1-12.6 10.1-6.2-.1-10.6-2.1-13.5-5.1z"/><path id="XMLID_270_" class="st1" d="M106.5 42.1V10.6h6.7v31.5h-6.7z"/><path id="XMLID_268_" class="st1" d="M118 26.4c0-10 7.6-16.3 16.8-16.3 6.5 0 10.6 3.3 13 7l-5.5 3c-1.5-2.2-4.2-4.1-7.5-4.1-5.8 0-9.9 4.4-9.9 10.3s4.2 10.3 9.9 10.3c2.8 0 5.4-1.2 6.7-2.4v-3.8h-8.3v-5.9h15v12.1c-3.2 3.6-7.7 5.9-13.4 5.9-9.3.2-16.8-6.2-16.8-16.1z"/><path id="XMLID_266_" class="st1" d="M175.2 42.1l-15-20.5v20.5h-6.7V10.6h6.9L175 30.4V10.6h6.7v31.5h-6.5z"/></g></g><g id="XMLID_8_"><g id="XMLID_1022_"><path id="XMLID_1140_" class="st2" d="M110.2 98.6c0-1.7 1.2-2.8 2.7-2.8.9 0 1.5.4 2 .9l-.3.2c-.4-.4-1-.7-1.7-.7-1.3 0-2.2 1-2.2 2.4s1 2.4 2.2 2.4c.7 0 1.3-.4 1.6-.6V99h-2v-.4h2.5v1.9c-.5.5-1.2.9-2 .9-1.6-.1-2.8-1.2-2.8-2.8z"/><path id="XMLID_1137_" class="st2" d="M119.2 101.2l-1.5-2.2h-1.2v2.2h-.5v-5.4h2c.9 0 1.6.6 1.6 1.6s-.7 1.5-1.5 1.5l1.5 2.2h-.4zm0-3.8c0-.7-.5-1.1-1.2-1.1h-1.5v2.3h1.5c.7 0 1.2-.5 1.2-1.2z"/><path id="XMLID_1134_" class="st2" d="M124.7 101.2l-.5-1.3h-2.8l-.5 1.3h-.5l2.2-5.4h.6l2.2 5.4h-.7zm-1.9-4.8l-1.3 3.1h2.5l-1.2-3.1z"/><path id="XMLID_1131_" class="st2" d="M126 101.2v-5.4h2c1 0 1.6.7 1.6 1.6S129 99 128 99h-1.5v2.2h-.5zm3.2-3.8c0-.7-.5-1.1-1.2-1.1h-1.5v2.3h1.5c.7 0 1.2-.5 1.2-1.2z"/><path id="XMLID_1129_" class="st2" d="M134.5 101.2v-2.5h-3.4v2.5h-.5v-5.4h.5v2.4h3.4v-2.4h.5v5.4h-.5z"/><path id="XMLID_1127_" class="st2" d="M136.2 101.2v-5.4h.5v5.4h-.5z"/><path id="XMLID_1125_" class="st2" d="M137.8 98.6c0-1.6 1.2-2.8 2.7-2.8.9 0 1.5.4 2 .9l-.4.2c-.3-.5-.9-.8-1.6-.8-1.3 0-2.2 1-2.2 2.4s1 2.4 2.2 2.4c.6 0 1.2-.3 1.6-.8l.4.2c-.5.6-1.1 1-2 1-1.5 0-2.7-1.1-2.7-2.7z"/><path id="XMLID_1122_" class="st2" d="M145.5 101.2v-5.4h1.7c1.7 0 2.7 1.2 2.7 2.7 0 1.5-1 2.7-2.7 2.7h-1.7zm3.9-2.6c0-1.3-.8-2.3-2.2-2.3H146v4.5h1.3c1.3 0 2.1-1 2.1-2.2z"/><path id="XMLID_1120_" class="st2" d="M151 101.2v-5.4h3.4v.4h-2.9v2h2.9v.4h-2.9v2.1h2.9v.4H151z"/><path id="XMLID_1118_" class="st2" d="M155.3 100.5l.3-.3c.3.4.9.8 1.7.8 1.1 0 1.4-.6 1.4-1.1 0-1.6-3.2-.8-3.2-2.6 0-.9.8-1.4 1.8-1.4.8 0 1.4.3 1.8.8l-.3.3c-.4-.5-.9-.7-1.5-.7-.7 0-1.3.4-1.3 1 0 1.4 3.2.6 3.2 2.6 0 .7-.5 1.5-1.9 1.5-.9-.1-1.6-.4-2-.9z"/><path id="XMLID_1116_" class="st2" d="M160.2 101.2v-5.4h.5v5.4h-.5z"/><path id="XMLID_1114_" class="st2" d="M161.8 98.6c0-1.7 1.2-2.8 2.7-2.8.9 0 1.5.4 2 .9l-.3.2c-.4-.4-1-.7-1.7-.7-1.3 0-2.2 1-2.2 2.4s1 2.4 2.2 2.4c.7 0 1.3-.4 1.6-.6V99h-2v-.4h2.5v1.9c-.5.5-1.2.9-2 .9-1.6-.1-2.8-1.2-2.8-2.8z"/><path id="XMLID_1112_" class="st2" d="M171.6 101.2l-3.4-4.6v4.6h-.5v-5.4h.5l3.4 4.5v-4.5h.5v5.4h-.5z"/><path id="XMLID_1110_" class="st2" d="M114.5 111.6l-1.3-4.6-1.3 4.6h-.5l-1.5-5.4h.5l1.3 4.7 1.3-4.7h.4l1.3 4.7 1.3-4.7h.5l-1.5 5.4h-.5z"/><path id="XMLID_1108_" class="st2" d="M117.3 111.6v-5.4h3.4v.4h-2.9v2h2.9v.4h-2.9v2.1h2.9v.4h-3.4z"/><path id="XMLID_1104_" class="st2" d="M121.8 111.6v-5.4h2.2c.9 0 1.5.5 1.5 1.4 0 .7-.5 1.1-.9 1.2.6.1 1 .7 1 1.3 0 .9-.6 1.4-1.5 1.4h-2.3zm3.2-3.9c0-.5-.4-1-1.1-1h-1.7v2h1.7c.8 0 1.1-.5 1.1-1zm.1 2.4c0-.5-.4-1.1-1.1-1.1h-1.7v2.1h1.7c.7.1 1.1-.3 1.1-1z"/><path id="XMLID_1101_" class="st2" d="M128.9 111.6v-5.4h1.7c1.7 0 2.7 1.2 2.7 2.7 0 1.5-1 2.7-2.7 2.7h-1.7zm3.9-2.7c0-1.3-.8-2.3-2.2-2.3h-1.3v4.5h1.3c1.4.1 2.2-.9 2.2-2.2z"/><path id="XMLID_1099_" class="st2" d="M134.4 111.6v-5.4h3.4v.4h-2.9v2h2.9v.4h-2.9v2.1h2.9v.4h-3.4z"/><path id="XMLID_1097_" class="st2" d="M138.6 110.9l.3-.3c.3.4.9.8 1.7.8 1.1 0 1.4-.6 1.4-1.1 0-1.6-3.2-.8-3.2-2.6 0-.9.8-1.4 1.8-1.4.8 0 1.4.3 1.8.8l-.3.3c-.4-.5-.9-.7-1.5-.7-.7 0-1.3.4-1.3 1 0 1.4 3.2.6 3.2 2.6 0 .7-.5 1.5-1.9 1.5-.9-.1-1.6-.5-2-.9z"/><path id="XMLID_1095_" class="st2" d="M143.6 111.6v-5.4h.5v5.4h-.5z"/><path id="XMLID_1093_" class="st2" d="M145.2 108.9c0-1.7 1.2-2.8 2.7-2.8.9 0 1.5.4 2 .9l-.3.2c-.4-.4-1-.7-1.7-.7-1.3 0-2.2 1-2.2 2.4s1 2.4 2.2 2.4c.7 0 1.3-.4 1.6-.6v-1.3h-2v-.4h2.5v1.9c-.5.5-1.2.9-2 .9-1.6-.1-2.8-1.2-2.8-2.9z"/><path id="XMLID_1091_" class="st2" d="M154.9 111.6l-3.4-4.6v4.6h-.5v-5.4h.5l3.4 4.5v-4.5h.5v5.4h-.5z"/><path id="XMLID_1087_" class="st2" d="M110.4 122v-5.4h2.2c.9 0 1.5.5 1.5 1.4 0 .7-.5 1.1-.9 1.2.6.1 1 .7 1 1.3 0 .9-.6 1.4-1.5 1.4h-2.3zm3.2-3.9c0-.5-.4-1-1.1-1h-1.7v2h1.7c.7-.1 1.1-.5 1.1-1zm.1 2.4c0-.5-.4-1.1-1.1-1.1h-1.7v2.1h1.7c.6.1 1.1-.3 1.1-1z"/><path id="XMLID_1084_" class="st2" d="M118.4 122l-1.5-2.2h-1.2v2.2h-.5v-5.4h2c.9 0 1.6.6 1.6 1.6s-.7 1.5-1.5 1.5l1.5 2.2h-.4zm0-3.8c0-.7-.5-1.1-1.2-1.1h-1.5v2.3h1.5c.8 0 1.2-.5 1.2-1.2z"/><path id="XMLID_1081_" class="st2" d="M123.9 122l-.5-1.3h-2.8l-.6 1.3h-.5l2.2-5.4h.6l2.2 5.4h-.6zm-1.9-4.9l-1.3 3.1h2.5l-1.2-3.1z"/><path id="XMLID_1079_" class="st2" d="M129.1 122l-3.4-4.6v4.6h-.5v-5.4h.5l3.4 4.5v-4.5h.5v5.4h-.5z"/><path id="XMLID_1076_" class="st2" d="M130.9 122v-5.4h1.7c1.7 0 2.7 1.2 2.7 2.7 0 1.5-1 2.7-2.7 2.7h-1.7zm3.9-2.7c0-1.3-.8-2.3-2.2-2.3h-1.3v4.5h1.3c1.4.1 2.2-.9 2.2-2.2z"/><path id="XMLID_1073_" class="st2" d="M138.5 122v-5.4h1.7c1.7 0 2.7 1.2 2.7 2.7 0 1.5-1 2.7-2.7 2.7h-1.7zm3.9-2.7c0-1.3-.8-2.3-2.2-2.3h-1.3v4.5h1.3c1.4.1 2.2-.9 2.2-2.2z"/><path id="XMLID_1071_" class="st2" d="M144 122v-5.4h3.4v.4h-2.9v2h2.9v.4h-2.9v2.1h2.9v.4H144z"/><path id="XMLID_1069_" class="st2" d="M150.2 122l-2.2-5.4h.5l2 4.8 1.9-4.8h.5l-2.2 5.4h-.5z"/><path id="XMLID_1067_" class="st2" d="M153.8 122v-5.4h3.4v.4h-2.9v2h2.9v.4h-2.9v2.1h2.9v.4h-3.4z"/><path id="XMLID_1065_" class="st2" d="M158.2 122v-5.4h.5v4.9h2.6v.4h-3.1z"/><path id="XMLID_1062_" class="st2" d="M161.7 119.3c0-1.6 1-2.8 2.6-2.8s2.6 1.2 2.6 2.8c0 1.6-1 2.8-2.6 2.8s-2.6-1.2-2.6-2.8zm4.7 0c0-1.4-.8-2.4-2.1-2.4s-2.1 1-2.1 2.4c0 1.3.8 2.4 2.1 2.4s2.1-1 2.1-2.4z"/><path id="XMLID_1059_" class="st2" d="M168 122v-5.4h2c1 0 1.6.7 1.6 1.6s-.6 1.6-1.6 1.6h-1.5v2.2h-.5zm3.1-3.8c0-.7-.5-1.1-1.2-1.1h-1.5v2.3h1.5c.8 0 1.2-.5 1.2-1.2z"/><path id="XMLID_1057_" class="st2" d="M177.1 122v-4.8l-2 4.8h-.1l-2-4.8v4.8h-.5v-5.4h.7l1.8 4.5 1.8-4.5h.7v5.4h-.4z"/><path id="XMLID_1055_" class="st2" d="M178.9 122v-5.4h3.4v.4h-2.9v2h2.9v.4h-2.9v2.1h2.9v.4h-3.4z"/><path id="XMLID_1053_" class="st2" d="M187.3 122l-3.4-4.6v4.6h-.5v-5.4h.5l3.4 4.5v-4.5h.5v5.4h-.5z"/><path id="XMLID_1051_" class="st2" d="M190.4 122v-4.9h-1.7v-.4h4v.4h-1.8v4.9h-.5z"/><path id="XMLID_1048_" class="st2" d="M110.4 132.4V127h2c1 0 1.6.7 1.6 1.6s-.6 1.6-1.6 1.6h-1.5v2.2h-.5zm3.1-3.8c0-.7-.5-1.1-1.2-1.1h-1.5v2.3h1.5c.7-.1 1.2-.5 1.2-1.2z"/><path id="XMLID_1046_" class="st2" d="M118.8 132.4v-2.5h-3.4v2.5h-.5V127h.5v2.4h3.4V127h.5v5.4h-.5z"/><path id="XMLID_1043_" class="st2" d="M120.4 129.7c0-1.6 1-2.8 2.6-2.8s2.6 1.2 2.6 2.8c0 1.6-1 2.8-2.6 2.8s-2.6-1.2-2.6-2.8zm4.7 0c0-1.4-.8-2.4-2.1-2.4s-2.1 1-2.1 2.4c0 1.3.8 2.4 2.1 2.4s2.1-1 2.1-2.4z"/><path id="XMLID_1041_" class="st2" d="M127.8 132.4v-4.9h-1.7v-.5h4v.4h-1.8v4.9h-.5z"/><path id="XMLID_1038_" class="st2" d="M130.6 129.7c0-1.6 1-2.8 2.6-2.8s2.6 1.2 2.6 2.8c0 1.6-1 2.8-2.6 2.8s-2.6-1.2-2.6-2.8zm4.7 0c0-1.4-.8-2.4-2.1-2.4s-2.1 1-2.1 2.4c0 1.3.8 2.4 2.1 2.4s2.1-1 2.1-2.4z"/><path id="XMLID_1036_" class="st2" d="M136.7 129.7c0-1.7 1.2-2.8 2.7-2.8.9 0 1.5.4 2 .9l-.3.2c-.4-.4-1-.7-1.7-.7-1.3 0-2.2 1-2.2 2.4s1 2.4 2.2 2.4c.7 0 1.3-.4 1.6-.6v-1.3h-2v-.4h2.5v1.9c-.5.5-1.2.9-2 .9-1.6-.1-2.8-1.2-2.8-2.9z"/><path id="XMLID_1033_" class="st2" d="M145.7 132.4l-1.5-2.2H143v2.2h-.5V127h2c.9 0 1.6.6 1.6 1.6s-.7 1.5-1.5 1.5l1.5 2.2h-.4zm.1-3.8c0-.7-.5-1.1-1.2-1.1h-1.5v2.3h1.5c.7-.1 1.2-.5 1.2-1.2z"/><path id="XMLID_1030_" class="st2" d="M151.3 132.4l-.5-1.3H148l-.5 1.3h-.5l2.2-5.4h.6l2.2 5.4h-.7zm-2-4.9l-1.3 3.1h2.5l-1.2-3.1z"/><path id="XMLID_1027_" class="st2" d="M152.6 132.4V127h2c1 0 1.6.7 1.6 1.6s-.6 1.6-1.6 1.6H153v2.2h-.4zm3.1-3.8c0-.7-.5-1.1-1.2-1.1H153v2.3h1.5c.7-.1 1.2-.5 1.2-1.2z"/><path id="XMLID_1025_" class="st2" d="M161 132.4v-2.5h-3.4v2.5h-.5V127h.5v2.4h3.4V127h.5v5.4h-.5z"/><path id="XMLID_1023_" class="st2" d="M164.4 132.4v-2.3l-2.1-3.1h.6l1.8 2.6 1.8-2.6h.6l-2.1 3.1v2.3h-.6z"/></g></g><g id="XMLID_2_"><path id="XMLID_4_" class="st0" d="M94.5 57.5v-1h-7.8v1h2.8c.5 0 1 .4 1 1 0 .1 0 .3-.1.4l-12.9 24-6.9-12.8 5.2-9.9c.8-1.7 2-2.7 3.7-2.7v-1h-7.8v1h2.8c.5 0 1 .4 1 1 0 .1 0 .3-.1.4L70.1 69l-5.4-10.1c-.3-.6.2-1.4.9-1.4h1v-1h-9.8v1c1.7 0 2.9 1 3.7 2.7l7.1 13.5-5 9.3-12.8-24.1c-.3-.6.2-1.4.9-1.4h1v-1h-9.8v1c1.7 0 2.9 1 3.7 2.7l14.7 27.7h1l6.9-13.1 6.9 13.1h1l14.7-27.7c.8-1.7 2-2.7 3.7-2.7z"/><path id="XMLID_3_" class="st0" d="M104.6 49.2l-25 47.1h5l25.1-47.1z"/></g></svg>