<?xml version="1.0" encoding="utf-8"?>
<!-- Generator: Adobe Illustrator 19.0.0, SVG Export Plug-In . SVG Version: 6.00 Build 0)  -->
<svg version="1.1" id="Layer_1" xmlns="http://www.w3.org/2000/svg" xmlns:xlink="http://www.w3.org/1999/xlink" x="0px" y="0px"
	 viewBox="307 200 1226.4 393" style="enable-background:new 307 200 1226.4 393;" xml:space="preserve">
<style type="text/css">
	.st0{enable-background:new    ;}
	.st1{fill:#FFFFFF;}
	.st2{fill:#7F7F7F;}
</style>
<title>Asset 2</title>
<g id="Layer_2">
	<g id="Layer_1-2">
		<path d="M604.4,436.3c3.2-7,8.2-11.1,15.4-11.1v-4.1h-32.5v4.1H599c2.2,0,4.1,1.8,4.1,4.1c0,0.6-0.1,1.1-0.3,1.6l0,0l-53.3,99.9
			l-53.3-99.9c-0.9-2.1,0.1-4.5,2.2-5.4c0.5-0.2,1-0.3,1.6-0.3h4.1v-4.1h-40.6v4.1c7.2,0,12.2,4.1,15.4,11.1l60.8,114.9v0l0,0v0h4.1
			L604.4,436.3z"/>
		<path d="M666.1,436.3c3.2-7,8.2-11.1,15.4-11.1v-4.1H649v4.1h11.6c2.2,0,4.1,1.8,4.1,4.1c0,0.6-0.1,1.1-0.3,1.6l0,0l-53.3,99.8
			l-53.3-99.8c-0.9-2.1,0.1-4.5,2.2-5.4c0.5-0.2,1-0.3,1.6-0.3h4v-4.1H525v4.1c7.2,0,12.2,4.1,15.4,11.1l60.8,114.9v0l0,0v0h4.1
			L666.1,436.3z"/>
		<polygon points="745.7,347.7 619.6,586 640.5,586 766.7,347.7 		"/>
		<rect x="307" y="200" width="945.8" height="197.1"/>
		<g class="st0">
			<path d="M750.6,551.7V420.4h27.9v131.3H750.6z"/>
			<path d="M895,551.7l-62.6-85.6v85.6h-27.9V420.4h28.7l60.8,82.5v-82.5H922v131.3H895z"/>
			<path d="M978.2,551.7V445h-38.4v-24.6h104.7V445h-38.2v106.7H978.2z"/>
			<path d="M1062.5,551.7V420.4h92.9V445h-64.9v27.6h63.6v24.6h-63.6v29.9h64.9v24.6H1062.5z"/>
			<path d="M1267.7,551.7l-62.6-85.6v85.6h-27.9V420.4h28.7l60.8,82.5v-82.5h27.9v131.3H1267.7z"/>
		</g>
		<g class="st0">
			<path d="M1350.9,551.7V445h-38.4v-24.6h104.7V445h-38.2v106.7H1350.9z"/>
		</g>
		<g class="st0">
			<path d="M1412.3,537.9c0-8.7,7.3-15.9,15.9-15.9c8.7,0,15.9,7.3,15.9,15.9s-7.3,15.9-15.9,15.9
				C1419.6,553.8,1412.3,546.6,1412.3,537.9z"/>
		</g>
		<g class="st0">
			<path class="st1" d="M376.5,368.6V237.3h51.8c41.1,0,69.7,26.2,69.7,65.5c0,39.8-28.5,65.7-69.5,65.7H376.5z M469.3,302.9
				c0-23-14.2-40.9-40.9-40.9h-24V344h23.8C454.2,344,469.3,325.3,469.3,302.9z"/>
			<path class="st1" d="M517.8,368.6V237.3h92.9v24.6h-64.9v27.6h63.6v24.6h-63.6V344h64.9v24.6H517.8z"/>
			<path class="st1" d="M623.4,350.1l15.3-21.8c9.2,9.6,23.6,17.9,41.7,17.9c15.5,0,22.8-6.9,22.8-14.6c0-22.8-75.6-6.9-75.6-56.3
				c0-21.8,18.9-39.9,49.8-39.9c20.9,0,38.2,6.3,51.2,18.3l-15.5,20.9c-10.6-9.8-24.8-14.4-38.2-14.4c-11.8,0-18.5,5.1-18.5,13
				c0,20.7,75.4,6.7,75.4,55.7c0,24-17.3,42.1-52.5,42.1C653.9,371,635.8,362.5,623.4,350.1z"/>
			<path class="st1" d="M750.6,368.6V237.3h27.9v131.3H750.6z"/>
			<path class="st1" d="M798.2,303.1c0-41.5,31.5-67.9,70.1-67.9c27.2,0,44.3,13.8,54.1,29.3l-23,12.6c-6.1-9.2-17.3-17.1-31.1-17.1
				c-24,0-41.3,18.3-41.3,43.1s17.3,43.1,41.3,43.1c11.6,0,22.4-5.1,27.7-10v-15.7h-34.6V296h62.6v50.4
				c-13.4,15-32.1,24.6-55.7,24.6C829.7,371,798.2,344.4,798.2,303.1z"/>
			<path class="st1" d="M1036.7,368.6L974.1,283v85.6h-27.9V237.3h28.7l60.8,82.5v-82.5h27.9v131.3H1036.7z"/>
		</g>
		<g class="st0">
			<path class="st2" d="M748.3,578c0-5,3.7-8.3,8.2-8.3c2.9,0,4.8,1.2,6.2,3l-1.6,1c-1-1.3-2.7-2.2-4.6-2.2c-3.5,0-6.2,2.7-6.2,6.5
				c0,3.8,2.7,6.5,6.2,6.5c1.9,0,3.5-0.9,4.3-1.7v-3.2h-5.5v-1.8h7.5v5.8c-1.5,1.7-3.7,2.8-6.3,2.8C752,586.3,748.3,582.9,748.3,578
				z"/>
		</g>
		<g class="st0">
			<path class="st2" d="M774.9,586l-4.1-6.4h-3.2v6.4h-2v-16h6.4c2.9,0,5,1.9,5,4.8c0,2.9-2,4.5-4.2,4.7l4.3,6.5H774.9z M775,574.8
				c0-1.8-1.3-3-3.2-3h-4.2v6.1h4.2C773.7,577.8,775,576.6,775,574.8z"/>
		</g>
		<g class="st0">
			<path class="st2" d="M791.5,586l-1.4-3.6h-8l-1.4,3.6h-2.3l6.5-16h2.5l6.4,16H791.5z M786.1,572l-3.4,8.6h6.8L786.1,572z"/>
		</g>
		<g class="st0">
			<path class="st2" d="M795.4,586v-16h6.4c3.2,0,5,2.2,5,4.8s-1.8,4.8-5,4.8h-4.4v6.4H795.4z M804.7,574.8c0-1.8-1.3-3-3.2-3h-4.2
				v6.1h4.2C803.4,577.8,804.7,576.6,804.7,574.8z"/>
		</g>
		<g class="st0">
			<path class="st2" d="M820,586v-7.3h-9.4v7.3h-2v-16h2v6.9h9.4v-6.9h2v16H820z"/>
		</g>
		<g class="st0">
			<path class="st2" d="M825.2,586v-16h2v16H825.2z"/>
		</g>
		<g class="st0">
			<path class="st2" d="M829.7,578c0-4.9,3.6-8.3,8.2-8.3c2.8,0,4.8,1.3,6.1,3.2l-1.7,0.9c-0.9-1.4-2.6-2.3-4.4-2.3
				c-3.5,0-6.2,2.7-6.2,6.5c0,3.8,2.7,6.5,6.2,6.5c1.8,0,3.5-1,4.4-2.3l1.7,0.9c-1.3,1.8-3.3,3.2-6.1,3.2
				C833.3,586.2,829.7,582.9,829.7,578z"/>
		</g>
		<g class="st0">
			<path class="st2" d="M851.6,586v-16h5.5c5,0,8.2,3.5,8.2,8c0,4.6-3.2,8-8.2,8H851.6z M863.2,578c0-3.5-2.2-6.2-6.1-6.2h-3.5v12.5
				h3.5C860.9,584.2,863.2,581.4,863.2,578z"/>
			<path class="st2" d="M867.7,586v-16h10.5v1.8h-8.5v5.2h8.3v1.8h-8.3v5.5h8.5v1.8H867.7z"/>
		</g>
		<g class="st0">
			<path class="st2" d="M879.8,583.7l1.2-1.5c1,1.2,2.8,2.3,5,2.3c2.9,0,3.8-1.5,3.8-2.8c0-4.1-9.5-1.8-9.5-7.5
				c0-2.6,2.4-4.5,5.5-4.5c2.4,0,4.3,0.8,5.7,2.3l-1.2,1.5c-1.2-1.3-2.9-1.9-4.6-1.9c-1.9,0-3.3,1-3.3,2.5c0,3.6,9.5,1.5,9.5,7.5
				c0,2.3-1.6,4.7-5.9,4.7C883.2,586.2,881.1,585.2,879.8,583.7z"/>
		</g>
		<g class="st0">
			<path class="st2" d="M894.2,586v-16h2v16H894.2z"/>
		</g>
		<g class="st0">
			<path class="st2" d="M898.7,578c0-5,3.7-8.3,8.2-8.3c2.9,0,4.8,1.2,6.2,3l-1.6,1c-1-1.3-2.7-2.2-4.6-2.2c-3.5,0-6.2,2.7-6.2,6.5
				c0,3.8,2.7,6.5,6.2,6.5c1.9,0,3.5-0.9,4.3-1.7v-3.2h-5.5v-1.8h7.5v5.8c-1.5,1.7-3.7,2.8-6.3,2.8
				C902.4,586.3,898.7,582.9,898.7,578z"/>
		</g>
		<g class="st0">
			<path class="st2" d="M927.4,586l-9.3-12.8V586h-2v-16h2l9.2,12.5v-12.5h2v16H927.4z"/>
			<path class="st2" d="M940.7,582.7c-1.4,0-2.6-1.2-2.6-2.6c0-1.4,1.2-2.6,2.6-2.6s2.6,1.2,2.6,2.6
				C943.3,581.5,942.1,582.7,940.7,582.7z"/>
		</g>
		<g class="st0">
			<path class="st2" d="M963.9,586l-3.5-12.9l-3.5,12.9h-2.2l-4.6-16h2.2l3.6,13.3l3.7-13.3h1.7l3.7,13.3l3.5-13.3h2.2l-4.6,16
				H963.9z"/>
		</g>
		<g class="st0">
			<path class="st2" d="M972.3,586v-16h10.5v1.8h-8.5v5.2h8.3v1.8h-8.3v5.5h8.5v1.8H972.3z"/>
		</g>
		<g class="st0">
			<path class="st2" d="M985.3,586v-16h7.1c2.8,0,4.5,1.7,4.5,4.1c0,2-1.3,3.4-2.8,3.7c1.7,0.3,3.1,2,3.1,3.9c0,2.6-1.7,4.3-4.6,4.3
				H985.3z M994.8,574.3c0-1.4-1-2.6-2.8-2.6h-4.8v5.2h4.8C993.9,576.9,994.8,575.8,994.8,574.3z M995.2,581.4c0-1.5-1-2.8-3-2.8
				h-4.9v5.5h4.9C994.1,584.2,995.2,583.1,995.2,581.4z"/>
		</g>
		<g class="st0">
			<path class="st2" d="M1005.4,586v-16h5.5c5,0,8.2,3.5,8.2,8c0,4.6-3.2,8-8.2,8H1005.4z M1017,578c0-3.5-2.2-6.2-6.1-6.2h-3.5
				v12.5h3.5C1014.8,584.2,1017,581.4,1017,578z"/>
			<path class="st2" d="M1021.5,586v-16h10.5v1.8h-8.5v5.2h8.3v1.8h-8.3v5.5h8.5v1.8H1021.5z"/>
		</g>
		<g class="st0">
			<path class="st2" d="M1033.6,583.7l1.2-1.5c1,1.2,2.8,2.3,5,2.3c2.9,0,3.8-1.5,3.8-2.8c0-4.1-9.5-1.8-9.5-7.5
				c0-2.6,2.4-4.5,5.5-4.5c2.4,0,4.3,0.8,5.7,2.3l-1.2,1.5c-1.2-1.3-2.9-1.9-4.6-1.9c-1.9,0-3.3,1-3.3,2.5c0,3.6,9.5,1.5,9.5,7.5
				c0,2.3-1.6,4.7-5.9,4.7C1037,586.2,1034.9,585.2,1033.6,583.7z"/>
		</g>
		<g class="st0">
			<path class="st2" d="M1048.1,586v-16h2v16H1048.1z"/>
		</g>
		<g class="st0">
			<path class="st2" d="M1052.5,578c0-5,3.7-8.3,8.2-8.3c2.9,0,4.8,1.2,6.2,3l-1.6,1c-1-1.3-2.7-2.2-4.6-2.2c-3.5,0-6.2,2.7-6.2,6.5
				c0,3.8,2.7,6.5,6.2,6.5c1.9,0,3.5-0.9,4.3-1.7v-3.2h-5.5v-1.8h7.5v5.8c-1.5,1.7-3.7,2.8-6.3,2.8
				C1056.2,586.3,1052.5,582.9,1052.5,578z"/>
		</g>
		<g class="st0">
			<path class="st2" d="M1081.2,586l-9.3-12.8V586h-2v-16h2l9.2,12.5v-12.5h2v16H1081.2z"/>
			<path class="st2" d="M1094.6,582.7c-1.4,0-2.6-1.2-2.6-2.6c0-1.4,1.2-2.6,2.6-2.6s2.6,1.2,2.6,2.6
				C1097.2,581.5,1096,582.7,1094.6,582.7z"/>
		</g>
		<g class="st0">
			<path class="st2" d="M1105.5,586v-16h7.1c2.8,0,4.5,1.7,4.5,4.1c0,2-1.3,3.4-2.8,3.7c1.7,0.3,3.1,2,3.1,3.9
				c0,2.6-1.7,4.3-4.6,4.3H1105.5z M1115,574.3c0-1.4-1-2.6-2.8-2.6h-4.8v5.2h4.8C1114.1,576.9,1115,575.8,1115,574.3z
				 M1115.3,581.4c0-1.5-1-2.8-3-2.8h-4.9v5.5h4.9C1114.2,584.2,1115.3,583.1,1115.3,581.4z"/>
		</g>
		<g class="st0">
			<path class="st2" d="M1129.3,586l-4.1-6.4h-3.2v6.4h-2v-16h6.4c2.9,0,5,1.9,5,4.8c0,2.9-2,4.5-4.2,4.7l4.3,6.5H1129.3z
				 M1129.5,574.8c0-1.8-1.3-3-3.2-3h-4.2v6.1h4.2C1128.2,577.8,1129.5,576.6,1129.5,574.8z"/>
		</g>
		<g class="st0">
			<path class="st2" d="M1146,586l-1.4-3.6h-8l-1.4,3.6h-2.3l6.5-16h2.5l6.4,16H1146z M1140.6,572l-3.4,8.6h6.8L1140.6,572z"/>
		</g>
		<g class="st0">
			<path class="st2" d="M1161.1,586l-9.3-12.8V586h-2v-16h2l9.2,12.5v-12.5h2v16H1161.1z"/>
		</g>
		<g class="st0">
			<path class="st2" d="M1166.3,586v-16h5.5c5,0,8.2,3.5,8.2,8c0,4.6-3.2,8-8.2,8H1166.3z M1177.9,578c0-3.5-2.2-6.2-6.1-6.2h-3.5
				v12.5h3.5C1175.7,584.2,1177.9,581.4,1177.9,578z"/>
		</g>
		<g class="st0">
			<path class="st2" d="M1188.1,586v-16h5.5c5,0,8.2,3.5,8.2,8c0,4.6-3.2,8-8.2,8H1188.1z M1199.8,578c0-3.5-2.2-6.2-6.1-6.2h-3.5
				v12.5h3.5C1197.5,584.2,1199.8,581.4,1199.8,578z"/>
		</g>
		<g class="st0">
			<path class="st2" d="M1204.3,586v-16h10.5v1.8h-8.5v5.2h8.3v1.8h-8.3v5.5h8.5v1.8H1204.3z"/>
		</g>
		<g class="st0">
			<path class="st2" d="M1222.5,586l-6.5-16h2.3l5.4,13.8l5.4-13.8h2.3l-6.4,16H1222.5z"/>
		</g>
		<g class="st0">
			<path class="st2" d="M1233,586v-16h10.5v1.8h-8.5v5.2h8.3v1.8h-8.3v5.5h8.5v1.8H1233z"/>
		</g>
		<g class="st0">
			<path class="st2" d="M1245.9,586v-16h2v14.2h7.4v1.8H1245.9z"/>
		</g>
		<g class="st0">
			<path class="st2" d="M1255.7,578c0-4.7,3.2-8.3,7.9-8.3s8,3.6,8,8.3c0,4.7-3.2,8.3-8,8.3S1255.7,582.7,1255.7,578z M1269.6,578
				c0-3.7-2.3-6.5-5.9-6.5c-3.6,0-5.9,2.8-5.9,6.5c0,3.7,2.3,6.5,5.9,6.5C1267.2,584.5,1269.6,581.7,1269.6,578z"/>
		</g>
		<g class="st0">
			<path class="st2" d="M1274.1,586v-16h6.4c3.2,0,5,2.2,5,4.8s-1.8,4.8-5,4.8h-4.4v6.4H1274.1z M1283.5,574.8c0-1.8-1.3-3-3.2-3
				h-4.2v6.1h4.2C1282.2,577.8,1283.5,576.6,1283.5,574.8z"/>
		</g>
		<g class="st0">
			<path class="st2" d="M1301.1,586v-13.5l-5.4,13.5h-0.8l-5.4-13.5V586h-2v-16h2.9l5,12.3l5-12.3h2.9v16H1301.1z"/>
		</g>
		<g class="st0">
			<path class="st2" d="M1306.4,586v-16h10.5v1.8h-8.5v5.2h8.3v1.8h-8.3v5.5h8.5v1.8H1306.4z"/>
		</g>
		<g class="st0">
			<path class="st2" d="M1330.7,586l-9.3-12.8V586h-2v-16h2l9.2,12.5v-12.5h2v16H1330.7z"/>
		</g>
		<g class="st0">
			<path class="st2" d="M1339.5,586v-14.2h-5.1v-1.8h12.1v1.8h-5.1V586H1339.5z"/>
			<path class="st2" d="M1356.5,582.7c-1.4,0-2.6-1.2-2.6-2.6c0-1.4,1.2-2.6,2.6-2.6s2.6,1.2,2.6,2.6
				C1359.1,581.5,1357.9,582.7,1356.5,582.7z"/>
		</g>
		<g class="st0">
			<path class="st2" d="M1367.9,586v-16h6.4c3.2,0,5,2.2,5,4.8s-1.8,4.8-5,4.8h-4.4v6.4H1367.9z M1377.3,574.8c0-1.8-1.3-3-3.2-3
				h-4.2v6.1h4.2C1376,577.8,1377.3,576.6,1377.3,574.8z"/>
		</g>
		<g class="st0">
			<path class="st2" d="M1392.5,586v-7.3h-9.4v7.3h-2v-16h2v6.9h9.4v-6.9h2v16H1392.5z"/>
		</g>
		<g class="st0">
			<path class="st2" d="M1397,578c0-4.7,3.2-8.3,7.9-8.3s8,3.6,8,8.3c0,4.7-3.2,8.3-8,8.3S1397,582.7,1397,578z M1410.8,578
				c0-3.7-2.3-6.5-5.9-6.5c-3.6,0-5.9,2.8-5.9,6.5c0,3.7,2.3,6.5,5.9,6.5C1408.5,584.5,1410.8,581.7,1410.8,578z"/>
		</g>
		<g class="st0">
			<path class="st2" d="M1418.4,586v-14.2h-5.1v-1.8h12.1v1.8h-5.1V586H1418.4z"/>
		</g>
		<g class="st0">
			<path class="st2" d="M1425.9,578c0-4.7,3.2-8.3,7.9-8.3c4.7,0,8,3.6,8,8.3c0,4.7-3.2,8.3-8,8.3
				C1429.1,586.2,1425.9,582.7,1425.9,578z M1439.7,578c0-3.7-2.3-6.5-5.9-6.5c-3.6,0-5.9,2.8-5.9,6.5c0,3.7,2.3,6.5,5.9,6.5
				C1437.4,584.5,1439.7,581.7,1439.7,578z"/>
		</g>
		<g class="st0">
			<path class="st2" d="M1443.6,578c0-5,3.7-8.3,8.2-8.3c2.9,0,4.8,1.2,6.2,3l-1.6,1c-1-1.3-2.7-2.2-4.6-2.2c-3.5,0-6.2,2.7-6.2,6.5
				c0,3.8,2.7,6.5,6.2,6.5c1.9,0,3.5-0.9,4.3-1.7v-3.2h-5.5v-1.8h7.5v5.8c-1.5,1.7-3.7,2.8-6.3,2.8
				C1447.2,586.3,1443.6,582.9,1443.6,578z"/>
		</g>
		<g class="st0">
			<path class="st2" d="M1470.1,586l-4.1-6.4h-3.2v6.4h-2v-16h6.4c2.9,0,5,1.9,5,4.8c0,2.9-2,4.5-4.2,4.7l4.3,6.5H1470.1z
				 M1470.3,574.8c0-1.8-1.3-3-3.2-3h-4.2v6.1h4.2C1469,577.8,1470.3,576.6,1470.3,574.8z"/>
		</g>
		<g class="st0">
			<path class="st2" d="M1486.8,586l-1.4-3.6h-8l-1.4,3.6h-2.3l6.5-16h2.5l6.4,16H1486.8z M1481.4,572l-3.4,8.6h6.8L1481.4,572z"/>
		</g>
		<g class="st0">
			<path class="st2" d="M1490.6,586v-16h6.4c3.2,0,5,2.2,5,4.8s-1.8,4.8-5,4.8h-4.4v6.4H1490.6z M1500,574.8c0-1.8-1.3-3-3.2-3h-4.2
				v6.1h4.2C1498.7,577.8,1500,576.6,1500,574.8z"/>
		</g>
		<g class="st0">
			<path class="st2" d="M1515.2,586v-7.3h-9.4v7.3h-2v-16h2v6.9h9.4v-6.9h2v16H1515.2z"/>
		</g>
		<g class="st0">
			<path class="st2" d="M1525.1,586v-6.8l-6.3-9.2h2.3l5,7.4l5-7.4h2.3l-6.3,9.2v6.8H1525.1z"/>
		</g>
	</g>
</g>
</svg>
