<svg xmlns="http://www.w3.org/2000/svg" viewBox="0 0 57.98 45.53"><title>Asset 4</title><g id="Layer_2" data-name="Layer 2"><g id="Layer_1-2" data-name="Layer 1"><path d="M27,16.93a3.16,3.16,0,0,1,2.95-2.12V14H23.7v.78h2.22a.78.78,0,0,1,.71,1.09h0L16.46,35,6.28,15.89A.78.78,0,0,1,7,14.81h.77V14H0v.78a3.16,3.16,0,0,1,2.95,2.12l11.62,22h.78Z"/><path d="M38.77,16.93a3.16,3.16,0,0,1,2.95-2.12V14H35.5v.78h2.22a.78.78,0,0,1,.71,1.09h0L28.25,35,18.07,15.89a.78.78,0,0,1,.72-1.09h.77V14H11.79v.78a3.16,3.16,0,0,1,2.95,2.12l11.62,22h.78Z"/><polygon points="53.97 0 29.87 45.53 33.88 45.53 57.98 0 53.97 0"/></g></g></svg>