<svg id="Layer_1" xmlns="http://www.w3.org/2000/svg" viewBox="307 200 1226.4 393"><style>.st0{enable-background:new ;} .st1{fill:#FFFFFF;} .st2{fill:#7F7F7F;}</style><title>Asset 2</title><g id="Layer_2"><g id="Layer_1-2"><path d="M604.4 436.3c3.2-7 8.2-11.1 15.4-11.1v-4.1h-32.5v4.1H599c2.2 0 4.1 1.8 4.1 4.1 0 .6-.1 1.1-.3 1.6l-53.3 99.9-53.3-99.9c-.9-2.1.1-4.5 2.2-5.4.5-.2 1-.3 1.6-.3h4.1v-4.1h-40.6v4.1c7.2 0 12.2 4.1 15.4 11.1l60.8 114.9h4.1l60.6-114.9z"/><path d="M666.1 436.3c3.2-7 8.2-11.1 15.4-11.1v-4.1H649v4.1h11.6c2.2 0 4.1 1.8 4.1 4.1 0 .6-.1 1.1-.3 1.6l-53.3 99.8-53.3-99.8c-.9-2.1.1-4.5 2.2-5.4.5-.2 1-.3 1.6-.3h4v-4.1H525v4.1c7.2 0 12.2 4.1 15.4 11.1l60.8 114.9h4.1l60.8-114.9zM745.7 347.7L619.6 586h20.9l126.2-238.3z"/><path d="M307 200h945.8v197.1H307z"/><g class="st0"><path d="M750.6 551.7V420.4h27.9v131.3h-27.9zM895 551.7l-62.6-85.6v85.6h-27.9V420.4h28.7l60.8 82.5v-82.5h28v131.3h-27zM978.2 551.7V445h-38.4v-24.6h104.7V445h-38.2v106.7h-28.1zM1062.5 551.7V420.4h92.9V445h-64.9v27.6h63.6v24.6h-63.6v29.9h64.9v24.6h-92.9zM1267.7 551.7l-62.6-85.6v85.6h-27.9V420.4h28.7l60.8 82.5v-82.5h27.9v131.3h-26.9z"/></g><path d="M1350.9 551.7V445h-38.4v-24.6h104.7V445H1379v106.7h-28.1zM1412.3 537.9c0-8.7 7.3-15.9 15.9-15.9 8.7 0 15.9 7.3 15.9 15.9s-7.3 15.9-15.9 15.9c-8.6 0-15.9-7.2-15.9-15.9z" class="st0"/><g class="st0"><path class="st1" d="M376.5 368.6V237.3h51.8c41.1 0 69.7 26.2 69.7 65.5 0 39.8-28.5 65.7-69.5 65.7h-52zm92.8-65.7c0-23-14.2-40.9-40.9-40.9h-24v82h23.8c26 0 41.1-18.7 41.1-41.1zM517.8 368.6V237.3h92.9v24.6h-64.9v27.6h63.6v24.6h-63.6V344h64.9v24.6h-92.9zM623.4 350.1l15.3-21.8c9.2 9.6 23.6 17.9 41.7 17.9 15.5 0 22.8-6.9 22.8-14.6 0-22.8-75.6-6.9-75.6-56.3 0-21.8 18.9-39.9 49.8-39.9 20.9 0 38.2 6.3 51.2 18.3l-15.5 20.9c-10.6-9.8-24.8-14.4-38.2-14.4-11.8 0-18.5 5.1-18.5 13 0 20.7 75.4 6.7 75.4 55.7 0 24-17.3 42.1-52.5 42.1-25.4 0-43.5-8.5-55.9-20.9zM750.6 368.6V237.3h27.9v131.3h-27.9zM798.2 303.1c0-41.5 31.5-67.9 70.1-67.9 27.2 0 44.3 13.8 54.1 29.3l-23 12.6c-6.1-9.2-17.3-17.1-31.1-17.1-24 0-41.3 18.3-41.3 43.1s17.3 43.1 41.3 43.1c11.6 0 22.4-5.1 27.7-10v-15.7h-34.6V296H924v50.4c-13.4 15-32.1 24.6-55.7 24.6-38.6 0-70.1-26.6-70.1-67.9zM1036.7 368.6L974.1 283v85.6h-27.9V237.3h28.7l60.8 82.5v-82.5h27.9v131.3h-26.9z"/></g><path class="st0 st2" d="M748.3 578c0-5 3.7-8.3 8.2-8.3 2.9 0 4.8 1.2 6.2 3l-1.6 1c-1-1.3-2.7-2.2-4.6-2.2-3.5 0-6.2 2.7-6.2 6.5s2.7 6.5 6.2 6.5c1.9 0 3.5-.9 4.3-1.7v-3.2h-5.5v-1.8h7.5v5.8c-1.5 1.7-3.7 2.8-6.3 2.8-4.5-.1-8.2-3.5-8.2-8.4zM774.9 586l-4.1-6.4h-3.2v6.4h-2v-16h6.4c2.9 0 5 1.9 5 4.8s-2 4.5-4.2 4.7l4.3 6.5h-2.2zm.1-11.2c0-1.8-1.3-3-3.2-3h-4.2v6.1h4.2c1.9-.1 3.2-1.3 3.2-3.1zM791.5 586l-1.4-3.6h-8l-1.4 3.6h-2.3l6.5-16h2.5l6.4 16h-2.3zm-5.4-14l-3.4 8.6h6.8l-3.4-8.6zM795.4 586v-16h6.4c3.2 0 5 2.2 5 4.8s-1.8 4.8-5 4.8h-4.4v6.4h-2zm9.3-11.2c0-1.8-1.3-3-3.2-3h-4.2v6.1h4.2c1.9-.1 3.2-1.3 3.2-3.1zM820 586v-7.3h-9.4v7.3h-2v-16h2v6.9h9.4V570h2v16h-2zM825.2 586v-16h2v16h-2zM829.7 578c0-4.9 3.6-8.3 8.2-8.3 2.8 0 4.8 1.3 6.1 3.2l-1.7.9c-.9-1.4-2.6-2.3-4.4-2.3-3.5 0-6.2 2.7-6.2 6.5s2.7 6.5 6.2 6.5c1.8 0 3.5-1 4.4-2.3l1.7.9c-1.3 1.8-3.3 3.2-6.1 3.2-4.6-.1-8.2-3.4-8.2-8.3z"/><g class="st0"><path class="st2" d="M851.6 586v-16h5.5c5 0 8.2 3.5 8.2 8 0 4.6-3.2 8-8.2 8h-5.5zm11.6-8c0-3.5-2.2-6.2-6.1-6.2h-3.5v12.5h3.5c3.8-.1 6.1-2.9 6.1-6.3zM867.7 586v-16h10.5v1.8h-8.5v5.2h8.3v1.8h-8.3v5.5h8.5v1.8h-10.5z"/></g><path class="st0 st2" d="M879.8 583.7l1.2-1.5c1 1.2 2.8 2.3 5 2.3 2.9 0 3.8-1.5 3.8-2.8 0-4.1-9.5-1.8-9.5-7.5 0-2.6 2.4-4.5 5.5-4.5 2.4 0 4.3.8 5.7 2.3l-1.2 1.5c-1.2-1.3-2.9-1.9-4.6-1.9-1.9 0-3.3 1-3.3 2.5 0 3.6 9.5 1.5 9.5 7.5 0 2.3-1.6 4.7-5.9 4.7-2.8-.1-4.9-1.1-6.2-2.6zM894.2 586v-16h2v16h-2zM898.7 578c0-5 3.7-8.3 8.2-8.3 2.9 0 4.8 1.2 6.2 3l-1.6 1c-1-1.3-2.7-2.2-4.6-2.2-3.5 0-6.2 2.7-6.2 6.5s2.7 6.5 6.2 6.5c1.9 0 3.5-.9 4.3-1.7v-3.2h-5.5v-1.8h7.5v5.8c-1.5 1.7-3.7 2.8-6.3 2.8-4.5-.1-8.2-3.5-8.2-8.4z"/><g class="st0"><path class="st2" d="M927.4 586l-9.3-12.8V586h-2v-16h2l9.2 12.5V570h2v16h-1.9zM940.7 582.7c-1.4 0-2.6-1.2-2.6-2.6 0-1.4 1.2-2.6 2.6-2.6s2.6 1.2 2.6 2.6c0 1.4-1.2 2.6-2.6 2.6z"/></g><path class="st0 st2" d="M963.9 586l-3.5-12.9-3.5 12.9h-2.2l-4.6-16h2.2l3.6 13.3 3.7-13.3h1.7l3.7 13.3 3.5-13.3h2.2l-4.6 16h-2.2zM972.3 586v-16h10.5v1.8h-8.5v5.2h8.3v1.8h-8.3v5.5h8.5v1.8h-10.5zM985.3 586v-16h7.1c2.8 0 4.5 1.7 4.5 4.1 0 2-1.3 3.4-2.8 3.7 1.7.3 3.1 2 3.1 3.9 0 2.6-1.7 4.3-4.6 4.3h-7.3zm9.5-11.7c0-1.4-1-2.6-2.8-2.6h-4.8v5.2h4.8c1.9 0 2.8-1.1 2.8-2.6zm.4 7.1c0-1.5-1-2.8-3-2.8h-4.9v5.5h4.9c1.9.1 3-1 3-2.7z"/><g class="st0"><path class="st2" d="M1005.4 586v-16h5.5c5 0 8.2 3.5 8.2 8 0 4.6-3.2 8-8.2 8h-5.5zm11.6-8c0-3.5-2.2-6.2-6.1-6.2h-3.5v12.5h3.5c3.9-.1 6.1-2.9 6.1-6.3zM1021.5 586v-16h10.5v1.8h-8.5v5.2h8.3v1.8h-8.3v5.5h8.5v1.8h-10.5z"/></g><path class="st0 st2" d="M1033.6 583.7l1.2-1.5c1 1.2 2.8 2.3 5 2.3 2.9 0 3.8-1.5 3.8-2.8 0-4.1-9.5-1.8-9.5-7.5 0-2.6 2.4-4.5 5.5-4.5 2.4 0 4.3.8 5.7 2.3l-1.2 1.5c-1.2-1.3-2.9-1.9-4.6-1.9-1.9 0-3.3 1-3.3 2.5 0 3.6 9.5 1.5 9.5 7.5 0 2.3-1.6 4.7-5.9 4.7-2.8-.1-4.9-1.1-6.2-2.6zM1048.1 586v-16h2v16h-2zM1052.5 578c0-5 3.7-8.3 8.2-8.3 2.9 0 4.8 1.2 6.2 3l-1.6 1c-1-1.3-2.7-2.2-4.6-2.2-3.5 0-6.2 2.7-6.2 6.5s2.7 6.5 6.2 6.5c1.9 0 3.5-.9 4.3-1.7v-3.2h-5.5v-1.8h7.5v5.8c-1.5 1.7-3.7 2.8-6.3 2.8-4.5-.1-8.2-3.5-8.2-8.4z"/><g class="st0"><path class="st2" d="M1081.2 586l-9.3-12.8V586h-2v-16h2l9.2 12.5V570h2v16h-1.9zM1094.6 582.7c-1.4 0-2.6-1.2-2.6-2.6 0-1.4 1.2-2.6 2.6-2.6s2.6 1.2 2.6 2.6c0 1.4-1.2 2.6-2.6 2.6z"/></g><path class="st0 st2" d="M1105.5 586v-16h7.1c2.8 0 4.5 1.7 4.5 4.1 0 2-1.3 3.4-2.8 3.7 1.7.3 3.1 2 3.1 3.9 0 2.6-1.7 4.3-4.6 4.3h-7.3zm9.5-11.7c0-1.4-1-2.6-2.8-2.6h-4.8v5.2h4.8c1.9 0 2.8-1.1 2.8-2.6zm.3 7.1c0-1.5-1-2.8-3-2.8h-4.9v5.5h4.9c1.9.1 3-1 3-2.7zM1129.3 586l-4.1-6.4h-3.2v6.4h-2v-16h6.4c2.9 0 5 1.9 5 4.8s-2 4.5-4.2 4.7l4.3 6.5h-2.2zm.2-11.2c0-1.8-1.3-3-3.2-3h-4.2v6.1h4.2c1.9-.1 3.2-1.3 3.2-3.1zM1146 586l-1.4-3.6h-8l-1.4 3.6h-2.3l6.5-16h2.5l6.4 16h-2.3zm-5.4-14l-3.4 8.6h6.8l-3.4-8.6zM1161.1 586l-9.3-12.8V586h-2v-16h2l9.2 12.5V570h2v16h-1.9zM1166.3 586v-16h5.5c5 0 8.2 3.5 8.2 8 0 4.6-3.2 8-8.2 8h-5.5zm11.6-8c0-3.5-2.2-6.2-6.1-6.2h-3.5v12.5h3.5c3.9-.1 6.1-2.9 6.1-6.3zM1188.1 586v-16h5.5c5 0 8.2 3.5 8.2 8 0 4.6-3.2 8-8.2 8h-5.5zm11.7-8c0-3.5-2.2-6.2-6.1-6.2h-3.5v12.5h3.5c3.8-.1 6.1-2.9 6.1-6.3zM1204.3 586v-16h10.5v1.8h-8.5v5.2h8.3v1.8h-8.3v5.5h8.5v1.8h-10.5zM1222.5 586l-6.5-16h2.3l5.4 13.8 5.4-13.8h2.3l-6.4 16h-2.5zM1233 586v-16h10.5v1.8h-8.5v5.2h8.3v1.8h-8.3v5.5h8.5v1.8H1233zM1245.9 586v-16h2v14.2h7.4v1.8h-9.4zM1255.7 578c0-4.7 3.2-8.3 7.9-8.3s8 3.6 8 8.3c0 4.7-3.2 8.3-8 8.3s-7.9-3.6-7.9-8.3zm13.9 0c0-3.7-2.3-6.5-5.9-6.5-3.6 0-5.9 2.8-5.9 6.5s2.3 6.5 5.9 6.5c3.5 0 5.9-2.8 5.9-6.5zM1274.1 586v-16h6.4c3.2 0 5 2.2 5 4.8s-1.8 4.8-5 4.8h-4.4v6.4h-2zm9.4-11.2c0-1.8-1.3-3-3.2-3h-4.2v6.1h4.2c1.9-.1 3.2-1.3 3.2-3.1zM1301.1 586v-13.5l-5.4 13.5h-.8l-5.4-13.5V586h-2v-16h2.9l5 12.3 5-12.3h2.9v16h-2.2zM1306.4 586v-16h10.5v1.8h-8.5v5.2h8.3v1.8h-8.3v5.5h8.5v1.8h-10.5zM1330.7 586l-9.3-12.8V586h-2v-16h2l9.2 12.5V570h2v16h-1.9z"/><g class="st0"><path class="st2" d="M1339.5 586v-14.2h-5.1V570h12.1v1.8h-5.1V586h-1.9zM1356.5 582.7c-1.4 0-2.6-1.2-2.6-2.6 0-1.4 1.2-2.6 2.6-2.6s2.6 1.2 2.6 2.6c0 1.4-1.2 2.6-2.6 2.6z"/></g><path class="st0 st2" d="M1367.9 586v-16h6.4c3.2 0 5 2.2 5 4.8s-1.8 4.8-5 4.8h-4.4v6.4h-2zm9.4-11.2c0-1.8-1.3-3-3.2-3h-4.2v6.1h4.2c1.9-.1 3.2-1.3 3.2-3.1zM1392.5 586v-7.3h-9.4v7.3h-2v-16h2v6.9h9.4V570h2v16h-2zM1397 578c0-4.7 3.2-8.3 7.9-8.3s8 3.6 8 8.3c0 4.7-3.2 8.3-8 8.3s-7.9-3.6-7.9-8.3zm13.8 0c0-3.7-2.3-6.5-5.9-6.5-3.6 0-5.9 2.8-5.9 6.5s2.3 6.5 5.9 6.5c3.6 0 5.9-2.8 5.9-6.5zM1418.4 586v-14.2h-5.1V570h12.1v1.8h-5.1V586h-1.9zM1425.9 578c0-4.7 3.2-8.3 7.9-8.3s8 3.6 8 8.3c0 4.7-3.2 8.3-8 8.3-4.7-.1-7.9-3.6-7.9-8.3zm13.8 0c0-3.7-2.3-6.5-5.9-6.5-3.6 0-5.9 2.8-5.9 6.5s2.3 6.5 5.9 6.5c3.6 0 5.9-2.8 5.9-6.5zM1443.6 578c0-5 3.7-8.3 8.2-8.3 2.9 0 4.8 1.2 6.2 3l-1.6 1c-1-1.3-2.7-2.2-4.6-2.2-3.5 0-6.2 2.7-6.2 6.5s2.7 6.5 6.2 6.5c1.9 0 3.5-.9 4.3-1.7v-3.2h-5.5v-1.8h7.5v5.8c-1.5 1.7-3.7 2.8-6.3 2.8-4.6-.1-8.2-3.5-8.2-8.4zM1470.1 586l-4.1-6.4h-3.2v6.4h-2v-16h6.4c2.9 0 5 1.9 5 4.8s-2 4.5-4.2 4.7l4.3 6.5h-2.2zm.2-11.2c0-1.8-1.3-3-3.2-3h-4.2v6.1h4.2c1.9-.1 3.2-1.3 3.2-3.1zM1486.8 586l-1.4-3.6h-8l-1.4 3.6h-2.3l6.5-16h2.5l6.4 16h-2.3zm-5.4-14l-3.4 8.6h6.8l-3.4-8.6zM1490.6 586v-16h6.4c3.2 0 5 2.2 5 4.8s-1.8 4.8-5 4.8h-4.4v6.4h-2zm9.4-11.2c0-1.8-1.3-3-3.2-3h-4.2v6.1h4.2c1.9-.1 3.2-1.3 3.2-3.1zM1515.2 586v-7.3h-9.4v7.3h-2v-16h2v6.9h9.4V570h2v16h-2zM1525.1 586v-6.8l-6.3-9.2h2.3l5 7.4 5-7.4h2.3l-6.3 9.2v6.8h-2z"/></g></g></svg>