<svg xmlns="http://www.w3.org/2000/svg" viewBox="0 0 37.19 29.2"><defs><style>.cls-1{fill:#fff;}</style></defs><title>Asset 1</title><g id="Layer_2" data-name="Layer 2"><g id="Layer_1-2" data-name="Layer 1"><path class="cls-1" d="M17.3,10.86A2,2,0,0,1,19.19,9.5V9h-4v.5h1.43a.5.5,0,0,1,.46.7h0L10.55,22.44,4,10.19a.5.5,0,0,1,.46-.7H5V9H0v.5a2,2,0,0,1,1.89,1.36L9.34,24.95h.5Z"/><path class="cls-1" d="M24.86,10.86A2,2,0,0,1,26.75,9.5V9h-4v.5h1.43a.5.5,0,0,1,.46.7h0L18.12,22.43,11.59,10.19A.5.5,0,0,1,12,9.5h.5V9h-5v.5a2,2,0,0,1,1.89,1.36l7.45,14.09h.5Z"/><polygon class="cls-1" points="34.62 0 19.16 29.2 21.73 29.2 37.19 0 34.62 0"/></g></g></svg>