<svg xmlns="http://www.w3.org/2000/svg" viewBox="0 0 584.19 293.33">
  <title>Design With Intent-Mobile</title>
  <g id="Layer_2" data-name="Layer 2">
    <g id="Layer_1-2" data-name="Layer 1">
      <g id="Layer_2-2" data-name="Layer 2">
        <g id="Layer_1-2-2" data-name="Layer 1-2">
          <g>
            <path d="M231.17,227V215.7h4.66a2.81,2.81,0,0,1,3.13,2.89,2.58,2.58,0,0,1-2,2.6,2.85,2.85,0,0,1,2.21,2.79,2.92,2.92,0,0,1-3.25,3.06Zm6.77-8.35a2,2,0,0,0-2.23-2.11h-3.57v4.2h3.57a2,2,0,0,0,2.23-2Zm.22,5.22a2.2,2.2,0,0,0-2.15-2.25h-3.87v4.49h3.64a2.14,2.14,0,0,0,2.38-2.21Z" fill="#999"/>
            <path d="M248.27,227l-3.18-4.69h-2.5V227h-1V215.7h4.23a3.21,3.21,0,0,1,3.45,3.31,3.11,3.11,0,0,1-3,3.26h-.18l3.28,4.76Zm0-8a2.35,2.35,0,0,0-2.26-2.43h-3.44v4.88h3.18a2.36,2.36,0,0,0,2.54-2.45Z" fill="#999"/>
            <path d="M259.93,227l-1.12-2.79h-6L251.69,227h-1.12l4.64-11.34h1.21L261.06,227Zm-4.11-10.3-2.69,6.63h5.35Z" fill="#999"/>
            <path d="M270.83,227l-7.14-9.74V227h-1V215.7h1l7.11,9.6v-9.6h1V227Z" fill="#999"/>
            <path d="M274.6,227V215.7h3.62a5.67,5.67,0,0,1,0,11.34h0Zm8.33-5.66a4.51,4.51,0,0,0-4.22-4.79h-3.14v9.57h2.65a4.5,4.5,0,0,0,4.71-4.74Z" fill="#999"/>
            <path d="M290.77,227V215.7h3.62a5.67,5.67,0,0,1,0,11.34h0Zm8.33-5.66a4.51,4.51,0,0,0-4.22-4.79h-3.14v9.57h2.65a4.5,4.5,0,0,0,4.71-4.74Z" fill="#999"/>
            <path d="M302.54,227V215.7h7.19v.88H303.5v4.2h6.1v.88h-6.1v4.49h6.22V227Z" fill="#999"/>
            <path d="M315.61,227,311,215.7h1.12l4.1,10.3,4.11-10.25h1.12L316.81,227Z" fill="#999"/>
            <path d="M323.12,227V215.7h7.19v.88h-6.22v4.2h6.1v.88h-6.1v4.49h6.22V227Z" fill="#999"/>
            <path d="M332.47,227V215.7h1v10.45H339V227Z" fill="#999"/>
            <path d="M339.88,221.38c0-3.31,2.18-5.86,5.51-5.86s5.51,2.55,5.51,5.86-2.19,5.86-5.51,5.86S339.88,224.69,339.88,221.38Zm10,0c0-2.87-1.77-5-4.49-5s-4.49,2.11-4.49,5,1.75,5,4.49,5S349.88,224.23,349.88,221.38Z" fill="#999"/>
            <path d="M353.3,227V215.7h4.25a3.32,3.32,0,0,1,.36,6.63h-3.64V227Zm6.65-8a2.34,2.34,0,0,0-2.24-2.43h-3.44v4.86h3.18a2.35,2.35,0,0,0,2.49-2.2q0-.11,0-.23Z" fill="#999"/>
            <path d="M372.63,227V216.92L368.49,227h-.37L364,216.92V227h-1V215.7h1.45l3.86,9.43,3.84-9.43h1.46V227Z" fill="#999"/>
            <path d="M376.43,227V215.7h7.19v.88H377.4v4.2h6.1v.88h-6.1v4.49h6.22V227Z" fill="#999"/>
            <path d="M394.13,227,387,217.3V227h-1V215.7h1l7.1,9.6v-9.6h1V227Z" fill="#999"/>
            <path d="M400.79,227V216.58h-3.71v-.88h8.4v.88h-3.71V227Z" fill="#999"/>
            <path d="M230.75,243.38a5.63,5.63,0,0,1,5.39-5.86h.36a5.39,5.39,0,0,1,4.27,1.94L240,240a4.62,4.62,0,0,0-3.54-1.58,5,5,0,0,0,0,10,4.79,4.79,0,0,0,3.33-1.38v-2.72h-4.28v-.87h5.25v4a5.72,5.72,0,0,1-4.3,1.89,5.65,5.65,0,0,1-5.72-5.58Q230.74,243.57,230.75,243.38Z" fill="#999"/>
            <path d="M249.9,249l-3.18-4.69h-2.5V249h-1V237.7h4.23A3.21,3.21,0,0,1,250.9,241a3.11,3.11,0,0,1-3,3.26h-.18L251,249Zm0-8a2.35,2.35,0,0,0-2.26-2.43H244.2v4.88h3.18a2.36,2.36,0,0,0,2.54-2.45Z" fill="#999"/>
            <path d="M261.57,249l-1.12-2.79h-6L253.32,249H252.2l4.64-11.34H258L262.69,249Zm-4.11-10.3-2.69,6.63h5.35Z" fill="#999"/>
            <path d="M264.35,249V237.7h4.25a3.32,3.32,0,0,1,.36,6.63h-3.64V249Zm6.65-8a2.34,2.34,0,0,0-2.24-2.43h-3.44v4.86h3.18A2.35,2.35,0,0,0,271,241Z" fill="#999"/>
            <path d="M282.22,249v-5.39H275V249h-1V237.7h1v5.07h7.19V237.7h1V249Z" fill="#999"/>
            <path d="M286,249V237.7h1V249Z" fill="#999"/>
            <path d="M289.38,243.38a5.63,5.63,0,0,1,5.39-5.86h.36a5.09,5.09,0,0,1,4.13,2l-.82.53a4.12,4.12,0,0,0-3.31-1.65,5,5,0,0,0,0,10,4.12,4.12,0,0,0,3.31-1.65l.83.51a5.14,5.14,0,0,1-4.15,2,5.63,5.63,0,0,1-5.74-5.51Q289.37,243.56,289.38,243.38Z" fill="#999"/>
            <path d="M305.61,249V237.7h3.62a5.67,5.67,0,0,1,0,11.34h0Zm8.33-5.66a4.51,4.51,0,0,0-4.22-4.79h-3.14v9.57h2.65a4.5,4.5,0,0,0,4.71-4.74Z" fill="#999"/>
            <path d="M317.38,249V237.7h7.19v.88h-6.22v4.2h6.1v.88h-6.1v4.49h6.22V249Z" fill="#999"/>
            <path d="M326.33,247.44l.63-.73a4.69,4.69,0,0,0,3.55,1.65c2.31,0,3-1.29,3-2.26,0-3.33-6.8-1.6-6.8-5.56,0-1.85,1.67-3,3.72-3a4.87,4.87,0,0,1,3.84,1.6l-.65.71a4.06,4.06,0,0,0-3.25-1.43c-1.51,0-2.65.87-2.65,2.09,0,2.91,6.8,1.31,6.8,5.54,0,1.46-1,3.21-4,3.21A5.27,5.27,0,0,1,326.33,247.44Z" fill="#999"/>
            <path d="M336.84,249V237.7h1V249Z" fill="#999"/>
            <path d="M340.21,243.38a5.63,5.63,0,0,1,5.39-5.86H346a5.39,5.39,0,0,1,4.27,1.94l-.73.53a4.62,4.62,0,0,0-3.5-1.59,5,5,0,0,0,0,10,4.79,4.79,0,0,0,3.33-1.38V244.3H345v-.87h5.25v4a5.72,5.72,0,0,1-4.3,1.89,5.65,5.65,0,0,1-5.75-5.55Q340.2,243.57,340.21,243.38Z" fill="#999"/>
            <path d="M360.83,249l-7.14-9.74V249h-1V237.7h1l7.1,9.6v-9.6h1V249Z" fill="#999"/>
            <path d="M239.86,271l-2.72-9.74L234.42,271h-1.09l-3.25-11.34h1.09l2.74,10,2.79-10h.88l2.77,10,2.74-10h1.09L240.94,271Z" fill="#999"/>
            <path d="M245.91,271V259.7h7.19v.88h-6.22v4.2H253v.88h-6.1v4.49h6.22V271Z" fill="#999"/>
            <path d="M255.5,271V259.7h4.66a2.81,2.81,0,0,1,3.13,2.89,2.58,2.58,0,0,1-2,2.6A2.85,2.85,0,0,1,263.5,268a2.92,2.92,0,0,1-3.25,3.06Zm6.77-8.35a2,2,0,0,0-2.23-2.11h-3.57v4.2H260a2,2,0,0,0,2.26-2.05Zm.22,5.22a2.2,2.2,0,0,0-2.15-2.25h-3.87v4.49h3.64a2.14,2.14,0,0,0,2.37-2.21Z" fill="#999"/>
            <path d="M270.35,271V259.7H274a5.67,5.67,0,1,1,0,11.3Zm8.33-5.66a4.51,4.51,0,0,0-4.22-4.79h-3.14v9.57H274a4.5,4.5,0,0,0,4.68-4.31q0-.22,0-.43Z" fill="#999"/>
            <path d="M282.12,271V259.7h7.19v.88h-6.22v4.2h6.1v.88h-6.1v4.49h6.22V271Z" fill="#999"/>
            <path d="M291.08,269.44l.63-.73a4.69,4.69,0,0,0,3.55,1.65c2.31,0,3-1.29,3-2.26,0-3.33-6.8-1.6-6.8-5.56,0-1.85,1.67-3,3.72-3a4.87,4.87,0,0,1,3.84,1.6l-.65.71a4.06,4.06,0,0,0-3.25-1.43c-1.51,0-2.65.87-2.65,2.09,0,2.91,6.8,1.31,6.8,5.54,0,1.46-1,3.21-4,3.21A5.27,5.27,0,0,1,291.08,269.44Z" fill="#999"/>
            <path d="M301.58,271V259.7h1V271Z" fill="#999"/>
            <path d="M305,265.38a5.63,5.63,0,0,1,5.39-5.86h.36a5.39,5.39,0,0,1,4.27,1.94l-.73.53a4.62,4.62,0,0,0-3.54-1.58,5,5,0,0,0,0,10A4.79,4.79,0,0,0,314,269v-2.72h-4.28v-.87H315v4a5.72,5.72,0,0,1-4.3,1.89,5.65,5.65,0,0,1-5.76-5.54Q304.94,265.57,305,265.38Z" fill="#999"/>
            <path d="M325.57,271l-7.14-9.74V271h-1V259.7h1l7.11,9.6v-9.6h1V271Z" fill="#999"/>
            <path d="M231.17,293V281.7h4.25a3.32,3.32,0,0,1,.36,6.63h-3.64V293Zm6.65-8a2.34,2.34,0,0,0-2.24-2.43h-3.44v4.86h3.18a2.35,2.35,0,0,0,2.5-2.43Z" fill="#999"/>
            <path d="M249,293v-5.39h-7.19V293h-1V281.7h1v5.07H249V281.7h1V293Z" fill="#999"/>
            <path d="M252.4,287.38c0-3.31,2.18-5.86,5.51-5.86s5.51,2.55,5.51,5.86-2.19,5.86-5.51,5.86S252.4,290.69,252.4,287.38Zm10,0c0-2.87-1.77-5-4.49-5s-4.49,2.11-4.49,5,1.75,5,4.49,5S262.4,290.23,262.4,287.38Z" fill="#999"/>
            <path d="M268.21,293V282.58H264.5v-.88h8.4v.88h-3.7V293Z" fill="#999"/>
            <path d="M274,287.38c0-3.31,2.18-5.86,5.51-5.86s5.51,2.55,5.51,5.86-2.19,5.86-5.51,5.86S274,290.69,274,287.38Zm10,0c0-2.87-1.77-5-4.49-5s-4.49,2.11-4.49,5,1.75,5,4.49,5S284,290.23,284,287.38Z" fill="#999"/>
            <path d="M287,287.38a5.63,5.63,0,0,1,5.39-5.86h.36a5.39,5.39,0,0,1,4.27,1.94l-.73.53a4.62,4.62,0,0,0-3.54-1.58,5,5,0,0,0,0,10,4.79,4.79,0,0,0,3.33-1.38v-2.72H291.8v-.87H297v4a5.72,5.72,0,0,1-4.3,1.89,5.65,5.65,0,0,1-5.71-5.59Q287,287.56,287,287.38Z" fill="#999"/>
            <path d="M306.14,293,303,288.35h-2.5V293h-1V281.7h4.23a3.21,3.21,0,0,1,3.45,3.31,3.11,3.11,0,0,1-3,3.26H304l3.28,4.76Zm0-8a2.35,2.35,0,0,0-2.26-2.43h-3.44v4.88h3.18a2.36,2.36,0,0,0,2.54-2.45Z" fill="#999"/>
            <path d="M317.8,293l-1.12-2.79h-6L309.56,293h-1.12l4.64-11.34h1.21L318.92,293Zm-4.11-10.3L311,289.37h5.35Z" fill="#999"/>
            <path d="M320.59,293V281.7h4.25a3.32,3.32,0,1,1,.36,6.63h-3.64V293Zm6.65-8a2.34,2.34,0,0,0-2.24-2.43h-3.44v4.86h3.18a2.35,2.35,0,0,0,2.5-2.43Z" fill="#999"/>
            <path d="M338.46,293v-5.39h-7.19V293h-1V281.7h1v5.07h7.19V281.7h1V293Z" fill="#999"/>
            <path d="M345.6,293v-4.84l-4.5-6.49h1.17l3.82,5.58,3.83-5.58h1.17l-4.5,6.49V293Z" fill="#999"/>
          </g>
          <g>
            <g>
              <path d="M229.79,196.59V123.06h15.72v73.53Z"/>
              <path d="M307.47,196.9l-35.21-48.13v47.92h-15.7V123.1h16.16l34.22,46.36V123.09h15.72v73.82Z"/>
              <path d="M349.76,197V137H328.15V123.16H387V137H365.56v60Z"/>
              <path d="M393.54,197.13V123.31h52.24v13.83H409.23v15.5H445v13.83H409.24v16.82h36.52v13.84Z"/>
              <path d="M504.52,197.54,469.3,149.41v48.14H453.6V123.73h16.16L504,170.1V123.73h15.72v73.82Z"/>
              <path d="M546.92,197.74v-60H525.31V123.92h58.88v13.83H562.72v60Z"/>
            </g>
            <g>
              <path d="M52.31,35H38.81V81.15h13.4C66.82,81.12,75.34,70.6,75.34,58,75.33,45,67.36,35,52.31,35Z"/>
              <path d="M453.6,0,0,.16V111l453.6-.16ZM52.33,95H23.11V21.18H52.19c23.13,0,39.19,14.71,39.19,36.84C91.39,80.34,75.35,95,52.33,95ZM99.5,95V21.18h52.24V34.94H115.19V50.45h35.75V64.27H115.2V81.11h36.52V94.93Zm91.77,1.3c-14.28,0-24.46-4.75-31.44-11.72l8.63-12.29a32.44,32.44,0,0,0,23.47,10c8.74,0,12.84-3.88,12.84-8.19,0-12.84-42.5-3.86-42.51-31.64,0-12.29,10.62-22.47,28-22.48C202,20,211.72,23.52,219,30.27L210.29,42a31.71,31.71,0,0,0-21.47-8.07c-6.64,0-10.4,2.88-10.4,7.31,0,11.62,42.39,3.75,42.4,31.31,0,13.45-9.74,23.68-29.55,23.69ZM229.75,95V21.14h15.72V95ZM295,96.21c-21.69,0-39.41-14.93-39.41-38.17s17.7-38.19,39.39-38.2c15.27,0,24.91,7.74,30.44,16.48L312.5,43.41A21.21,21.21,0,0,0,295,33.78c-13.5,0-23.24,10.3-23.23,24.25S281.53,82.26,295,82.26c6.53,0,12.62-2.88,15.6-5.65V67.76H291.15V54h35.2V82.36A40.83,40.83,0,0,1,295,96.21Zm91.89-1.36L351.71,46.71V94.85H336V21h16.16l34.2,46.4V21h15.72V94.85Z"/>
            </g>
            <g>
              <g>
                <path d="M149.64,131.43c1.82-4,4.63-6.24,8.67-6.24V122.9H140v2.29h6.55a2.29,2.29,0,0,1,2.09,3.2h0l-29.95,56.19-30-56.17a2.3,2.3,0,0,1,2.11-3.2h2.28v-2.29H70.27v2.29c4,0,6.85,2.28,8.67,6.23l34.23,64.63h2.29Z"/>
                <path d="M184.35,131.42c1.82-4,4.63-6.24,8.67-6.24v-2.29h-18.3v2.29h6.55a2.29,2.29,0,0,1,2.09,3.2h0l-29.94,56.15-30-56.13a2.3,2.3,0,0,1,2.11-3.2h2.28v-2.29H105v2.29c4,0,6.85,2.28,8.67,6.23l34.23,64.63h2.29Z"/>
              </g>
              <polygon points="223.2 95.64 158.92 217.19 170.72 217.18 235 95.64 223.2 95.64"/>
            </g>
          </g>
        </g>
      </g>
    </g>
  </g>
</svg>
