<svg xmlns="http://www.w3.org/2000/svg" viewBox="0 0 1283.35 450.04">
  <title>Design With Intent Graphic-Deskt-IE</title>
  <g id="Layer_2" data-name="Layer 2">
    <g id="Layer_1-2" data-name="Layer 1">
      <g>
        <path d="M475.09,449.73v-16h6.58c2.69,0,4.42,1.56,4.42,4.08a3.64,3.64,0,0,1-2.81,3.67,4,4,0,0,1,3.12,3.94c0,2.66-1.73,4.32-4.58,4.32Zm9.55-11.78a2.88,2.88,0,0,0-3.14-3h-5v5.93h5A2.85,2.85,0,0,0,484.64,437.95Zm.31,7.37a3.11,3.11,0,0,0-3.36-3.17h-5.14v6.34h5.14A3,3,0,0,0,485,445.32Z" fill="#383838"/>
        <path d="M499.23,449.73l-4.49-6.62h-3.53v6.62h-1.37v-16h6a4.54,4.54,0,0,1,4.87,4.68,4.4,4.4,0,0,1-4.44,4.61l4.63,6.72Zm0-11.33a3.32,3.32,0,0,0-3.55-3.43h-4.49v6.89h4.49A3.34,3.34,0,0,0,499.26,438.4Z" fill="#383838"/>
        <path d="M515.7,449.73l-1.58-3.94h-8.47l-1.58,3.94h-1.58l6.55-16h1.7l6.55,16Zm-5.81-14.55-3.79,9.36h7.56Z" fill="#383838"/>
        <path d="M531.08,449.73,521,436v13.75h-1.37v-16H521l10,13.56V433.72h1.37v16Z" fill="#383838"/>
        <path d="M536.41,449.73v-16h5.11a8,8,0,1,1,0,16Zm11.76-8c0-3.74-2.4-6.77-6.65-6.77h-3.74v13.51h3.74C545.75,448.48,548.17,445.48,548.17,441.74Z" fill="#383838"/>
        <path d="M559.23,449.73v-16h5.11a8,8,0,1,1,0,16Zm11.76-8c0-3.74-2.4-6.77-6.65-6.77H560.6v13.51h3.74C568.57,448.48,571,445.48,571,441.74Z" fill="#383838"/>
        <path d="M575.84,449.73v-16H586V435h-8.78v5.93h8.62v1.25h-8.62v6.34H586v1.25Z" fill="#383838"/>
        <path d="M594.3,449.73l-6.55-16h1.58l5.83,14.47L601,433.72h1.58l-6.55,16Z" fill="#383838"/>
        <path d="M604.9,449.73v-16h10.15V435h-8.78v5.93h8.62v1.25h-8.62v6.34h8.78v1.25Z" fill="#383838"/>
        <path d="M618.1,449.73v-16h1.39v14.76h7.75v1.25Z" fill="#383838"/>
        <path d="M628.57,441.74c0-4.68,3.07-8.28,7.78-8.28s7.78,3.6,7.78,8.28S641,450,636.34,450,628.57,446.42,628.57,441.74Zm14.11,0c0-4.06-2.5-7-6.34-7s-6.34,3-6.34,7,2.47,7,6.34,7S642.68,445.77,642.68,441.74Z" fill="#383838"/>
        <path d="M647.5,449.73v-16h6a4.68,4.68,0,1,1,0,9.36h-4.63v6.65Zm9.38-11.33a3.3,3.3,0,0,0-3.53-3.43h-4.49v6.86h4.49A3.31,3.31,0,0,0,656.89,438.4Z" fill="#383838"/>
        <path d="M674.79,449.73V435.45L669,449.73h-.53l-5.86-14.28v14.28h-1.37v-16h2L668.7,447l5.42-13.32h2.06v16Z" fill="#383838"/>
        <path d="M680.17,449.73v-16h10.15V435h-8.78v5.93h8.62v1.25h-8.62v6.34h8.78v1.25Z" fill="#383838"/>
        <path d="M705.15,449.73,695.07,436v13.75H693.7v-16h1.39l10,13.56V433.72h1.37v16Z" fill="#383838"/>
        <path d="M714.56,449.73V435h-5.23v-1.25h11.86V435H716v14.76Z" fill="#383838"/>
        <path d="M732.56,444a2.46,2.46,0,1,1,2.47-2.45A2.46,2.46,0,0,1,732.56,444Z" fill="#383838"/>
        <path d="M744.44,441.74a8,8,0,0,1,8.11-8.28,7.6,7.6,0,0,1,6,2.74l-1,.74a6.52,6.52,0,0,0-5-2.23c-3.74,0-6.67,2.86-6.67,7a6.68,6.68,0,0,0,11.38,5.11V443h-6v-1.22h7.42v5.59a8.08,8.08,0,0,1-6.07,2.66A8,8,0,0,1,744.44,441.74Z" fill="#383838"/>
        <path d="M771.49,449.73,767,443.11h-3.53v6.62H762.1v-16h6A4.54,4.54,0,0,1,773,438.4a4.4,4.4,0,0,1-4.44,4.61l4.63,6.72Zm0-11.33A3.32,3.32,0,0,0,768,435h-4.49v6.89H768A3.34,3.34,0,0,0,771.51,438.4Z" fill="#383838"/>
        <path d="M788,449.73l-1.58-3.94h-8.47l-1.58,3.94h-1.58l6.55-16H783l6.55,16Zm-5.81-14.55-3.79,9.36h7.56Z" fill="#383838"/>
        <path d="M791.89,449.73v-16h6a4.68,4.68,0,1,1,0,9.36h-4.63v6.65Zm9.38-11.33a3.3,3.3,0,0,0-3.53-3.43h-4.49v6.86h4.49A3.31,3.31,0,0,0,801.27,438.4Z" fill="#383838"/>
        <path d="M817.11,449.73v-7.61H807v7.61h-1.37v-16H807v7.15h10.15v-7.15h1.37v16Z" fill="#383838"/>
        <path d="M822.46,449.73v-16h1.37v16Z" fill="#383838"/>
        <path d="M827.21,441.74a8,8,0,0,1,8.11-8.28,7.19,7.19,0,0,1,5.83,2.83L840,437a5.82,5.82,0,0,0-4.68-2.33c-3.74,0-6.67,2.86-6.67,7a6.67,6.67,0,0,0,6.67,7,5.82,5.82,0,0,0,4.68-2.33l1.18.72a7.26,7.26,0,0,1-5.86,2.86A8,8,0,0,1,827.21,441.74Z" fill="#383838"/>
        <path d="M850.13,449.73v-16h5.11a8,8,0,1,1,0,16Zm11.76-8c0-3.74-2.4-6.77-6.65-6.77H851.5v13.51h3.74C859.47,448.48,861.89,445.48,861.89,441.74Z" fill="#383838"/>
        <path d="M866.74,449.73v-16h10.15V435h-8.78v5.93h8.62v1.25h-8.62v6.34h8.78v1.25Z" fill="#383838"/>
        <path d="M879.39,447.48l.89-1a6.62,6.62,0,0,0,5,2.33c3.26,0,4.2-1.82,4.2-3.19,0-4.7-9.6-2.26-9.6-7.85,0-2.62,2.35-4.27,5.26-4.27a6.88,6.88,0,0,1,5.42,2.26l-.91,1a5.73,5.73,0,0,0-4.58-2c-2.14,0-3.74,1.22-3.74,3,0,4.1,9.6,1.85,9.6,7.82,0,2.06-1.37,4.54-5.69,4.54A7.44,7.44,0,0,1,879.39,447.48Z" fill="#383838"/>
        <path d="M894.22,449.73v-16h1.37v16Z" fill="#383838"/>
        <path d="M899,441.74a8,8,0,0,1,8.11-8.28,7.6,7.6,0,0,1,6,2.74l-1,.74a6.52,6.52,0,0,0-5-2.23c-3.74,0-6.67,2.86-6.67,7a6.68,6.68,0,0,0,11.38,5.11V443h-6v-1.22h7.42v5.59a8.08,8.08,0,0,1-6.07,2.66A8,8,0,0,1,899,441.74Z" fill="#383838"/>
        <path d="M928.08,449.73,918,436v13.75h-1.37v-16H918l10,13.56V433.72h1.37v16Z" fill="#383838"/>
        <path d="M942,444a2.46,2.46,0,1,1,2.47-2.45A2.46,2.46,0,0,1,942,444Z" fill="#383838"/>
        <path d="M966.7,449.73,962.86,436,959,449.73h-1.54l-4.58-16h1.54l3.86,14.09,3.94-14.09h1.25l3.91,14.09,3.86-14.09h1.54l-4.56,16Z" fill="#383838"/>
        <path d="M975.24,449.73v-16H985.4V435h-8.78v5.93h8.62v1.25h-8.62v6.34h8.78v1.25Z" fill="#383838"/>
        <path d="M988.78,449.73v-16h6.58c2.69,0,4.42,1.56,4.42,4.08a3.64,3.64,0,0,1-2.81,3.67,4,4,0,0,1,3.12,3.94c0,2.66-1.73,4.32-4.58,4.32Zm9.55-11.78a2.88,2.88,0,0,0-3.14-3h-5v5.93h5A2.85,2.85,0,0,0,998.33,437.95Zm.31,7.37a3.11,3.11,0,0,0-3.36-3.17h-5.14v6.34h5.14A3,3,0,0,0,998.64,445.32Z" fill="#383838"/>
        <path d="M1009.75,449.73v-16h5.11a8,8,0,1,1,0,16Zm11.76-8c0-3.74-2.4-6.77-6.65-6.77h-3.74v13.51h3.74C1019.09,448.48,1021.52,445.48,1021.52,441.74Z" fill="#383838"/>
        <path d="M1026.36,449.73v-16h10.15V435h-8.79v5.93h8.62v1.25h-8.62v6.34h8.79v1.25Z" fill="#383838"/>
        <path d="M1039,447.48l.89-1a6.62,6.62,0,0,0,5,2.33c3.26,0,4.2-1.82,4.2-3.19,0-4.7-9.6-2.26-9.6-7.85,0-2.62,2.35-4.27,5.26-4.27a6.88,6.88,0,0,1,5.42,2.26l-.91,1a5.73,5.73,0,0,0-4.58-2c-2.14,0-3.75,1.22-3.75,3,0,4.1,9.6,1.85,9.6,7.82,0,2.06-1.37,4.54-5.69,4.54A7.44,7.44,0,0,1,1039,447.48Z" fill="#383838"/>
        <path d="M1053.84,449.73v-16h1.37v16Z" fill="#383838"/>
        <path d="M1058.59,441.74a8,8,0,0,1,8.11-8.28,7.6,7.6,0,0,1,6,2.74l-1,.74a6.52,6.52,0,0,0-5-2.23c-3.74,0-6.67,2.86-6.67,7a6.7,6.7,0,0,0,6.67,7.06,6.76,6.76,0,0,0,4.7-1.94V443h-6v-1.22h7.42v5.59a8.08,8.08,0,0,1-6.07,2.66A8,8,0,0,1,1058.59,441.74Z" fill="#383838"/>
        <path d="M1087.71,449.73,1077.63,436v13.75h-1.37v-16h1.39l10,13.56V433.72h1.37v16Z" fill="#383838"/>
        <path d="M1101.58,444a2.46,2.46,0,1,1,2.47-2.45A2.46,2.46,0,0,1,1101.58,444Z" fill="#383838"/>
        <path d="M1114.06,449.73v-16h6a4.68,4.68,0,1,1,0,9.36h-4.63v6.65Zm9.38-11.33a3.3,3.3,0,0,0-3.53-3.43h-4.49v6.86h4.49A3.31,3.31,0,0,0,1123.44,438.4Z" fill="#383838"/>
        <path d="M1139.28,449.73v-7.61h-10.15v7.61h-1.37v-16h1.37v7.15h10.15v-7.15h1.37v16Z" fill="#383838"/>
        <path d="M1144,441.74c0-4.68,3.07-8.28,7.78-8.28s7.78,3.6,7.78,8.28-3.1,8.28-7.78,8.28S1144,446.42,1144,441.74Zm14.11,0c0-4.06-2.5-7-6.34-7s-6.34,3-6.34,7,2.47,7,6.34,7S1158.15,445.77,1158.15,441.74Z" fill="#383838"/>
        <path d="M1166.35,449.73V435h-5.23v-1.25H1173V435h-5.23v14.76Z" fill="#383838"/>
        <path d="M1174.51,441.74c0-4.68,3.07-8.28,7.78-8.28s7.78,3.6,7.78,8.28-3.1,8.28-7.78,8.28S1174.51,446.42,1174.51,441.74Zm14.11,0c0-4.06-2.5-7-6.34-7s-6.34,3-6.34,7,2.47,7,6.34,7S1188.63,445.77,1188.63,441.74Z" fill="#383838"/>
        <path d="M1192.85,441.74a8,8,0,0,1,8.11-8.28,7.6,7.6,0,0,1,6,2.74l-1,.74a6.52,6.52,0,0,0-5-2.23c-3.74,0-6.67,2.86-6.67,7a6.7,6.7,0,0,0,6.67,7.06,6.76,6.76,0,0,0,4.7-1.94V443h-6v-1.22H1207v5.59A8.08,8.08,0,0,1,1201,450,8,8,0,0,1,1192.85,441.74Z" fill="#383838"/>
        <path d="M1219.9,449.73l-4.49-6.62h-3.53v6.62h-1.37v-16h6a4.54,4.54,0,0,1,4.87,4.68,4.4,4.4,0,0,1-4.44,4.61l4.63,6.72Zm0-11.33a3.32,3.32,0,0,0-3.55-3.43h-4.49v6.89h4.49A3.34,3.34,0,0,0,1219.92,438.4Z" fill="#383838"/>
        <path d="M1236.36,449.73l-1.58-3.94h-8.47l-1.58,3.94h-1.58l6.55-16h1.71l6.55,16Zm-5.81-14.55-3.79,9.36h7.56Z" fill="#383838"/>
        <path d="M1240.3,449.73v-16h6a4.68,4.68,0,1,1,0,9.36h-4.63v6.65Zm9.38-11.33a3.3,3.3,0,0,0-3.53-3.43h-4.49v6.86h4.49A3.31,3.31,0,0,0,1249.68,438.4Z" fill="#383838"/>
        <path d="M1265.52,449.73v-7.61h-10.15v7.61H1254v-16h1.37v7.15h10.15v-7.15h1.37v16Z" fill="#383838"/>
        <path d="M1275.6,449.73v-6.84l-6.36-9.17h1.66l5.4,7.87,5.4-7.87h1.66l-6.36,9.17v6.84Z" fill="#383838"/>
      </g>
      <g>
        <g>
          <path d="M475.83,407.07l-.06-152.25h32.54l.06,152.25Z" fill="#231f20"/>
          <path d="M636.68,407.72,563.76,308l0,99.22H531.26l-.06-152.39h33.46l70.85,96,0-96H668l.05,152.86Z" fill="#231f20"/>
          <path d="M724.24,407.87l0-124.22-44.69,0V255l121.92,0v28.65l-44.46,0,0,124.22Z" fill="#231f20"/>
          <path d="M814.9,408.2l-.05-152.86,108.17,0v28.65l-75.63,0v32.09l74,0v28.65l-74,0v34.84l75.63,0v28.65Z" fill="#231f20"/>
          <path d="M1044.7,409.05l-72.91-99.67,0,99.69H939.28l-.05-152.86h33.46l70.85,96,0-96H1076L1076.1,409Z" fill="#231f20"/>
          <path d="M1132.5,409.45l0-124.22-44.69,0V256.6l121.92,0v28.65l-44.46,0,0,124.22Z" fill="#231f20"/>
        </g>
        <g>
          <path d="M108.32,72.42h-28l0,95.57h27.73C138.37,168,156,146.2,156,120.07,156,93.26,139.49,72.41,108.32,72.42Z"/>
          <path d="M944.27,0,0,.33.08,229.92l944.27-.33ZM108.36,196.64l-60.5,0L47.8,43.8l60.27,0c47.9,0,81.14,30.45,81.16,76.29C189.25,166.36,156,196.62,108.36,196.64Zm97.67,0L206,43.74l108.17,0V72.35l-75.63,0v32.09l74,0v28.65l-74,0v34.84l75.63,0v28.65Zm190,2.68c-29.56,0-50.65-9.84-65.1-24.27l17.87-25.45a67.16,67.16,0,0,0,48.59,20.84c18.11,0,26.58-8,26.58-17,0-26.59-88-8-88-65.52,0-25.44,22-46.53,58-46.54,24.29,0,44.46,7.32,59.59,21.29L435.44,87C423.06,75.52,406.56,70.26,391,70.26c-13.75,0-21.54,6-21.54,15.13,0,24.06,87.78,7.76,87.8,64.83C457.25,178.18,437.09,199.27,396.07,199.29Zm79.68-2.78-.05-152.86h32.54l.05,152.86Zm135.18,2.7c-44.92,0-81.6-30.91-81.62-79,0-48.36,36.64-79.08,81.56-79.1,31.63,0,51.57,16,63,34.13L647.1,89.88C640,79.11,626.92,69.95,610.88,70c-28,0-48.12,21.33-48.11,50.21s20.19,50.18,48.14,50.17c13.52,0,26.12-6,32.31-11.7V140.3H602.89V111.9l72.88,0,0,58.67C660.2,188,638.43,199.2,610.93,199.21Zm190.27-2.82L728.28,96.73l0,99.69H695.77l-.05-152.86h33.46l70.85,96,0-96h32.54l.05,152.86Z"/>
        </g>
        <g>
          <g>
            <path d="M309.87,272.16c3.76-8.18,9.6-12.92,18-12.92V254.5H289.93v4.73h13.56a4.73,4.73,0,0,1,4.33,6.63h0l-62,116.36L183.76,265.91a4.76,4.76,0,0,1,4.36-6.63h4.72v-4.73l-47.33,0v4.73c8.35,0,14.19,4.73,18,12.91L234.34,406l0-.06h0l0,.06h4.73Z" fill="#231f20"/>
            <path d="M381.74,272.13c3.76-8.18,9.6-12.92,18-12.92v-4.73H361.81v4.73h13.56a4.73,4.73,0,0,1,4.33,6.63h0l-62,116.27L255.63,265.89a4.76,4.76,0,0,1,4.36-6.63h4.72v-4.73l-47.33,0v4.73c8.35,0,14.19,4.73,18,12.91L306.21,406l0-.06h0l0,.06h4.73Z" fill="#231f20"/>
          </g>
          <polygon points="462.19 198.05 329.07 449.73 353.51 449.72 486.62 198.05 462.19 198.05"/>
        </g>
      </g>
    </g>
  </g>
</svg>
