<svg xmlns="http://www.w3.org/2000/svg" viewBox="0 0 245.78 235.97">
  <title>Cineplex-VIP-Logo</title>
  <g id="Layer_2" data-name="Layer 2">
    <g id="Layer_3" data-name="Layer 3">
      <g>
        <path d="M115.88,49.91h-.36C88.94,49.34,68.1,43.58,68.1,36.78c0-6.33,19.16-14.07,44.82-14.94h.41l-.37-2.2-1.53.06c-20,.75-37.18,4.08-45.94,8.9-3.84,2.14-5.79,4.4-5.79,6.75s2,4.63,5.79,6.72c9.32,5.16,28.46,8.62,49.92,9l.48,0c.47,0,.82-.27.82-.61s-.36-.61-.82-.61" fill="#e5a423"/>
        <path d="M115.55,54.85l-.72,0c-37.09-.76-66.15-9.38-66.15-19.58,0-9.13,24.47-19.94,60.88-21.45l2.85-.12L112,10.19l-2.73,0c-28.14,1-53.36,6-65.84,13C37.81,26.42,35,29.8,35,33.3s2.85,6.89,8.46,10C56.9,50.91,84.23,55.95,114.73,56.5l.81,0c.69,0,1.22-.37,1.22-.85s-.53-.82-1.2-.82" fill="#e5a423"/>
        <path d="M114.73,60l-.76,0C63.13,59,23.29,47.21,23.29,33.05s39-27.3,85.14-28.88l2.66-.07L110.62,0h-2.81C67.9,1.19,32.33,8,14.94,17.75,7.51,22,3.74,26.41,3.74,31s3.77,9.1,11.2,13.28c18.48,10.37,56.38,17.22,98.9,17.89h.88c1,0,1.68-.49,1.68-1.12S115.69,60,114.73,60" fill="#e5a423"/>
        <path d="M122.94,49.91h.37c26.6-.56,47.44-6.32,47.44-13.12,0-6.33-19.17-14.07-44.84-14.94h-.39l.38-2.2,1.53.06c20,.75,37.16,4.08,45.93,8.9,3.86,2.14,5.79,4.4,5.79,6.75s-1.94,4.63-5.79,6.72c-9.32,5.16-28.46,8.62-49.93,9l-.47,0c-.48,0-.85-.27-.85-.61s.37-.61.82-.61" fill="#e5a423"/>
        <path d="M123.29,54.85l.74,0c37.09-.76,66.15-9.38,66.15-19.58,0-9.13-24.47-19.94-60.88-21.45l-2.85-.12.42-3.49,2.71,0c28.14,1,53.38,6,65.87,13,5.6,3.18,8.45,6.56,8.45,10.06s-2.85,6.89-8.45,10C182,50.91,154.62,55.95,124.11,56.5l-.81,0c-.69,0-1.22-.37-1.22-.85s.53-.82,1.2-.82" fill="#e5a423"/>
        <path d="M124.11,60l.77,0c50.85-.92,90.68-12.74,90.68-26.9s-39-27.3-85.14-28.88l-2.66-.07.49-4.1H131c39.89,1.19,75.49,8,92.86,17.75,7.43,4.2,11.2,8.66,11.2,13.27s-3.77,9.1-11.2,13.28C205.43,54.68,167.55,61.53,125,62.2h-.9c-1,0-1.69-.49-1.69-1.12s.74-1.11,1.69-1.11" fill="#e5a423"/>
        <path d="M52.88,177.27,25,111.7H0l42,94.13H63.53l38.75-94.13H78.88Zm54.84,28.56h24v-94h-24ZM234.57,118c-7.35-4.27-17.53-6.4-30.36-6.4l-60-.09V205.8h23.63V168l36.52,0c12.84,0,23-2.09,30.37-6.36s11-11.52,11-21.74-3.86-17.65-11.21-21.93m-20,30.16a23,23,0,0,1-10.26,2.11H167.85v-21l36.43,0c7.27-.34,10.48,1.9,10.48,1.9,3.09,1.9,4,4.44,4,8.58s-1.42,6.91-4.26,8.34"/>
        <path d="M60.44,223.43c-.23-2.77-1.1-3.94-2.6-3.94-2.21,0-3.18,2-3.18,7.44s1,7.42,3.18,7.42c1.78,0,2.8-1.22,2.86-4.48h1.89c0,3.9-1.76,6.1-4.75,6.1s-5.08-2.38-5.08-9,1.94-9,5.08-9c2.6,0,4.21,1.8,4.51,5.55Z"/>
        <rect x="75.31" y="218.13" width="1.9" height="17.59"/>
        <polygon points="93.05 218.13 97.57 231.08 97.62 231.08 97.62 218.13 99.53 218.13 99.53 235.72 97.47 235.72 92.02 220.41 91.97 220.41 91.97 235.72 90.06 235.72 90.06 218.13 93.05 218.13"/>
        <polygon points="120.28 218.13 120.28 219.74 114.14 219.74 114.14 225.73 118.67 225.73 118.67 227.34 114.14 227.34 114.14 234.11 120.56 234.11 120.56 235.72 112.24 235.72 112.24 218.13 120.28 218.13"/>
        <polygon points="135.58 218.13 138.65 231.44 138.7 231.44 141.69 218.13 144.71 218.13 144.71 235.72 142.96 235.72 142.96 219.59 142.91 219.59 139.25 235.72 138.01 235.72 134.35 219.59 134.31 219.59 134.31 235.72 132.56 235.72 132.56 218.13 135.58 218.13"/>
        <path d="M162.55,218.12l3.87,17.61h-1.9l-1-5.22H159l-1.06,5.22H156l3.87-17.61Zm-3.29,10.78h3.94l-1.94-9.45h-.06Z"/>
        <path d="M184.27,222.66c-.15-1.81-.87-3.17-2.7-3.17a2.25,2.25,0,0,0-2.41,2.32c0,4,7.06,4,7.06,9.66,0,2.81-1.61,4.48-4.51,4.48s-4.41-2-4.46-5H179c0,2.06,1,3.35,2.9,3.35,1.58,0,2.6-1,2.6-2.9,0-4-7.06-4.46-7.06-9.47a3.93,3.93,0,0,1,4.24-4.1c2.53,0,4.2,1.71,4.33,4.78Z"/>
        <path d="M30.63,95.61l3.07,3.93a36.74,36.74,0,0,1-5.61,2.95,27.46,27.46,0,0,1-4.38,1.24,26.25,26.25,0,0,1-5.24.47,23.77,23.77,0,0,1-6-.85,15.41,15.41,0,0,1-5.29-2.47,13.75,13.75,0,0,1-3.76-4.21A11.67,11.67,0,0,1,2,90.81,11.51,11.51,0,0,1,3.43,85a13.24,13.24,0,0,1,3.83-4.17,16.72,16.72,0,0,1,5.45-2.53A23.57,23.57,0,0,1,19,77.43a27.27,27.27,0,0,1,4.58.43,21.17,21.17,0,0,1,3.67.95,15,15,0,0,1,5,2.57l-2.95,3.84a15,15,0,0,0-4.95-2.65,16.64,16.64,0,0,0-1.66-.39,18.53,18.53,0,0,0-3.63-.33,15.42,15.42,0,0,0-4.33.57,10.2,10.2,0,0,0-3.39,1.69,7.63,7.63,0,0,0-2.25,2.79,8.75,8.75,0,0,0-.79,3.81,8.24,8.24,0,0,0,.88,3.84,9.76,9.76,0,0,0,2.35,2.91,9.87,9.87,0,0,0,3.3,1.83,11.59,11.59,0,0,0,3.76.64,16.92,16.92,0,0,0,3.63-.42,24.06,24.06,0,0,0,3.38-1,17.64,17.64,0,0,0,5-2.9"/>
        <path d="M119.41,104h-6.35V77.95h17.56q5.36,0,8,1.72t2.68,6q0,4.27-2.68,5.92c-1.78,1.08-4.46,1.63-8,1.63H119.4Zm11.09-15.24a7.26,7.26,0,0,0,3.19-.61A2.53,2.53,0,0,0,135,85.67a2.75,2.75,0,0,0-1.29-2.59,6.32,6.32,0,0,0-3.19-.74H119.4v6.47Z"/>
        <path d="M239.48,81.2a2,2,0,0,1-1.44.61,2,2,0,0,1-1.45-.61,2.06,2.06,0,0,1,0-2.88,2,2,0,0,1,1.45-.6,2,2,0,0,1,1.44.6,2,2,0,0,1,0,2.88m-2.68-2.69a1.71,1.71,0,0,0-.52,1.25,1.74,1.74,0,0,0,.5,1.24,1.76,1.76,0,0,0,2.49,0A1.76,1.76,0,0,0,238,78a1.66,1.66,0,0,0-1.24.52m1.2.11a1.72,1.72,0,0,1,.6.09.57.57,0,0,1,.36.58.5.5,0,0,1-.22.44,1,1,0,0,1-.32.1.53.53,0,0,1,.38.22.68.68,0,0,1,.12.34v.33a.63.63,0,0,0,0,.12v0h-.37s0,0,0,0v-.27a.57.57,0,0,0-.21-.52.92.92,0,0,0-.44-.07h-.31v.88h-.39V78.62Zm.42.36a1.11,1.11,0,0,0-.48-.09h-.33v.81H238a1.33,1.33,0,0,0,.38,0,.35.35,0,0,0,.23-.36.36.36,0,0,0-.15-.33" fill="#fff"/>
        <rect x="36.48" y="77.87" width="6.31" height="26.2"/>
        <polygon points="47.39 77.87 47.39 104.07 52.94 104.07 52.94 84.72 72.74 104.11 78.23 104.11 78.23 77.91 72.7 77.91 72.7 96.04 53.87 77.91 47.39 77.87"/>
        <polygon points="109.21 104.07 109.21 99.69 89.28 99.69 89.28 92.66 102.78 92.66 102.78 88.27 89.28 88.27 89.28 82.29 108.63 82.29 108.63 77.87 82.92 77.87 82.92 104.07 109.21 104.07"/>
        <polygon points="202.19 104.07 202.19 99.69 182.25 99.69 182.25 92.66 195.77 92.66 195.77 88.27 182.25 88.27 182.25 82.29 201.62 82.29 201.62 77.87 175.9 77.87 175.9 104.07 202.19 104.07"/>
        <polygon points="144.86 77.87 144.86 104.1 171.99 104.1 171.99 99.72 151.12 99.72 151.12 77.86 144.86 77.87"/>
        <polygon points="204.41 77.9 216.07 90.96 204.19 104.09 211.62 104.09 219.68 95.06 227.74 104.07 235.96 104.07 223.67 90.64 235.12 77.89 227.89 77.89 220.01 86.62 212.06 77.9 204.41 77.9"/>
      </g>
    </g>
  </g>
</svg>
