<svg xmlns="http://www.w3.org/2000/svg" viewBox="0 0 1802.18 904.35">
  <title>Gladly Beyond-02-Logo</title>
  <g id="Layer_2" data-name="Layer 2">
    <g id="Layer_3" data-name="Layer 3">
      <rect width="1802.18" height="904.35" fill="#1a7ec2"/>
      <g>
        <path d="M783.56,496.33a15.09,15.09,0,0,1-7.63-2,13.26,13.26,0,0,1-5.3-5.52v6.88h-2.27V452.92h2.27v18.42q3.66-7.44,13-7.45,7.32,0,11.42,4.73,3.78,4.35,3.78,11.67t-4,11.67Q790.82,496.33,783.56,496.33Zm.28-30.35q-6.61,0-10.07,4.1-3.15,3.72-3.15,10.35a13.92,13.92,0,0,0,3.65,9.94,12.6,12.6,0,0,0,9.63,3.88q6.1,0,9.5-4.1a15,15,0,0,0,3.15-9.91q0-6.31-3.15-10.1Q790,466,783.84,466Z" fill="#fff"/>
        <path d="M804.8,481q.38,13.31,13.09,13.31a14.61,14.61,0,0,0,7.59-2,11,11,0,0,0,4.75-5.74h2.33a12.79,12.79,0,0,1-5.8,7.63,18,18,0,0,1-9,2.15q-7.57,0-11.55-4.42-3.66-4.16-3.66-11.61,0-7.19,4.2-11.7T818,464.15q7.07,0,11.29,4.05t4.23,11V481Zm13.28-14.76a12.77,12.77,0,0,0-9.31,3.44,13.87,13.87,0,0,0-4,9.24h26.12a12.87,12.87,0,0,0-3.59-9.24A12.55,12.55,0,0,0,818.08,466.23Z" fill="#fff"/>
        <path d="M849.2,507a16.89,16.89,0,0,1-9-2.13q-4.17-2.64-4.48-8.22l2.27-.06q.69,8.33,11.29,8.33,12.24,0,12.24-10.54v-4q-3.28,6.31-11.8,6.31-5.74,0-9.15-2.93t-3.41-8.55V464.91h2.27v20.23q0,4.68,2.74,7a11.15,11.15,0,0,0,7.54,2.37q5.87,0,9-3.6,2.84-3.35,2.84-9.17V464.91h2.27v29.53Q863.84,507,849.2,507Z" fill="#fff"/>
        <path d="M883.31,496.39q-7.32,0-11.61-4.54-4.17-4.35-4.16-11.55t4.32-11.74q4.32-4.41,11.58-4.42T895,468.57q4.29,4.42,4.29,11.74T894.92,492Q890.56,496.39,883.31,496.39Zm.06-30.16q-6.31,0-9.94,3.85t-3.63,10.22a14.13,14.13,0,0,0,3.66,10.16q3.66,3.85,9.91,3.85t9.94-3.85A14.06,14.06,0,0,0,897,480.3q0-6.44-3.63-10.25T883.37,466.23Z" fill="#fff"/>
        <path d="M927.32,495.7V475.45a8.5,8.5,0,0,0-2.78-6.85,11.1,11.1,0,0,0-7.45-2.37,11.35,11.35,0,0,0-8.67,3.38,12.29,12.29,0,0,0-3.19,8.8V495.7H903V464.91h2.27v5.55q3.15-6.31,11.8-6.31a13.81,13.81,0,0,1,8.83,2.65,9.49,9.49,0,0,1,3.72,8V495.7Z" fill="#fff"/>
        <path d="M961.62,495.7v-6.94q-4,7.64-13.31,7.63-7.13,0-11.17-4.67-3.85-4.42-3.85-11.48t3.85-11.61q4.16-4.73,11.42-4.73,9.27,0,13.06,7.51V452.92h2.27V495.7ZM948.28,466a11.55,11.55,0,0,0-9.5,4.29,15.35,15.35,0,0,0-3.21,10,15,15,0,0,0,3.15,9.91,11.76,11.76,0,0,0,9.57,4.16,12.45,12.45,0,0,0,9.76-4.16,14.09,14.09,0,0,0,3.59-9.91q0-6.5-3.46-10.38T948.28,466Z" fill="#fff"/>
        <path d="M875.39,443a40.73,40.73,0,0,1-19.06,4.36c-14.18,0-24.51-9.3-24.51-23.87s10.33-23.87,24.51-23.87c7.19,0,13.54,1.6,18.09,5.84l-7.06,7.7c-2.7-2.82-6-4.3-11-4.3-8.53,0-14.12,6.16-14.12,14.63s5.58,14.63,14.12,14.63a19.59,19.59,0,0,0,9.43-2.25v-7.38h-8.15V419.3h17.77Z" fill="#f2f2f2"/>
        <path d="M879.54,398.51h9.62V447h-9.62Z" fill="#f2f2f2"/>
        <path d="M913.58,443.17h-.13c-2.12,3.34-6,4.68-9.88,4.68-5.84,0-11.1-3.34-11.1-9.62,0-10.78,13.09-11,21.11-11,0-3.4-2.82-5.58-6.16-5.58a10.28,10.28,0,0,0-7.83,3.72l-5.13-5.26a20.12,20.12,0,0,1,13.73-5c11.23,0,14.24,5.71,14.24,16.1v15.85h-8.85Zm-2.37-9.75c-3,0-9.5.26-9.5,4.49,0,2.31,2.44,3.4,4.56,3.4,3.78,0,7.31-2,7.31-5.84v-2.05Z" fill="#f2f2f2"/>
        <path d="M959.62,447h-8.86v-4.11h-.13a12.09,12.09,0,0,1-9.56,4.88c-9.24,0-15.34-6.67-15.34-16.1,0-8.66,5.39-16.62,14.24-16.62,4,0,7.7,1.09,9.88,4.11H950V398.51h9.62Zm-16.55-23.48c-4.81,0-7.7,3.21-7.7,7.89s2.89,7.89,7.7,7.89,7.7-3.21,7.7-7.89S947.88,423.53,943.07,423.53Z" fill="#f2f2f2"/>
        <path d="M965.12,398.51h9.62V447h-9.62Z" fill="#f2f2f2"/>
        <path d="M997.57,455.56c-2.57,6.61-4,10.33-13.22,10.33a22.77,22.77,0,0,1-7.19-1.16l1.28-7.89a10.87,10.87,0,0,0,4.49,1c4.36,0,5.07-1.86,6.42-5.26l.71-1.8L976.4,419.31h10.39l8,20.6h.13l6.87-20.6h9.88Z" fill="#f2f2f2"/>
        <path d="M969,487.87a4.58,4.58,0,0,1,3.19-1.26,4.85,4.85,0,0,1,3.19,1.14,4.2,4.2,0,0,1,1.37,3.42,4,4,0,0,1-1.2,3.11,5,5,0,0,1-2.63,1.33l-.37.06-.37,0-.37,0-.37-.06a5,5,0,0,1-2.63-1.33,4,4,0,0,1-1.2-3.11A4.27,4.27,0,0,1,969,487.87Z" fill="#9e1d20"/>
      </g>
    </g>
  </g>
</svg>
