<svg id="Layer_1" data-name="Layer 1" xmlns="http://www.w3.org/2000/svg" viewBox="0 0 30.89 25.11"><defs><style>.cls-1{fill:#fff;}</style></defs><title>twitter</title><path id="_Path_" data-name="&lt;Path&gt;" class="cls-1" d="M9.72,25.11c11.66,0,18-9.66,18-18,0-.27,0-.55,0-.82A12.9,12.9,0,0,0,30.89,3a12.65,12.65,0,0,1-3.64,1A6.36,6.36,0,0,0,30,.46,12.7,12.7,0,0,1,26,2a6.34,6.34,0,0,0-10.8,5.78A18,18,0,0,1,2.15,1.16a6.34,6.34,0,0,0,2,8.46,6.29,6.29,0,0,1-2.87-.79s0,.05,0,.08a6.34,6.34,0,0,0,5.09,6.21,6.33,6.33,0,0,1-2.86.11,6.35,6.35,0,0,0,5.92,4.4,12.72,12.72,0,0,1-7.87,2.71A12.9,12.9,0,0,1,0,22.26a17.94,17.94,0,0,0,9.72,2.85"/></svg>