<svg id="Layer_1" data-name="Layer 1" xmlns="http://www.w3.org/2000/svg" viewBox="0 0 25.56 24.89"><defs><style>.cls-1{fill:#fff;}</style></defs><title>instagram</title><path class="cls-1" d="M20.93,0H4.64A4.59,4.59,0,0,0,0,4.51V20.37a4.59,4.59,0,0,0,4.64,4.51H20.93a4.59,4.59,0,0,0,4.64-4.51V4.51A4.59,4.59,0,0,0,20.93,0Zm-3,3.5a1,1,0,0,1,1-1h3a1,1,0,0,1,1,.82.83.83,0,0,1,0,.16q0,1.46,0,2.91a1,1,0,0,1-.85,1H19a1,1,0,0,1-1-.85,1,1,0,0,1,0-.14Q17.92,4.95,17.92,3.5ZM12.78,7.39a5,5,0,0,1,5.14,4.88,5,5,0,0,1-5.14,4.88,5,5,0,0,1-5.14-4.88A5,5,0,0,1,12.78,7.39Zm10.27,3.06v8.67c0,.64,0,1.28,0,1.92a1,1,0,0,1-.82,1,1.47,1.47,0,0,1-.29,0H3.62a1.39,1.39,0,0,1-.4,0,1,1,0,0,1-.71-.85c0-.05,0-.11,0-.16V10.32H4.82a7.36,7.36,0,0,0,.8,5.78,7.86,7.86,0,0,0,3.21,3,8.26,8.26,0,0,0,4.35,1A8.25,8.25,0,0,0,19.4,16.9a7.46,7.46,0,0,0,1.35-6.58h2.31Z"/></svg>