<svg xmlns="http://www.w3.org/2000/svg" viewBox="0 0 640 639.99">
  <title>5thAvenue-01-Logo</title>
  <g id="Layer_2" data-name="Layer 2">
    <g id="Layer_3" data-name="Layer 3">
      <g>
        <g>
          <path d="M75,107.23v24.58c0,9.76-6.3,16.68-15.32,16.68-9.76,0-15.19-6.92-15.19-16.68v-8H56.89v9.39c0,1.73.86,3,2.59,3s2.59-1.24,2.59-3V108.46c0-2-.86-3.09-2.47-3.09S57,106.61,57,108.46V112H44.53V65h29.4V77.33H56.76V94.63a9.38,9.38,0,0,1,5.56-1.48C70,93.14,75,98.83,75,107.23Z"/>
          <path d="M100.37,77.45v69.8H87.65V77.45H78.38V65h31.25V77.45Z"/>
          <path d="M134.71,147.25V113.4h-7v33.85H114.82V65h12.85v35.58h7V65h12.85v82.27Z"/>
        </g>
        <g>
          <path d="M55.52,224.48l-1.61,14.08H42.43l11-82.27h12l11,82.27H63.8l-1.24-14.08Zm5.93-11.74-2-22.85-2.59,22.85Z"/>
          <path d="M87.64,156.29,92.21,205,98,156.29h11.49L98.27,238.57h-12L75,156.29Z"/>
          <path d="M114.7,238.57V156.29H141.5v11.86h-14v22.48h9.26v11.24h-9.26v24.83h14v11.86Z"/>
          <path d="M159.3,156.29l5.81,21.87c1.36,5.19,4.57,18.9,5.44,23.84h.25c-.49-4.57-1.11-23.72-1.11-28V156.29h12.11v82.27H168.93l-5.44-20.51c-1.36-4.94-4.32-18.28-5.19-23.1h-.25c.49,4.32,1,23.1,1,27.18l.12,16.43H146.94V156.29Z"/>
          <path d="M204.14,239.8c-8.89,0-15.81-6.79-15.81-16.18V156.29h12.85v67.82c0,2.1,1.23,3.34,3,3.34s3-1.24,3-3.34V156.29H220v67.33C220,233,213,239.8,204.14,239.8Z"/>
          <path d="M226.5,238.57V156.29h26.81v11.86h-14v22.48h9.27v11.24h-9.27v24.83h14v11.86Z"/>
        </g>
        <g>
          <path d="M43.61,245.7h6.53c3.76,0,7.16,1.32,7.16,5.63,0,4.89-3.65,5.76-7.77,5.76H47.07v8H43.61Zm5.54,8.43c2,0,4.53-.11,4.53-2.75,0-2.39-2.28-2.72-4.15-2.72H47.07v5.46Z"/>
          <path d="M59.7,245.7h6.75c3.73,0,7.25,1.21,7.25,5.57a5,5,0,0,1-4.5,5.27l5.16,8.59H70.18l-4.5-8.24H63.16v8.24H59.7Zm6.15,8.23c1.95,0,4.23-.16,4.23-2.69,0-2.31-2.14-2.58-3.93-2.58h-3v5.27Z"/>
          <path d="M85.56,245.21c6.07-.11,10.35,4,10.35,10.18,0,6.07-4.28,10.13-10.35,10.24s-10.27-4.06-10.27-10.13C75.29,249.27,79.58,245.21,85.56,245.21Zm0,17.29c4,0,6.7-3.07,6.7-7.22a6.69,6.69,0,1,0-13.37,0C78.92,259.43,81.58,262.5,85.59,262.5Z"/>
          <path d="M114.08,258c0,4.69-3.38,7.63-7.82,7.63s-7.82-2.94-7.82-7.63V245.7h3.46v12.19a4.37,4.37,0,1,0,8.73,0V245.7h3.46Z"/>
          <path d="M117.68,245.7h7.66c5.11,0,9.88,3.13,9.88,9.72s-5.63,9.72-10.29,9.72h-7.25Zm6,16.31c4.34,0,7.88-1.87,7.88-6.59s-3.07-6.59-7.3-6.59h-3.16V262Z"/>
          <path d="M137.86,245.7h3.46V262h8.26v3.13H137.86Z"/>
          <path d="M156.17,256.82l-7.3-11.12h4.34l4.78,7.74,4.83-7.74h4.12l-7.3,11.12v8.32h-3.46Z"/>
          <path d="M175.53,245.7H179V262h8.26v3.13H175.53Z"/>
          <path d="M198.31,245.21c6.07-.11,10.35,4,10.35,10.18,0,6.07-4.28,10.13-10.35,10.24S188,261.57,188,255.5C188,249.27,192.33,245.21,198.31,245.21Zm0,17.29c4,0,6.7-3.07,6.7-7.22a6.69,6.69,0,1,0-13.37,0C191.67,259.43,194.33,262.5,198.34,262.5Z"/>
          <path d="M224.64,250.26a5.3,5.3,0,0,0-4.09-1.92,6.59,6.59,0,0,0-6.67,6.95c0,4.14,2.66,7.22,6.67,7.22a5.46,5.46,0,0,0,4.37-2.36l2.85,2a8.6,8.6,0,0,1-7.25,3.46c-6,0-10.27-4.06-10.27-10.13,0-6.23,4.28-10.29,10.27-10.29a8.45,8.45,0,0,1,6.81,3.07Z"/>
          <path d="M235.7,245.7h3l8.37,19.43h-4l-1.81-4.45h-8.43l-1.76,4.45h-3.87Zm4.39,12-3-7.91-3,7.91Z"/>
          <path d="M248.58,245.7H252V262h8.26v3.13H248.58Z"/>
        </g>
      </g>
      <g>
        <polygon points="320 0 320 320 640 0 320 0" fill="#4d4d4f"/>
        <polygon points="320 320 320 640 640 320 320 320" fill="#b1b3b5"/>
        <polygon points="0 320 0 639.99 320 320 0 320" fill="#fff"/>
      </g>
    </g>
  </g>
</svg>
